<svg width="214" height="218" viewBox="0 0 214 218" fill="none" xmlns="http://www.w3.org/2000/svg">
<path d="M143.504 6.7C142.808 10.58 139.392 13.356 138.056 16.62C137.956 16.8718 137.794 17.0948 137.584 17.268C135.253 19.1827 134.538 21.1347 135.44 23.124C120.912 17.508 105.848 12.908 90.4716 10.332C90.3436 10.1507 90.2691 10.1133 90.2478 10.22C87.3518 5.132 94.3438 5.38003 93.4478 0.964027C110.605 -1.03064 127.29 0.881336 143.504 6.7Z" fill="#83B890"/>
<path d="M93.4478 0.964027C94.3438 5.38003 87.3518 5.132 90.2478 10.22L80.1437 9.58809L80.3838 9.45202C80.4936 9.38782 80.5812 9.29161 80.6348 9.17626C80.6883 9.0609 80.7054 8.93193 80.6837 8.80661C80.6619 8.68129 80.6024 8.56562 80.513 8.47508C80.4237 8.38454 80.3088 8.32346 80.1838 8.30003L76.2398 7.57203C75.9678 7.52403 75.7918 7.36936 75.7118 7.10802L75.0958 5.12407C81.0425 3.14007 87.1598 1.75336 93.4478 0.964027Z" fill="#9CC49A"/>
<path d="M75.0958 5.12407L75.7118 7.10802C75.7918 7.36936 75.9678 7.52403 76.2398 7.57203L80.1838 8.30003C80.3088 8.32346 80.4237 8.38454 80.513 8.47508C80.6024 8.56562 80.6619 8.68129 80.6837 8.80661C80.7054 8.93193 80.6883 9.0609 80.6348 9.17626C80.5812 9.29161 80.4936 9.38782 80.3838 9.45202L80.1437 9.58809C65.9597 11.2041 58.4637 21.2281 55.9597 34.7641L55.0318 40.4681C54.9891 40.7401 54.8371 40.8361 54.5758 40.7561L54.0798 40.5961C43.8158 38.3881 31.5117 38.572 24.8157 47.788C23.5677 49.948 22.9169 51.9534 22.8636 53.8041C22.6823 60.1081 22.8449 67.3588 23.3516 75.5561C22.4503 75.5081 22.0958 74.4627 22.2878 72.42C22.3198 72.0894 22.1731 71.9614 21.8478 72.036C19.4478 72.5907 17.1198 72.4867 14.8638 71.724L13.8717 71.38C13.605 71.284 13.517 71.1026 13.6077 70.836C15.0557 66.508 16.6237 62.7 21.0317 61.02C21.3143 60.908 21.4477 60.7026 21.4317 60.404C21.2983 58.004 21.4103 55.6253 21.7676 53.268C21.8796 52.5426 21.5783 52.268 20.8637 52.444C20.341 52.5666 19.6823 52.3986 18.8876 51.94C18.7916 51.8845 18.6845 51.8495 18.5731 51.8371C18.4616 51.8247 18.3481 51.8352 18.2397 51.868L15.5517 52.7399C21.9623 41.1986 30.4343 31.2893 40.9677 23.0119C51.149 15.0706 62.5251 9.10807 75.0958 5.12407Z" fill="#BBDAB0"/>
<path d="M143.504 6.7C165.808 14.844 184.36 30.8281 196.944 50.9481L194.296 53.508C194.104 53.6947 193.874 53.7694 193.608 53.7321L191.384 53.4601C191.293 53.4494 191.256 53.3987 191.272 53.308L191.296 53.1001C191.344 52.7641 191.248 52.7161 191.008 52.9561L190.352 53.6281C189.749 50.3854 188.237 47.9934 185.816 46.4521C175.352 39.8121 163.488 33.9961 150.224 29.0041L135.44 23.124C134.538 21.1347 135.253 19.1827 137.584 17.268C137.794 17.0948 137.956 16.8718 138.056 16.62C139.392 13.356 142.808 10.58 143.504 6.7Z" fill="#67AA79"/>
<path d="M80.1437 9.58809L90.2478 10.22C90.2691 10.1133 90.3436 10.1507 90.4716 10.332C90.3756 10.3907 90.309 10.4734 90.2717 10.58C90.1863 10.8467 90.277 11.02 90.5437 11.1C92.3357 11.6227 94.1517 12.004 95.9917 12.244C96.3437 12.2867 96.509 12.484 96.4877 12.836C96.477 13.06 96.373 13.244 96.1757 13.388C96.0157 13.5107 95.8343 13.556 95.6317 13.524C91.5463 12.788 87.4263 12.5747 83.2717 12.884C83.0149 12.905 82.7582 12.8581 82.5277 12.748C81.669 12.348 80.781 12.268 79.8637 12.508C79.7963 12.5261 79.7366 12.5656 79.6938 12.6207C79.651 12.6757 79.6273 12.7433 79.6264 12.813C79.6255 12.8828 79.6474 12.9509 79.6888 13.007C79.7302 13.0632 79.7888 13.1043 79.8557 13.124C86.1597 14.884 92.8637 14.788 98.6477 16.124C101.842 16.8654 104.901 17.716 107.824 18.676C107.974 18.7132 108.104 18.8086 108.184 18.9414C108.265 19.0742 108.289 19.2334 108.252 19.384C108.215 19.5347 108.119 19.6644 107.986 19.7447C107.854 19.8249 107.694 19.8492 107.544 19.812C88.6397 16.556 69.5517 21.86 56.9597 36.42C56.5063 35.2734 56.173 34.7214 55.9597 34.7641C58.4637 21.2281 65.9597 11.2041 80.1437 9.58809Z" fill="#523D38"/>
<path d="M90.4716 10.332C105.848 12.908 120.912 17.508 135.44 23.124L150.224 29.0041C149.792 28.8974 149.506 29.0013 149.368 29.316C149.256 29.5773 149.333 29.7533 149.6 29.844L150.136 30.028C150.285 30.0813 150.336 30.1853 150.288 30.34C150.037 31.124 149.648 31.8067 149.12 32.388C148.842 32.692 148.693 32.6413 148.672 32.236C148.666 32.1293 148.669 32.0227 148.68 31.916C148.685 31.8689 148.677 31.8213 148.656 31.7785C148.636 31.7358 148.604 31.6995 148.564 31.6738C148.524 31.6481 148.478 31.6339 148.431 31.6329C148.383 31.6319 148.337 31.644 148.296 31.668C146.914 32.42 145.52 33.14 144.112 33.828C142.616 34.556 140.528 34.756 138.896 36.036C138.712 36.1831 138.492 36.2847 138.256 36.332C136.68 36.62 135.44 37.796 134.288 38.244C132.458 38.9533 130.658 39.724 128.888 40.556C127.216 41.34 124.832 42.028 122.976 43.212C121.104 44.404 119.232 44.828 117.384 45.996C117.361 46.0104 117.339 46.0249 117.323 46.0367C117.307 46.0484 117.297 46.0567 117.296 46.06L117.4 46.244C117.437 46.3187 117.418 46.3747 117.344 46.412L111.992 48.836C111.741 48.948 111.48 48.9987 111.208 48.988L109.688 48.924C109.405 48.908 109.186 49.02 109.032 49.26C108.322 50.3533 107.328 51.1933 106.048 51.78C105.829 51.8813 105.6 51.9347 105.36 51.94C103.925 51.972 102.821 52.6093 102.048 53.852C101.98 53.9588 101.89 54.049 101.783 54.1155C101.677 54.182 101.556 54.2232 101.432 54.236C100.504 54.3107 99.525 54.7053 98.4957 55.42C97.1357 56.3533 95.029 57.0893 92.1757 57.628C91.909 57.6813 91.6823 57.8067 91.4957 58.004C90.5943 58.9427 89.389 59.2653 87.8797 58.972C83.1383 58.0387 78.8317 56.58 74.9597 54.596C67.0637 50.548 58.6957 46.14 56.9597 36.42C69.5517 21.86 88.6397 16.556 107.544 19.812C107.694 19.8492 107.854 19.8249 107.986 19.7447C108.119 19.6644 108.215 19.5347 108.252 19.384C108.289 19.2334 108.265 19.0742 108.184 18.9414C108.104 18.8086 107.974 18.7132 107.824 18.676C104.901 17.716 101.842 16.8654 98.6477 16.124C92.8637 14.788 86.1597 14.884 79.8557 13.124C79.7888 13.1043 79.7302 13.0632 79.6888 13.007C79.6474 12.9509 79.6255 12.8828 79.6264 12.813C79.6273 12.7433 79.651 12.6757 79.6938 12.6207C79.7366 12.5656 79.7963 12.5261 79.8637 12.508C80.781 12.268 81.669 12.348 82.5277 12.748C82.7582 12.8581 83.0149 12.905 83.2717 12.884C87.4263 12.5747 91.5463 12.788 95.6317 13.524C95.8343 13.556 96.0157 13.5107 96.1757 13.388C96.373 13.244 96.477 13.06 96.4877 12.836C96.509 12.484 96.3437 12.2867 95.9917 12.244C94.1517 12.004 92.3357 11.6227 90.5437 11.1C90.277 11.02 90.1863 10.8467 90.2717 10.58C90.309 10.4734 90.3756 10.3907 90.4716 10.332Z" fill="#1C0E18"/>
<path d="M150.224 29.0041C163.488 33.9961 175.352 39.8121 185.816 46.4521C188.237 47.9934 189.749 50.3854 190.352 53.6281C190.149 55.5001 190.192 56.7453 190.48 57.3639C189.098 78.0946 187.826 94.9745 186.664 108.004C186.568 109.065 186.237 110.351 185.672 111.86C180.178 108.628 175.133 109.468 170.536 114.38C168.248 117.175 166.301 120.337 164.696 123.868C164.685 123.893 164.665 123.914 164.639 123.924C164.614 123.935 164.585 123.934 164.56 123.924C164.534 123.913 164.514 123.893 164.503 123.867C164.493 123.842 164.493 123.813 164.504 123.788C165.512 120.948 166.784 118.612 166.448 115.556C165.16 103.964 161.4 91.7799 158.096 80.5319C158.021 80.2759 157.85 80.1372 157.584 80.1159C140.021 78.6439 122.602 76.1772 105.328 72.7159C92.3996 70.1292 80.077 65.8226 68.3596 59.7959C68.1036 59.6626 67.9143 59.7266 67.7916 59.9879L64.3436 67.5559C59.1223 79.3532 54.3276 91.3134 49.9596 103.436C48.5036 107.479 47.7009 110.839 47.5516 113.516C47.3169 117.713 47.8076 122.023 49.0236 126.444C47.1089 119.697 44.0772 114.783 39.9278 111.7C34.8132 109.007 30.3411 109.689 26.5118 113.748L24.3917 90.476L23.3516 75.5561C22.8449 67.3588 22.6823 60.1081 22.8636 53.8041C22.9169 51.9534 23.5677 49.948 24.8157 47.788L23.9677 51.7321L23.9517 58.0119C23.9517 58.4013 24.1117 58.4839 24.4317 58.2599C33.1943 52.0679 42.9597 48.5746 53.7277 47.7799C54.085 47.7533 54.173 47.5853 53.9917 47.2759C52.0077 43.8599 48.4317 43.2919 44.7997 43.1719C44.6742 43.1697 44.5523 43.1267 44.4517 43.0491C44.3511 42.9714 44.2768 42.8632 44.2397 42.7399C44.1277 42.3879 44.2103 41.9506 44.4877 41.4279C48.1623 42.4466 51.3598 42.1694 54.0798 40.5961L54.5758 40.7561C54.8371 40.8361 54.9891 40.7401 55.0318 40.4681L55.9597 34.7641C56.173 34.7214 56.5063 35.2734 56.9597 36.42C58.6957 46.14 67.0637 50.548 74.9597 54.596C78.8317 56.58 83.1383 58.0387 87.8797 58.972C89.389 59.2653 90.5943 58.9427 91.4957 58.004C91.6823 57.8067 91.909 57.6813 92.1757 57.628C95.029 57.0893 97.1357 56.3533 98.4957 55.42C99.525 54.7053 100.504 54.3107 101.432 54.236C101.556 54.2232 101.677 54.182 101.783 54.1155C101.89 54.049 101.98 53.9588 102.048 53.852C102.821 52.6093 103.925 51.972 105.36 51.94C105.6 51.9347 105.829 51.8813 106.048 51.78C107.328 51.1933 108.322 50.3533 109.032 49.26C109.186 49.02 109.405 48.908 109.688 48.924L111.208 48.988C111.48 48.9987 111.741 48.948 111.992 48.836L117.344 46.412C117.418 46.3747 117.437 46.3187 117.4 46.244L117.296 46.06C117.297 46.0567 117.307 46.0484 117.323 46.0367C117.339 46.0249 117.361 46.0104 117.384 45.996C119.232 44.828 121.104 44.404 122.976 43.212C124.832 42.028 127.216 41.34 128.888 40.556C130.658 39.724 132.458 38.9533 134.288 38.244C135.44 37.796 136.68 36.62 138.256 36.332C138.492 36.2847 138.712 36.1831 138.896 36.036C140.528 34.756 142.616 34.556 144.112 33.828C145.52 33.14 146.914 32.42 148.296 31.668C148.337 31.644 148.383 31.6319 148.431 31.6329C148.478 31.6339 148.524 31.6481 148.564 31.6738C148.604 31.6995 148.636 31.7358 148.656 31.7785C148.677 31.8213 148.685 31.8689 148.68 31.916C148.669 32.0227 148.666 32.1293 148.672 32.236C148.693 32.6413 148.842 32.692 149.12 32.388C149.648 31.8067 150.037 31.124 150.288 30.34C150.336 30.1853 150.285 30.0813 150.136 30.028L149.6 29.844C149.333 29.7533 149.256 29.5773 149.368 29.316C149.506 29.0013 149.792 28.8974 150.224 29.0041Z" fill="#0E040B"/>
<path d="M54.0798 40.5961C51.3598 42.1694 48.1623 42.4466 44.4877 41.4279C39.9997 40.8039 34.5997 42.3961 31.0477 45.2521C29.9597 46.1268 28.8903 47.0121 27.8397 47.9081C27.6552 48.0663 27.5079 48.26 27.4077 48.4761L24.6797 54.1801C24.6506 54.2382 24.6033 54.2851 24.545 54.3136C24.4867 54.3421 24.4206 54.3506 24.3569 54.3379C24.2933 54.3252 24.2356 54.2919 24.1927 54.2431C24.1498 54.1944 24.1242 54.1329 24.1197 54.0681L23.9677 51.7321L24.8157 47.788C31.5117 38.572 43.8158 38.3881 54.0798 40.5961Z" fill="#472D30"/>
<path d="M44.4877 41.4279C44.2103 41.9506 44.1277 42.3879 44.2397 42.7399C44.2768 42.8632 44.3511 42.9714 44.4517 43.0491C44.5523 43.1267 44.6742 43.1697 44.7997 43.1719C48.4317 43.2919 52.0077 43.8599 53.9917 47.2759C54.173 47.5853 54.085 47.7533 53.7277 47.7799C42.9597 48.5746 33.1943 52.0679 24.4317 58.2599C24.1117 58.4839 23.9517 58.4013 23.9517 58.0119L23.9677 51.7321L24.1197 54.0681C24.1242 54.1329 24.1498 54.1944 24.1927 54.2431C24.2356 54.2919 24.2933 54.3252 24.3569 54.3379C24.4206 54.3506 24.4867 54.3421 24.545 54.3136C24.6033 54.2851 24.6506 54.2382 24.6797 54.1801L27.4077 48.4761C27.5079 48.26 27.6552 48.0663 27.8397 47.9081C28.8903 47.0121 29.9597 46.1268 31.0477 45.2521C34.5997 42.3961 39.9997 40.8039 44.4877 41.4279Z" fill="#2D1920"/>
<path d="M14.8638 71.724L13.8798 73.068C13.6932 73.3187 13.7092 73.556 13.9278 73.78C16.8078 76.6334 18.1385 79.268 17.9198 81.684C14.7038 84.66 11.5784 87.012 8.54369 88.74C8.33035 88.8626 8.11969 88.86 7.91169 88.732C6.49835 87.8787 5.25035 87.9587 4.16769 88.972C4.07784 89.0573 3.96742 89.1176 3.84709 89.1472C3.72676 89.1768 3.60058 89.1746 3.48075 89.1408C3.36093 89.107 3.25149 89.0428 3.16302 88.9544C3.07454 88.8659 3.01002 88.7563 2.97569 88.636L2.78369 87.964C5.06102 75.5107 9.31699 63.7692 15.5517 52.7399L18.2397 51.868C18.3481 51.8352 18.4616 51.8247 18.5731 51.8371C18.6845 51.8495 18.7916 51.8845 18.8876 51.94C19.6823 52.3986 20.341 52.5666 20.8637 52.444C21.5783 52.268 21.8796 52.5426 21.7676 53.268C21.4103 55.6253 21.2983 58.004 21.4317 60.404C21.4477 60.7026 21.3143 60.908 21.0317 61.02C16.6237 62.7 15.0557 66.508 13.6077 70.836C13.517 71.1026 13.605 71.284 13.8717 71.38L14.8638 71.724Z" fill="#9CC49A"/>
<path d="M196.944 50.9481C210.715 74.3934 215.69 99.7453 211.872 127.004C211.701 126.972 211.546 127.044 211.408 127.22C211.274 127.396 211.112 127.425 210.92 127.308C208.68 125.9 208.4 110.796 208.12 108.692C206.576 96.9639 204.168 85.0679 199.608 74.2519C197.304 68.7852 194.261 63.1559 190.48 57.3639C190.192 56.7453 190.149 55.5001 190.352 53.6281L191.008 52.9561C191.248 52.7161 191.344 52.7641 191.296 53.1001L191.272 53.308C191.256 53.3987 191.293 53.4494 191.384 53.4601L193.608 53.7321C193.874 53.7694 194.104 53.6947 194.296 53.508L196.944 50.9481Z" fill="#56915F"/>
<path d="M211.872 127.004C209.632 143.063 204.069 157.783 195.184 171.164C183.064 188.716 163.992 205.084 143.296 211.484C143.291 211.335 143.333 211.209 143.424 211.108C143.552 210.964 143.6 210.796 143.568 210.604C141.272 197.292 137.8 181.428 122.048 178.604C119.536 177.495 116.648 176.913 113.384 176.86C112.541 176.711 112.245 175.652 112.496 173.684L112.496 167.564C134.088 166.02 150.288 160.116 160.808 139.972C160.936 139.727 161.125 139.66 161.376 139.772L165.144 141.388C180.936 147.292 198.672 123.404 185.672 111.86C186.237 110.351 186.568 109.065 186.664 108.004C187.826 94.9745 189.098 78.0946 190.48 57.3639C194.261 63.1559 197.304 68.7852 199.608 74.2519C204.168 85.0679 206.576 96.9639 208.12 108.692C208.4 110.796 208.68 125.9 210.92 127.308C211.112 127.425 211.274 127.396 211.408 127.22C211.546 127.044 211.701 126.972 211.872 127.004Z" fill="#487A4B"/>
<path d="M170.536 114.38C171.005 114.785 171.512 114.921 172.056 114.788C172.322 114.719 172.541 114.577 172.712 114.364C174.317 112.305 176.432 111.388 179.056 111.612C179.312 111.633 179.483 111.767 179.568 112.012C180.232 113.98 181.384 117.524 183.304 119.156C183.495 119.316 183.625 119.539 183.672 119.788C185.536 129.26 180.392 134.612 173.104 139.436C170.52 141.14 168.144 141.02 165.144 141.388L161.376 139.772C161.125 139.66 160.936 139.727 160.808 139.972C150.288 160.116 134.088 166.02 112.496 167.564L109.088 167.116C111.312 166.236 114.77 165.399 119.464 164.604C123.373 163.948 128.304 162.204 134.256 159.372C141.621 155.868 147.661 150.756 152.376 144.036C154.424 142.692 155.541 140.905 155.728 138.676C157.589 133.935 159.272 128.881 160.776 123.516C161.4 121.292 161.44 118.364 161.208 116.46C160.36 109.476 156.8 98.692 154.376 88.012C154.348 87.8987 154.286 87.7971 154.196 87.7222C154.107 87.6473 153.996 87.6031 153.88 87.596L140.32 86.708C135.648 86.116 129.701 84.8625 122.48 82.9479C106.32 78.6652 91.5278 73.3212 78.1038 66.9159C75.1038 65.4919 71.9598 64.2759 69.1038 62.1239C68.8958 61.9692 68.7198 61.9985 68.5758 62.2119C68.2504 62.6972 68.0958 63.3079 68.1118 64.0439L66.8317 67.3719L66.1197 68.1881C65.9703 68.3587 65.7836 68.4254 65.5596 68.3881C65.1116 68.3027 64.7063 68.0252 64.3436 67.5559L67.7916 59.9879C67.9143 59.7266 68.1036 59.6626 68.3596 59.7959C80.077 65.8226 92.3996 70.1292 105.328 72.7159C122.602 76.1772 140.021 78.6439 157.584 80.1159C157.85 80.1372 158.021 80.2759 158.096 80.5319C161.4 91.7799 165.16 103.964 166.448 115.556C166.784 118.612 165.512 120.948 164.504 123.788C164.493 123.813 164.493 123.842 164.503 123.867C164.514 123.893 164.534 123.913 164.56 123.924C164.585 123.934 164.614 123.935 164.639 123.924C164.665 123.914 164.685 123.893 164.696 123.868C166.301 120.337 168.248 117.175 170.536 114.38ZM178.432 118.772C172.552 113.332 167.312 129.228 166.104 131.996C165.96 132.321 166.064 132.46 166.416 132.412C170.224 131.852 176.392 130.124 178.592 126.828C180 124.724 180.568 120.74 178.432 118.772Z" fill="#FB9E50"/>
<path d="M140.32 86.708C138.024 88.66 136.272 92.988 140.504 94.228C136.6 93.988 127.44 94.204 126.024 98.044C125.946 98.2579 125.934 98.4895 125.992 98.708C126.546 100.751 127.84 101.524 129.872 101.028C134.208 99.9773 138.16 99.4173 141.728 99.348C145.2 99.276 148.832 100.396 152.456 101.212C152.018 102.503 151.064 103.735 149.592 104.908C149.378 105.073 149.29 105.292 149.328 105.564C149.648 107.868 149.4 110.524 150.736 112.588C152.072 114.644 153.168 116.164 152.304 118.172C149.576 108.388 139.36 103.724 130.408 108.924C130.188 109.054 130.02 109.258 129.935 109.5C129.851 109.741 129.854 110.005 129.944 110.244C129.976 110.335 130.149 110.297 130.464 110.132C130.378 110.655 130.525 111.148 130.904 111.612C125.016 116.228 126.496 126.148 134.272 127.356C133.37 127.692 133.698 127.983 135.256 128.228L136.088 128.892C136.376 129.121 136.338 129.22 135.976 129.188C134.744 129.081 133.917 129.652 133.496 130.9C133.442 131.055 133.477 131.185 133.6 131.292C133.845 131.5 133.938 131.756 133.88 132.06C133.828 132.321 133.856 132.591 133.96 132.836C134.381 133.796 135.04 134.641 135.936 135.372C133.114 136.753 131.816 138.652 132.04 141.068L127.936 141.292C127.642 141.308 127.4 141.425 127.208 141.644C125.858 143.175 124.192 144.143 122.208 144.548C123.264 141.46 123.842 138.425 123.944 135.444C123.954 135.172 123.861 135.132 123.664 135.324C116.456 142.516 105.04 145.884 94.6718 144.54C94.4424 144.508 94.3544 144.607 94.4078 144.836C95.1598 147.839 96.8371 150.343 99.4398 152.348C101.578 153.665 104.12 154.351 107.064 154.404C107.026 154.553 106.826 154.636 106.464 154.652C106.149 154.668 106.085 154.801 106.272 155.052L106.464 155.308C106.597 155.489 106.552 155.58 106.328 155.58L97.5758 155.692C97.5507 155.692 97.5264 155.7 97.5073 155.717C97.4882 155.733 97.4756 155.755 97.4717 155.78C97.4557 155.849 97.4531 155.921 97.4638 155.996C97.4689 156.03 97.4662 156.065 97.4561 156.098C97.4459 156.131 97.4286 156.161 97.4053 156.186C97.382 156.211 97.3536 156.23 97.3221 156.241C97.2905 156.253 97.2569 156.256 97.2238 156.252C94.4318 155.988 91.5918 156.412 89.7358 153.94C89.5704 153.721 89.3544 153.583 89.0878 153.524C86.2238 152.873 83.5118 151.839 80.9518 150.42C77.5998 148.556 75.3678 150.308 72.4478 149.916C70.5811 149.665 68.8744 148.94 67.3278 147.74C67.2851 147.703 67.2638 147.657 67.2638 147.604C67.2638 147.529 67.2638 147.452 67.2638 147.372C67.2584 147.191 67.1651 147.087 66.9837 147.06C62.9677 146.428 57.9598 141.316 56.4478 137.076C56.3768 136.874 56.2417 136.701 56.0629 136.583C55.8842 136.465 55.6716 136.41 55.4572 136.424C55.2429 136.439 55.0386 136.523 54.8752 136.663C54.7118 136.804 54.5983 136.994 54.5518 137.204L53.2478 143.26L51.3677 139.692C51.2557 137.82 50.8397 136.428 51.0557 134.516C51.4184 131.295 50.7409 128.604 49.0236 126.444C47.8076 122.023 47.3169 117.713 47.5516 113.516C47.7009 110.839 48.5036 107.479 49.9596 103.436C54.3276 91.3134 59.1223 79.3532 64.3436 67.5559C64.7063 68.0252 65.1116 68.3027 65.5596 68.3881C65.7836 68.4254 65.9703 68.3587 66.1197 68.1881L66.8317 67.3719C65.4077 73.6119 62.8557 79.6039 60.7757 85.6439C60.2077 87.2759 58.8397 88.7879 58.6077 90.9639C58.5757 91.2305 58.4824 91.4706 58.3277 91.6839C56.957 93.5399 56.213 94.9159 56.0957 95.8119C55.8237 97.8759 55.0637 100.657 53.8157 104.156C51.4104 110.865 50.5997 118.137 51.3837 125.972C51.4477 126.668 51.9277 127.268 52.6317 127.212C52.9357 127.185 53.0744 127.02 53.0477 126.716C52.3704 117.804 53.6557 109.247 56.9037 101.044C60.1197 92.9399 63.1197 84.6759 65.7437 76.4519C66.1437 75.1985 66.8771 74.9585 67.9437 75.7319C70.8557 77.8385 73.621 80.1319 76.2397 82.6119C76.3633 82.7283 76.5247 82.7961 76.6943 82.8029C76.8639 82.8097 77.0303 82.755 77.1628 82.6488C77.2952 82.5427 77.3849 82.3922 77.4152 82.2252C77.4455 82.0582 77.4144 81.8858 77.3277 81.7399C74.4957 76.9799 70.7757 71.7639 70.5597 66.1079C70.5117 64.8759 69.4958 62.9959 68.1118 64.0439C68.0958 63.3079 68.2504 62.6972 68.5758 62.2119C68.7198 61.9985 68.8958 61.9692 69.1038 62.1239C71.9598 64.2759 75.1038 65.4919 78.1038 66.9159C91.5278 73.3212 106.32 78.6652 122.48 82.9479C129.701 84.8625 135.648 86.116 140.32 86.708ZM86.6715 95.276C80.3275 90.972 68.0956 93.1 61.8796 96.34C60.7702 96.9214 60.6236 97.684 61.4396 98.628C62.3276 99.652 63.1116 99.772 64.4636 99.396C70.0156 97.8654 75.5382 97.8441 81.0316 99.3321C84.0396 100.148 87.3276 99.9641 87.0876 95.9961C87.0778 95.8517 87.0352 95.7117 86.9631 95.5868C86.8909 95.462 86.7912 95.3556 86.6715 95.276ZM65.1597 123.22C67.0743 125.679 69.9063 127.148 73.6557 127.628C77.9277 128.172 82.4397 130.212 86.2317 127.348C92.7597 122.404 91.0637 115.9 85.8317 110.908C85.3197 105.764 74.7438 106.836 71.8718 108.044C67.4478 109.916 59.7917 118.708 65.1597 123.22ZM103.072 125.012C102.528 124.847 102.122 124.828 101.856 124.956C101.546 125.105 101.28 125.35 101.099 125.653C100.918 125.956 100.833 126.301 100.856 126.634C100.878 126.967 101.008 127.271 101.225 127.498C101.442 127.725 101.733 127.864 102.056 127.892L103.592 128.044C103.842 128.071 104.095 128.014 104.31 127.882C104.525 127.751 104.69 127.552 104.781 127.316C104.871 127.081 104.881 126.822 104.809 126.581C104.737 126.339 104.588 126.128 104.384 125.98L103.072 125.012C104.298 125.167 105.258 125.796 105.952 126.9C106.133 127.183 106.074 127.401 105.776 127.556C104.816 128.063 103.781 128.361 102.672 128.452C102.373 128.473 102.128 128.599 101.936 128.828C101.301 129.612 101.213 130.545 101.672 131.628C101.789 131.9 101.997 132.06 102.296 132.108C106.568 132.74 111.272 127.268 106.224 124.212C105.672 123.876 102.136 123.1 103.072 125.012ZM82.9436 139.829C82.8816 138.287 81.7536 136.852 79.8074 135.839C77.8613 134.825 75.2566 134.317 72.5663 134.425C69.876 134.533 67.3205 135.249 65.4619 136.415C63.6034 137.581 62.594 139.102 62.6559 140.643C62.7178 142.185 63.8459 143.62 65.7921 144.633C67.7382 145.647 70.3429 146.155 73.0332 146.047C75.7235 145.939 78.279 145.223 80.1376 144.057C81.9961 142.891 83.0055 141.37 82.9436 139.829Z" fill="#FDBC79"/>
<path d="M66.8317 67.3719L68.1118 64.0439C69.4958 62.9959 70.5117 64.8759 70.5597 66.1079C70.7757 71.7639 74.4957 76.9799 77.3277 81.7399C77.4144 81.8858 77.4455 82.0582 77.4152 82.2252C77.3849 82.3922 77.2952 82.5427 77.1628 82.6488C77.0303 82.755 76.8639 82.8097 76.6943 82.8029C76.5247 82.7961 76.3633 82.7283 76.2397 82.6119C73.621 80.1319 70.8557 77.8385 67.9437 75.7319C66.8771 74.9585 66.1437 75.1985 65.7437 76.4519C63.1197 84.6759 60.1197 92.9399 56.9037 101.044C53.6557 109.247 52.3704 117.804 53.0477 126.716C53.0744 127.02 52.9357 127.185 52.6317 127.212C51.9277 127.268 51.4477 126.668 51.3837 125.972C50.5997 118.137 51.4104 110.865 53.8157 104.156C55.0637 100.657 55.8237 97.8759 56.0957 95.8119C56.213 94.9159 56.957 93.5399 58.3277 91.6839C58.4824 91.4706 58.5757 91.2305 58.6077 90.9639C58.8397 88.7879 60.2077 87.2759 60.7757 85.6439C62.8557 79.6039 65.4077 73.6119 66.8317 67.3719Z" fill="#FED987"/>
<path d="M14.8638 71.724C17.1198 72.4867 19.4478 72.5907 21.8478 72.036C22.1731 71.9614 22.3198 72.0894 22.2878 72.42C22.0958 74.4627 22.4503 75.5081 23.3516 75.5561L24.3917 90.476C22.8557 88.604 22.4583 85.8919 23.1996 82.3399C23.2636 82.0412 23.2183 81.7586 23.0636 81.4919C22.4716 80.4626 22.285 79.3586 22.5036 78.1799C22.5207 78.1158 22.5131 78.0476 22.4822 77.9889C22.4513 77.9302 22.3994 77.8852 22.3368 77.8631C22.2743 77.8409 22.2057 77.843 22.1447 77.8691C22.0837 77.8952 22.0348 77.9434 22.0076 78.0039C21.5383 78.8786 20.829 79.3772 19.8796 79.4999C19.6343 79.5319 19.4636 79.6599 19.3676 79.8839C18.8663 81.0466 18.3838 81.6467 17.9198 81.684C18.1385 79.268 16.8078 76.6334 13.9278 73.78C13.7092 73.556 13.6932 73.3187 13.8798 73.068L14.8638 71.724Z" fill="#83B890"/>
<path d="M24.3917 90.476L26.5118 113.748C23.6798 117.929 23.1224 122.604 24.8397 127.772C24.2584 127.655 23.9464 127.945 23.9037 128.644C23.893 128.847 23.7997 128.897 23.6237 128.796L23.3677 128.636C23.181 128.524 22.989 128.519 22.7917 128.62C16.3197 131.852 9.5837 135.012 6.5357 140.62C6.45348 140.774 6.32529 140.899 6.16895 140.976C6.01261 141.054 5.83591 141.081 5.66343 141.054C5.49094 141.027 5.33124 140.947 5.20655 140.824C5.08186 140.702 4.99837 140.544 4.9677 140.372C4.9037 140.036 4.71435 139.911 4.39969 139.996C-0.053647 122.897 -0.592309 105.553 2.78369 87.964L2.97569 88.636C3.01002 88.7563 3.07454 88.8659 3.16302 88.9544C3.25149 89.0428 3.36093 89.107 3.48075 89.1408C3.60058 89.1746 3.72676 89.1768 3.84709 89.1472C3.96742 89.1176 4.07784 89.0573 4.16769 88.972C5.25035 87.9587 6.49835 87.8787 7.91169 88.732C8.11969 88.86 8.33035 88.8626 8.54369 88.74C11.5784 87.012 14.7038 84.66 17.9198 81.684C18.3838 81.6467 18.8663 81.0466 19.3676 79.8839C19.4636 79.6599 19.6343 79.5319 19.8796 79.4999C20.829 79.3772 21.5383 78.8786 22.0076 78.0039C22.0348 77.9434 22.0837 77.8952 22.1447 77.8691C22.2057 77.843 22.2743 77.8409 22.3368 77.8631C22.3994 77.8852 22.4513 77.9302 22.4822 77.9889C22.5131 78.0476 22.5207 78.1158 22.5036 78.1799C22.285 79.3586 22.4716 80.4626 23.0636 81.4919C23.2183 81.7586 23.2636 82.0412 23.1996 82.3399C22.4583 85.8919 22.8557 88.604 24.3917 90.476Z" fill="#67AA79"/>
<path d="M140.32 86.708L153.88 87.596C153.996 87.6031 154.107 87.6473 154.196 87.7222C154.286 87.7971 154.348 87.8987 154.376 88.012C156.8 98.692 160.36 109.476 161.208 116.46C161.44 118.364 161.4 121.292 160.776 123.516C159.272 128.881 157.589 133.935 155.728 138.676C150.405 133.807 143.808 132.705 135.936 135.372C135.04 134.641 134.381 133.796 133.96 132.836C133.856 132.591 133.828 132.321 133.88 132.06C133.938 131.756 133.845 131.5 133.6 131.292C133.477 131.185 133.442 131.055 133.496 130.9C133.917 129.652 134.744 129.081 135.976 129.188C136.338 129.22 136.376 129.121 136.088 128.892L135.256 128.228C141.624 127.092 145.928 126.9 150.696 121.988C151.965 122.015 152.501 120.743 152.304 118.172C153.168 116.164 152.072 114.644 150.736 112.588C149.4 110.524 149.648 107.868 149.328 105.564C149.29 105.292 149.378 105.073 149.592 104.908C151.064 103.735 152.018 102.503 152.456 101.212C153.032 101.036 153.517 100.519 153.912 99.66C154.109 99.244 154.021 98.8973 153.648 98.62C149.717 95.6813 145.336 94.2173 140.504 94.228C136.272 92.988 138.024 88.66 140.32 86.708Z" fill="#FCB468"/>
<path d="M86.6715 95.276C86.7912 95.3556 86.8909 95.462 86.9631 95.5868C87.0352 95.7117 87.0778 95.8517 87.0876 95.9961C87.3276 99.9641 84.0396 100.148 81.0316 99.3321C75.5382 97.8441 70.0156 97.8654 64.4636 99.396C63.1116 99.772 62.3276 99.652 61.4396 98.628C60.6236 97.684 60.7702 96.9214 61.8796 96.34C68.0956 93.1 80.3275 90.972 86.6715 95.276Z" fill="#070608"/>
<path d="M140.504 94.228C145.336 94.2173 149.717 95.6813 153.648 98.62C154.021 98.8973 154.109 99.244 153.912 99.66C153.517 100.519 153.032 101.036 152.456 101.212C148.832 100.396 145.2 99.276 141.728 99.348C138.16 99.4173 134.208 99.9773 129.872 101.028C127.84 101.524 126.546 100.751 125.992 98.708C125.934 98.4895 125.946 98.2579 126.024 98.044C127.44 94.204 136.6 93.988 140.504 94.228Z" fill="#070608"/>
<path d="M152.304 118.172C152.501 120.743 151.965 122.015 150.696 121.988C148.125 111.161 141.381 107.209 130.464 110.132C130.149 110.297 129.976 110.335 129.944 110.244C129.854 110.005 129.851 109.741 129.935 109.5C130.02 109.258 130.188 109.054 130.408 108.924C139.36 103.724 149.576 108.388 152.304 118.172Z" fill="#070608"/>
<path d="M85.8317 110.908C74.621 107.932 67.7303 112.036 65.1597 123.22C59.7917 118.708 67.4478 109.916 71.8718 108.044C74.7438 106.836 85.3197 105.764 85.8317 110.908Z" fill="#160B14"/>
<path d="M150.696 121.988C145.928 126.9 141.624 127.092 135.256 128.228C133.698 127.983 133.37 127.692 134.272 127.356C137.848 127.66 140.584 124.196 141.592 121.188C143.776 114.676 137.456 107.7 130.904 111.612C130.525 111.148 130.378 110.655 130.464 110.132C141.381 107.209 148.125 111.161 150.696 121.988Z" fill="#EBE1DA"/>
<path d="M85.8317 110.908C91.0637 115.9 92.7597 122.404 86.2317 127.348C82.4397 130.212 77.9277 128.172 73.6557 127.628C69.9063 127.148 67.0743 125.679 65.1597 123.22C67.7303 112.036 74.621 107.932 85.8317 110.908ZM79.5291 127.681C80.4153 127.958 81.3569 128.029 82.3003 127.888C83.2436 127.747 84.1701 127.398 85.0269 126.86C85.8837 126.322 86.654 125.606 87.2938 124.752C87.9337 123.899 88.4305 122.925 88.756 121.887C89.4133 119.789 89.3327 117.555 88.5319 115.675C87.7312 113.795 86.2758 112.424 84.4861 111.863C83.5998 111.586 82.6582 111.515 81.7149 111.656C80.7716 111.797 79.8451 112.146 78.9883 112.684C78.1315 113.222 77.3612 113.938 76.7213 114.792C76.0815 115.645 75.5847 116.619 75.2592 117.657C74.6019 119.755 74.6825 121.989 75.4832 123.869C76.284 125.749 77.7393 127.12 79.5291 127.681Z" fill="#F3DEC9"/>
<path d="M185.672 111.86C198.672 123.404 180.936 147.292 165.144 141.388C168.144 141.02 170.52 141.14 173.104 139.436C180.392 134.612 185.536 129.26 183.672 119.788C183.625 119.539 183.495 119.316 183.304 119.156C181.384 117.524 180.232 113.98 179.568 112.012C179.483 111.767 179.312 111.633 179.056 111.612C176.432 111.388 174.317 112.305 172.712 114.364C172.541 114.577 172.322 114.719 172.056 114.788C171.512 114.921 171.005 114.785 170.536 114.38C175.133 109.468 180.178 108.628 185.672 111.86Z" fill="#FCBA5E"/>
<path d="M39.9278 111.7C31.3092 114.175 28.3518 119.545 31.0558 127.812C31.8558 130.26 33.7865 132.671 36.8478 135.044C36.955 135.127 37.0334 135.241 37.0722 135.371C37.1109 135.5 37.108 135.637 37.0638 135.764C36.7332 136.724 36.7385 137.671 37.0798 138.604C37.1758 138.865 37.1972 139.129 37.1438 139.396L36.7518 141.356C30.9705 138.593 26.9997 134.065 24.8397 127.772C23.1224 122.604 23.6798 117.929 26.5118 113.748C30.3411 109.689 34.8132 109.007 39.9278 111.7Z" fill="#FED987"/>
<path d="M134.272 127.356C126.496 126.148 125.016 116.228 130.904 111.612C137.456 107.7 143.776 114.676 141.592 121.188C140.584 124.196 137.848 127.66 134.272 127.356ZM134.761 119.874C134.982 119.852 135.197 119.778 135.391 119.656C135.586 119.535 135.757 119.368 135.895 119.165C136.033 118.962 136.135 118.728 136.196 118.475C136.256 118.222 136.274 117.956 136.247 117.692C136.194 117.157 135.965 116.663 135.611 116.317C135.257 115.971 134.806 115.801 134.359 115.846C134.137 115.868 133.923 115.942 133.728 116.064C133.534 116.185 133.362 116.352 133.224 116.555C133.086 116.758 132.984 116.992 132.924 117.245C132.863 117.498 132.846 117.764 132.872 118.028C132.925 118.563 133.154 119.057 133.509 119.403C133.863 119.749 134.313 119.919 134.761 119.874Z" fill="#070608"/>
<path d="M79.5291 127.681C77.7393 127.12 76.284 125.749 75.4832 123.869C74.6825 121.989 74.6019 119.755 75.2592 117.657C75.5847 116.619 76.0815 115.645 76.7213 114.792C77.3612 113.938 78.1315 113.222 78.9883 112.684C79.8451 112.146 80.7716 111.797 81.7149 111.656C82.6582 111.515 83.5998 111.586 84.4861 111.863C86.2758 112.424 87.7312 113.795 88.5319 115.675C89.3327 117.555 89.4133 119.789 88.756 121.887C88.4305 122.925 87.9337 123.899 87.2938 124.752C86.654 125.606 85.8837 126.322 85.0269 126.86C84.1701 127.398 83.2436 127.747 82.3003 127.888C81.3569 128.029 80.4153 127.958 79.5291 127.681ZM78.7997 119.564L80.8957 119.548C81.0916 119.546 81.2788 119.467 81.4166 119.327C81.5544 119.188 81.6317 119 81.6317 118.804V118.132C81.6293 117.668 81.5831 117.208 81.4957 116.78C81.4083 116.351 81.2814 115.962 81.1224 115.635C80.9633 115.308 80.7752 115.049 80.5688 114.874C80.3624 114.698 80.1418 114.609 79.9197 114.612H79.7117C79.265 114.617 78.8391 114.993 78.5272 115.655C78.2153 116.318 78.0429 117.214 78.0477 118.148V118.82C78.0476 118.918 78.0672 119.016 78.1051 119.107C78.1429 119.197 78.1985 119.28 78.2684 119.349C78.3383 119.418 78.4213 119.473 78.5125 119.51C78.6037 119.547 78.7013 119.565 78.7997 119.564Z" fill="#070608"/>
<path d="M39.9278 111.7C44.0772 114.783 47.1089 119.697 49.0236 126.444C50.7409 128.604 51.4184 131.295 51.0557 134.516C50.8397 136.428 51.2557 137.82 51.3677 139.692C47.181 142.193 42.3382 142.721 36.8396 141.276C37.2076 141.436 37.1785 141.463 36.7518 141.356L37.1438 139.396C37.1972 139.129 37.1758 138.865 37.0798 138.604C36.7385 137.671 36.7332 136.724 37.0638 135.764C37.108 135.637 37.1109 135.5 37.0722 135.371C37.0334 135.241 36.955 135.127 36.8478 135.044C33.7865 132.671 31.8558 130.26 31.0558 127.812C28.3518 119.545 31.3092 114.175 39.9278 111.7ZM43.4076 124.06C39.4716 113.596 29.7756 122.492 37.1836 129.692C39.7649 132.204 42.8236 133.327 46.3596 133.06C46.4473 133.052 46.5318 133.023 46.6063 132.976C46.6807 132.93 46.7428 132.866 46.7875 132.791C46.8321 132.716 46.8579 132.631 46.8628 132.544C46.8677 132.458 46.8515 132.371 46.8156 132.292C45.605 129.615 44.4689 126.871 43.4076 124.06Z" fill="#FCB468"/>
<path d="M78.7997 119.564C78.7013 119.565 78.6037 119.547 78.5125 119.51C78.4213 119.473 78.3383 119.418 78.2684 119.349C78.1985 119.28 78.1429 119.197 78.1051 119.107C78.0672 119.016 78.0476 118.918 78.0477 118.82V118.148C78.0429 117.214 78.2153 116.318 78.5272 115.655C78.8391 114.993 79.265 114.617 79.7117 114.612H79.9197C80.1418 114.609 80.3624 114.698 80.5688 114.874C80.7752 115.049 80.9633 115.308 81.1224 115.635C81.2814 115.962 81.4083 116.351 81.4957 116.78C81.5831 117.208 81.6293 117.668 81.6317 118.132V118.804C81.6317 119 81.5544 119.188 81.4166 119.327C81.2788 119.467 81.0916 119.546 80.8957 119.548L78.7997 119.564ZM80.1996 118.156L80.3436 116.748C80.3567 116.645 80.3326 116.54 80.2757 116.453C80.2187 116.365 80.1327 116.301 80.0328 116.271C79.9329 116.241 79.8257 116.248 79.7302 116.29C79.6348 116.332 79.5573 116.406 79.5116 116.5C79.1809 117.124 79.2076 117.727 79.5916 118.308C79.933 118.825 80.1356 118.775 80.1996 118.156Z" fill="#EBE1DA"/>
<path d="M134.761 119.874C134.313 119.919 133.863 119.749 133.509 119.403C133.154 119.057 132.925 118.563 132.872 118.028C132.846 117.764 132.863 117.498 132.924 117.245C132.984 116.992 133.086 116.758 133.224 116.555C133.362 116.352 133.534 116.185 133.728 116.064C133.923 115.942 134.137 115.868 134.359 115.846C134.806 115.801 135.257 115.971 135.611 116.317C135.965 116.663 136.194 117.157 136.247 117.692C136.274 117.956 136.256 118.222 136.196 118.475C136.135 118.728 136.033 118.962 135.895 119.165C135.757 119.368 135.586 119.535 135.391 119.656C135.197 119.778 134.982 119.852 134.761 119.874ZM135.032 118.732C135.144 118.193 135.018 117.7 134.656 117.252C134.341 116.863 134.096 116.903 133.92 117.372C133.68 118.017 133.818 118.553 134.336 118.98C134.704 119.284 134.936 119.201 135.032 118.732Z" fill="#EBE1DA"/>
<path d="M79.5916 118.308C79.2076 117.727 79.1809 117.124 79.5116 116.5C79.5573 116.406 79.6348 116.332 79.7302 116.29C79.8257 116.248 79.9329 116.241 80.0328 116.271C80.1327 116.301 80.2187 116.365 80.2757 116.453C80.3326 116.54 80.3567 116.645 80.3436 116.748L80.1996 118.156C80.1356 118.775 79.933 118.825 79.5916 118.308Z" fill="#645A4F"/>
<path d="M134.336 118.98C133.818 118.553 133.68 118.017 133.92 117.372C134.096 116.903 134.341 116.863 134.656 117.252C135.018 117.7 135.144 118.193 135.032 118.732C134.936 119.201 134.704 119.284 134.336 118.98Z" fill="#523D38"/>
<path d="M166.104 131.996C167.312 129.228 172.552 113.332 178.432 118.772C180.568 120.74 180 124.724 178.592 126.828C176.392 130.124 170.224 131.852 166.416 132.412C166.064 132.46 165.96 132.321 166.104 131.996Z" fill="#E05E28"/>
<path d="M37.1836 129.692C29.7756 122.492 39.4716 113.596 43.4076 124.06C44.4689 126.871 45.605 129.615 46.8156 132.292C46.8515 132.371 46.8677 132.458 46.8628 132.544C46.8579 132.631 46.8321 132.716 46.7875 132.791C46.7428 132.866 46.6807 132.93 46.6063 132.976C46.5318 133.023 46.4473 133.052 46.3596 133.06C42.8236 133.327 39.7649 132.204 37.1836 129.692Z" fill="#ED6735"/>
<path d="M103.072 125.012C102.136 123.1 105.672 123.876 106.224 124.212C111.272 127.268 106.568 132.74 102.296 132.108C101.997 132.06 101.789 131.9 101.672 131.628C101.213 130.545 101.301 129.612 101.936 128.828C102.128 128.599 102.373 128.473 102.672 128.452C103.781 128.361 104.816 128.063 105.776 127.556C106.074 127.401 106.133 127.183 105.952 126.9C105.258 125.796 104.298 125.167 103.072 125.012Z" fill="#FB9E50"/>
<path d="M103.072 125.012L104.384 125.98C104.588 126.128 104.737 126.339 104.809 126.581C104.881 126.822 104.871 127.081 104.781 127.316C104.69 127.552 104.525 127.751 104.31 127.882C104.095 128.014 103.842 128.071 103.592 128.044L102.056 127.892C101.733 127.864 101.442 127.725 101.225 127.498C101.008 127.271 100.878 126.967 100.856 126.634C100.833 126.301 100.918 125.956 101.099 125.653C101.28 125.35 101.546 125.105 101.856 124.956C102.122 124.828 102.528 124.847 103.072 125.012Z" fill="#FCE8A3"/>
<path d="M24.8397 127.772C26.9997 134.065 30.9705 138.593 36.7518 141.356C37.1785 141.463 37.2076 141.436 36.8396 141.276C38.0316 144.564 40.1675 146.892 42.1355 149.66C41.2075 152.055 40.1517 154.417 38.9677 156.748C37.9277 158.788 35.9357 160.108 34.7837 162.372C34.6611 162.612 34.4904 162.807 34.2717 162.956C32.1011 164.428 30.5811 166.399 29.7117 168.868C29.6264 169.108 29.5997 169.356 29.6317 169.612C30.0957 173.212 24.8157 169.924 23.9277 169.164C23.6664 168.945 23.4317 168.972 23.2237 169.244C22.2797 170.513 20.9731 170.887 19.3037 170.364C19.1811 170.327 19.1117 170.372 19.0957 170.5L19.0557 170.788C19.0344 170.937 18.9651 170.969 18.8477 170.884C18.7357 170.799 18.597 170.777 18.4317 170.82C12.1917 161.316 7.51435 151.041 4.39969 139.996C4.71435 139.911 4.9037 140.036 4.9677 140.372C4.99837 140.544 5.08186 140.702 5.20655 140.824C5.33124 140.947 5.49094 141.027 5.66343 141.054C5.83591 141.081 6.01261 141.054 6.16895 140.976C6.32529 140.899 6.45348 140.774 6.5357 140.62C9.5837 135.012 16.3197 131.852 22.7917 128.62C22.989 128.519 23.181 128.524 23.3677 128.636L23.6237 128.796C23.7997 128.897 23.893 128.847 23.9037 128.644C23.9464 127.945 24.2584 127.655 24.8397 127.772Z" fill="#56915F"/>
<path d="M155.728 138.676C155.541 140.905 154.424 142.692 152.376 144.036C146.224 145.364 136.536 146.244 132.04 141.068C131.816 138.652 133.114 136.753 135.936 135.372C143.808 132.705 150.405 133.807 155.728 138.676Z" fill="#F98759"/>
<path d="M73.0332 146.047C78.6355 145.822 83.0725 143.038 82.9436 139.829C82.8147 136.619 78.1686 134.2 72.5663 134.425C66.964 134.65 62.527 137.434 62.6559 140.643C62.7848 143.853 67.4309 146.272 73.0332 146.047Z" fill="#F98759"/>
<path d="M122.208 144.548L120.064 148.596C112.981 145.833 106.394 146.3 100.304 149.996C99.4343 150.524 99.1464 151.308 99.4398 152.348C96.8371 150.343 95.1598 147.839 94.4078 144.836C94.3544 144.607 94.4424 144.508 94.6718 144.54C105.04 145.884 116.456 142.516 123.664 135.324C123.861 135.132 123.954 135.172 123.944 135.444C123.842 138.425 123.264 141.46 122.208 144.548Z" fill="#60080C"/>
<path d="M107.064 154.404C112.408 154.569 116.741 152.633 120.064 148.596L122.208 144.548C124.192 144.143 125.858 143.175 127.208 141.644C127.4 141.425 127.642 141.308 127.936 141.292L132.04 141.068C136.536 146.244 146.224 145.364 152.376 144.036C147.661 150.756 141.621 155.868 134.256 159.372C128.304 162.204 123.373 163.948 119.464 164.604C114.77 165.399 111.312 166.236 109.088 167.116L100.536 167.212C81.3276 166.796 62.9358 160.812 53.2478 143.26L54.5518 137.204C54.5983 136.994 54.7118 136.804 54.8752 136.663C55.0386 136.523 55.2429 136.439 55.4572 136.424C55.6716 136.41 55.8842 136.465 56.0629 136.583C56.2417 136.701 56.3768 136.874 56.4478 137.076C57.9598 141.316 62.9677 146.428 66.9837 147.06C67.1651 147.087 67.2584 147.191 67.2638 147.372C67.2638 147.452 67.2638 147.529 67.2638 147.604C67.2638 147.657 67.2851 147.703 67.3278 147.74C68.8744 148.94 70.5811 149.665 72.4478 149.916C75.3678 150.308 77.5998 148.556 80.9518 150.42C83.5118 151.839 86.2238 152.873 89.0878 153.524C89.3544 153.583 89.5704 153.721 89.7358 153.94C91.5918 156.412 94.4318 155.988 97.2238 156.252C97.2569 156.256 97.2905 156.253 97.3221 156.241C97.3536 156.23 97.382 156.211 97.4053 156.186C97.4286 156.161 97.4459 156.131 97.4561 156.098C97.4662 156.065 97.4689 156.03 97.4638 155.996C97.4531 155.921 97.4557 155.849 97.4717 155.78C97.4756 155.755 97.4882 155.733 97.5073 155.717C97.5264 155.7 97.5507 155.692 97.5758 155.692L106.328 155.58C106.552 155.58 106.597 155.489 106.464 155.308L106.272 155.052C106.085 154.801 106.149 154.668 106.464 154.652C106.826 154.636 107.026 154.553 107.064 154.404Z" fill="#FCB468"/>
<path d="M51.3677 139.692L53.2478 143.26C62.9358 160.812 81.3276 166.796 100.536 167.212L100.72 173.588C100.885 175.369 100.562 176.513 99.7517 177.02C85.9757 178.324 78.0237 185.052 74.3437 198.404C73.389 195.993 72.2903 193.919 71.0476 192.18C61.0796 178.26 51.8955 163.676 42.1355 149.66C40.1675 146.892 38.0316 144.564 36.8396 141.276C42.3382 142.721 47.181 142.193 51.3677 139.692Z" fill="#487A4B"/>
<path d="M120.064 148.596C116.741 152.633 112.408 154.569 107.064 154.404C104.12 154.351 101.578 153.665 99.4398 152.348C99.1464 151.308 99.4343 150.524 100.304 149.996C106.394 146.3 112.981 145.833 120.064 148.596Z" fill="#CF3722"/>
<path d="M42.1355 149.66C51.8955 163.676 61.0796 178.26 71.0476 192.18C72.2903 193.919 73.389 195.993 74.3437 198.404C73.0317 202.329 71.9757 206.873 71.1757 212.036C49.1224 204.009 31.541 190.271 18.4317 170.82C18.597 170.777 18.7357 170.799 18.8477 170.884C18.9651 170.969 19.0344 170.937 19.0557 170.788L19.0957 170.5C19.1117 170.372 19.1811 170.327 19.3037 170.364C20.9731 170.887 22.2797 170.513 23.2237 169.244C23.4317 168.972 23.6664 168.945 23.9277 169.164C24.8157 169.924 30.0957 173.212 29.6317 169.612C29.5997 169.356 29.6264 169.108 29.7117 168.868C30.5811 166.399 32.1011 164.428 34.2717 162.956C34.4904 162.807 34.6611 162.612 34.7837 162.372C35.9357 160.108 37.9277 158.788 38.9677 156.748C40.1517 154.417 41.2075 152.055 42.1355 149.66Z" fill="#4B855D"/>
<path d="M109.088 167.116L112.496 167.564L112.496 173.684L100.72 173.588L100.536 167.212L109.088 167.116Z" fill="#ED6735"/>
<path d="M100.72 173.588L112.496 173.684C112.245 175.652 112.541 176.711 113.384 176.86C113.68 182.692 110.84 185.604 106.064 188.3C105.844 188.426 105.587 188.47 105.336 188.425C105.086 188.379 104.86 188.247 104.696 188.052C102.253 185.124 100.466 181.777 99.3356 178.012C98.973 177.847 99.1117 177.516 99.7517 177.02C100.562 176.513 100.885 175.369 100.72 173.588Z" fill="#FB8A30"/>
<path d="M113.384 176.86C116.648 176.913 119.536 177.495 122.048 178.604C128.032 180.497 132.349 183.585 135 187.868C138.984 194.292 141.12 203.556 142.208 210.516C142.312 211.22 142.376 211.188 142.944 211.58L132.848 214.316C132.997 208.215 132.365 202.236 130.952 196.38C130.845 195.948 130.784 195.956 130.768 196.404L130.112 214.436C129.909 215.007 129.626 215.284 129.264 215.268C128.848 215.279 128.453 215.185 128.08 214.988C127.824 214.855 127.738 214.649 127.824 214.372C128.8 211.196 129.2 207.42 127.112 204.532C123.04 198.908 114.88 196.26 109.728 193.596C109.514 193.484 109.392 193.548 109.36 193.788L108.672 199.412C108.67 199.448 108.653 199.482 108.626 199.506C108.599 199.53 108.564 199.542 108.528 199.54C108.492 199.538 108.458 199.522 108.434 199.495C108.41 199.468 108.398 199.432 108.4 199.396C108.33 197.172 108.426 194.951 108.688 192.732C108.693 192.678 108.688 192.623 108.672 192.571C108.655 192.52 108.629 192.472 108.593 192.431C108.558 192.391 108.515 192.358 108.466 192.335C108.418 192.313 108.365 192.301 108.312 192.3L104.744 192.236C104.349 192.225 104.125 192.025 104.072 191.636L103.696 188.972C103.669 188.791 103.602 188.628 103.496 188.484C101.186 185.252 99.285 181.865 97.7917 178.324C97.8877 177.999 98.4023 177.895 99.3356 178.012C100.466 181.777 102.253 185.124 104.696 188.052C104.86 188.247 105.086 188.379 105.336 188.425C105.587 188.47 105.844 188.426 106.064 188.3C110.84 185.604 113.68 182.692 113.384 176.86Z" fill="#B79623"/>
<path d="M99.7517 177.02C99.1117 177.516 98.973 177.847 99.3356 178.012C98.4023 177.895 97.8877 177.999 97.7917 178.324C94.2877 178.484 91.3756 179.284 89.0556 180.724C87.0449 181.721 85.7945 182.564 85.3038 183.252C81.5518 188.5 76.1838 197.244 75.7678 203.748C75.7518 204.015 75.6451 204.236 75.4478 204.412C74.0025 205.724 73.2185 207.329 73.0958 209.228C72.2585 210.263 72.3437 211.345 73.3517 212.476L71.1757 212.036C71.9757 206.873 73.0317 202.329 74.3437 198.404C78.0237 185.052 85.9757 178.324 99.7517 177.02Z" fill="#FED987"/>
<path d="M97.7917 178.324C99.285 181.865 101.186 185.252 103.496 188.484C103.602 188.628 103.669 188.791 103.696 188.972L104.072 191.636C104.125 192.025 104.349 192.225 104.744 192.236L108.312 192.3C108.365 192.301 108.418 192.313 108.466 192.335C108.515 192.358 108.558 192.391 108.593 192.431C108.629 192.472 108.655 192.52 108.672 192.571C108.688 192.623 108.693 192.678 108.688 192.732C108.426 194.951 108.33 197.172 108.4 199.396C108.399 199.414 108.401 199.432 108.407 199.449C108.413 199.466 108.422 199.481 108.434 199.495C108.458 199.522 108.492 199.538 108.528 199.54C108.564 199.542 108.599 199.53 108.626 199.506C108.653 199.482 108.67 199.448 108.672 199.412L109.36 193.788C109.392 193.548 109.514 193.484 109.728 193.596C114.88 196.26 123.04 198.908 127.112 204.532C129.2 207.42 128.8 211.196 127.824 214.372C127.738 214.649 127.824 214.855 128.08 214.988C128.453 215.185 128.848 215.279 129.264 215.268C120.245 216.985 111.181 217.716 102.072 217.46L102.072 194.548C102.071 194.387 102.021 194.23 101.928 194.098C101.835 193.966 101.703 193.866 101.552 193.812C95.0636 191.428 92.5676 186.132 89.0556 180.724C91.3756 179.284 94.2877 178.484 97.7917 178.324Z" fill="#B7AC2E"/>
<path d="M122.048 178.604C137.8 181.428 141.272 197.292 143.568 210.604C143.6 210.796 143.552 210.964 143.424 211.108C143.333 211.209 143.291 211.335 143.296 211.484C143.152 211.201 143.034 211.233 142.944 211.58C142.376 211.188 142.312 211.22 142.208 210.516C141.12 203.556 138.984 194.292 135 187.868C132.349 183.585 128.032 180.497 122.048 178.604Z" fill="#FED987"/>
<path d="M89.0556 180.724C92.5676 186.132 95.0636 191.428 101.552 193.812C101.703 193.866 101.835 193.966 101.928 194.098C102.021 194.23 102.071 194.387 102.072 194.548L102.072 217.46C100.832 217.396 82.1118 215.996 81.5438 214.228L82.4798 196.868C82.4904 196.591 82.5518 196.327 82.6638 196.076C82.9518 195.425 82.8504 194.833 82.3598 194.3C82.2692 194.204 82.156 194.132 82.0305 194.09C81.905 194.049 81.7714 194.04 81.6421 194.064C81.5127 194.088 81.3919 194.144 81.2908 194.227C81.1897 194.311 81.1116 194.418 81.0638 194.54C79.2024 199.276 78.5758 204.185 79.1838 209.268C79.1922 209.35 79.1756 209.433 79.136 209.505C79.0964 209.578 79.0358 209.637 78.9621 209.674C78.8884 209.711 78.8051 209.725 78.7233 209.714C78.6415 209.703 78.5649 209.667 78.5038 209.612L75.2478 206.508C75.1993 206.462 75.1384 206.431 75.0725 206.419C75.0065 206.408 74.9384 206.416 74.8764 206.443C74.8144 206.47 74.7613 206.515 74.7235 206.572C74.6858 206.629 74.665 206.696 74.6638 206.764C74.6638 207.271 75.0664 207.977 75.8718 208.884C74.2878 208.671 73.3625 208.785 73.0958 209.228C73.2185 207.329 74.0025 205.724 75.4478 204.412C75.6451 204.236 75.7518 204.015 75.7678 203.748C76.1838 197.244 81.5518 188.5 85.3038 183.252C85.7945 182.564 87.0449 181.721 89.0556 180.724ZM85.8478 188.3C86.5945 186.919 87.5145 185.687 88.6078 184.604C88.8851 184.332 88.8611 184.087 88.5358 183.868L88.2158 183.652C88.092 183.571 87.9424 183.539 87.7951 183.561C87.6479 183.583 87.513 183.658 87.4158 183.772L83.0238 188.916C82.7838 189.199 82.8105 189.455 83.1038 189.684L84.5038 190.788C84.7331 190.964 84.7598 191.167 84.5838 191.396C82.9518 193.524 84.3838 196.46 85.5438 198.884C88.0638 204.124 92.9118 197.188 93.3998 194.508C93.4478 194.257 93.3438 194.116 93.0878 194.084C91.2745 193.855 89.5625 193.292 87.9518 192.396C87.7225 192.268 87.4771 192.204 87.2158 192.204H86.2958C86.1589 192.205 86.0257 192.162 85.9158 192.081C85.8058 192 85.7248 191.885 85.6846 191.754C85.6443 191.623 85.647 191.481 85.6922 191.351C85.7374 191.22 85.8228 191.107 85.9358 191.028C87.1571 190.18 88.1785 189.119 88.9998 187.844C89.0366 187.786 89.0538 187.718 89.0488 187.649C89.0438 187.581 89.0169 187.516 88.972 187.464C88.9272 187.412 88.8668 187.375 88.7997 187.36C88.7327 187.345 88.6626 187.352 88.5998 187.38C87.9865 187.663 87.4105 188.017 86.8718 188.444C86.6905 188.588 86.4852 188.644 86.2558 188.612L85.9838 188.572C85.8078 188.551 85.7625 188.46 85.8478 188.3Z" fill="#C5BF44"/>
<path d="M85.9838 188.572L86.2558 188.612C86.4852 188.644 86.6905 188.588 86.8718 188.444C87.4105 188.017 87.9865 187.663 88.5998 187.38C88.6626 187.352 88.7327 187.345 88.7997 187.36C88.8668 187.375 88.9272 187.412 88.972 187.464C89.0169 187.516 89.0438 187.581 89.0488 187.649C89.0538 187.718 89.0366 187.786 88.9998 187.844C88.1785 189.119 87.1571 190.18 85.9358 191.028C85.8228 191.107 85.7374 191.22 85.6922 191.351C85.647 191.481 85.6443 191.623 85.6846 191.754C85.7248 191.885 85.8058 192 85.9158 192.081C86.0257 192.162 86.1589 192.205 86.2958 192.204H87.2158C87.4771 192.204 87.7225 192.268 87.9518 192.396C89.5625 193.292 91.2745 193.855 93.0878 194.084C93.3438 194.116 93.4478 194.257 93.3998 194.508C92.9118 197.188 88.0638 204.124 85.5438 198.884C84.3838 196.46 82.9518 193.524 84.5838 191.396C84.7598 191.167 84.7331 190.964 84.5038 190.788L83.1038 189.684C82.8105 189.455 82.7838 189.199 83.0238 188.916L87.4158 183.772C87.513 183.658 87.6479 183.583 87.7951 183.561C87.9424 183.539 88.092 183.571 88.2158 183.652L88.5358 183.868C88.8611 184.087 88.8851 184.332 88.6078 184.604C87.5145 185.687 86.5945 186.919 85.8478 188.3C85.7625 188.46 85.8078 188.551 85.9838 188.572Z" fill="#B3AB69"/>
<path d="M81.5438 214.228C80.5252 214.532 79.853 214.481 79.5277 214.076C78.7757 211.847 77.5571 210.116 75.8718 208.884C75.0664 207.977 74.6638 207.271 74.6638 206.764C74.665 206.696 74.6858 206.629 74.7235 206.572C74.7613 206.515 74.8144 206.47 74.8764 206.443C74.9384 206.416 75.0065 206.408 75.0725 206.419C75.1384 206.431 75.1993 206.462 75.2478 206.508L78.5038 209.612C78.5649 209.667 78.6415 209.703 78.7233 209.714C78.8051 209.725 78.8884 209.711 78.9621 209.674C79.0358 209.637 79.0964 209.578 79.136 209.505C79.1756 209.433 79.1922 209.35 79.1838 209.268C78.5758 204.185 79.2024 199.276 81.0638 194.54C81.1116 194.418 81.1897 194.311 81.2908 194.227C81.3919 194.144 81.5127 194.088 81.6421 194.064C81.7714 194.04 81.905 194.049 82.0305 194.09C82.156 194.132 82.2692 194.204 82.3598 194.3C82.8504 194.833 82.9518 195.425 82.6638 196.076C82.5518 196.327 82.4904 196.591 82.4798 196.868L81.5438 214.228Z" fill="#B79623"/>
<path d="M132.848 214.316L130.112 214.436L130.768 196.404C130.784 195.956 130.845 195.948 130.952 196.38C132.365 202.236 132.997 208.215 132.848 214.316Z" fill="#60080C"/>
<path d="M75.8718 208.884C77.5571 210.116 78.7757 211.847 79.5277 214.076L73.3517 212.476C72.3437 211.345 72.2585 210.263 73.0958 209.228C73.3625 208.785 74.2878 208.671 75.8718 208.884Z" fill="#B7AC2E"/>
</svg>
