<svg width="214" height="216" viewBox="0 0 214 216" fill="none" xmlns="http://www.w3.org/2000/svg">
<path d="M140.45 5.29894L144.874 6.99492C144.085 8.95226 143.319 10.9282 142.578 12.9229C141.434 16.0109 140.05 17.8269 140.762 21.3789C140.821 21.6669 140.975 21.8856 141.226 22.0349L147.098 25.5549C140.063 22.9736 133.026 21.1923 125.986 20.2109C113.058 18.0136 100.296 18.9205 87.6982 22.9312C86.1942 23.4112 84.6289 24.1925 83.0022 25.2751C85.0822 22.3551 89.0422 16.451 83.7542 15.075C83.3489 14.979 82.6982 15.0642 81.8022 15.3308C81.7969 15.3095 81.7915 15.2857 81.7862 15.259C81.5675 12.8217 81.6073 10.3762 81.9059 7.9229C82.1299 6.1389 81.6419 4.70694 81.3139 2.97894C101.303 -1.65573 121.015 -0.882397 140.45 5.29894Z" fill="#9CC49A"/>
<path d="M81.3139 2.97894C81.6419 4.70694 82.1299 6.1389 81.9059 7.9229C81.6073 10.3762 81.5675 12.8217 81.7862 15.259C70.7302 18.899 55.57 29.931 55.338 42.707C55.3327 42.9843 55.1967 43.1576 54.93 43.227C48.9513 44.6936 44.1673 48.011 40.578 53.179C40.434 52.9016 40.282 52.7364 40.122 52.683C40.0846 52.6724 40.0526 52.6804 40.026 52.707L39.85 52.883C39.7166 53.0164 39.578 53.0244 39.434 52.907C38.682 52.299 38.074 51.9871 37.058 52.2431C27.978 54.5151 20.786 57.771 12.762 61.027C12.506 61.1337 12.25 61.1337 11.994 61.027C11.4767 60.8137 11.066 60.4164 10.762 59.835C20.1487 40.9497 33.9646 25.907 52.21 14.707C61.154 9.4057 70.8553 5.49627 81.3139 2.97894Z" fill="#BBDAB0"/>
<path d="M144.874 6.99492C156.154 11.3203 166.527 17.5524 175.994 25.691L172.938 27.699C172.735 27.8323 172.573 28.003 172.45 28.211C171.207 30.291 169.559 31.9897 167.506 33.307C167.322 33.4237 167.171 33.5863 167.069 33.7789C166.967 33.9714 166.916 34.1873 166.923 34.4053C166.929 34.6232 166.992 34.8357 167.106 35.0219C167.219 35.208 167.379 35.3615 167.57 35.467C168.754 36.1284 169.234 37.003 169.01 38.091C165.794 35.3443 162.663 33.2723 159.618 31.875C155.394 29.267 151.221 27.1602 147.098 25.5549L141.226 22.0349C140.975 21.8856 140.821 21.6669 140.762 21.3789C140.05 17.8269 141.434 16.0109 142.578 12.9229C143.319 10.9282 144.085 8.95226 144.874 6.99492Z" fill="#76AC88"/>
<path d="M83.7542 15.075C82.0582 20.0457 79.9755 24.8083 77.5061 29.363C76.3328 26.3603 76.1834 23.4591 77.0581 20.6591C77.1541 20.3498 77.042 20.1631 76.722 20.0991L76.2261 20.0031C77.9861 18.3338 80.0234 17.4059 82.3381 17.2193C82.6047 17.1979 82.7141 17.0566 82.6661 16.7953C82.5807 16.2886 82.2929 15.8002 81.8022 15.3308C82.6982 15.0642 83.3489 14.979 83.7542 15.075Z" fill="#523D38"/>
<path d="M81.7862 15.259C81.7915 15.2857 81.7969 15.3095 81.8022 15.3308C82.2929 15.8002 82.5807 16.2886 82.6661 16.7953C82.7141 17.0566 82.6047 17.1979 82.3381 17.2193C80.0234 17.4059 77.9861 18.3338 76.2261 20.0031C67.6421 24.1471 57.4422 33.3471 56.4982 43.5391C56.4769 43.8058 56.3409 43.9818 56.0902 44.0671C51.4662 45.6298 47.7089 48.4245 44.8182 52.4511C38.4716 60.8191 34.6687 70.0565 33.41 80.1632L32.8663 83.8669C32.829 84.1229 32.6876 84.2029 32.4423 84.1069C31.653 83.8029 31.1276 84.0002 30.8663 84.6989L32.9223 70.9148C34.3516 64.4295 36.9033 58.5176 40.578 53.179C44.1673 48.011 48.9513 44.6936 54.93 43.227C55.1967 43.1576 55.3327 42.9843 55.338 42.707C55.57 29.931 70.7302 18.899 81.7862 15.259Z" fill="#645A4F"/>
<path d="M83.7542 15.075C89.0422 16.451 85.0822 22.3551 83.0022 25.2751L78.9221 29.675C78.5941 29.859 77.2661 30.115 77.5061 29.363C79.9755 24.8083 82.0582 20.0457 83.7542 15.075Z" fill="#070608"/>
<path d="M125.986 20.2109C125.474 20.5363 125.823 21.1336 127.034 22.0029C127.439 22.2909 127.394 22.4029 126.898 22.3389C110.778 20.2589 95.2582 23.5869 80.0662 29.5549C79.6502 29.7149 79.4261 30.155 78.9221 29.675L83.0022 25.2751C84.6289 24.1925 86.1942 23.4112 87.6982 22.9312C100.296 18.9205 113.058 18.0136 125.986 20.2109Z" fill="#523D38"/>
<path d="M76.2261 20.0031L76.722 20.0991C77.042 20.1631 77.1541 20.3498 77.0581 20.6591C76.1834 23.4591 76.3328 26.3603 77.5061 29.363C77.2661 30.115 78.5941 29.859 78.9221 29.675C79.4261 30.155 79.6502 29.7149 80.0662 29.5549C95.2582 23.5869 110.778 20.2589 126.898 22.3389C127.394 22.4029 127.439 22.2909 127.034 22.0029C125.823 21.1336 125.474 20.5363 125.986 20.2109C133.026 21.1923 140.063 22.9736 147.098 25.5549C151.221 27.1602 155.394 29.267 159.618 31.875C154.621 30.115 149.794 28.203 145.138 26.139C144.429 25.8243 143.746 25.659 143.09 25.643C143.012 25.644 142.937 25.672 142.878 25.7221C142.818 25.7722 142.778 25.8413 142.764 25.9177C142.75 25.9942 142.763 26.0731 142.8 26.1411C142.838 26.2092 142.898 26.2621 142.97 26.291C148.527 28.2323 153.669 30.7976 158.394 33.987C155.285 36.2323 151.514 37.7364 147.082 38.4991C134.002 40.7391 115.786 45.0991 103.874 47.1711C103.623 47.2138 103.413 47.3311 103.242 47.5231L102.586 48.2591C102.399 48.4666 102.152 48.6071 101.882 48.6591L95.362 50.0351C95.1001 50.0919 94.8278 50.046 94.602 49.9071C92.5593 48.6804 90.586 48.8058 88.682 50.2831C88.4625 50.4556 88.1994 50.5637 87.922 50.5951C79.234 51.5178 70.29 53.1524 61.09 55.4991C57.5593 56.4004 55.5274 56.0218 54.994 54.3631C55.714 53.7018 56.2049 53.0484 56.4662 52.403C56.5261 52.2514 56.5436 52.0868 56.5168 51.9274C56.49 51.7679 56.4199 51.6197 56.3142 51.499L52.5542 47.251C52.4523 47.1366 52.314 47.0612 52.1635 47.0378C52.013 47.0144 51.8597 47.0446 51.7302 47.123C49.2555 48.595 47.2689 50.4084 45.7702 52.563L44.8182 52.4511C47.7089 48.4245 51.4662 45.6298 56.0902 44.0671C56.3409 43.9818 56.4769 43.8058 56.4982 43.5391C57.4422 33.3471 67.6421 24.1471 76.2261 20.0031Z" fill="#2D1920"/>
<path d="M159.618 31.875C162.663 33.2723 165.794 35.3443 169.01 38.091C172.418 40.6723 175.421 43.531 178.018 46.667C186.823 58.6457 190.805 71.9098 189.962 86.4592C189.957 86.6138 189.877 86.6885 189.722 86.6832C189.653 86.6832 189.573 86.6859 189.482 86.6912C189.21 86.7125 189.063 86.5872 189.042 86.3152C188.186 74.1632 185.106 62.7072 178.274 52.6352C173.01 45.2272 166.383 39.011 158.394 33.987C153.669 30.7976 148.527 28.2323 142.97 26.291C142.898 26.2621 142.838 26.2092 142.8 26.1411C142.763 26.0731 142.75 25.9942 142.764 25.9177C142.778 25.8413 142.818 25.7722 142.878 25.7221C142.937 25.672 143.012 25.644 143.09 25.643C143.746 25.659 144.429 25.8243 145.138 26.139C149.794 28.203 154.621 30.115 159.618 31.875Z" fill="#523D38"/>
<path d="M175.994 25.691C190.058 37.563 201.41 52.699 207.482 70.115C217.402 98.603 216.074 130.971 202.498 158.099C201.922 158.313 201.423 158.259 201.002 157.939C200.841 157.813 200.726 157.637 200.676 157.439C200.625 157.241 200.641 157.031 200.722 156.843C201.466 155.147 202.122 153.931 202.274 151.923C202.375 150.691 202.645 149.278 203.082 147.683C205.858 137.619 207.994 126.339 207.522 115.675C206.602 94.9071 201.986 74.1631 187.826 58.2511C187.671 58.0751 187.479 58.0218 187.25 58.0911L186.226 58.4031C184.322 53.9231 181.586 50.011 178.018 46.667C175.421 43.531 172.418 40.6723 169.01 38.091C169.234 37.003 168.754 36.1284 167.57 35.467C167.379 35.3615 167.219 35.208 167.106 35.0219C166.992 34.8357 166.929 34.6232 166.923 34.4053C166.916 34.1873 166.967 33.9714 167.069 33.7789C167.171 33.5863 167.322 33.4237 167.506 33.307C169.559 31.9897 171.207 30.291 172.45 28.211C172.573 28.003 172.735 27.8323 172.938 27.699L175.994 25.691Z" fill="#53926C"/>
<path d="M158.394 33.987C166.383 39.011 173.01 45.2272 178.274 52.6352C177.597 52.6885 176.946 52.5683 176.322 52.275C176.098 52.1683 175.933 52.2297 175.826 52.459C175.25 53.7657 174.25 54.4723 172.826 54.579C172.618 54.595 172.45 54.6884 172.322 54.859L172.09 55.187C171.951 55.3684 171.773 55.435 171.554 55.387C169.914 55.019 169.09 56.043 167.826 56.347C166.226 56.7417 164.629 57.187 163.034 57.683C162.778 57.7614 162.503 57.7642 162.242 57.691C157.794 56.427 155.394 57.435 151.09 58.483C148.266 59.171 143.922 59.723 140.41 60.947C138.314 61.683 136.258 61.955 134.146 62.523C132.754 62.899 131.154 62.691 129.658 63.387C127.346 64.475 126.666 64.771 124.474 64.683C123.274 64.635 122.229 65.0804 121.338 66.019C121.151 66.2164 120.927 66.3497 120.666 66.419C117.514 67.2244 114.335 67.8724 111.13 68.363C109.426 68.627 107.49 68.075 105.482 69.499C105.433 69.5338 105.392 69.579 105.361 69.6313C105.331 69.6837 105.313 69.7419 105.308 69.8021C105.302 69.8622 105.31 69.9228 105.331 69.9796C105.351 70.0364 105.384 70.0881 105.426 70.131C105.575 70.2804 105.73 70.4297 105.89 70.579C106.157 70.835 106.109 71.0057 105.746 71.091C105.65 71.1124 105.554 71.139 105.458 71.171C105.218 71.2563 104.991 71.235 104.778 71.107C98.6714 67.523 92.85 63.523 87.314 59.107C87.2369 59.0461 87.1423 59.0111 87.0434 59.0068C86.9444 59.0025 86.8461 59.0292 86.762 59.083C78.098 64.595 70.242 69.699 62.602 77.547C61.922 78.243 61.426 78.267 60.642 78.835C60.5194 78.9257 60.4847 78.899 60.538 78.755L61.138 77.171C61.1558 77.119 61.1579 77.0629 61.144 77.0097C61.1301 76.9565 61.1009 76.9086 61.0599 76.8719C61.019 76.8352 60.9681 76.8114 60.9137 76.8034C60.8593 76.7954 60.8038 76.8036 60.754 76.827C56.8714 78.7577 52.8367 80.2884 48.65 81.419C48.33 81.507 47.914 81.987 47.746 82.267C47.6074 82.507 47.3994 82.6217 47.122 82.611C45.25 82.5364 43.7407 83.227 42.594 84.683C42.4537 84.8545 42.2597 84.9753 42.042 85.027C40.6287 85.3363 39.2394 85.6883 37.874 86.083C37.634 86.1523 37.3887 86.171 37.138 86.139L34.026 85.747C33.7327 85.7097 33.6287 85.5497 33.714 85.267C34.274 83.427 34.1727 81.7259 33.41 80.1632C34.6687 70.0565 38.4716 60.8191 44.8182 52.4511L45.7702 52.563L42.6903 57.5069C42.6079 57.6396 42.5615 57.7916 42.5559 57.9478C42.5503 58.1039 42.5857 58.2589 42.6585 58.3971C42.7312 58.5354 42.8389 58.6522 42.9708 58.7361C43.1027 58.8199 43.2542 58.8677 43.4103 58.8749C47.0743 59.0349 50.986 57.1311 54.994 54.3631C55.5274 56.0218 57.5593 56.4004 61.09 55.4991C70.29 53.1524 79.234 51.5178 87.922 50.5951C88.1994 50.5637 88.4625 50.4556 88.682 50.2831C90.586 48.8058 92.5593 48.6804 94.602 49.9071C94.8278 50.046 95.1001 50.0919 95.362 50.0351L101.882 48.6591C102.152 48.6071 102.399 48.4666 102.586 48.2591L103.242 47.5231C103.413 47.3311 103.623 47.2138 103.874 47.1711C115.786 45.0991 134.002 40.7391 147.082 38.4991C151.514 37.7364 155.285 36.2323 158.394 33.987ZM42.4181 72.7151C43.3141 73.2511 43.8021 74.0911 44.6581 74.6271C44.8928 74.7711 45.0821 74.7258 45.2261 74.4911C46.3461 72.6991 45.8181 70.8511 43.9061 70.0831C41.8261 69.2511 40.7701 71.7311 42.4181 72.7151ZM36.4342 79.7951C37.7542 81.7311 40.6582 81.1391 41.0982 78.8351C41.1277 78.6863 41.1221 78.5333 41.0818 78.3886C41.0414 78.244 40.9676 78.1118 40.8663 78.0031L38.9702 75.9391C38.8002 75.7528 38.5834 75.6153 38.3424 75.5408C38.1014 75.4664 37.8449 75.4577 37.5994 75.5156C37.3538 75.5735 37.1283 75.6959 36.9459 75.8702C36.7636 76.0445 36.6311 76.2644 36.5623 76.5071C36.2583 77.5711 35.7622 78.8111 36.4342 79.7951Z" fill="#1C0E18"/>
<path d="M178.018 46.667C181.586 50.011 184.322 53.9231 186.226 58.4031C193.722 75.5151 192.474 97.3551 189.322 115.403C187.589 113.872 185.485 113.168 183.01 113.291C175.762 114.235 174.45 120.611 170.834 125.451C170.861 124.886 170.965 124.344 171.146 123.827C173.858 116.115 167.554 98.8431 165.082 90.7311C165.036 90.5838 164.951 90.4521 164.837 90.3505C164.723 90.2489 164.583 90.1813 164.434 90.1551L147.194 86.9871L131.618 84.3391C128.786 83.2617 126.01 82.3686 123.29 81.6592C110.261 78.2512 98.8101 72.0112 88.9381 62.9392C88.7408 62.7579 88.5088 62.6699 88.2421 62.6752C87.5648 62.6859 86.9754 62.8672 86.4741 63.2192C77.6634 66.9792 69.9889 72.2165 63.4502 78.9311C55.6422 86.9551 51.2022 99.1391 48.3382 109.499C47.0742 114.059 46.9329 118.838 47.9142 123.835C47.9269 123.879 47.9219 123.925 47.9001 123.965C47.8783 124.005 47.8417 124.034 47.7982 124.047C47.7547 124.06 47.7079 124.055 47.6682 124.033C47.6284 124.011 47.5989 123.975 47.5862 123.931C46.3542 120.843 43.5462 114.411 39.9702 113.539C37.5755 112.536 35.2792 112.622 33.0819 113.795C31.3006 104.094 30.5623 94.3949 30.8663 84.6989C31.1276 84.0002 31.653 83.8029 32.4423 84.1069C32.6876 84.2029 32.829 84.1229 32.8663 83.8669L33.41 80.1632C34.1727 81.7259 34.274 83.427 33.714 85.267C33.6287 85.5497 33.7327 85.7097 34.026 85.747L37.138 86.139C37.3887 86.171 37.634 86.1523 37.874 86.083C39.2394 85.6883 40.6287 85.3363 42.042 85.027C42.2597 84.9753 42.4537 84.8545 42.594 84.683C43.7407 83.227 45.25 82.5364 47.122 82.611C47.3994 82.6217 47.6074 82.507 47.746 82.267C47.914 81.987 48.33 81.507 48.65 81.419C52.8367 80.2884 56.8714 78.7577 60.754 76.827C60.8038 76.8036 60.8593 76.7954 60.9137 76.8034C60.9681 76.8114 61.019 76.8352 61.0599 76.8719C61.1009 76.9086 61.1301 76.9565 61.144 77.0097C61.1579 77.0629 61.1558 77.119 61.138 77.171L60.538 78.755C60.4847 78.899 60.5194 78.9257 60.642 78.835C61.426 78.267 61.922 78.243 62.602 77.547C70.242 69.699 78.098 64.595 86.762 59.083C86.8461 59.0292 86.9444 59.0025 87.0434 59.0068C87.1423 59.0111 87.2369 59.0461 87.314 59.107C92.85 63.523 98.6714 67.523 104.778 71.107C104.991 71.235 105.218 71.2563 105.458 71.171C105.554 71.139 105.65 71.1124 105.746 71.091C106.109 71.0057 106.157 70.835 105.89 70.579C105.73 70.4297 105.575 70.2804 105.426 70.131C105.384 70.0881 105.351 70.0364 105.331 69.9796C105.31 69.9228 105.302 69.8622 105.308 69.8021C105.313 69.7419 105.331 69.6837 105.361 69.6313C105.392 69.579 105.433 69.5338 105.482 69.499C107.49 68.075 109.426 68.627 111.13 68.363C114.335 67.8724 117.514 67.2244 120.666 66.419C120.927 66.3497 121.151 66.2164 121.338 66.019C122.229 65.0804 123.274 64.635 124.474 64.683C126.666 64.771 127.346 64.475 129.658 63.387C131.154 62.691 132.754 62.899 134.146 62.523C136.258 61.955 138.314 61.683 140.41 60.947C143.922 59.723 148.266 59.171 151.09 58.483C155.394 57.435 157.794 56.427 162.242 57.691C162.503 57.7642 162.778 57.7614 163.034 57.683C164.629 57.187 166.226 56.7417 167.826 56.347C169.09 56.043 169.914 55.019 171.554 55.387C171.773 55.435 171.951 55.3684 172.09 55.187L172.322 54.859C172.45 54.6884 172.618 54.595 172.826 54.579C174.25 54.4723 175.25 53.7657 175.826 52.459C175.933 52.2297 176.098 52.1683 176.322 52.275C176.946 52.5683 177.597 52.6885 178.274 52.6352C185.106 62.7072 188.186 74.1632 189.042 86.3152C189.063 86.5872 189.21 86.7125 189.482 86.6912C189.573 86.6859 189.653 86.6832 189.722 86.6832C189.877 86.6885 189.957 86.6138 189.962 86.4592C190.805 71.9098 186.823 58.6457 178.018 46.667Z" fill="#160B14"/>
<path d="M54.994 54.3631C50.986 57.1311 47.0743 59.0349 43.4103 58.8749C43.2542 58.8677 43.1027 58.8199 42.9708 58.7361C42.8389 58.6522 42.7312 58.5354 42.6585 58.3971C42.5857 58.2589 42.5503 58.1039 42.5559 57.9478C42.5615 57.7916 42.6079 57.6396 42.6903 57.5069L45.7702 52.563C47.2689 50.4084 49.2555 48.595 51.7302 47.123C51.8597 47.0446 52.013 47.0144 52.1635 47.0378C52.314 47.0612 52.4523 47.1366 52.5542 47.251L56.3142 51.499C56.4199 51.6197 56.49 51.7679 56.5168 51.9274C56.5436 52.0868 56.5261 52.2514 56.4662 52.403C56.2049 53.0484 55.714 53.7018 54.994 54.3631Z" fill="#472D30"/>
<path d="M40.578 53.179C36.9033 58.5176 34.3516 64.4295 32.9223 70.9148C32.8316 70.8882 32.757 70.8352 32.6983 70.7552C32.549 70.5472 32.477 70.5232 32.4823 70.6832C32.4823 70.7525 32.4823 70.8272 32.4823 70.9072C32.4833 70.9323 32.4777 70.9571 32.4662 70.9794C32.4546 71.0017 32.4373 71.0209 32.4159 71.0351C32.3946 71.0494 32.3697 71.0583 32.3436 71.0611C32.3175 71.0639 32.291 71.0605 32.2664 71.0512C29.0504 69.6832 28.0824 71.5312 25.7144 72.6672C20.4557 75.1792 15.0477 77.3232 9.49036 79.0992C9.13302 79.2112 8.63968 79.2778 8.01035 79.2992C7.74902 79.3045 7.50902 79.3765 7.29036 79.5152C5.44502 80.6779 4.19168 80.7045 3.53035 79.5952C5.39701 72.7152 7.80732 66.1284 10.762 59.835C11.066 60.4164 11.4767 60.8137 11.994 61.027C12.25 61.1337 12.506 61.1337 12.762 61.027C20.786 57.771 27.978 54.5151 37.058 52.2431C38.074 51.9871 38.682 52.299 39.434 52.907C39.578 53.0244 39.7166 53.0164 39.85 52.883L40.026 52.707C40.0526 52.6804 40.0846 52.6724 40.122 52.683C40.282 52.7364 40.434 52.9016 40.578 53.179Z" fill="#9CC49A"/>
<path d="M202.498 158.099C199.293 164.515 195.474 170.449 191.042 175.899C178.695 191.382 163.341 202.611 144.978 209.587C144.802 198.139 142.93 183.835 132.394 177.507C129.951 175.934 127.464 174.837 124.93 174.219C122.813 172.971 120.442 172.294 117.818 172.187C117.882 172.08 117.935 171.984 117.978 171.899C118.063 171.718 118.205 171.624 118.402 171.619C135.938 170.923 156.674 165.691 169.114 152.451C171.61 149.795 174.418 145.723 177.194 142.483L178.122 142.099C184.746 140.707 190.082 133.099 191.874 127.027C193.159 122.664 192.309 118.79 189.322 115.403C192.474 97.3551 193.722 75.5151 186.226 58.4031L187.25 58.0911C187.479 58.0218 187.671 58.0751 187.826 58.2511C201.986 74.1631 206.602 94.9071 207.522 115.675C207.994 126.339 205.858 137.619 203.082 147.683C202.645 149.278 202.375 150.691 202.274 151.923C202.122 153.931 201.466 155.147 200.722 156.843C200.641 157.031 200.625 157.241 200.676 157.439C200.726 157.637 200.841 157.813 201.002 157.939C201.423 158.259 201.922 158.313 202.498 158.099Z" fill="#4B855D"/>
<path d="M131.618 84.3391C129.098 84.9231 126.106 86.4671 125.626 89.2351C124.821 89.5657 124.039 89.5871 123.282 89.2991C109.258 83.9871 96.482 76.3951 86.082 65.3631C85.9982 65.272 85.9452 65.1569 85.9308 65.0347C85.9164 64.9124 85.9414 64.7893 86.002 64.6831C86.3007 64.1605 86.4581 63.6726 86.4741 63.2192C86.9754 62.8672 87.5648 62.6859 88.2421 62.6752C88.5088 62.6699 88.7408 62.7579 88.9381 62.9392C98.8101 72.0112 110.261 78.2512 123.29 81.6592C126.01 82.3686 128.786 83.2617 131.618 84.3391Z" fill="#EF7758"/>
<path d="M86.4741 63.2192C86.4581 63.6726 86.3007 64.1605 86.002 64.6831C85.9414 64.7893 85.9164 64.9124 85.9308 65.0347C85.9452 65.1569 85.9982 65.272 86.082 65.3631C96.482 76.3951 109.258 83.9871 123.282 89.2991C124.039 89.5871 124.821 89.5657 125.626 89.2351L126.738 89.6751C126.898 90.1071 126.893 90.579 126.722 91.091C126.637 91.347 126.658 91.595 126.786 91.835C129.066 96.003 130.882 100.483 134.482 103.811C133.496 104.307 132.741 104.233 132.218 103.587C132.16 103.514 132.118 103.43 132.093 103.341C132.068 103.251 132.062 103.158 132.074 103.067L132.114 102.779C132.157 102.454 132.024 102.342 131.714 102.443L130.298 102.907C129.973 103.014 129.832 102.897 129.874 102.555C129.949 102.049 129.768 101.699 129.33 101.507C129.032 101.374 128.882 101.47 128.882 101.795V102.139C128.884 102.305 128.832 102.467 128.734 102.6C128.636 102.734 128.498 102.832 128.34 102.881C128.181 102.93 128.011 102.926 127.855 102.87C127.7 102.814 127.566 102.709 127.474 102.571C125.64 99.8405 123.056 98.2192 119.722 97.7072C119.466 97.6699 119.384 97.7739 119.474 98.0192L119.706 98.6352C119.829 98.9765 119.733 99.0565 119.418 98.8752C117.874 97.9792 115.418 98.3232 113.714 98.0672C110.538 97.5872 107.722 97.7712 104.722 96.0352C101.73 94.3072 99.1863 95.5232 96.0343 95.4992C95.7996 95.4992 95.6156 95.5952 95.4823 95.7872L94.9783 96.5232C94.7969 96.7792 94.5516 96.8965 94.2423 96.8752C92.2743 96.7472 90.4716 97.2432 88.8343 98.3632C88.5836 98.5339 88.3116 98.5899 88.0183 98.5312C86.2956 98.1685 84.8983 98.6592 83.8263 100.003C83.6556 100.222 83.5756 100.467 83.5863 100.739C83.6503 102.382 82.8103 103.518 81.0663 104.147C70.6503 102.243 63.9942 106.491 61.0982 116.891C60.1915 120.134 60.1968 122.824 61.1142 124.963L63.2659 126.667L63.1382 128.523C63.1285 128.654 63.0839 128.779 63.0093 128.887C62.9346 128.994 62.8327 129.078 62.7142 129.131C60.6876 130.022 58.7782 131.113 56.9862 132.403C55.6022 133.403 52.5222 137.475 55.7702 137.891C56.0422 137.923 56.2716 138.041 56.4582 138.243C58.8262 140.734 61.6662 142.515 64.9782 143.587C65.236 143.669 65.4572 143.842 65.6022 144.075C68.0662 148.115 72.3062 146.939 76.1462 147.243C76.42 147.264 76.6877 147.346 76.9302 147.483C77.2449 147.665 77.5169 147.657 77.7462 147.459C77.9169 147.31 78.1169 147.241 78.3462 147.251C80.9862 147.379 84.1302 146.771 86.6342 147.523C87.5462 147.795 88.4849 147.961 89.4502 148.019C90.6769 151.822 92.8712 155.251 96.0339 158.307C101.991 162.307 108.453 162.414 115.418 158.627C117.397 157.352 119.183 155.616 120.778 153.419C121.13 153.968 121.29 154.651 121.258 155.467C121.253 155.597 121.22 155.725 121.16 155.841C121.101 155.957 121.017 156.059 120.914 156.139C119.922 156.939 118.933 157.758 117.946 158.595C117.919 158.618 117.901 158.649 117.897 158.684C117.892 158.718 117.901 158.753 117.922 158.783C117.942 158.812 117.973 158.833 118.008 158.843C118.044 158.853 118.081 158.85 118.114 158.835C121.69 156.883 122.61 152.115 127.306 153.027C127.582 153.084 127.869 153.056 128.13 152.947C133.069 150.878 138.175 149.398 143.45 148.507C143.578 148.486 143.653 148.539 143.674 148.667L143.714 148.979C143.721 149.022 143.74 149.062 143.768 149.095C143.796 149.128 143.832 149.152 143.873 149.166C143.914 149.18 143.958 149.183 144.001 149.174C144.043 149.165 144.082 149.144 144.114 149.115C145.943 147.28 147.327 146.128 148.266 145.659C152.095 143.734 152.389 142.606 149.146 142.275C152.335 142.446 155.511 142.235 158.674 141.643C159.274 142.259 159.258 142.987 158.722 143.683C151.466 153.307 141.866 161.707 129.738 163.715C129.472 163.763 129.322 163.92 129.29 164.187C129.237 164.582 129.304 164.995 129.49 165.427L114.642 167.715C114.274 167.603 113.949 167.568 113.666 167.611L102.506 167.939C83.2341 165.859 60.5782 161.707 51.5302 141.843C51.4076 141.576 51.2076 141.486 50.9302 141.571C47.8316 142.515 44.6662 142.678 41.4342 142.059C41.0556 141.808 40.6741 141.675 40.2901 141.659C39.4821 136.059 36.6101 134.547 34.2581 130.483C30.2581 123.587 33.2102 117.203 39.9702 113.539C43.5462 114.411 46.3542 120.843 47.5862 123.931C47.5989 123.975 47.6284 124.011 47.6682 124.033C47.7079 124.055 47.7547 124.06 47.7982 124.047C47.8417 124.034 47.8783 124.005 47.9001 123.965C47.9219 123.925 47.9269 123.879 47.9142 123.835C46.9329 118.838 47.0742 114.059 48.3382 109.499C51.2022 99.1391 55.6422 86.9551 63.4502 78.9311C69.9889 72.2165 77.6634 66.9792 86.4741 63.2192ZM84.418 89.867C86.0927 90.0323 87.7913 90.099 89.514 90.067C89.7593 90.0616 89.9727 89.979 90.154 89.819C93.058 87.275 88.882 84.6989 86.458 84.1469C76.994 82.0029 67.922 86.371 62.186 93.827C61.754 94.387 61.5727 94.8643 61.642 95.259C61.6628 95.3817 61.7146 95.497 61.7927 95.594C61.8707 95.691 61.9724 95.7666 62.0882 95.8137C62.2041 95.8609 62.3303 95.878 62.4552 95.8635C62.58 95.8491 62.6993 95.8034 62.802 95.731C69.3566 91.0696 76.562 89.115 84.418 89.867ZM37.546 122.971C35.858 129.611 42.794 132.499 48.226 132.395C48.2793 132.395 48.29 132.374 48.258 132.331C46.93 130.283 45.594 127.547 44.25 124.123C43.306 121.731 38.714 118.355 37.546 122.971Z" fill="#FBB273"/>
<path d="M42.4181 72.7151C40.7701 71.7311 41.8261 69.2511 43.9061 70.0831C45.8181 70.8511 46.3461 72.6991 45.2261 74.4911C45.0821 74.7258 44.8928 74.7711 44.6581 74.6271C43.8021 74.0911 43.3141 73.2511 42.4181 72.7151Z" fill="#2D1920"/>
<path d="M32.9223 70.9148L30.8663 84.6989C30.5623 94.3949 31.3006 104.094 33.0819 113.795C31.3966 115.022 29.9089 116.776 28.6182 119.059C27.9222 119.203 27.6339 120.539 26.8499 120.075C26.6046 119.931 26.4819 120 26.4819 120.283V120.651C26.4819 120.843 26.3886 120.918 26.2019 120.875C25.4819 120.694 24.9619 120.92 24.6419 121.555C24.5139 121.806 24.3246 121.998 24.0739 122.131C20.4099 124.136 16.7913 126.224 13.2179 128.395C10.2899 130.171 8.8259 129.427 5.9459 132.307C5.0019 133.246 3.98075 133.579 2.88209 133.307C-1.16591 115.211 -0.949653 97.3072 3.53035 79.5952C4.19168 80.7045 5.44502 80.6779 7.29036 79.5152C7.50902 79.3765 7.74902 79.3045 8.01035 79.2992C8.63968 79.2778 9.13302 79.2112 9.49036 79.0992C15.0477 77.3232 20.4557 75.1792 25.7144 72.6672C28.0824 71.5312 29.0504 69.6832 32.2664 71.0512C32.291 71.0605 32.3175 71.0639 32.3436 71.0611C32.3697 71.0583 32.3946 71.0494 32.4159 71.0351C32.4373 71.0209 32.4546 71.0017 32.4662 70.9794C32.4777 70.9571 32.4833 70.9323 32.4823 70.9072C32.4823 70.8272 32.4823 70.7525 32.4823 70.6832C32.477 70.5232 32.549 70.5472 32.6983 70.7552C32.757 70.8352 32.8316 70.8882 32.9223 70.9148Z" fill="#83B890"/>
<path d="M41.0982 78.8351C40.6582 81.1391 37.7542 81.7311 36.4342 79.7951C35.7622 78.8111 36.2583 77.5711 36.5623 76.5071C36.6311 76.2644 36.7636 76.0445 36.9459 75.8702C37.1283 75.6959 37.3538 75.5735 37.5994 75.5156C37.8449 75.4577 38.1014 75.4664 38.3424 75.5408C38.5834 75.6153 38.8002 75.7528 38.9702 75.9391L40.8663 78.0031C40.9676 78.1118 41.0414 78.244 41.0818 78.3886C41.1221 78.5333 41.1277 78.6863 41.0982 78.8351Z" fill="#2D1920"/>
<path d="M84.418 89.867C76.562 89.115 69.3566 91.0696 62.802 95.731C62.6993 95.8034 62.58 95.8491 62.4552 95.8635C62.3303 95.878 62.2041 95.8609 62.0882 95.8137C61.9724 95.7666 61.8707 95.691 61.7927 95.594C61.7146 95.497 61.6628 95.3817 61.642 95.259C61.5727 94.8643 61.754 94.387 62.186 93.827C67.922 86.371 76.994 82.0029 86.458 84.1469C88.882 84.6989 93.058 87.275 90.154 89.819C89.9727 89.979 89.7593 90.0616 89.514 90.067C87.7913 90.099 86.0927 90.0323 84.418 89.867Z" fill="#60080C"/>
<path d="M131.618 84.3391L147.194 86.9871C149.994 89.0244 152.471 91.7684 154.626 95.2191C154.723 95.3795 154.766 95.5671 154.749 95.7539C154.731 95.9408 154.654 96.1169 154.528 96.2562C154.402 96.3954 154.235 96.4904 154.051 96.527C153.866 96.5635 153.675 96.5397 153.506 96.4591L150.578 95.0111C142.122 89.3471 135.834 89.7071 126.738 89.6751L125.626 89.2351C126.106 86.4671 129.098 84.9231 131.618 84.3391Z" fill="#490F0F"/>
<path d="M147.194 86.9871L164.434 90.1551C164.583 90.1813 164.723 90.2489 164.837 90.3505C164.951 90.4521 165.036 90.5838 165.082 90.7311C167.554 98.8431 173.858 116.115 171.146 123.827C170.965 124.344 170.861 124.886 170.834 125.451L168.066 125.219C167.773 125.198 167.621 125.038 167.61 124.739C167.378 118.539 165.93 106.987 159.042 104.379C155.933 103.2 152.813 102.027 149.682 100.859C146.402 99.6429 148.834 96.5311 150.578 95.0111L153.506 96.4591C153.675 96.5397 153.866 96.5635 154.051 96.527C154.235 96.4904 154.402 96.3954 154.528 96.2562C154.654 96.1169 154.731 95.9408 154.749 95.7539C154.766 95.5671 154.723 95.3795 154.626 95.2191C152.471 91.7684 149.994 89.0244 147.194 86.9871Z" fill="#F98759"/>
<path d="M126.738 89.6751C135.834 89.7071 142.122 89.3471 150.578 95.0111C148.834 96.5311 146.402 99.6429 149.682 100.859C152.813 102.027 155.933 103.2 159.042 104.379C165.93 106.987 167.378 118.539 167.61 124.739C167.621 125.038 167.773 125.198 168.066 125.219L170.834 125.451C174.45 120.611 175.762 114.235 183.01 113.291C187.826 116.326 189.711 120.611 188.666 126.147C187.322 133.283 184.49 134.763 179.266 138.979C179.063 139.139 178.927 139.342 178.858 139.587L178.122 142.099L177.194 142.483C174.021 143 170.975 142.534 168.058 141.083C167.966 141.035 167.858 141.026 167.758 141.058C167.658 141.089 167.574 141.158 167.522 141.251C159.018 156.563 146.05 162.147 129.49 165.427C129.304 164.995 129.237 164.582 129.29 164.187C129.322 163.92 129.472 163.763 129.738 163.715C141.866 161.707 151.466 153.307 158.722 143.683C159.258 142.987 159.274 142.259 158.674 141.643L163.274 137.331C163.436 137.18 163.532 136.972 163.544 136.752C163.556 136.531 163.482 136.314 163.338 136.147C160.146 132.435 155.09 130.883 150.37 130.147C150.029 128.782 150.247 127.88 151.026 127.443C154.365 127.075 156.234 126.2 156.634 124.819C157.253 124.44 157.559 123.915 157.554 123.243C157.45 112.747 151.682 103.547 140.226 103.587C138.679 102.814 136.765 102.888 134.482 103.811C130.882 100.483 129.066 96.003 126.786 91.835C126.658 91.595 126.637 91.347 126.722 91.091C126.893 90.579 126.898 90.1071 126.738 89.6751ZM182.122 121.051C176.682 118.275 173.562 129.555 172.442 132.811C172.367 133.019 172.439 133.107 172.658 133.075C177.658 132.275 183.466 130.131 183.882 124.507C183.994 122.971 183.482 121.747 182.122 121.051Z" fill="#F99B63"/>
<path d="M134.482 103.811C136.765 102.888 138.679 102.814 140.226 103.587C134.199 103.976 130.498 106.67 129.122 111.667C127.618 115.731 127.09 123.139 131.138 126.035C136.338 129.755 144.746 127.947 151.026 127.443C150.247 127.88 150.029 128.782 150.37 130.147C146.522 129.763 137.666 131.323 136.626 136.243C136.569 136.521 136.618 136.809 136.762 137.051C139.066 140.947 144.738 142.315 149.146 142.275C152.389 142.606 152.095 143.734 148.266 145.659C147.327 146.128 145.943 147.28 144.114 149.115C144.082 149.144 144.043 149.165 144.001 149.174C143.958 149.183 143.914 149.18 143.873 149.166C143.832 149.152 143.796 149.128 143.768 149.095C143.74 149.062 143.721 149.022 143.714 148.979L143.674 148.667C143.653 148.539 143.578 148.486 143.45 148.507C138.175 149.398 133.069 150.878 128.13 152.947C127.869 153.056 127.582 153.084 127.306 153.027C122.61 152.115 121.69 156.883 118.114 158.835C118.081 158.85 118.044 158.853 118.008 158.843C117.973 158.833 117.942 158.812 117.922 158.783C117.901 158.753 117.892 158.718 117.897 158.684C117.901 158.649 117.919 158.618 117.946 158.595C118.933 157.758 119.922 156.939 120.914 156.139C121.017 156.059 121.101 155.957 121.16 155.841C121.22 155.725 121.253 155.597 121.258 155.467C121.29 154.651 121.13 153.968 120.778 153.419L125.066 143.851C125.205 143.531 125.125 143.456 124.826 143.627C112.954 150.163 97.7782 148.843 89.6102 137.531C89.513 137.399 89.3777 137.299 89.2224 137.246C89.0672 137.192 88.8993 137.187 88.7411 137.232C88.583 137.276 88.4421 137.367 88.3373 137.494C88.2324 137.62 88.1685 137.775 88.1542 137.939C87.8929 141.358 88.3249 144.718 89.4502 148.019C88.4849 147.961 87.5462 147.795 86.6342 147.523C84.1302 146.771 80.9862 147.379 78.3462 147.251C78.1169 147.241 77.9169 147.31 77.7462 147.459C77.5169 147.657 77.2449 147.665 76.9302 147.483C76.6877 147.346 76.42 147.264 76.1462 147.243C72.3062 146.939 68.0662 148.115 65.6022 144.075C65.4572 143.842 65.236 143.669 64.9782 143.587C61.6662 142.515 58.8262 140.734 56.4582 138.243C56.2716 138.041 56.0422 137.923 55.7702 137.891C52.5222 137.475 55.6022 133.403 56.9862 132.403C58.7782 131.113 60.6876 130.022 62.7142 129.131C62.8327 129.078 62.9346 128.994 63.0093 128.887C63.0839 128.779 63.1285 128.654 63.1382 128.523L63.2659 126.667C68.0286 127.211 72.8103 127.627 77.6103 127.915C87.9863 128.539 91.3783 119.827 87.7783 111.299C86.9196 108.185 84.6823 105.801 81.0663 104.147C82.8103 103.518 83.6503 102.382 83.5863 100.739C83.5756 100.467 83.6556 100.222 83.8263 100.003C84.8983 98.6592 86.2956 98.1685 88.0183 98.5312C88.3116 98.5899 88.5836 98.5339 88.8343 98.3632C90.4716 97.2432 92.2743 96.7472 94.2423 96.8752C94.5516 96.8965 94.7969 96.7792 94.9783 96.5232L95.4823 95.7872C95.6156 95.5952 95.7996 95.4992 96.0343 95.4992C99.1863 95.5232 101.73 94.3072 104.722 96.0352C107.722 97.7712 110.538 97.5872 113.714 98.0672C115.418 98.3232 117.874 97.9792 119.418 98.8752C119.733 99.0565 119.829 98.9765 119.706 98.6352L119.474 98.0192C119.384 97.7739 119.466 97.6699 119.722 97.7072C123.056 98.2192 125.64 99.8405 127.474 102.571C127.566 102.709 127.7 102.814 127.855 102.87C128.011 102.926 128.181 102.93 128.34 102.881C128.498 102.832 128.636 102.734 128.734 102.6C128.832 102.467 128.884 102.305 128.882 102.139V101.795C128.882 101.47 129.032 101.374 129.33 101.507C129.768 101.699 129.949 102.049 129.874 102.555C129.832 102.897 129.973 103.014 130.298 102.907L131.714 102.443C132.024 102.342 132.157 102.454 132.114 102.779L132.074 103.067C132.062 103.158 132.068 103.251 132.093 103.341C132.118 103.43 132.16 103.514 132.218 103.587C132.741 104.233 133.496 104.307 134.482 103.811ZM104.066 131.899C103.047 130.694 101.797 130.238 100.314 130.531C100.194 130.555 100.082 130.612 99.9921 130.696C99.9018 130.779 99.8361 130.885 99.802 131.003C99.242 133.046 99.93 134.099 101.866 134.163C100.65 134.819 100.317 135.614 100.866 136.547C101.005 136.777 101.202 136.923 101.458 136.987C104.215 137.67 106.367 136.763 107.914 134.267C110.514 130.091 104.722 125.787 102.458 128.843C102.277 129.083 102.325 129.262 102.602 129.379C103.701 129.859 104.189 130.699 104.066 131.899ZM57.9144 137.779C62.5624 143.147 71.1624 142.595 76.9864 139.939C79.9064 138.603 82.4183 134.723 79.0343 132.707C74.9303 130.251 68.7623 128.827 64.1783 130.571C62.2983 131.283 55.3544 134.819 57.9144 137.779Z" fill="#FDBC79"/>
<path d="M81.0663 104.147C84.6823 105.801 86.9196 108.185 87.7783 111.299C86.4449 110.435 85.2099 109.555 84.0739 108.659C76.2579 102.499 65.8739 107.347 62.9219 116.115C62.0979 118.579 61.8262 121.923 61.1142 124.963C60.1968 122.824 60.1915 120.134 61.0982 116.891C63.9942 106.491 70.6503 102.243 81.0663 104.147Z" fill="#070608"/>
<path d="M140.226 103.587C151.682 103.547 157.45 112.747 157.554 123.243C157.559 123.915 157.253 124.44 156.634 124.819C155.258 117.811 154.226 111.811 148.514 108.267C141.85 104.131 134.21 105.731 129.122 111.667C130.498 106.67 134.199 103.976 140.226 103.587Z" fill="#160B14"/>
<path d="M87.7783 111.299C91.3783 119.827 87.9863 128.539 77.6103 127.915C72.8103 127.627 68.0286 127.211 63.2659 126.667L61.1142 124.963C61.8262 121.923 62.0979 118.579 62.9219 116.115C65.8739 107.347 76.2579 102.499 84.0739 108.659C85.2099 109.555 86.4449 110.435 87.7783 111.299ZM80.6455 125.231C81.4448 125.185 82.2253 124.951 82.9426 124.543C83.6599 124.135 84.2999 123.56 84.8261 122.852C85.3522 122.144 85.7543 121.316 86.0092 120.415C86.2642 119.515 86.367 118.56 86.312 117.604C86.2569 116.649 86.0449 115.712 85.6881 114.847C85.3314 113.981 84.8369 113.205 84.2328 112.562C83.6287 111.919 82.9269 111.422 82.1674 111.099C81.408 110.776 80.6057 110.633 79.8065 110.679C79.0073 110.725 78.2268 110.959 77.5095 111.367C76.7922 111.775 76.1522 112.35 75.626 113.058C75.0998 113.767 74.6978 114.595 74.4428 115.495C74.1879 116.395 74.085 117.351 74.1401 118.306C74.1952 119.261 74.4072 120.199 74.7639 121.064C75.1206 121.929 75.6152 122.705 76.2193 123.348C76.8234 123.991 77.5252 124.488 78.2846 124.811C79.0441 125.135 79.8463 125.277 80.6455 125.231Z" fill="#EBE1DA"/>
<path d="M156.634 124.819C156.234 126.2 154.365 127.075 151.026 127.443C144.746 127.947 136.338 129.755 131.138 126.035C127.09 123.139 127.618 115.731 129.122 111.667C134.21 105.731 141.85 104.131 148.514 108.267C154.226 111.811 155.258 117.811 156.634 124.819ZM135.944 125.627C136.763 125.68 137.586 125.536 138.367 125.204C139.148 124.872 139.872 124.358 140.496 123.691C141.121 123.024 141.634 122.218 142.007 121.318C142.38 120.418 142.605 119.442 142.669 118.446C142.799 116.435 142.267 114.463 141.19 112.965C140.113 111.467 138.578 110.566 136.925 110.459C136.106 110.406 135.282 110.55 134.501 110.882C133.72 111.214 132.997 111.728 132.372 112.395C131.748 113.062 131.234 113.868 130.862 114.768C130.489 115.668 130.264 116.644 130.199 117.64C130.069 119.651 130.601 121.623 131.679 123.121C132.756 124.619 134.29 125.52 135.944 125.627Z" fill="#EBE1DA"/>
<path d="M135.944 125.627C134.29 125.52 132.756 124.619 131.679 123.121C130.601 121.623 130.069 119.651 130.199 117.64C130.264 116.644 130.489 115.668 130.862 114.768C131.234 113.868 131.748 113.062 132.372 112.395C132.997 111.728 133.72 111.214 134.501 110.882C135.282 110.55 136.106 110.406 136.925 110.459C138.578 110.566 140.113 111.467 141.19 112.965C142.267 114.463 142.799 116.435 142.669 118.446C142.605 119.442 142.38 120.418 142.007 121.318C141.634 122.218 141.121 123.024 140.496 123.691C139.872 124.358 139.148 124.872 138.367 125.204C137.586 125.536 136.763 125.68 135.944 125.627ZM135.464 117.431C135.711 117.415 135.951 117.341 136.172 117.214C136.392 117.086 136.588 116.906 136.749 116.685C136.911 116.465 137.033 116.207 137.11 115.927C137.187 115.647 137.217 115.35 137.199 115.053C137.161 114.454 136.927 113.892 136.548 113.49C136.17 113.088 135.678 112.88 135.18 112.912C134.934 112.927 134.693 113.001 134.473 113.129C134.252 113.257 134.056 113.436 133.895 113.657C133.734 113.878 133.611 114.136 133.534 114.416C133.457 114.696 133.427 114.993 133.446 115.289C133.484 115.889 133.717 116.451 134.096 116.852C134.475 117.254 134.967 117.462 135.464 117.431Z" fill="#070608"/>
<path d="M80.6455 125.231C79.8463 125.277 79.0441 125.135 78.2846 124.811C77.5252 124.488 76.8234 123.991 76.2193 123.348C75.6152 122.705 75.1206 121.929 74.7639 121.064C74.4072 120.199 74.1952 119.261 74.1401 118.306C74.085 117.351 74.1879 116.395 74.4428 115.495C74.6978 114.595 75.0998 113.767 75.626 113.058C76.1522 112.35 76.7922 111.775 77.5095 111.367C78.2268 110.959 79.0073 110.725 79.8065 110.679C80.6057 110.633 81.408 110.776 82.1674 111.099C82.9269 111.422 83.6287 111.919 84.2328 112.562C84.8369 113.205 85.3314 113.981 85.6881 114.847C86.0449 115.712 86.2569 116.649 86.312 117.604C86.367 118.56 86.2642 119.515 86.0092 120.415C85.7543 121.316 85.3522 122.144 84.8261 122.852C84.2999 123.56 83.6599 124.135 82.9426 124.543C82.2253 124.951 81.4448 125.185 80.6455 125.231ZM80.9912 117.111C81.4039 116.973 81.7292 116.63 81.8955 116.155C82.0618 115.681 82.0556 115.115 81.8781 114.581C81.7902 114.317 81.663 114.069 81.5036 113.851C81.3442 113.633 81.1558 113.449 80.9491 113.311C80.7425 113.172 80.5216 113.081 80.2992 113.042C80.0768 113.004 79.8571 113.019 79.6528 113.087C79.24 113.225 78.9147 113.568 78.7484 114.043C78.582 114.517 78.5883 115.083 78.7658 115.617C78.8537 115.881 78.981 116.129 79.1404 116.347C79.2997 116.565 79.4881 116.749 79.6948 116.888C79.9014 117.026 80.1223 117.117 80.3447 117.156C80.5671 117.194 80.7868 117.179 80.9912 117.111Z" fill="#070608"/>
<path d="M39.9702 113.539C33.2102 117.203 30.2581 123.587 34.2581 130.483C36.6101 134.547 39.4821 136.059 40.2901 141.659C31.4101 136.304 27.5196 128.771 28.6182 119.059C29.9089 116.776 31.3966 115.022 33.0819 113.795C35.2792 112.622 37.5755 112.536 39.9702 113.539Z" fill="#FCE8A3"/>
<path d="M133.446 115.289C133.524 116.537 134.428 117.496 135.464 117.431C136.501 117.366 137.277 116.301 137.199 115.053C137.12 113.805 136.216 112.846 135.18 112.912C134.144 112.977 133.367 114.041 133.446 115.289Z" fill="#EBE1DA"/>
<path d="M78.7658 115.617C79.1354 116.728 80.1317 117.397 80.9912 117.111C81.8506 116.825 82.2477 115.692 81.8781 114.581C81.5085 113.47 80.5122 112.802 79.6528 113.087C78.7933 113.373 78.3962 114.506 78.7658 115.617Z" fill="#EBE1DA"/>
<path d="M183.01 113.291C185.485 113.168 187.589 113.872 189.322 115.403C192.309 118.79 193.159 122.664 191.874 127.027C190.082 133.099 184.746 140.707 178.122 142.099L178.858 139.587C178.927 139.342 179.063 139.139 179.266 138.979C184.49 134.763 187.322 133.283 188.666 126.147C189.711 120.611 187.826 116.326 183.01 113.291Z" fill="#FDBD8E"/>
<path d="M28.6182 119.059C27.5196 128.771 31.4101 136.304 40.2901 141.659C40.6741 141.675 41.0556 141.808 41.4342 142.059L47.5143 150.443C47.4743 152.387 46.226 153.323 45.746 154.859C45.018 157.219 44.6341 159.195 42.7941 161.091C41.4394 162.483 40.2421 164.016 39.2021 165.691C39.0568 165.924 38.84 166.102 38.5861 166.195C37.6901 166.515 37.0314 167.118 36.6101 168.003C36.4767 168.28 36.2661 168.47 35.9781 168.571C34.2821 169.174 33.2661 170.336 32.9301 172.059C32.8884 172.274 32.8027 172.478 32.6781 172.658C32.5536 172.839 32.393 172.991 32.2066 173.106C32.0201 173.221 31.8118 173.296 31.5948 173.327C31.3779 173.357 31.157 173.342 30.946 173.283C27.8207 172.403 24.5859 172.326 21.2419 173.051C12.3086 160.998 6.18875 147.75 2.88209 133.307C3.98075 133.579 5.0019 133.246 5.9459 132.307C8.8259 129.427 10.2899 130.171 13.2179 128.395C16.7913 126.224 20.4099 124.136 24.0739 122.131C24.3246 121.998 24.5139 121.806 24.6419 121.555C24.9619 120.92 25.4819 120.694 26.2019 120.875C26.3886 120.918 26.4819 120.843 26.4819 120.651V120.283C26.4819 120 26.6046 119.931 26.8499 120.075C27.6339 120.539 27.9222 119.203 28.6182 119.059Z" fill="#639F79"/>
<path d="M48.226 132.395C42.794 132.499 35.858 129.611 37.546 122.971C38.714 118.355 43.306 121.731 44.25 124.123C45.594 127.547 46.93 130.283 48.258 132.331C48.29 132.374 48.2793 132.395 48.226 132.395Z" fill="#CA6246"/>
<path d="M182.122 121.051C183.482 121.747 183.994 122.971 183.882 124.507C183.466 130.131 177.658 132.275 172.658 133.075C172.439 133.107 172.367 133.019 172.442 132.811C173.562 129.555 176.682 118.275 182.122 121.051Z" fill="#CA6246"/>
<path d="M101.866 134.163C103.818 133.688 104.551 132.934 104.066 131.899C104.189 130.699 103.701 129.859 102.602 129.379C102.325 129.262 102.277 129.083 102.458 128.843C104.722 125.787 110.514 130.091 107.914 134.267C106.367 136.763 104.215 137.67 101.458 136.987C101.202 136.923 101.005 136.777 100.866 136.547C100.317 135.614 100.65 134.819 101.866 134.163Z" fill="#FB9E50"/>
<path d="M76.9864 139.939C71.1624 142.595 62.5624 143.147 57.9144 137.779C55.3544 134.819 62.2983 131.283 64.1783 130.571C68.7623 128.827 74.9303 130.251 79.0343 132.707C82.4183 134.723 79.9064 138.603 76.9864 139.939Z" fill="#F98759"/>
<path d="M150.37 130.147C155.09 130.883 160.146 132.435 163.338 136.147C163.482 136.314 163.556 136.531 163.544 136.752C163.532 136.972 163.436 137.18 163.274 137.331L158.674 141.643C155.511 142.235 152.335 142.446 149.146 142.275C144.738 142.315 139.066 140.947 136.762 137.051C136.618 136.809 136.569 136.521 136.626 136.243C137.666 131.323 146.522 129.763 150.37 130.147Z" fill="#F98759"/>
<path d="M104.066 131.899C104.551 132.934 103.818 133.688 101.866 134.163C99.93 134.099 99.242 133.046 99.802 131.003C99.8361 130.885 99.9018 130.779 99.9921 130.696C100.082 130.612 100.194 130.555 100.314 130.531C101.797 130.238 103.047 130.694 104.066 131.899Z" fill="#FCECDE"/>
<path d="M120.778 153.419C119.183 155.616 117.397 157.352 115.418 158.627C116.352 156.536 114.976 154.68 111.29 153.059C109.706 152.36 106.92 152.19 102.93 152.547C99.8316 152.819 97.5325 154.739 96.0339 158.307C92.8712 155.251 90.6769 151.822 89.4502 148.019C88.3249 144.718 87.8929 141.358 88.1542 137.939C88.1685 137.775 88.2324 137.62 88.3373 137.494C88.4421 137.367 88.583 137.276 88.7411 137.232C88.8993 137.187 89.0672 137.192 89.2224 137.246C89.3777 137.299 89.513 137.399 89.6102 137.531C97.7782 148.843 112.954 150.163 124.826 143.627C125.125 143.456 125.205 143.531 125.066 143.851L120.778 153.419Z" fill="#60080C"/>
<path d="M177.194 142.483C174.418 145.723 171.61 149.795 169.114 152.451C156.674 165.691 135.938 170.923 118.402 171.619C118.205 171.624 118.063 171.718 117.978 171.899C117.935 171.984 117.882 172.08 117.818 172.187L115.41 172.091C115.117 172.075 114.959 171.923 114.938 171.635L114.642 167.715L129.49 165.427C146.05 162.147 159.018 156.563 167.522 141.251C167.574 141.158 167.658 141.089 167.758 141.058C167.858 141.026 167.966 141.035 168.058 141.083C170.975 142.534 174.021 143 177.194 142.483Z" fill="#070608"/>
<path d="M102.506 167.939C102.778 169.272 102.789 170.48 102.538 171.563C99.9888 171.75 98.1702 171.787 97.0822 171.675C82.6262 170.147 68.6982 166.827 56.3542 158.867C53.0582 156.457 50.1116 153.648 47.5143 150.443L41.4342 142.059C44.6662 142.678 47.8316 142.515 50.9302 141.571C51.2076 141.486 51.4076 141.576 51.5302 141.843C60.5782 161.707 83.2341 165.859 102.506 167.939Z" fill="#070608"/>
<path d="M47.5143 150.443C50.1116 153.648 53.0582 156.457 56.3542 158.867L54.7781 160.099C54.5914 160.249 54.5647 160.422 54.6981 160.619L77.1141 192.859L75.3222 204.331C75.2913 204.532 75.3339 204.737 75.4422 204.907C75.5382 205.046 75.5836 205.155 75.5782 205.235L74.8021 210.955C53.6021 204.227 34.4899 190.859 21.2419 173.051C24.5859 172.326 27.8207 172.403 30.946 173.283C31.157 173.342 31.3779 173.357 31.5948 173.327C31.8118 173.296 32.0201 173.221 32.2066 173.106C32.393 172.991 32.5536 172.839 32.6781 172.658C32.8027 172.478 32.8884 172.274 32.9301 172.059C33.2661 170.336 34.2821 169.174 35.9781 168.571C36.2661 168.47 36.4767 168.28 36.6101 168.003C37.0314 167.118 37.6901 166.515 38.5861 166.195C38.84 166.102 39.0568 165.924 39.2021 165.691C40.2421 164.016 41.4394 162.483 42.7941 161.091C44.6341 159.195 45.018 157.219 45.746 154.859C46.226 153.323 47.4743 152.387 47.5143 150.443Z" fill="#53926C"/>
<path d="M115.418 158.627C108.453 162.414 101.991 162.307 96.0339 158.307C97.5325 154.739 99.8316 152.819 102.93 152.547C106.92 152.19 109.706 152.36 111.29 153.059C114.976 154.68 116.352 156.536 115.418 158.627Z" fill="#DD4524"/>
<path d="M56.3542 158.867C68.6982 166.827 82.6262 170.147 97.0822 171.675C98.1702 171.787 99.9888 171.75 102.538 171.563C102.666 171.755 102.703 171.904 102.65 172.011L100.53 172.963C97.5463 173.267 93.7141 172.339 93.0421 176.603C93.3514 175.942 93.0205 175.571 92.0499 175.491L92.0979 175.075C92.1353 174.734 91.9859 174.595 91.6499 174.659C82.6739 176.419 79.8101 184.363 77.1141 192.859L54.6981 160.619C54.5647 160.422 54.5914 160.249 54.7781 160.099L56.3542 158.867Z" fill="#4B855D"/>
<path d="M113.666 167.611C113.234 168.843 114.634 170.395 113.49 171.723C113.314 171.926 113.09 172.032 112.818 172.043L104.186 172.395C104.015 172.406 103.855 172.363 103.706 172.267C103.45 172.107 103.098 172.022 102.65 172.011C102.703 171.904 102.666 171.755 102.538 171.563C102.789 170.48 102.778 169.272 102.506 167.939L113.666 167.611Z" fill="#FB8A30"/>
<path d="M114.642 167.715L114.938 171.635C114.959 171.923 115.117 172.075 115.41 172.091L117.818 172.187C120.442 172.294 122.813 172.971 124.93 174.219C124.824 174.603 124.877 174.864 125.09 175.003L124.338 177.635C123.229 178.835 122.245 180.083 121.386 181.379C120.882 182.131 119.25 181.659 118.578 181.675C115.186 181.739 111.824 182.075 108.49 182.683C103.37 183.619 100.37 176.899 100.53 172.963L102.65 172.011C103.098 172.022 103.45 172.107 103.706 172.267C103.855 172.363 104.015 172.406 104.186 172.395L112.818 172.043C113.09 172.032 113.314 171.926 113.49 171.723C114.634 170.395 113.234 168.843 113.666 167.611C113.949 167.568 114.274 167.603 114.642 167.715Z" fill="#F99B63"/>
<path d="M100.53 172.963C100.37 176.899 103.37 183.619 108.49 182.683C111.824 182.075 115.186 181.739 118.578 181.675C119.25 181.659 120.882 182.131 121.386 181.379C122.245 180.083 123.229 178.835 124.338 177.635C120.898 184.547 115.386 189.243 107.298 189.307C99.9383 188.011 95.1861 183.776 93.0421 176.603C93.7141 172.339 97.5463 173.267 100.53 172.963Z" fill="#FCB468"/>
<path d="M124.93 174.219C127.464 174.837 129.951 175.934 132.394 177.507C132.271 177.384 132.125 177.483 131.954 177.803C129.896 176.406 127.608 175.472 125.09 175.003C124.877 174.864 124.824 174.603 124.93 174.219Z" fill="#54B685"/>
<path d="M92.0499 175.491C87.7379 174.747 81.1781 188.971 80.0341 191.779C78.8901 194.571 74.9221 200.827 76.6661 204.371C76.6928 204.531 76.6633 204.718 76.578 204.931C76.5326 205.047 76.4498 205.145 76.3425 205.209C76.2353 205.273 76.1098 205.299 75.986 205.283L75.5782 205.235C75.5836 205.155 75.5382 205.046 75.4422 204.907C75.3339 204.737 75.2913 204.532 75.3222 204.331L77.1141 192.859C79.8101 184.363 82.6739 176.419 91.6499 174.659C91.9859 174.595 92.1353 174.734 92.0979 175.075L92.0499 175.491Z" fill="#6DC199"/>
<path d="M125.09 175.003C127.608 175.472 129.896 176.406 131.954 177.803C134.477 179.163 136.394 180.99 137.706 183.283L135.746 182.475C135.626 182.427 135.494 182.414 135.367 182.436C135.24 182.459 135.122 182.517 135.026 182.603C132.418 184.923 127.138 184.715 122.226 185.179C122.111 185.189 121.995 185.169 121.888 185.122C121.782 185.074 121.689 185 121.618 184.907C121.304 184.486 120.88 184.36 120.346 184.531C120.122 184.6 119.93 184.718 119.77 184.883C116.058 188.67 111.901 190.145 107.298 189.307C115.386 189.243 120.898 184.547 124.338 177.635L125.09 175.003Z" fill="#1E8B75"/>
<path d="M92.0499 175.491C93.0205 175.571 93.3514 175.942 93.0421 176.603C95.1861 183.776 99.9383 188.011 107.298 189.307C111.901 190.145 116.058 188.67 119.77 184.883C119.93 184.718 120.122 184.6 120.346 184.531C120.88 184.36 121.304 184.486 121.618 184.907C121.689 185 121.782 185.074 121.888 185.122C121.995 185.169 122.111 185.189 122.226 185.179C127.138 184.715 132.418 184.923 135.026 182.603C135.122 182.517 135.24 182.459 135.367 182.436C135.494 182.414 135.626 182.427 135.746 182.475L137.706 183.283C140.853 188.302 142.701 193.741 143.25 199.603C142.706 200.163 142.354 200.963 142.194 202.003L137.802 206.403C137.731 206.475 137.638 206.521 137.537 206.533C137.437 206.545 137.335 206.523 137.249 206.47C137.163 206.418 137.097 206.337 137.062 206.242C137.028 206.147 137.026 206.043 137.058 205.947L137.162 205.643C137.178 205.594 137.176 205.541 137.157 205.492C137.138 205.444 137.103 205.404 137.058 205.379L136.834 205.243C136.658 205.136 136.562 204.979 136.546 204.771C136.13 199.291 137.082 193.323 135.77 188.067C135.736 187.924 135.651 187.798 135.531 187.714C135.411 187.629 135.264 187.592 135.118 187.609C134.972 187.625 134.837 187.695 134.739 187.805C134.641 187.914 134.587 188.056 134.586 188.203L134.122 212.547C123.423 214.958 113.143 215.998 103.282 215.667L85.41 213.443C85.3182 213.432 85.2337 213.388 85.1719 213.321C85.1102 213.253 85.0754 213.166 85.074 213.075L84.65 189.875C84.6447 189.641 84.5247 189.513 84.29 189.491C83.306 189.395 83.6902 194.291 83.7062 195.339C81.7489 195.35 80.4556 195.787 79.8263 196.651C79.4903 197.115 78.9276 198.243 78.1383 200.035C77.5623 201.339 77.6581 202.923 76.6661 204.371C74.9221 200.827 78.8901 194.571 80.0341 191.779C81.1781 188.971 87.7379 174.747 92.0499 175.491ZM89.8501 191.051C89.9728 191.392 90.1141 191.672 90.2741 191.891C90.3297 191.963 90.4084 192.013 90.497 192.033C90.5855 192.054 90.6783 192.043 90.7595 192.002C90.8408 191.961 90.9053 191.894 90.9423 191.811C90.9792 191.728 90.9863 191.635 90.9621 191.547L87.7541 181.419C87.7061 181.264 87.6181 181.238 87.4901 181.339C86.3061 182.283 82.4421 187.451 85.8661 187.755C86.1861 187.787 86.3915 187.955 86.4821 188.259C86.8981 189.635 87.8395 190.419 89.3061 190.611C89.4289 190.628 89.5445 190.678 89.6404 190.756C89.7363 190.834 89.8088 190.936 89.8501 191.051Z" fill="#35A184"/>
<path d="M132.394 177.507C142.93 183.835 144.802 198.139 144.978 209.587C144.823 209.582 144.666 209.579 144.506 209.579L143.25 199.603C142.701 193.741 140.853 188.302 137.706 183.283C136.394 180.99 134.477 179.163 131.954 177.803C132.125 177.483 132.271 177.384 132.394 177.507Z" fill="#CAE4B9"/>
<path d="M89.3061 190.611C87.8395 190.419 86.8981 189.635 86.4821 188.259C86.3915 187.955 86.1861 187.787 85.8661 187.755C82.4421 187.451 86.3061 182.283 87.4901 181.339C87.6181 181.238 87.7061 181.264 87.7541 181.419L90.9621 191.547C90.9863 191.635 90.9792 191.728 90.9423 191.811C90.9053 191.894 90.8408 191.961 90.7595 192.002C90.6783 192.043 90.5855 192.054 90.497 192.033C90.4084 192.013 90.3297 191.963 90.2741 191.891C90.1141 191.672 89.9728 191.392 89.8501 191.051C89.8088 190.936 89.7363 190.834 89.6404 190.756C89.5445 190.678 89.4289 190.628 89.3061 190.611Z" fill="#6DC199"/>
<path d="M142.194 202.003C140.33 205.667 137.098 206.867 137.682 211.739L134.122 212.547L134.586 188.203C134.587 188.056 134.641 187.914 134.739 187.805C134.837 187.695 134.972 187.625 135.118 187.609C135.264 187.592 135.411 187.629 135.531 187.714C135.651 187.798 135.736 187.924 135.77 188.067C137.082 193.323 136.13 199.291 136.546 204.771C136.562 204.979 136.658 205.136 136.834 205.243L137.058 205.379C137.103 205.404 137.138 205.444 137.157 205.492C137.176 205.541 137.178 205.594 137.162 205.643L137.058 205.947C137.026 206.043 137.028 206.147 137.062 206.242C137.097 206.337 137.163 206.418 137.249 206.47C137.335 206.523 137.437 206.545 137.537 206.533C137.638 206.521 137.731 206.475 137.802 206.403L142.194 202.003Z" fill="#2C585D"/>
<path d="M83.7062 195.339L82.3142 212.515C82.2929 212.808 82.1409 212.918 81.8582 212.843L74.8021 210.955L75.5782 205.235L75.986 205.283C76.1098 205.299 76.2353 205.273 76.3425 205.209C76.4498 205.145 76.5326 205.047 76.578 204.931C76.6633 204.718 76.6928 204.531 76.6661 204.371C77.6581 202.923 77.5623 201.339 78.1383 200.035C78.9276 198.243 79.4903 197.115 79.8263 196.651C80.4556 195.787 81.7489 195.35 83.7062 195.339Z" fill="#1E8B75"/>
<path d="M143.25 199.603L144.506 209.579L137.682 211.739C137.098 206.867 140.33 205.667 142.194 202.003C142.354 200.963 142.706 200.163 143.25 199.603Z" fill="#1F7F5B"/>
</svg>
