<svg width="214" height="216" viewBox="0 0 214 216" fill="none" xmlns="http://www.w3.org/2000/svg">
<path d="M129.238 2.46483C128.721 4.16083 127.51 5.70482 125.606 7.09682C125.382 7.25682 125.222 7.46217 125.126 7.71283C124.366 9.62483 122.662 11.1528 121.83 12.2728C120.134 14.5822 118.334 16.8088 116.43 18.9528C115.222 20.3128 113.534 21.1769 112.094 22.4409C107.334 14.6569 96.7262 22.5531 92.5342 26.7691C92.4781 26.8251 92.4069 26.8635 92.3293 26.8798C92.2518 26.896 92.1711 26.8893 92.0973 26.8604C92.0235 26.8316 91.9597 26.7818 91.9136 26.7173C91.8676 26.6528 91.8414 26.5762 91.8382 26.4971L91.6302 21.1611C91.9662 20.2651 92.0193 19.163 91.7899 17.8564C91.7701 17.7428 91.7088 17.6408 91.6182 17.5711C91.5277 17.5013 91.4147 17.4689 91.3019 17.4804C90.8486 17.5284 90.3499 17.771 89.8059 18.2084C90.2113 17.0617 90.2539 16.2486 89.9339 15.7686C89.8219 15.6086 89.8193 15.446 89.9259 15.2807C91.8859 12.1527 93.9579 8.40865 97.2459 6.52865C98.8513 5.60599 100.353 3.8993 101.75 1.40863C101.878 1.18463 101.867 0.965962 101.718 0.752628L101.238 0.0726914C110.534 -0.257975 119.867 0.539502 129.238 2.46483Z" fill="#BBDAB0"/>
<path d="M101.238 0.0726914L101.718 0.752628C101.867 0.965962 101.878 1.18463 101.75 1.40863C100.353 3.8993 98.8513 5.60599 97.2459 6.52865C93.9579 8.40865 91.8859 12.1527 89.9259 15.2807C89.8193 15.446 89.8219 15.6086 89.9339 15.7686C90.2539 16.2486 90.2113 17.0617 89.8059 18.2084C87.6939 19.7924 87.1422 22.9846 86.3982 25.3526C86.3547 25.4871 86.2756 25.6069 86.1697 25.6987C86.0638 25.7904 85.9353 25.8506 85.7982 25.8726C79.6915 26.7899 73.5902 26.8326 67.4942 26.0006C67.1001 25.945 66.6986 26.0216 66.3527 26.2185C66.0067 26.4154 65.7358 26.7214 65.5822 27.0886C64.6862 29.2219 64.6355 31.3819 65.4302 33.5686C65.5369 33.8673 65.4355 33.9979 65.1262 33.9606C59.1502 33.2326 54.4782 35.7766 50.3662 39.8646C49.9555 40.2699 49.4915 40.3446 48.9742 40.0886C46.2862 38.7606 43.4809 37.8139 40.5582 37.2486C40.2859 37.1952 40.0043 37.2151 39.7422 37.3062C39.4801 37.3973 39.2468 37.5562 39.0662 37.7669C38.8857 37.9776 38.7642 38.2324 38.7143 38.5054C38.6644 38.7783 38.6878 39.0597 38.7822 39.3206L41.4542 46.7286C40.5582 46.4886 40.1234 46.4649 40.1501 46.6569C36.1767 45.3342 32.494 45.0113 29.102 45.6886L24.142 44.2571C23.8754 44.1771 23.63 44.2198 23.406 44.3851C22.9154 44.7371 22.3607 45.0065 21.742 45.1931C21.534 45.2571 21.3394 45.3531 21.158 45.4811C20.5554 45.9078 19.87 45.8489 19.102 45.3049C23.9767 38.1635 29.6993 31.7047 36.27 25.9287C54.9313 9.89132 76.5873 1.27269 101.238 0.0726914Z" fill="#D9E4B3"/>
<path d="M129.238 2.46483L139.678 5.27284C148.019 8.00351 155.857 11.6165 163.19 16.1125C162.561 16.9178 161.961 17.7845 161.39 18.7125C160.873 19.5498 160.195 20.3338 159.358 21.0645C156.787 23.3045 154.993 26.1365 153.974 29.5605C148.315 27.9712 142.74 28.3178 137.246 30.6005C137.178 30.6297 137.103 30.6396 137.029 30.6292C136.956 30.6188 136.886 30.5885 136.829 30.5416C136.771 30.4947 136.727 30.4329 136.702 30.3629C136.677 30.2929 136.672 30.2174 136.686 30.1445L137.702 24.8005C137.754 24.5352 137.713 24.26 137.584 24.0211C137.456 23.7821 137.249 23.5941 136.998 23.4885C130.51 20.7365 121.382 22.8325 115.358 25.7925C115.032 25.9501 114.658 25.9765 114.312 25.8664C113.967 25.7563 113.677 25.5179 113.502 25.2005L112.118 22.6725C112.07 22.6138 112.062 22.5369 112.094 22.4409C113.534 21.1769 115.222 20.3128 116.43 18.9528C118.334 16.8088 120.134 14.5822 121.83 12.2728C122.662 11.1528 124.366 9.62483 125.126 7.71283C125.222 7.46217 125.382 7.25682 125.606 7.09682C127.51 5.70482 128.721 4.16083 129.238 2.46483Z" fill="#9CC49A"/>
<path d="M163.19 16.1125C169.42 19.9898 175.163 24.3873 180.422 29.3047L177.022 35.5447C176.894 35.7793 176.715 35.9687 176.486 36.1127C176.097 36.3687 176.014 36.6594 176.238 36.9847L174.958 36.5609C170.44 37.0729 165.881 38.0116 161.278 39.3769C160.249 39.6809 159.254 39.6116 158.294 39.1689C158.022 39.0409 157.977 38.8569 158.158 38.6169L161.158 34.593C161.245 34.4753 161.307 34.3409 161.339 34.1981C161.371 34.0554 161.374 33.9075 161.346 33.7639C161.318 33.6202 161.261 33.4839 161.177 33.3636C161.094 33.2432 160.987 33.1415 160.862 33.0649C159.358 32.1529 156.87 32.7369 155.07 32.5049C154.777 32.4676 154.673 32.3076 154.758 32.0249C155.137 30.8036 154.875 29.9818 153.974 29.5605C154.993 26.1365 156.787 23.3045 159.358 21.0645C160.195 20.3338 160.873 19.5498 161.39 18.7125C161.961 17.7845 162.561 16.9178 163.19 16.1125Z" fill="#76AC88"/>
<path d="M91.6302 21.1611C90.7128 23.0117 90.5442 25.1343 91.1256 27.5289C91.1745 27.7251 91.1503 27.9323 91.0575 28.112C90.9648 28.2916 90.8098 28.4312 90.6216 28.5049C86.2776 30.2329 81.8856 31.0489 77.5656 32.9449C77.3202 33.0516 77.1122 33.2116 76.9416 33.4249C76.2589 34.2569 75.3922 34.777 74.3416 34.985C74.0429 35.0436 73.7976 35.1876 73.6056 35.4169C73.0616 36.0729 72.3736 36.5476 71.5416 36.841C71.3069 36.921 71.0909 37.0409 70.8936 37.2009C69.2536 38.5369 67.1816 38.9849 65.5656 40.0169C61.8216 42.4169 57.6936 43.577 54.0536 45.985C53.1309 46.593 52.0909 46.9503 50.9336 47.0569C50.6082 47.0836 50.3229 47.2063 50.0776 47.4249L49.4456 47.985C49.2322 48.1823 48.9816 48.2889 48.6936 48.3049L45.0216 48.5769L41.4542 46.7286L38.7822 39.3206C38.6878 39.0597 38.6644 38.7783 38.7143 38.5054C38.7642 38.2324 38.8857 37.9776 39.0662 37.7669C39.2468 37.5562 39.4801 37.3973 39.7422 37.3062C40.0043 37.2151 40.2859 37.1952 40.5582 37.2486C43.4809 37.8139 46.2862 38.7606 48.9742 40.0886C49.4915 40.3446 49.9555 40.2699 50.3662 39.8646C54.4782 35.7766 59.1502 33.2326 65.1262 33.9606C65.4355 33.9979 65.5369 33.8673 65.4302 33.5686C64.6355 31.3819 64.6862 29.2219 65.5822 27.0886C65.7358 26.7214 66.0067 26.4154 66.3527 26.2185C66.6986 26.0216 67.1001 25.945 67.4942 26.0006C73.5902 26.8326 79.6915 26.7899 85.7982 25.8726C85.9353 25.8506 86.0638 25.7904 86.1697 25.6987C86.2756 25.6069 86.3547 25.4871 86.3982 25.3526C87.1422 22.9846 87.6939 19.7924 89.8059 18.2084C90.3499 17.771 90.8486 17.5284 91.3019 17.4804C91.4147 17.4689 91.5277 17.5013 91.6182 17.5711C91.7088 17.6408 91.7701 17.7428 91.7899 17.8564C92.0193 19.163 91.9662 20.2651 91.6302 21.1611Z" fill="#754F41"/>
<path d="M112.094 22.4409C112.062 22.5369 112.07 22.6138 112.118 22.6725C111.441 23.2538 111.334 23.814 111.798 24.3526C111.887 24.4578 111.947 24.5853 111.969 24.7216C111.991 24.8578 111.976 24.9976 111.925 25.1259C111.874 25.2542 111.789 25.3661 111.68 25.4498C111.57 25.5334 111.439 25.5856 111.302 25.6006C108.614 25.8886 106.086 26.7073 103.718 28.0566C103.446 28.2113 103.441 28.3766 103.702 28.5526C106.502 30.4326 109.374 33.3447 108.67 36.9767C108.59 37.398 108.75 37.534 109.15 37.3847L109.694 37.1767C109.795 37.1377 109.887 37.0782 109.964 37.0019C110.041 36.9256 110.101 36.8343 110.141 36.7335C110.181 36.6328 110.199 36.5249 110.195 36.4167C110.191 36.3085 110.165 36.2022 110.118 36.1046L108.398 32.4966C108.265 32.2193 108.073 31.9953 107.822 31.8246C107.049 31.2913 107.073 30.5953 107.894 29.7367C108.07 29.55 108.283 29.4246 108.534 29.3606C110.998 28.71 113.39 27.8806 115.71 26.8726C117.878 25.9286 120.47 25.6726 122.742 24.3126C122.982 24.1686 123.238 24.1153 123.51 24.1526C124.785 24.3126 126.046 24.254 127.294 23.9767C127.598 23.9073 127.883 23.9473 128.15 24.0966C132.726 26.5846 130.926 33.2326 125.062 32.2566C125.003 32.2481 124.943 32.2557 124.889 32.2784C124.834 32.3012 124.787 32.3383 124.751 32.3859C124.716 32.4335 124.694 32.4897 124.688 32.5487C124.683 32.6076 124.693 32.667 124.718 32.7206C124.974 33.254 125.363 33.67 125.886 33.9686C126.121 34.102 126.307 34.2806 126.446 34.5046L130.622 41.0327C130.746 41.2261 130.805 41.4537 130.792 41.683C130.778 41.9123 130.692 42.1314 130.547 42.309C130.401 42.4866 130.203 42.6135 129.981 42.6717C129.759 42.7298 129.524 42.7162 129.31 42.6327C124.55 40.7927 122.774 43.4007 118.662 44.7767C118.395 44.8656 118.16 45.0263 117.982 45.2407C117.23 46.1367 116.353 46.8753 115.35 47.4566C115.125 47.5928 114.942 47.7864 114.822 48.0166C113.254 50.934 111.609 51.7713 109.886 50.5287C113.07 48.6327 113.766 45.6247 110.814 43.2087C106.806 39.9127 101.958 45.1768 105.326 49.1928C103.475 50.9901 101.24 52.4009 98.6217 53.4249C98.355 53.5263 98.147 53.697 97.9977 53.937C97.7897 54.273 97.4937 54.4169 97.1097 54.3689C96.8377 54.3369 96.579 54.3823 96.3337 54.5049C93.4004 55.9983 90.4937 57.5449 87.6137 59.1449C84.3257 60.9689 75.6697 60.2329 71.6937 60.3209C71.5703 60.3247 71.4512 60.3696 71.3556 60.4484C71.26 60.5273 71.1934 60.6354 71.1666 60.7555C71.1398 60.8756 71.1544 61.0006 71.2079 61.1104C71.2614 61.2203 71.3508 61.3085 71.4617 61.3609L77.9017 64.5289C78.0137 64.5823 78.0537 64.6729 78.0217 64.8009C77.3257 67.2569 75.2297 66.9849 73.5417 66.9689C72.8004 66.9636 72.091 67.1129 71.4137 67.4169C65.467 70.0836 59.3604 72.3476 53.0937 74.2089C48.6857 75.5289 44.0377 75.3849 39.3497 76.2089C37.5204 75.4463 36.3688 77.0331 35.8942 80.9691C35.4088 84.9745 36.2782 89.1718 38.5022 93.5611C38.0328 94.5105 37.4171 95.222 36.6544 95.6966C36.4677 95.814 36.4037 95.9767 36.4624 96.1847L36.6064 96.6887C36.7344 97.142 36.5691 97.31 36.1104 97.1927L35.1984 96.9526C34.9211 96.8833 34.7584 96.9873 34.7104 97.2646C34.5504 98.1606 34.1717 98.9473 33.5744 99.6246C33.526 99.6763 33.4617 99.7104 33.3918 99.7217C33.3219 99.7329 33.2502 99.7207 33.188 99.6869C33.1258 99.653 33.0766 99.5995 33.0481 99.5347C33.0195 99.4698 33.0133 99.3974 33.0304 99.3287C34.0331 95.59 33.1637 92.4567 30.4224 89.9286C29.3504 88.9446 27.8064 88.9526 26.9744 90.0966C24.9797 92.8433 24.7664 95.9126 26.3344 99.3046C26.4517 99.5553 26.4251 99.79 26.2544 100.009C25.3904 101.123 25.1584 102.422 25.5584 103.905C25.5905 104.025 25.5819 104.153 25.534 104.266C25.486 104.379 25.4016 104.472 25.2944 104.529C23.6997 105.377 23.3771 106.379 24.3264 107.537C20.1291 109.339 18.3579 111.238 19.0139 113.233C15.5579 113.91 12.8754 112.657 10.9661 109.473C8.7021 104.617 13.1741 101.961 17.4861 102.601C18.6114 102.766 20.3954 103.518 22.8381 104.857C23.2274 105.075 23.3127 104.987 23.0941 104.593C17.8141 95.2486 18.7581 88.6006 26.1821 81.0406C27.2861 78.3793 28.6705 76.9716 30.3345 76.8169C30.5905 76.7956 30.7985 76.6809 30.9585 76.4729L35.1905 70.993C35.9692 72.2303 36.9263 73.0035 38.0623 73.3129C38.9477 73.5529 39.6703 73.3102 40.2303 72.5849L43.6703 68.0729C43.8356 67.8542 43.8223 67.6489 43.6303 67.4569C42.9743 66.7902 42.6996 66.0169 42.8063 65.1369C42.849 64.8009 43.0223 64.5582 43.3263 64.4089L47.8223 62.1529C48.0149 62.0564 48.1787 61.9108 48.297 61.7308C48.4153 61.5508 48.4841 61.3427 48.4963 61.1276C48.5084 60.9125 48.4636 60.6981 48.3664 60.5058C48.2691 60.3136 48.1228 60.1505 47.9423 60.0329C47.0783 59.4729 45.889 59.3555 44.3743 59.6809L42.7739 55.393C44.8219 55.025 46.7926 54.1392 48.6859 52.7366C48.7888 52.6616 48.8727 52.5636 48.931 52.4503C48.9893 52.3371 49.0204 52.2116 49.022 52.0837C49.0235 51.9558 48.9954 51.829 48.9399 51.7133C48.8844 51.5975 48.8029 51.496 48.7019 51.4165L45.0216 48.5769L48.6936 48.3049C48.9816 48.2889 49.2322 48.1823 49.4456 47.985L50.0776 47.4249C50.3229 47.2063 50.6082 47.0836 50.9336 47.0569C52.0909 46.9503 53.1309 46.593 54.0536 45.985C57.6936 43.577 61.8216 42.4169 65.5656 40.0169C67.1816 38.9849 69.2536 38.5369 70.8936 37.2009C71.0909 37.0409 71.3069 36.921 71.5416 36.841C72.3736 36.5476 73.0616 36.0729 73.6056 35.4169C73.7976 35.1876 74.0429 35.0436 74.3416 34.985C75.3922 34.777 76.2589 34.2569 76.9416 33.4249C77.1122 33.2116 77.3202 33.0516 77.5656 32.9449C81.8856 31.0489 86.2776 30.2329 90.6216 28.5049C90.8098 28.4312 90.9648 28.2916 91.0575 28.112C91.1503 27.9323 91.1745 27.7251 91.1256 27.5289C90.5442 25.1343 90.7128 23.0117 91.6302 21.1611L91.8382 26.4971C91.8414 26.5762 91.8676 26.6528 91.9136 26.7173C91.9597 26.7818 92.0235 26.8316 92.0973 26.8604C92.1711 26.8893 92.2518 26.896 92.3293 26.8798C92.4069 26.8635 92.4781 26.8251 92.5342 26.7691C96.7262 22.5531 107.334 14.6569 112.094 22.4409ZM98.4767 35.8211C98.4929 35.3971 98.2778 34.9815 97.8785 34.6659C97.4793 34.3503 96.9286 34.1605 96.3477 34.1381C95.7668 34.1158 95.2032 34.2629 94.7809 34.5469C94.3586 34.831 94.1122 35.2288 94.0959 35.6528C94.0796 36.0768 94.2947 36.4924 94.694 36.808C95.0932 37.1236 95.6439 37.3134 96.2248 37.3358C96.8057 37.3581 97.3694 37.2111 97.7917 36.927C98.214 36.643 98.4604 36.2451 98.4767 35.8211ZM63.9472 52.3095C64.083 51.2039 63.7288 50.0841 62.9626 49.1965C62.1964 48.3089 61.0809 47.7261 59.8616 47.5763C58.6423 47.4266 57.419 47.7223 56.4608 48.3982C55.5026 49.0741 54.8881 50.075 54.7523 51.1806C54.6166 52.2862 54.9708 53.406 55.737 54.2936C56.5032 55.1813 57.6186 55.7641 58.8379 55.9138C60.0573 56.0635 61.2806 55.7678 62.2387 55.0919C63.1969 54.416 63.8115 53.4151 63.9472 52.3095Z" fill="#472D30"/>
<path d="M153.974 29.5605C154.875 29.9818 155.137 30.8036 154.758 32.0249C154.673 32.3076 154.777 32.4676 155.07 32.5049C156.87 32.7369 159.358 32.1529 160.862 33.0649C160.987 33.1415 161.094 33.2432 161.177 33.3636C161.261 33.4839 161.318 33.6202 161.346 33.7639C161.374 33.9075 161.371 34.0554 161.339 34.1981C161.307 34.3409 161.245 34.4753 161.158 34.593L158.158 38.6169C157.977 38.8569 158.022 39.0409 158.294 39.1689C159.254 39.6116 160.249 39.6809 161.278 39.3769C165.881 38.0116 170.44 37.0729 174.958 36.5609C173.96 38.7263 172.785 40.5876 171.43 42.1449C170.406 43.3129 169.257 43.6329 167.982 43.1049C167.814 43.0373 167.627 43.0282 167.452 43.079C167.277 43.1298 167.125 43.2375 167.019 43.3848C166.913 43.5321 166.861 43.7102 166.87 43.8903C166.88 44.0704 166.95 44.2418 167.07 44.3769C169.798 47.4649 172.822 51.7209 177.23 47.2249C180.598 47.2329 186.598 48.081 188.606 51.521C186.638 53.5903 184.499 55.2304 182.19 56.4411C182.127 56.4747 182.077 56.5267 182.045 56.59C182.014 56.6533 182.002 56.7248 182.013 56.7948C182.023 56.8648 182.055 56.9298 182.104 56.981C182.153 57.0323 182.216 57.0672 182.286 57.0811C184.643 57.5718 186.867 58.4011 188.958 59.5691C189.383 59.8077 189.701 60.1999 189.847 60.6654C189.993 61.1309 189.955 61.6345 189.742 62.0731C188.99 63.6091 187.846 64.7131 186.31 65.3851C186.253 65.4088 186.204 65.4488 186.17 65.5C186.136 65.5513 186.118 65.6115 186.118 65.6731C186.118 65.7347 186.136 65.7949 186.17 65.8461C186.204 65.8974 186.253 65.9374 186.31 65.9611C190.118 67.6091 193.819 69.4678 197.414 71.5371C197.664 71.6803 197.869 71.8922 198.002 72.1476C198.135 72.403 198.192 72.6909 198.166 72.9771C197.918 75.5691 193.662 75.8411 191.606 76.2731C191.286 76.3424 191.248 76.4837 191.494 76.6971L194.054 78.9371L183.869 75.2969C183.593 75.197 183.342 75.0358 183.135 74.8253C182.929 74.6148 182.773 74.3604 182.677 74.0809C182.336 73.0622 182.654 72.5262 183.63 72.4729C183.747 72.4676 183.747 72.4622 183.63 72.4569C183.198 72.4462 182.765 72.4782 182.333 72.5529C182.071 72.5993 181.798 72.5482 181.565 72.4089C179.32 71.0756 176.944 70.0596 174.438 69.3609C174.197 69.2916 174.077 69.3822 174.077 69.6329V69.9529C174.077 70.2249 173.955 70.3022 173.71 70.1849C172.886 69.7849 172.662 69.0489 172.062 68.6009C170.259 67.2409 168.158 66.7129 165.758 67.0169L163.806 64.9443C163.587 64.715 163.6 64.4937 163.846 64.2804C166.286 62.1924 167.862 61.0564 168.038 58.0884C168.054 57.8217 167.947 57.619 167.718 57.4804C165.942 56.3924 162.75 58.4403 160.966 58.9043C160.603 58.996 160.223 58.9886 159.865 58.883C159.507 58.7774 159.186 58.5775 158.934 58.3043C157.894 57.1843 156.278 56.411 154.086 55.9844C153.712 55.803 153.366 55.977 153.046 56.505C152.932 56.692 152.778 56.8519 152.596 56.9735C152.414 57.0951 152.208 57.1754 151.991 57.2089C151.775 57.2424 151.554 57.2283 151.344 57.1675C151.133 57.1067 150.939 57.0008 150.774 56.857C150.16 56.3237 149.406 56.0171 148.51 55.9371C148.488 55.9371 148.478 55.9477 148.478 55.969C148.478 56.0544 148.48 56.1451 148.486 56.2411C148.507 56.5024 148.416 56.5477 148.214 56.377C145.819 54.313 142.822 53.0064 139.222 52.457C138.752 51.6197 138.091 51.1877 137.238 51.161C136.966 51.1503 136.731 51.2384 136.534 51.425L135.278 52.625C135.043 52.5824 134.79 52.7634 134.518 53.1687C134.347 53.43 134.206 53.414 134.094 53.1207L133.822 52.3687C133.688 52.0114 133.44 51.8887 133.078 52.0007L132.694 52.1207C132.48 52.19 132.374 52.1127 132.374 51.8887L132.382 51.6727C132.382 51.5287 132.32 51.494 132.198 51.5687C127.302 54.7527 122.846 55.5607 117.526 57.0647C117.399 57.1 117.285 57.1734 117.201 57.2749C117.117 57.3764 117.065 57.5012 117.054 57.6327C115.206 78.0647 83.6537 84.2087 67.8137 83.8247C67.6187 83.8205 67.4299 83.7539 67.2746 83.6346C67.1193 83.5152 67.0055 83.3493 66.9497 83.1607C66.075 80.1527 64.0724 78.6807 60.9417 78.7447C60.4323 78.7539 59.943 78.9464 59.5628 79.287C59.1825 79.6276 58.9366 80.0937 58.8697 80.6007C58.6617 82.1847 58.2244 83.694 57.5577 85.1287C57.4404 85.3847 57.2457 85.494 56.9737 85.4567C50.0244 84.5287 44.1497 81.4463 39.3497 76.2089C44.0377 75.3849 48.6857 75.5289 53.0937 74.2089C59.3604 72.3476 65.467 70.0836 71.4137 67.4169C72.091 67.1129 72.8004 66.9636 73.5417 66.9689C75.2297 66.9849 77.3257 67.2569 78.0217 64.8009C78.0537 64.6729 78.0137 64.5823 77.9017 64.5289L71.4617 61.3609C71.3508 61.3085 71.2614 61.2203 71.2079 61.1104C71.1544 61.0006 71.1398 60.8756 71.1666 60.7555C71.1934 60.6354 71.26 60.5273 71.3556 60.4484C71.4512 60.3696 71.5703 60.3247 71.6937 60.3209C75.6697 60.2329 84.3257 60.9689 87.6137 59.1449C90.4937 57.5449 93.4004 55.9983 96.3337 54.5049C96.579 54.3823 96.8377 54.3369 97.1097 54.3689C97.4937 54.4169 97.7897 54.273 97.9977 53.937C98.147 53.697 98.355 53.5263 98.6217 53.4249C101.24 52.4009 103.475 50.9901 105.326 49.1928C106.622 50.3394 108.142 50.7847 109.886 50.5287C111.609 51.7713 113.254 50.934 114.822 48.0166C114.942 47.7864 115.125 47.5928 115.35 47.4566C116.353 46.8753 117.23 46.1367 117.982 45.2407C118.16 45.0263 118.395 44.8656 118.662 44.7767C122.774 43.4007 124.55 40.7927 129.31 42.6327C129.524 42.7162 129.759 42.7298 129.981 42.6717C130.203 42.6135 130.401 42.4866 130.547 42.309C130.692 42.1314 130.778 41.9123 130.792 41.683C130.805 41.4537 130.746 41.2261 130.622 41.0327L126.446 34.5046C126.307 34.2806 126.121 34.102 125.886 33.9686C125.363 33.67 124.974 33.254 124.718 32.7206C124.693 32.667 124.683 32.6076 124.688 32.5487C124.694 32.4897 124.716 32.4335 124.751 32.3859C124.787 32.3383 124.834 32.3012 124.889 32.2784C124.943 32.2557 125.003 32.2481 125.062 32.2566C130.926 33.2326 132.726 26.5846 128.15 24.0966C127.883 23.9473 127.598 23.9073 127.294 23.9767C126.046 24.254 124.785 24.3126 123.51 24.1526C123.238 24.1153 122.982 24.1686 122.742 24.3126C120.47 25.6726 117.878 25.9286 115.71 26.8726C113.39 27.8806 110.998 28.71 108.534 29.3606C108.283 29.4246 108.07 29.55 107.894 29.7367C107.073 30.5953 107.049 31.2913 107.822 31.8246C108.073 31.9953 108.265 32.2193 108.398 32.4966L110.118 36.1046C110.165 36.2022 110.191 36.3085 110.195 36.4167C110.199 36.5249 110.181 36.6328 110.141 36.7335C110.101 36.8343 110.041 36.9256 109.964 37.0019C109.887 37.0782 109.795 37.1377 109.694 37.1767L109.15 37.3847C108.75 37.534 108.59 37.398 108.67 36.9767C109.374 33.3447 106.502 30.4326 103.702 28.5526C103.441 28.3766 103.446 28.2113 103.718 28.0566C106.086 26.7073 108.614 25.8886 111.302 25.6006C111.439 25.5856 111.57 25.5334 111.68 25.4498C111.789 25.3661 111.874 25.2542 111.925 25.1259C111.976 24.9976 111.991 24.8578 111.969 24.7216C111.947 24.5853 111.887 24.4578 111.798 24.3526C111.334 23.814 111.441 23.2538 112.118 22.6725L113.502 25.2005C113.677 25.5179 113.967 25.7563 114.312 25.8664C114.658 25.9765 115.032 25.9501 115.358 25.7925C121.382 22.8325 130.51 20.7365 136.998 23.4885C137.249 23.5941 137.456 23.7821 137.584 24.0211C137.713 24.26 137.754 24.5352 137.702 24.8005L136.686 30.1445C136.672 30.2174 136.677 30.2929 136.702 30.3629C136.727 30.4329 136.771 30.4947 136.829 30.5416C136.886 30.5885 136.956 30.6188 137.029 30.6292C137.103 30.6396 137.178 30.6297 137.246 30.6005C142.74 28.3178 148.315 27.9712 153.974 29.5605ZM142.659 34.483C142.624 34.1814 142.53 33.8896 142.382 33.6243C142.235 33.359 142.036 33.1254 141.798 32.9368C141.56 32.7482 141.287 32.6084 140.995 32.5252C140.703 32.442 140.398 32.4171 140.096 32.452L136.933 32.818C136.632 32.8529 136.34 32.9469 136.075 33.0946C135.809 33.2422 135.576 33.4407 135.387 33.6786C135.199 33.9165 135.059 34.1893 134.976 34.4813C134.892 34.7733 134.868 35.0788 134.903 35.3804L135.002 36.2387C135.037 36.5403 135.131 36.832 135.278 37.0973C135.426 37.3626 135.624 37.5962 135.862 37.7848C136.1 37.9734 136.373 38.1133 136.665 38.1965C136.957 38.2797 137.263 38.3045 137.564 38.2696L140.727 37.9036C141.029 37.8687 141.32 37.7748 141.586 37.6271C141.851 37.4795 142.085 37.281 142.273 37.043C142.462 36.8051 142.602 36.5324 142.685 36.2404C142.768 35.9484 142.793 35.6428 142.758 35.3412L142.659 34.483ZM142.443 43.4805C142.427 43.1606 142.25 42.8622 141.952 42.651C141.654 42.4398 141.259 42.333 140.854 42.3542C140.654 42.3647 140.457 42.4063 140.275 42.4766C140.093 42.5469 139.93 42.6446 139.794 42.7641C139.658 42.8835 139.553 43.0224 139.484 43.1728C139.415 43.3231 139.383 43.4821 139.392 43.6405C139.408 43.9605 139.585 44.2588 139.883 44.4701C140.181 44.6813 140.576 44.7881 140.981 44.7668C141.181 44.7564 141.378 44.7147 141.56 44.6444C141.742 44.5741 141.905 44.4764 142.041 44.3569C142.177 44.2375 142.283 44.0986 142.352 43.9482C142.421 43.7979 142.452 43.6389 142.443 43.4805ZM80.5176 70.2326C79.7256 69.7846 78.1096 69.9126 77.4936 70.5126C77.3971 70.6074 77.3312 70.7289 77.3041 70.8615C77.277 70.994 77.2901 71.1315 77.3416 71.2566L78.3016 73.5286C78.3498 73.642 78.4304 73.7386 78.5334 73.8062C78.6364 73.8738 78.7571 73.9095 78.8803 73.9087C79.0035 73.9078 79.1237 73.8705 79.2257 73.8014C79.3277 73.7324 79.407 73.6347 79.4536 73.5206L80.6376 70.5766C80.6963 70.4273 80.6563 70.3126 80.5176 70.2326Z" fill="#2D1920"/>
<path d="M180.422 29.3047C196.886 45.3633 207.198 64.7798 211.358 87.5531C211.203 87.5958 211.094 87.486 211.03 87.2247C211.019 87.198 211.011 87.19 211.006 87.2007L210.702 87.5527C210.641 87.6204 210.567 87.6741 210.484 87.7101C210.401 87.746 210.312 87.7633 210.222 87.7607L207.182 87.6407C206.894 87.63 206.649 87.5207 206.446 87.3127C205.689 86.5393 205.371 85.574 205.494 84.4167C205.521 84.1607 205.47 83.918 205.342 83.6887C203.582 80.5207 202.95 77.3447 201.902 73.8967C201.054 71.1447 198.662 68.0247 198.422 65.2247C198.401 64.958 198.329 64.71 198.206 64.4807C195.966 60.3313 193.505 56.3073 190.822 52.4087C190.315 51.678 189.577 51.3823 188.606 51.521C186.598 48.081 180.598 47.2329 177.23 47.2249L175.446 46.9123C175.147 46.859 175.102 46.723 175.31 46.5043C177.078 44.6243 179.654 38.4407 176.238 36.9847C176.014 36.6594 176.097 36.3687 176.486 36.1127C176.715 35.9687 176.894 35.7793 177.022 35.5447L180.422 29.3047Z" fill="#639F79"/>
<path d="M140.096 32.452L136.933 32.818C135.665 32.9648 134.756 34.112 134.903 35.3804L135.002 36.2387C135.149 37.5071 136.296 38.4164 137.564 38.2696L140.727 37.9036C141.995 37.7569 142.905 36.6097 142.758 35.3412L142.659 34.483C142.512 33.2146 141.365 32.3053 140.096 32.452Z" fill="#754F41"/>
<path d="M96.2248 37.3358C97.4345 37.3822 98.4427 36.7041 98.4767 35.8211C98.5106 34.9381 97.5574 34.1846 96.3477 34.1381C95.138 34.0917 94.1298 34.7698 94.0959 35.6528C94.0619 36.5358 95.0151 37.2893 96.2248 37.3358Z" fill="#754F41"/>
<path d="M174.958 36.5609L176.238 36.9847C179.654 38.4407 177.078 44.6243 175.31 46.5043C175.102 46.723 175.147 46.859 175.446 46.9123L177.23 47.2249C172.822 51.7209 169.798 47.4649 167.07 44.3769C166.95 44.2418 166.88 44.0704 166.87 43.8903C166.861 43.7102 166.913 43.5321 167.019 43.3848C167.125 43.2375 167.277 43.1298 167.452 43.079C167.627 43.0282 167.814 43.0373 167.982 43.1049C169.257 43.6329 170.406 43.3129 171.43 42.1449C172.785 40.5876 173.96 38.7263 174.958 36.5609Z" fill="#1C0E18"/>
<path d="M109.886 50.5287C108.142 50.7847 106.622 50.3394 105.326 49.1928C101.958 45.1768 106.806 39.9127 110.814 43.2087C113.766 45.6247 113.07 48.6327 109.886 50.5287Z" fill="#CA6246"/>
<path d="M140.982 44.7671C141.824 44.7229 142.478 44.1468 142.443 43.4805C142.409 42.8143 141.697 42.31 140.854 42.3542C140.012 42.3984 139.357 42.9743 139.392 43.6405C139.427 44.3068 140.139 44.8113 140.982 44.7671Z" fill="#754F41"/>
<path d="M29.102 45.6886C28.838 48.9206 31.6541 51.833 34.1901 53.145L36.7415 54.7283C36.9708 54.8723 37.1388 55.0696 37.2455 55.3203C37.7148 56.4083 37.8084 57.563 37.5257 58.7844C32.8057 59.9844 24.8777 61.8084 22.0138 66.8884C20.2058 65.7097 18.7602 65.3371 17.6775 65.7691C14.3175 67.1211 13.5255 70.6331 11.7975 73.4891C10.9175 74.9531 9.65351 75.6891 8.31751 76.6971C8.08284 76.8784 7.83217 76.8998 7.5655 76.7611C7.0215 76.4784 6.65351 76.5504 6.46151 76.9771C6.39672 77.1262 6.28846 77.2523 6.15089 77.3389C6.01332 77.4255 5.85283 77.4686 5.69039 77.4625C5.52794 77.4565 5.3711 77.4015 5.24035 77.3049C5.1096 77.2084 5.01102 77.0746 4.9575 76.9211L4.7575 76.3527C7.8775 65.2593 12.6594 54.9102 19.102 45.3049C19.87 45.8489 20.5554 45.9078 21.158 45.4811C21.3394 45.3531 21.534 45.2571 21.742 45.1931C22.3607 45.0065 22.9154 44.7371 23.406 44.3851C23.63 44.2198 23.8754 44.1771 24.142 44.2571L29.102 45.6886Z" fill="#CAE4B9"/>
<path d="M40.1501 46.6569C39.9314 46.6569 39.7556 46.7024 39.6223 46.7931C39.4036 46.9477 39.385 47.1237 39.5663 47.321L44.5583 52.649C44.6575 52.7564 44.7239 52.89 44.7498 53.0338C44.7757 53.1777 44.76 53.326 44.7045 53.4612C44.6491 53.5965 44.5562 53.7131 44.4368 53.7974C44.3173 53.8816 44.1763 53.9301 44.0303 53.937C40.8036 54.081 37.5234 53.817 34.1901 53.145C31.6541 51.833 28.838 48.9206 29.102 45.6886C32.494 45.0113 36.1767 45.3342 40.1501 46.6569Z" fill="#754F41"/>
<path d="M40.1501 46.6569C40.1234 46.4649 40.5582 46.4886 41.4542 46.7286L45.0216 48.5769L48.7019 51.4165C48.8029 51.496 48.8844 51.5975 48.9399 51.7133C48.9954 51.829 49.0235 51.9558 49.022 52.0837C49.0204 52.2116 48.9893 52.3371 48.931 52.4503C48.8727 52.5636 48.7888 52.6616 48.6859 52.7366C46.7926 54.1392 44.8219 55.025 42.7739 55.393C41.2219 55.6436 40.4994 56.6276 40.6061 58.3449C40.6221 58.6489 40.7767 58.8356 41.0701 58.9049L44.3743 59.6809C45.889 59.3555 47.0783 59.4729 47.9423 60.0329C48.1228 60.1505 48.2691 60.3136 48.3664 60.5058C48.4636 60.6981 48.5084 60.9125 48.4963 61.1276C48.4841 61.3427 48.4153 61.5508 48.297 61.7308C48.1787 61.9108 48.0149 62.0564 47.8223 62.1529L43.3263 64.4089C43.0223 64.5582 42.849 64.8009 42.8063 65.1369C42.6996 66.0169 42.9743 66.7902 43.6303 67.4569C43.8223 67.6489 43.8356 67.8542 43.6703 68.0729L40.2303 72.5849C39.6703 73.3102 38.9477 73.5529 38.0623 73.3129C36.9263 73.0035 35.9682 72.2297 35.1896 70.9924C31.2856 66.2004 35.0536 64.0484 37.9256 60.9844C38.1229 60.7764 38.1736 60.539 38.0776 60.2724L37.5257 58.7844C37.8084 57.563 37.7156 56.4093 37.2463 55.3213C37.1396 55.0707 36.9717 54.8733 36.7423 54.7293L34.1901 53.145C37.5234 53.817 40.8036 54.081 44.0303 53.937C44.1763 53.9301 44.3173 53.8816 44.4368 53.7974C44.5562 53.7131 44.6491 53.5965 44.7045 53.4612C44.76 53.326 44.7757 53.1777 44.7498 53.0338C44.7239 52.89 44.6575 52.7564 44.5583 52.649L39.5663 47.321C39.385 47.1237 39.4036 46.9477 39.6223 46.7931C39.7556 46.7024 39.9314 46.6569 40.1501 46.6569Z" fill="#2D1920"/>
<path d="M58.8379 55.9138C61.377 56.2255 63.6645 54.6118 63.9472 52.3095C64.2299 50.0072 62.4007 47.8881 59.8616 47.5763C57.3225 47.2646 55.035 48.8783 54.7523 51.1806C54.4696 53.4829 56.2988 55.602 58.8379 55.9138Z" fill="#CA6246"/>
<path d="M139.222 52.457C139.894 53.1077 139.832 53.9344 139.038 54.9371C137.478 56.9051 134.494 54.609 135.278 52.625L136.534 51.425C136.731 51.2384 136.966 51.1503 137.238 51.161C138.091 51.1877 138.752 51.6197 139.222 52.457Z" fill="#754F41"/>
<path d="M135.278 52.625C134.494 54.609 137.478 56.9051 139.038 54.9371C139.832 53.9344 139.894 53.1077 139.222 52.457C142.822 53.0064 145.819 54.313 148.214 56.377C148.416 56.5477 148.507 56.5024 148.486 56.2411C148.48 56.1451 148.478 56.0544 148.478 55.969C148.478 55.9477 148.488 55.9371 148.51 55.9371C149.406 56.0171 150.16 56.3237 150.774 56.857C150.939 57.0008 151.133 57.1067 151.344 57.1675C151.554 57.2283 151.775 57.2424 151.991 57.2089C152.208 57.1754 152.414 57.0951 152.596 56.9735C152.778 56.8519 152.932 56.692 153.046 56.505C153.366 55.977 153.712 55.803 154.086 55.9844C152.998 57.451 152.921 59.339 153.854 61.6483C154.195 62.4803 154.953 63.467 156.126 64.6083C157.939 66.3737 159.313 68.491 160.246 70.9603C160.298 71.0675 160.305 71.1909 160.266 71.3034C160.227 71.4159 160.145 71.5084 160.038 71.5603C159.931 71.6123 159.807 71.6196 159.695 71.5806C159.582 71.5416 159.49 71.4595 159.438 71.3523C157.662 68.3843 151.382 71.2323 148.87 72.3603C148.609 72.4777 148.451 72.6804 148.398 72.9684L147.07 80.1284C145.662 79.547 144.342 79.2861 143.11 79.3448C142.07 78.0568 138.726 78.6726 137.206 78.8086C136.929 78.8353 136.686 78.9339 136.478 79.1046C134.966 80.3366 131.606 84.5686 129.454 84.8326C129.166 84.87 128.99 84.7446 128.926 84.4566C128.798 83.8539 128.43 83.5579 127.822 83.5686C127.571 83.5739 127.366 83.478 127.206 83.2806C126.214 82.0433 125.057 81.7633 123.734 82.4406C123.621 82.5002 123.523 82.5858 123.449 82.6901C123.375 82.7944 123.328 82.9146 123.31 83.0406C122.777 86.9446 120.547 88.9953 116.622 89.1926C116.318 89.2086 116.051 89.1126 115.822 88.9046L112.71 86.0166C112.513 85.8353 112.281 85.7499 112.014 85.7606C110.355 85.8353 108.699 85.79 107.046 85.6246C106.751 85.5982 106.464 85.5081 106.206 85.3606L103.35 83.7606C103.11 83.6273 102.947 83.6913 102.862 83.9526C102.051 86.5073 100.419 88.3446 97.9661 89.4646C97.6059 89.6257 97.197 89.6388 96.8284 89.501C96.4598 89.3631 96.1614 89.0855 95.9981 88.7286C95.1661 86.9046 93.1661 82.0966 90.6061 82.6326C90.4808 82.6582 90.3671 82.7243 90.282 82.8209C90.1969 82.9175 90.1451 83.0395 90.1341 83.1686C89.8221 86.8886 91.4541 95.0006 85.6941 95.5606C81.5501 95.9659 78.4115 94.606 76.2781 91.4806C75.3261 90.0966 72.4381 85.6726 70.4701 87.7766C69.3101 89.0246 69.7101 91.8006 68.1261 93.6246C67.9395 93.838 67.7048 93.9446 67.4221 93.9446C66.3395 93.9499 65.3315 94.214 64.3981 94.7366C64.1528 94.87 63.9208 94.854 63.7021 94.6886C60.7421 92.4646 61.4461 89.2806 61.5421 86.1286C61.5475 85.9607 61.5095 85.7944 61.4318 85.6455C61.3541 85.4965 61.2392 85.37 61.0981 85.2777C60.9569 85.1855 60.7943 85.1308 60.6256 85.1187C60.4568 85.1066 60.2877 85.1375 60.1341 85.2086C56.0781 87.0966 56.7581 90.5606 55.7661 94.2486C55.4195 95.5126 55.8968 96.0459 57.1981 95.8486C58.9475 95.5819 60.6168 95.726 62.2061 96.2806C62.5228 96.3897 62.7843 96.6186 62.9351 96.9188C63.0859 97.219 63.1143 97.5669 63.0141 97.8886C62.4381 99.7606 61.6115 101.489 60.5341 103.073C60.4101 103.256 60.2473 103.409 60.0573 103.522C59.8673 103.635 59.6547 103.704 59.4347 103.726C59.2147 103.747 58.9928 103.72 58.7846 103.646C58.5764 103.571 58.3871 103.452 58.2301 103.297C57.6755 102.753 57.0115 102.505 56.2381 102.553C56.1236 102.56 56.0129 102.598 55.9173 102.663C55.8217 102.727 55.7447 102.816 55.6941 102.921C54.6755 104.963 53.0515 106.257 50.8221 106.801C50.5661 106.865 50.3875 107.019 50.2861 107.265C49.4381 109.329 48.4995 111.345 47.4701 113.313C43.2381 121.417 39.5661 110.905 38.4301 107.689C38.3969 107.597 38.3374 107.517 38.2591 107.459C38.1809 107.401 38.0873 107.368 37.99 107.363C37.8928 107.358 37.7962 107.381 37.7122 107.431C37.6283 107.48 37.5608 107.553 37.5181 107.641C37.4488 107.785 37.2755 107.963 36.9981 108.177L38.6061 101.481C38.6755 101.209 38.8195 101.161 39.0381 101.337C42.0301 103.742 45.4995 104.86 49.4461 104.689C49.5672 104.685 49.6842 104.645 49.7823 104.575C49.8805 104.506 49.9556 104.409 49.9981 104.297C50.5261 102.953 49.6221 101.905 48.3821 101.257C44.5741 99.2569 41.2808 96.6918 38.5022 93.5611C36.2782 89.1718 35.4088 84.9745 35.8942 80.9691C36.3688 77.0331 37.5204 75.4463 39.3497 76.2089C44.1497 81.4463 50.0244 84.5287 56.9737 85.4567C57.2457 85.494 57.4404 85.3847 57.5577 85.1287C58.2244 83.694 58.6617 82.1847 58.8697 80.6007C58.9366 80.0937 59.1825 79.6276 59.5628 79.287C59.943 78.9464 60.4323 78.7539 60.9417 78.7447C64.0724 78.6807 66.075 80.1527 66.9497 83.1607C67.0055 83.3493 67.1193 83.5152 67.2746 83.6346C67.4299 83.7539 67.6187 83.8205 67.8137 83.8247C83.6537 84.2087 115.206 78.0647 117.054 57.6327C117.065 57.5012 117.117 57.3764 117.201 57.2749C117.285 57.1734 117.399 57.1 117.526 57.0647C122.846 55.5607 127.302 54.7527 132.198 51.5687C132.32 51.494 132.382 51.5287 132.382 51.6727L132.374 51.8887C132.374 52.1127 132.48 52.19 132.694 52.1207L133.078 52.0007C133.44 51.8887 133.688 52.0114 133.822 52.3687L134.094 53.1207C134.206 53.414 134.347 53.43 134.518 53.1687C134.79 52.7634 135.043 52.5824 135.278 52.625Z" fill="#1C0E18"/>
<path d="M188.606 51.521C189.577 51.3823 190.315 51.678 190.822 52.4087C193.505 56.3073 195.966 60.3313 198.206 64.4807C198.329 64.71 198.401 64.958 198.422 65.2247C198.662 68.0247 201.054 71.1447 201.902 73.8967C202.95 77.3447 203.582 80.5207 205.342 83.6887C205.47 83.918 205.521 84.1607 205.494 84.4167C205.371 85.574 205.689 86.5393 206.446 87.3127C206.649 87.5207 206.894 87.63 207.182 87.6407L210.222 87.7607C210.312 87.7633 210.401 87.746 210.484 87.7101C210.567 87.6741 210.641 87.6204 210.702 87.5527L211.006 87.2007C211.011 87.19 211.019 87.198 211.03 87.2247C211.094 87.486 211.203 87.5958 211.358 87.5531C212.451 94.3798 213.102 101.254 213.31 108.177L212.55 121.129C211.014 119.641 209.951 117.678 209.359 115.241C209.3 115.006 209.196 114.79 209.046 114.593L207.166 112.153C207.001 111.934 206.934 111.691 206.966 111.425C207.884 104.294 207.359 97.2886 205.391 90.4086C204.495 87.2886 198.831 76.5926 193.983 78.7686C194.009 78.8219 194.032 78.8784 194.054 78.9371L191.494 76.6971C191.248 76.4837 191.286 76.3424 191.606 76.2731C193.662 75.8411 197.918 75.5691 198.166 72.9771C198.192 72.6909 198.135 72.403 198.002 72.1476C197.869 71.8922 197.664 71.6803 197.414 71.5371C193.819 69.4678 190.118 67.6091 186.31 65.9611C186.253 65.9374 186.204 65.8974 186.17 65.8461C186.136 65.7949 186.118 65.7347 186.118 65.6731C186.118 65.6115 186.136 65.5513 186.17 65.5C186.204 65.4488 186.253 65.4088 186.31 65.3851C187.846 64.7131 188.99 63.6091 189.742 62.0731C189.955 61.6345 189.993 61.1309 189.847 60.6654C189.701 60.1999 189.383 59.8077 188.958 59.5691C186.867 58.4011 184.643 57.5718 182.286 57.0811C182.216 57.0672 182.153 57.0323 182.104 56.981C182.055 56.9298 182.023 56.8648 182.013 56.7948C182.002 56.7248 182.014 56.6533 182.045 56.59C182.077 56.5267 182.127 56.4747 182.19 56.4411C184.499 55.2304 186.638 53.5903 188.606 51.521Z" fill="#54856B"/>
<path d="M42.7739 55.393L44.3743 59.6809L41.0701 58.9049C40.7767 58.8356 40.6221 58.6489 40.6061 58.3449C40.4994 56.6276 41.2219 55.6436 42.7739 55.393Z" fill="#754F41"/>
<path d="M154.086 55.9844C156.278 56.411 157.894 57.1843 158.934 58.3043C159.186 58.5775 159.507 58.7774 159.865 58.883C160.223 58.9886 160.603 58.996 160.966 58.9043C162.75 58.4403 165.942 56.3924 167.718 57.4804C167.947 57.619 168.054 57.8217 168.038 58.0884C167.862 61.0564 166.286 62.1924 163.846 64.2804C163.6 64.4937 163.587 64.715 163.806 64.9443L165.758 67.0169C167.843 68.9156 168.996 71.0839 169.214 73.5212C169.224 73.654 169.206 73.7871 169.16 73.9114C169.115 74.0356 169.043 74.1481 168.95 74.2412C167.598 75.5772 165.246 74.7372 163.59 74.4172C163.463 74.3913 163.331 74.4069 163.214 74.4618C163.097 74.5166 163.002 74.6076 162.942 74.7212C160.774 78.8572 159.318 82.7532 153.958 83.3052C153.66 83.3372 153.417 83.4759 153.23 83.7212C152.393 84.8359 151.934 86.1105 151.854 87.5452C151.838 87.8385 151.961 88.0412 152.222 88.1532C157.334 90.3212 162.918 87.7052 166.374 83.6812C167.078 82.8652 167.39 83.0625 167.31 84.2732C167.305 84.398 167.257 84.5214 167.174 84.6252L162.71 90.0972C162.54 90.3052 162.473 90.5425 162.51 90.8092C163.502 98.1452 174.47 95.4332 172.758 87.6892C172.728 87.5546 172.74 87.4141 172.793 87.2867C172.846 87.1592 172.936 87.0511 173.052 86.9768C173.168 86.9026 173.305 86.8659 173.442 86.8717C173.58 86.8775 173.713 86.9255 173.822 87.0092C178.142 90.2652 183.67 90.5692 188.83 90.6332C188.895 90.6347 188.959 90.6556 189.012 90.6932C189.065 90.7309 189.106 90.7835 189.129 90.8445C189.152 90.9055 189.157 90.972 189.142 91.0355C189.127 91.0991 189.094 91.1567 189.046 91.2012L181.27 98.2252C180.86 98.5985 180.801 99.0172 181.094 99.4812C182.086 101.065 183.449 102.172 185.182 102.801C185.327 102.854 185.482 102.873 185.635 102.858C185.789 102.843 185.938 102.793 186.07 102.713L191.35 99.5692C191.49 99.4841 191.654 99.4475 191.817 99.465C191.98 99.4826 192.132 99.5532 192.252 99.6663C192.371 99.7794 192.451 99.9287 192.479 100.092C192.507 100.255 192.481 100.422 192.406 100.569C191.174 102.937 189.628 105.049 187.766 106.905C187.711 106.96 187.669 107.027 187.641 107.1C187.614 107.173 187.602 107.251 187.606 107.329C187.611 107.407 187.632 107.484 187.668 107.554C187.703 107.625 187.753 107.687 187.814 107.737C190.806 110.196 192.014 112.236 191.438 113.857C192.758 119.825 194.574 131.401 190.302 135.209C190.11 135.38 189.889 135.476 189.638 135.497C188.193 135.62 186.929 135.209 185.846 134.265C185.564 134.02 185.382 134.081 185.302 134.449C184.126 139.833 183.822 145.265 176.47 144.353C176.161 144.31 176.036 144.444 176.094 144.753C176.66 147.766 177.241 150.772 177.838 153.769C179.134 160.337 169.63 160.321 165.782 159.257C165.516 159.188 165.345 159.284 165.27 159.545C164.158 163.369 163.382 167.633 160.798 170.753C160.668 170.911 160.499 171.033 160.309 171.109C160.119 171.185 159.913 171.212 159.71 171.187C159.508 171.163 159.315 171.087 159.15 170.968C158.985 170.849 158.853 170.689 158.766 170.505L154.758 162.057C154.736 162.011 154.7 161.973 154.656 161.948C154.611 161.923 154.56 161.913 154.509 161.918C154.459 161.923 154.411 161.944 154.372 161.978C154.334 162.011 154.306 162.056 154.294 162.105C153.382 165.545 152.076 168.838 150.374 171.985C148.71 175.068 146.606 175.66 144.062 173.761L141.414 171.257C140.561 170.452 139.729 170.473 138.918 171.321C133.494 176.961 128.942 181.793 121.326 175.497C121.243 175.428 121.146 175.376 121.042 175.344C120.938 175.313 120.829 175.302 120.721 175.313C120.613 175.324 120.508 175.357 120.413 175.409C120.318 175.461 120.234 175.532 120.166 175.617C118.827 177.329 117.123 178.548 115.054 179.273C114.766 179.374 114.619 179.577 114.614 179.881L114.598 184.225C114.811 188.641 113.889 192.662 111.83 196.289L111.622 197.049C111.553 197.3 111.387 197.433 111.126 197.449C110.822 197.47 110.569 197.385 110.366 197.193C115.79 190.609 113.926 181.185 113.574 173.297C128.886 171.369 144.006 166.537 153.478 154.041C158.07 157.107 162.843 156.532 167.798 152.313C172.683 148.153 174.979 142.833 174.686 136.353C174.486 131.801 171.102 125.377 165.542 127.105C161.19 128.457 158.63 134.009 158.126 138.241C158.111 138.369 158.064 138.491 157.99 138.597C157.916 138.703 157.817 138.79 157.702 138.849L157.094 139.161L153.622 117.009C153.603 116.881 153.549 116.76 153.466 116.658C153.383 116.557 153.274 116.479 153.15 116.433C147.638 114.377 147.207 108.889 142.183 106.169C139.628 102.953 137.665 99.3425 136.294 95.3372C136.275 95.2766 136.237 95.2237 136.186 95.1859C136.134 95.1481 136.073 95.1273 136.009 95.1264C135.945 95.1255 135.883 95.1446 135.831 95.181C135.779 95.2173 135.739 95.2692 135.718 95.3292C131.39 106.809 115.086 98.4412 108.134 94.9772C108.022 94.9211 107.897 94.8948 107.771 94.9008C107.645 94.9069 107.523 94.945 107.417 95.0116C107.31 95.0782 107.222 95.171 107.161 95.2813C107.101 95.3915 107.069 95.5154 107.07 95.6412C107.086 102.825 101.406 99.2732 98.6462 96.8892C98.6014 96.8505 98.5492 96.8212 98.4927 96.803C98.4362 96.7849 98.3764 96.7782 98.3169 96.7835C98.2574 96.7887 98.1993 96.8057 98.146 96.8334C98.0926 96.8612 98.0451 96.8991 98.0062 96.9451C96.8302 98.3771 96.6302 99.9852 94.3182 100.529C91.0862 101.292 87.8542 102.057 84.6222 102.825C79.7742 103.985 75.4622 99.4812 71.4462 103.337C66.0942 108.473 60.8462 112.553 56.9822 116.777C56.7956 116.98 56.6916 117.217 56.6702 117.489L56.0942 125.521C55.4116 130.049 55.1072 134.558 55.1818 139.049C55.2218 141.233 55.7978 143.049 56.2538 145.201C54.1338 141.785 54.6621 137.345 52.7981 133.705C48.8701 125.633 40.1018 129.921 38.4138 136.857C37.0218 142.585 38.2644 147.673 42.1418 152.121C41.9178 152.131 41.8195 152.425 41.8461 153.001C41.3875 152.9 41.0085 152.955 40.7098 153.169C40.4165 152.982 40.2644 152.635 40.2537 152.129C40.2484 151.867 40.1657 151.635 40.0057 151.433C37.515 148.259 36.1924 144.643 36.0377 140.585C36.0316 140.431 35.9756 140.282 35.8781 140.163C35.7805 140.043 35.6468 139.959 35.497 139.922C35.3472 139.885 35.1894 139.897 35.0474 139.958C34.9054 140.018 34.7869 140.123 34.7097 140.257L33.3897 142.521C33.2297 142.798 33.043 142.817 32.8297 142.577L31.9497 141.577C29.027 141.273 27.4459 141.838 27.2059 143.273C25.4459 143.873 26.3103 139.145 25.9263 138.105C27.1983 137.377 28.0383 140.816 31.2143 137.864C33.3369 135.886 35.2623 133.75 36.9903 131.456C37.0431 131.386 37.0765 131.303 37.0868 131.216C37.0972 131.129 37.0842 131.041 37.0492 130.96C37.0143 130.879 36.9585 130.81 36.8877 130.758C36.8169 130.706 36.7336 130.674 36.6463 130.664L27.5103 129.744C27.1849 129.712 26.9529 129.55 26.8143 129.256C26.7076 129.032 26.6543 128.808 26.6543 128.584L26.6704 127.489L28.0938 126.889C28.3978 126.761 28.5338 126.534 28.5018 126.209C28.3365 124.513 28.7472 122.993 29.7338 121.649C29.7706 121.598 29.7957 121.54 29.8072 121.478C29.8187 121.416 29.8162 121.353 29.8001 121.293C29.7839 121.233 29.7544 121.178 29.7139 121.131C29.6733 121.085 29.6227 121.049 29.5658 121.025L22.5098 118.097C23.0432 116.897 23.3018 115.806 23.2858 114.825C23.2804 114.563 23.1497 114.398 22.8937 114.329L19.0139 113.233C18.3579 111.238 20.1291 109.339 24.3264 107.537C24.9504 107.206 25.6542 107.241 26.4382 107.641C26.7049 107.774 26.8516 107.988 26.8783 108.281L27.1743 111.393C27.1989 111.64 27.2889 111.877 27.4351 112.078C27.5814 112.279 27.7785 112.437 28.0063 112.537C29.9849 113.396 32.0863 113.585 34.3103 113.105C36.9823 112.529 36.6541 110.161 36.9981 108.177C37.2755 107.963 37.4488 107.785 37.5181 107.641C37.5608 107.553 37.6283 107.48 37.7122 107.431C37.7962 107.381 37.8928 107.358 37.99 107.363C38.0873 107.368 38.1809 107.401 38.2591 107.459C38.3374 107.517 38.3969 107.597 38.4301 107.689C39.5661 110.905 43.2381 121.417 47.4701 113.313C48.4995 111.345 49.4381 109.329 50.2861 107.265C50.3875 107.019 50.5661 106.865 50.8221 106.801C53.0515 106.257 54.6755 104.963 55.6941 102.921C55.7447 102.816 55.8217 102.727 55.9173 102.663C56.0129 102.598 56.1236 102.56 56.2381 102.553C57.0115 102.505 57.6755 102.753 58.2301 103.297C58.3871 103.452 58.5764 103.571 58.7846 103.646C58.9928 103.72 59.2147 103.747 59.4347 103.726C59.6547 103.704 59.8673 103.635 60.0573 103.522C60.2473 103.409 60.4101 103.256 60.5341 103.073C61.6115 101.489 62.4381 99.7606 63.0141 97.8886C63.1143 97.5669 63.0859 97.219 62.9351 96.9188C62.7843 96.6186 62.5228 96.3897 62.2061 96.2806C60.6168 95.726 58.9475 95.5819 57.1981 95.8486C55.8968 96.0459 55.4195 95.5126 55.7661 94.2486C56.7581 90.5606 56.0781 87.0966 60.1341 85.2086C60.2877 85.1375 60.4568 85.1066 60.6256 85.1187C60.7943 85.1308 60.9569 85.1855 61.0981 85.2777C61.2392 85.37 61.3541 85.4965 61.4318 85.6455C61.5095 85.7944 61.5475 85.9607 61.5421 86.1286C61.4461 89.2806 60.7421 92.4646 63.7021 94.6886C63.9208 94.854 64.1528 94.87 64.3981 94.7366C65.3315 94.214 66.3395 93.9499 67.4221 93.9446C67.7048 93.9446 67.9395 93.838 68.1261 93.6246C69.7101 91.8006 69.3101 89.0246 70.4701 87.7766C72.4381 85.6726 75.3261 90.0966 76.2781 91.4806C78.4115 94.606 81.5501 95.9659 85.6941 95.5606C91.4541 95.0006 89.8221 86.8886 90.1341 83.1686C90.1451 83.0395 90.1969 82.9175 90.282 82.8209C90.3671 82.7243 90.4808 82.6582 90.6061 82.6326C93.1661 82.0966 95.1661 86.9046 95.9981 88.7286C96.1614 89.0855 96.4598 89.3631 96.8284 89.501C97.197 89.6388 97.6059 89.6257 97.9661 89.4646C100.419 88.3446 102.051 86.5073 102.862 83.9526C102.947 83.6913 103.11 83.6273 103.35 83.7606L106.206 85.3606C106.464 85.5081 106.751 85.5982 107.046 85.6246C108.699 85.79 110.355 85.8353 112.014 85.7606C112.281 85.7499 112.513 85.8353 112.71 86.0166L115.822 88.9046C116.051 89.1126 116.318 89.2086 116.622 89.1926C120.547 88.9953 122.777 86.9446 123.31 83.0406C123.328 82.9146 123.375 82.7944 123.449 82.6901C123.523 82.5858 123.621 82.5002 123.734 82.4406C125.057 81.7633 126.214 82.0433 127.206 83.2806C127.366 83.478 127.571 83.5739 127.822 83.5686C128.43 83.5579 128.798 83.8539 128.926 84.4566C128.99 84.7446 129.166 84.87 129.454 84.8326C131.606 84.5686 134.966 80.3366 136.478 79.1046C136.686 78.9339 136.929 78.8353 137.206 78.8086C138.726 78.6726 142.07 78.0568 143.11 79.3448C135.998 80.7128 139.91 92.2173 146.654 87.2893C149.273 85.3747 149.411 82.987 147.07 80.1284L148.398 72.9684C148.451 72.6804 148.609 72.4777 148.87 72.3603C151.382 71.2323 157.662 68.3843 159.438 71.3523C159.49 71.4595 159.582 71.5416 159.695 71.5806C159.807 71.6196 159.931 71.6123 160.038 71.5603C160.145 71.5084 160.227 71.4159 160.266 71.3034C160.305 71.1909 160.298 71.0675 160.246 70.9603C159.313 68.491 157.939 66.3737 156.126 64.6083C154.953 63.467 154.195 62.4803 153.854 61.6483C152.921 59.339 152.998 57.451 154.086 55.9844ZM157.177 77.1436C157.189 76.9833 157.155 76.8211 157.076 76.6663C156.997 76.5114 156.876 76.367 156.718 76.2412C156.561 76.1153 156.371 76.0106 156.158 75.933C155.946 75.8553 155.716 75.8063 155.482 75.7886C155.008 75.753 154.543 75.8474 154.191 76.0511C153.839 76.2548 153.627 76.5511 153.603 76.8748C153.591 77.0351 153.625 77.1973 153.704 77.3521C153.782 77.5069 153.904 77.6514 154.061 77.7772C154.219 77.9031 154.409 78.0078 154.621 78.0854C154.833 78.163 155.063 78.2121 155.298 78.2297C155.772 78.2654 156.236 78.171 156.588 77.9673C156.941 77.7636 157.152 77.4673 157.177 77.1436ZM148.254 103.569C152.758 105.025 159.782 103.641 160.342 97.6411C160.422 96.7824 160.142 95.897 159.502 94.985C155.726 89.609 148.494 90.729 145.502 96.377C145.38 96.6064 145.342 96.8517 145.39 97.113C145.785 99.241 146.532 101.225 147.63 103.065C147.769 103.307 147.992 103.487 148.254 103.569ZM164.288 109.564C165.566 110.614 167.249 111.067 168.964 110.822C170.68 110.577 172.288 109.655 173.436 108.258C174.004 107.566 174.442 106.779 174.724 105.941C175.007 105.103 175.129 104.23 175.083 103.373C175.037 102.517 174.824 101.692 174.456 100.947C174.089 100.201 173.573 99.5502 172.94 99.0301C171.661 97.9796 169.979 97.5271 168.263 97.7721C166.548 98.0171 164.939 98.9394 163.792 100.336C163.224 101.028 162.786 101.815 162.503 102.653C162.221 103.491 162.099 104.364 162.145 105.221C162.191 106.078 162.404 106.902 162.772 107.647C163.139 108.393 163.654 109.044 164.288 109.564ZM184.654 114.481C184.654 113.322 184.194 112.211 183.375 111.392C182.556 110.573 181.445 110.112 180.286 110.112C179.128 110.112 178.017 110.573 177.198 111.392C176.379 112.211 175.918 113.322 175.918 114.481C175.918 115.639 176.379 116.75 177.198 117.569C178.017 118.388 179.128 118.848 180.286 118.848C181.445 118.848 182.556 118.388 183.375 117.569C184.194 116.75 184.654 115.639 184.654 114.481ZM167.822 122.425L170.982 122.649C171.276 122.671 171.567 122.576 171.79 122.384C172.014 122.192 172.152 121.919 172.174 121.625L172.222 120.953C172.252 120.535 172.215 120.116 172.112 119.72C172.01 119.324 171.844 118.96 171.625 118.647C171.406 118.334 171.137 118.079 170.835 117.897C170.532 117.715 170.202 117.609 169.862 117.585L169.654 117.569C168.969 117.522 168.289 117.811 167.762 118.374C167.236 118.936 166.906 119.726 166.846 120.569L166.798 121.233C166.776 121.527 166.872 121.817 167.064 122.041C167.256 122.264 167.528 122.403 167.822 122.425ZM36.4777 129.201C36.8572 129.256 37.2443 129.233 37.617 129.132C37.9897 129.032 38.3406 128.856 38.6498 128.615C38.9589 128.374 39.2203 128.073 39.4189 127.728C39.6175 127.383 39.7494 127.002 39.8072 126.606C39.865 126.21 39.8475 125.807 39.7556 125.42C39.6638 125.033 39.4995 124.669 39.272 124.35C39.0446 124.031 38.7584 123.762 38.43 123.559C38.1015 123.357 37.7372 123.224 37.3577 123.168C36.9783 123.113 36.5912 123.136 36.2185 123.237C35.8458 123.337 35.4949 123.513 35.1857 123.754C34.8766 123.995 34.6152 124.296 34.4166 124.641C34.218 124.986 34.0861 125.367 34.0283 125.763C33.9705 126.159 33.9881 126.562 34.0799 126.949C34.1717 127.336 34.336 127.7 34.5635 128.019C34.7909 128.338 35.0771 128.607 35.4055 128.81C35.734 129.012 36.0983 129.145 36.4777 129.201ZM180.568 137.85C180.977 138.021 181.44 138.016 181.855 137.837C182.27 137.658 182.602 137.318 182.78 136.894C182.958 136.469 182.966 135.994 182.802 135.572C182.638 135.151 182.317 134.818 181.908 134.647C181.498 134.476 181.035 134.48 180.621 134.66C180.206 134.839 179.873 135.179 179.695 135.603C179.517 136.028 179.51 136.503 179.673 136.925C179.837 137.346 180.159 137.679 180.568 137.85Z" fill="#0E040B"/>
<path d="M37.5257 58.7844L38.0776 60.2724C38.1736 60.539 38.1229 60.7764 37.9256 60.9844C35.0536 64.0484 31.2865 66.201 35.1905 70.993L30.9585 76.4729C30.7985 76.6809 30.5905 76.7956 30.3345 76.8169C28.6705 76.9716 27.2861 78.3793 26.1821 81.0406L23.0938 79.729C22.8603 79.6313 22.6565 79.4741 22.5028 79.273C22.349 79.072 22.2507 78.8342 22.2175 78.5832C22.1843 78.3323 22.2175 78.0771 22.3137 77.843C22.4099 77.6089 22.5657 77.4041 22.7658 77.249L28.7098 72.633C28.7535 72.601 28.7866 72.557 28.8051 72.5062C28.8236 72.4554 28.8267 72.4 28.814 72.3468C28.8013 72.2935 28.7734 72.2446 28.7336 72.206C28.6938 72.1674 28.6439 72.1406 28.5898 72.129C24.9791 71.4517 22.7871 69.7044 22.0138 66.8884C24.8777 61.8084 32.8057 59.9844 37.5257 58.7844Z" fill="#754F41"/>
<path d="M22.0138 66.8884C22.7871 69.7044 24.9791 71.4517 28.5898 72.129C28.6439 72.1406 28.6938 72.1674 28.7336 72.206C28.7734 72.2446 28.8013 72.2935 28.814 72.3468C28.8267 72.4 28.8236 72.4554 28.8051 72.5062C28.7866 72.557 28.7535 72.601 28.7098 72.633L22.7658 77.249C22.5657 77.4041 22.4099 77.6089 22.3137 77.843C22.2175 78.0771 22.1843 78.3323 22.2175 78.5832C22.2507 78.8342 22.349 79.072 22.5028 79.273C22.6565 79.4741 22.8603 79.6313 23.0938 79.729L26.1821 81.0406C18.7581 88.6006 17.8141 95.2486 23.0941 104.593C23.3127 104.987 23.2274 105.075 22.8381 104.857C20.3954 103.518 18.6114 102.766 17.4861 102.601C13.1741 101.961 8.7021 104.617 10.9661 109.473C7.5901 109.841 6.10222 112.681 3.89422 114.737C3.79873 114.827 3.72364 114.936 3.67398 115.056C3.62431 115.176 3.60121 115.305 3.60623 115.433C3.64356 116.126 3.38756 116.585 2.83822 116.809C2.64089 116.889 2.52889 117.03 2.50222 117.233L2.44622 117.657C2.42918 117.793 2.36425 117.918 2.26308 118.01C2.16192 118.103 2.03114 118.156 1.89422 118.161L1.094 118.185C-0.191337 103.956 1.0295 90.0113 4.7575 76.3527L4.9575 76.9211C5.01102 77.0746 5.1096 77.2084 5.24035 77.3049C5.3711 77.4015 5.52794 77.4565 5.69039 77.4625C5.85283 77.4686 6.01332 77.4255 6.15089 77.3389C6.28846 77.2523 6.39672 77.1262 6.46151 76.9771C6.65351 76.5504 7.0215 76.4784 7.5655 76.7611C7.83217 76.8998 8.08284 76.8784 8.31751 76.6971C9.65351 75.6891 10.9175 74.9531 11.7975 73.4891C13.5255 70.6331 14.3175 67.1211 17.6775 65.7691C18.7602 65.3371 20.2058 65.7097 22.0138 66.8884Z" fill="#9CC49A"/>
<path d="M165.758 67.0169C168.158 66.7129 170.259 67.2409 172.062 68.6009C172.662 69.0489 172.886 69.7849 173.71 70.1849C173.955 70.3022 174.077 70.2249 174.077 69.9529V69.6329C174.077 69.3822 174.197 69.2916 174.438 69.3609C176.944 70.0596 179.32 71.0756 181.565 72.4089C181.798 72.5482 182.071 72.5993 182.333 72.5529C182.765 72.4782 183.198 72.4462 183.63 72.4569C183.747 72.4622 183.747 72.4676 183.63 72.4729C182.654 72.5262 182.336 73.0622 182.677 74.0809C182.773 74.3604 182.929 74.6148 183.135 74.8253C183.342 75.0358 183.593 75.197 183.869 75.2969L194.054 78.9371C194.032 78.8784 194.009 78.8219 193.983 78.7686C197.639 82.6406 203.206 90.9447 202.15 96.7447C202.081 97.1234 201.854 97.3154 201.47 97.3207L196.046 97.3928C195.689 97.3981 195.609 97.5501 195.806 97.8487C199.198 102.937 201.87 110.489 197.686 115.977C197.605 116.083 197.504 116.171 197.388 116.236C197.272 116.3 197.145 116.34 197.014 116.353C195.182 116.537 192.998 114.865 191.438 113.857C192.014 112.236 190.806 110.196 187.814 107.737C187.753 107.687 187.703 107.625 187.668 107.554C187.632 107.484 187.611 107.407 187.606 107.329C187.602 107.251 187.614 107.173 187.641 107.1C187.669 107.027 187.711 106.96 187.766 106.905C189.628 105.049 191.174 102.937 192.406 100.569C192.481 100.422 192.507 100.255 192.479 100.092C192.451 99.9287 192.371 99.7794 192.252 99.6663C192.132 99.5532 191.98 99.4826 191.817 99.465C191.654 99.4475 191.49 99.4841 191.35 99.5692L186.07 102.713C185.938 102.793 185.789 102.843 185.635 102.858C185.482 102.873 185.327 102.854 185.182 102.801C183.449 102.172 182.086 101.065 181.094 99.4812C180.801 99.0172 180.86 98.5985 181.27 98.2252L189.046 91.2012C189.094 91.1567 189.127 91.0991 189.142 91.0355C189.157 90.972 189.152 90.9055 189.129 90.8445C189.106 90.7835 189.065 90.7309 189.012 90.6932C188.959 90.6556 188.895 90.6347 188.83 90.6332C183.67 90.5692 178.142 90.2652 173.822 87.0092C173.713 86.9255 173.58 86.8775 173.442 86.8717C173.305 86.8659 173.168 86.9026 173.052 86.9768C172.936 87.0511 172.846 87.1592 172.793 87.2867C172.74 87.4141 172.728 87.5546 172.758 87.6892C174.47 95.4332 163.502 98.1452 162.51 90.8092C162.473 90.5425 162.54 90.3052 162.71 90.0972L167.174 84.6252C167.257 84.5214 167.305 84.398 167.31 84.2732C167.39 83.0625 167.078 82.8652 166.374 83.6812C162.918 87.7052 157.334 90.3212 152.222 88.1532C151.961 88.0412 151.838 87.8385 151.854 87.5452C151.934 86.1105 152.393 84.8359 153.23 83.7212C153.417 83.4759 153.66 83.3372 153.958 83.3052C159.318 82.7532 160.774 78.8572 162.942 74.7212C163.002 74.6076 163.097 74.5166 163.214 74.4618C163.331 74.4069 163.463 74.3913 163.59 74.4172C165.246 74.7372 167.598 75.5772 168.95 74.2412C169.043 74.1481 169.115 74.0356 169.16 73.9114C169.206 73.7871 169.224 73.654 169.214 73.5212C168.996 71.0839 167.843 68.9156 165.758 67.0169Z" fill="#1C0E18"/>
<path d="M77.4936 70.5126C78.1096 69.9126 79.7256 69.7846 80.5176 70.2326C80.6563 70.3126 80.6963 70.4273 80.6376 70.5766L79.4536 73.5206C79.407 73.6347 79.3277 73.7324 79.2257 73.8014C79.1237 73.8705 79.0035 73.9078 78.8803 73.9087C78.7571 73.9095 78.6364 73.8738 78.5334 73.8062C78.4304 73.7386 78.3498 73.642 78.3016 73.5286L77.3416 71.2566C77.2901 71.1315 77.277 70.994 77.3041 70.8615C77.3312 70.7289 77.3971 70.6074 77.4936 70.5126Z" fill="#754F41"/>
<path d="M155.298 78.2297C156.285 78.3039 157.126 77.8177 157.177 77.1436C157.227 76.4695 156.468 75.8628 155.482 75.7886C154.495 75.7144 153.654 76.2007 153.603 76.8748C153.552 77.5489 154.311 78.1555 155.298 78.2297Z" fill="#490F0F"/>
<path d="M212.55 121.129C211.419 133.097 208.155 144.798 202.758 156.233C195.201 172.244 184.382 185.478 170.302 195.937C158.014 204.793 145.006 211.233 130.614 213.913C130.336 213.966 130.19 213.851 130.174 213.569L130.014 210.241C131.715 211.073 133.718 210.651 136.022 208.977C136.309 208.765 136.512 208.458 136.592 208.11C136.673 207.762 136.627 207.397 136.462 207.081C136.046 206.291 135.993 205.502 136.302 204.713C136.398 204.457 136.406 204.195 136.326 203.929C134.006 196.177 131.702 190.329 123.87 187.273C125.582 186.801 126.894 186.113 128.678 186.041C135.358 185.769 140.382 179.529 144.062 173.761C146.606 175.66 148.71 175.068 150.374 171.985C152.076 168.838 153.382 165.545 154.294 162.105C154.306 162.056 154.334 162.011 154.372 161.978C154.411 161.944 154.459 161.923 154.509 161.918C154.56 161.913 154.611 161.923 154.656 161.948C154.7 161.973 154.736 162.011 154.758 162.057L158.766 170.505C158.853 170.689 158.985 170.849 159.15 170.968C159.315 171.087 159.508 171.163 159.71 171.187C159.913 171.212 160.119 171.185 160.309 171.109C160.499 171.033 160.668 170.911 160.798 170.753C163.382 167.633 164.158 163.369 165.27 159.545C165.345 159.284 165.516 159.188 165.782 159.257C169.63 160.321 179.134 160.337 177.838 153.769C177.241 150.772 176.66 147.766 176.094 144.753C176.036 144.444 176.161 144.31 176.47 144.353C183.822 145.265 184.126 139.833 185.302 134.449C185.382 134.081 185.564 134.02 185.846 134.265C186.929 135.209 188.193 135.62 189.638 135.497C189.889 135.476 190.11 135.38 190.302 135.209C194.574 131.401 192.758 119.825 191.438 113.857C192.998 114.865 195.182 116.537 197.014 116.353C197.145 116.34 197.272 116.3 197.388 116.236C197.504 116.171 197.605 116.083 197.686 115.977C201.87 110.489 199.198 102.937 195.806 97.8487C195.609 97.5501 195.689 97.3981 196.046 97.3928L201.47 97.3207C201.854 97.3154 202.081 97.1234 202.15 96.7447C203.206 90.9447 197.639 82.6406 193.983 78.7686C198.831 76.5926 204.495 87.2886 205.391 90.4086C207.359 97.2886 207.884 104.294 206.966 111.425C206.934 111.691 207.001 111.934 207.166 112.153L209.046 114.593C209.196 114.79 209.3 115.006 209.359 115.241C209.951 117.678 211.014 119.641 212.55 121.129Z" fill="#316D5D"/>
<path d="M143.11 79.3448C144.342 79.2861 145.662 79.547 147.07 80.1284C149.411 82.987 149.273 85.3747 146.654 87.2893C139.91 92.2173 135.998 80.7128 143.11 79.3448Z" fill="#490F0F"/>
<path d="M38.5022 93.5611C41.2808 96.6918 44.5741 99.2569 48.3821 101.257C49.6221 101.905 50.5261 102.953 49.9981 104.297C49.9556 104.409 49.8805 104.506 49.7823 104.575C49.6842 104.645 49.5672 104.685 49.4461 104.689C45.4995 104.86 42.0301 103.742 39.0381 101.337C38.8195 101.161 38.6755 101.209 38.6061 101.481L36.9981 108.177C36.6541 110.161 36.9823 112.529 34.3103 113.105C32.0863 113.585 29.9849 113.396 28.0063 112.537C27.7785 112.437 27.5814 112.279 27.4351 112.078C27.2889 111.877 27.1989 111.64 27.1743 111.393L26.8783 108.281C26.8516 107.988 26.7049 107.774 26.4382 107.641C25.6542 107.241 24.9504 107.206 24.3264 107.537C23.3771 106.379 23.6997 105.377 25.2944 104.529C25.4016 104.472 25.486 104.379 25.534 104.266C25.5819 104.153 25.5905 104.025 25.5584 103.905C25.1584 102.422 25.3904 101.123 26.2544 100.009C26.4251 99.79 26.4517 99.5553 26.3344 99.3046C24.7664 95.9126 24.9797 92.8433 26.9744 90.0966C27.8064 88.9526 29.3504 88.9446 30.4224 89.9286C33.1637 92.4567 34.0331 95.59 33.0304 99.3287C33.0133 99.3974 33.0195 99.4698 33.0481 99.5347C33.0766 99.5995 33.1258 99.653 33.188 99.6869C33.2502 99.7207 33.3219 99.7329 33.3918 99.7217C33.4617 99.7104 33.526 99.6763 33.5744 99.6246C34.1717 98.9473 34.5504 98.1606 34.7104 97.2646C34.7584 96.9873 34.9211 96.8833 35.1984 96.9526L36.1104 97.1927C36.5691 97.31 36.7344 97.142 36.6064 96.6887L36.4624 96.1847C36.4037 95.9767 36.4677 95.814 36.6544 95.6966C37.4171 95.222 38.0328 94.5105 38.5022 93.5611Z" fill="#2D1920"/>
<path d="M160.342 97.6411C159.782 103.641 152.758 105.025 148.254 103.569C147.992 103.487 147.769 103.307 147.63 103.065C146.532 101.225 145.785 99.241 145.39 97.113C145.342 96.8517 145.38 96.6064 145.502 96.377C148.494 90.729 155.726 89.609 159.502 94.985C160.142 95.897 160.422 96.7824 160.342 97.6411Z" fill="#1C0E18"/>
<path d="M142.183 106.169C140.743 106.313 139.691 106.811 139.03 107.665C133.598 104.889 125.894 103.977 120.326 107.201L120.166 106.145C120.118 105.846 119.945 105.71 119.646 105.737C117.598 105.923 115.545 106.043 113.486 106.097C110.142 106.169 105.998 105.073 102.022 105.409C96.662 105.865 91.918 105.641 87.102 108.529C85.4807 107.51 83.67 106.862 81.67 106.584C78.4647 104.968 76.6671 105.075 76.2778 106.905C69.7925 107.923 65.3923 111.145 63.0776 116.569C62.9763 116.809 63.0296 116.947 63.2376 116.985C62.9016 117.278 62.6649 117.752 62.5262 118.408C62.4622 118.696 62.2942 118.894 62.0222 119C61.2435 119.31 60.6062 119.808 60.1102 120.496C59.9468 120.728 59.7339 120.922 59.4862 121.064C58.4302 121.656 57.9689 122.603 58.1022 123.904C58.1289 124.171 58.0676 124.416 57.9182 124.64C57.5076 125.275 56.8996 125.569 56.0942 125.521L56.6702 117.489C56.6916 117.217 56.7956 116.98 56.9822 116.777C60.8462 112.553 66.0942 108.473 71.4462 103.337C75.4622 99.4812 79.7742 103.985 84.6222 102.825C87.8542 102.057 91.0862 101.292 94.3182 100.529C96.6302 99.9852 96.8302 98.3771 98.0062 96.9451C98.0451 96.8991 98.0926 96.8612 98.146 96.8334C98.1993 96.8057 98.2574 96.7887 98.3169 96.7835C98.3764 96.7782 98.4362 96.7849 98.4927 96.803C98.5492 96.8212 98.6014 96.8505 98.6462 96.8892C101.406 99.2732 107.086 102.825 107.07 95.6412C107.069 95.5154 107.101 95.3915 107.161 95.2813C107.222 95.171 107.31 95.0782 107.417 95.0116C107.523 94.945 107.645 94.9069 107.771 94.9008C107.897 94.8948 108.022 94.9211 108.134 94.9772C115.086 98.4412 131.39 106.809 135.718 95.3292C135.739 95.2692 135.779 95.2173 135.831 95.181C135.883 95.1446 135.945 95.1255 136.009 95.1264C136.073 95.1273 136.134 95.1481 136.186 95.1859C136.237 95.2237 136.275 95.2766 136.294 95.3372C137.665 99.3425 139.628 102.953 142.183 106.169Z" fill="#CA6246"/>
<path d="M163.792 100.336C161.403 103.245 161.624 107.377 164.288 109.564C166.951 111.751 171.046 111.167 173.436 108.258C175.825 105.349 175.603 101.218 172.94 99.0301C170.277 96.8426 166.181 97.4275 163.792 100.336Z" fill="#1C0E18"/>
<path d="M139.03 107.665C141.246 109.145 144.662 111.641 145.054 114.385C145.113 114.785 144.969 114.878 144.622 114.665C136.662 109.801 129.326 109.121 119.734 110.441C119.275 109.849 118.99 109.238 118.878 108.609L120.326 107.201C125.894 103.977 133.598 104.889 139.03 107.665Z" fill="#1C0E18"/>
<path d="M120.326 107.201L118.878 108.609C109.142 112.505 98.3582 112.113 87.8942 110.809C88.0169 110.169 87.7527 109.409 87.102 108.529C91.918 105.641 96.662 105.865 102.022 105.409C105.998 105.073 110.142 106.169 113.486 106.097C115.545 106.043 117.598 105.923 119.646 105.737C119.945 105.71 120.118 105.846 120.166 106.145L120.326 107.201Z" fill="#EF7758"/>
<path d="M81.67 106.584L76.2778 106.905C76.6671 105.075 78.4647 104.968 81.67 106.584Z" fill="#754F41"/>
<path d="M142.183 106.169C147.207 108.889 147.638 114.377 153.15 116.433C153.274 116.479 153.383 116.557 153.466 116.658C153.549 116.76 153.603 116.881 153.622 117.009L157.094 139.161C157.435 143.348 156.334 147.785 153.79 152.473C153.636 152.372 153.334 152.326 152.886 152.337C152.598 149.745 147.334 148.441 145.238 148.057C146.366 144.537 149.462 141.233 149.382 137.465C149.286 132.915 147.705 128.982 144.638 125.665C143.054 123.953 142.126 120.793 138.742 122.737C135.713 121.414 132.643 121.18 129.534 122.033C127.891 119.121 125.825 116.774 123.334 114.993C123.126 114.843 122.961 114.657 122.838 114.433C122.161 113.259 121.153 112.462 119.814 112.041C119.542 111.955 119.438 111.771 119.502 111.489L119.734 110.441C129.326 109.121 136.662 109.801 144.622 114.665C144.969 114.878 145.113 114.785 145.054 114.385C144.662 111.641 141.246 109.145 139.03 107.665C139.691 106.811 140.743 106.313 142.183 106.169Z" fill="#FDA477"/>
<path d="M81.67 106.584C83.67 106.862 85.4807 107.51 87.102 108.529C87.7527 109.409 88.0169 110.169 87.8942 110.809L87.3981 112.521C80.6541 112.561 75.1738 110.769 68.3098 113.833L63.2376 116.985C63.0296 116.947 62.9763 116.809 63.0776 116.569C65.3923 111.145 69.7925 107.923 76.2778 106.905L81.67 106.584Z" fill="#160B14"/>
<path d="M118.878 108.609C118.99 109.238 119.275 109.849 119.734 110.441L119.502 111.489C119.438 111.771 119.542 111.955 119.814 112.041C121.153 112.462 122.161 113.259 122.838 114.433C122.961 114.657 123.126 114.843 123.334 114.993C125.825 116.774 127.891 119.121 129.534 122.033C128.502 122.177 124.062 124.497 125.83 125.657C125.36 125.785 125.166 126.276 125.246 127.129C121.379 130.42 120.833 134.35 123.606 138.921C123.099 139.268 123.022 140.007 123.374 141.137C123.454 141.393 123.627 141.551 123.894 141.609C131.073 143.167 138.257 143.148 145.446 141.553C145.718 141.495 145.841 141.327 145.814 141.049C145.702 139.967 146.051 138.911 146.862 137.881C148.63 131.529 144.478 125.089 138.742 122.737C142.126 120.793 143.054 123.953 144.638 125.665C147.705 128.982 149.286 132.915 149.382 137.465C149.462 141.233 146.366 144.537 145.238 148.057C139.35 146.782 134.214 147.47 129.83 150.121C127.654 151.433 127.267 153.193 128.67 155.401C126.467 156.147 124.646 157.371 123.206 159.073C122.988 159.334 122.878 159.294 122.878 158.953V158.609C122.878 158.363 122.766 158.294 122.542 158.401L118.526 160.353C118.478 160.374 118.452 160.361 118.446 160.313C118.425 160.19 118.398 160.107 118.366 160.065C118.345 160.038 118.318 160.033 118.286 160.049C115.118 161.649 111.422 161.489 108.886 161.929C104.222 162.737 99.7745 163.649 94.9665 163.537C91.9665 163.473 78.6625 162.217 77.0145 164.529C76.1505 165.745 76.4011 166.657 77.7665 167.265C82.2625 169.259 86.9958 170.587 91.9665 171.249C92.2865 171.291 92.4865 171.467 92.5665 171.777C92.6411 172.075 92.8091 172.203 93.0705 172.161C93.0988 172.158 93.1282 172.165 93.1538 172.18C93.1794 172.194 93.1995 172.216 93.2109 172.242C93.2222 172.267 93.2239 172.295 93.2158 172.319C93.2077 172.344 93.1903 172.364 93.1665 172.377C93.0811 172.409 92.9878 172.438 92.8865 172.465C80.7025 170.865 66.8141 165.689 59.5341 155.209C59.5927 154.318 59.3335 153.3 58.7575 152.153C58.9175 151.694 59.4082 151.692 60.2295 152.145C60.2885 152.178 60.3554 152.195 60.4232 152.194C60.491 152.192 60.557 152.172 60.6144 152.136C60.6718 152.1 60.7183 152.049 60.7492 151.989C60.78 151.928 60.7939 151.861 60.7895 151.793C60.7575 151.062 60.9415 150.409 61.3415 149.833C61.4877 149.625 61.5685 149.377 61.5735 149.121L61.6615 144.241C61.6668 144.113 61.7282 144.028 61.8455 143.985C61.9735 143.942 62.0962 143.884 62.2135 143.809C62.3221 143.736 62.4062 143.633 62.4548 143.511C62.5033 143.39 62.514 143.257 62.4855 143.129C62.3575 142.548 61.9948 142.158 61.3975 141.961C61.1682 141.886 61.1122 141.74 61.2295 141.521C61.3468 141.318 61.5762 141.185 61.9175 141.121C62.3922 142.033 62.7655 142.187 63.0375 141.584C62.8615 143.4 74.8216 143.136 76.3016 143.056C78.2136 142.96 80.0936 143.408 82.0456 143.448C82.2162 143.454 82.2962 143.371 82.2855 143.2C82.2802 143.126 82.2775 143.051 82.2775 142.976C82.2722 142.758 82.1602 142.627 81.9416 142.584C81.7922 142.552 81.7042 142.494 81.6776 142.408C88.4536 141.976 89.8378 130.401 83.5178 127.321L83.7344 126.777L84.1744 126.993C84.2706 127.036 84.3789 127.045 84.4809 127.018C84.5828 126.99 84.6721 126.928 84.7335 126.842C84.7948 126.756 84.8245 126.652 84.8174 126.546C84.8102 126.441 84.7668 126.342 84.6944 126.265C82.6358 124.158 80.2438 122.971 77.5184 122.705C75.9024 119.185 79.9103 118.793 81.9583 117.145C82.6036 116.633 83.2863 116.102 84.0063 115.553C85.7583 115.297 88.7101 115.577 87.3981 112.521L87.8942 110.809C98.3582 112.113 109.142 112.505 118.878 108.609ZM104.958 145.569L104.862 144.993C104.824 144.731 104.702 144.518 104.494 144.353C103.384 143.483 102.139 143.014 100.758 142.945C100.582 142.936 100.41 142.989 100.27 143.094C100.129 143.199 100.03 143.35 99.9895 143.521L99.5975 145.129C99.5069 145.507 99.6535 145.729 100.038 145.793L103.67 146.401C103.579 146.87 103.355 147.147 102.998 147.233C102.855 147.269 102.729 147.354 102.642 147.474C102.556 147.593 102.513 147.739 102.523 147.886C102.532 148.033 102.593 148.172 102.694 148.28C102.796 148.387 102.931 148.455 103.078 148.473C109.79 149.201 109.782 141.881 104.086 141.817C103.499 141.806 103.163 142.014 103.078 142.441C103.03 142.675 103.123 142.817 103.358 142.865L105.014 143.217C105.318 143.281 105.438 143.465 105.374 143.769L104.958 145.569ZM82.5822 152.889C82.5027 151.468 81.3863 150.163 79.4786 149.261C77.571 148.359 75.0283 147.935 72.4099 148.081C69.7916 148.228 67.312 148.933 65.5168 150.042C63.7215 151.15 62.7576 152.572 62.8371 153.993C62.9166 155.415 64.0329 156.72 65.9406 157.621C67.8483 158.523 70.3909 158.947 73.0093 158.801C75.6277 158.654 78.1072 157.949 79.9025 156.841C81.6977 155.732 82.6617 154.311 82.5822 152.889ZM95.8615 153.233C98.5575 159.033 112.461 157.833 114.597 151.609C114.715 151.273 114.637 151.22 114.365 151.449C108.707 156.158 102.661 156.641 96.2295 152.897C96.1813 152.871 96.1262 152.861 96.0719 152.867C96.0176 152.874 95.9667 152.898 95.9263 152.934C95.8859 152.971 95.8579 153.02 95.8463 153.073C95.8347 153.127 95.84 153.183 95.8615 153.233Z" fill="#FDBD8E"/>
<path d="M10.9661 109.473C12.8754 112.657 15.5579 113.91 19.0139 113.233L22.8937 114.329C23.1497 114.398 23.2804 114.563 23.2858 114.825C23.3018 115.806 23.0432 116.897 22.5098 118.097C21.0618 119.873 15.6785 123.177 16.6305 125.945C17.4785 128.417 23.7904 127.777 26.6704 127.489L26.6543 128.584C25.0063 131.608 22.6943 133.808 22.4063 137.304C22.3908 137.487 22.4271 137.671 22.5111 137.834C22.5951 137.997 22.7234 138.133 22.8812 138.227C23.0391 138.32 23.2201 138.367 23.4036 138.363C23.587 138.358 23.7654 138.302 23.9183 138.2C24.6543 137.71 25.3236 137.678 25.9263 138.105C26.3103 139.145 25.4459 143.873 27.2059 143.273C28.8913 143.625 29.7819 144.257 29.8779 145.169C30.1446 147.787 30.7126 150.387 31.5819 152.969C29.4433 153.737 27.9846 155.107 27.2059 157.081C27.1206 157.299 26.9766 157.465 26.7739 157.577L24.3499 158.985C24.1579 159.097 23.9526 159.161 23.7339 159.177C22.0166 159.31 20.3979 159.769 18.8779 160.553C18.6113 160.691 18.4006 160.889 18.2459 161.145C17.8406 161.843 17.2593 162.345 16.5019 162.649C16.3526 162.707 16.2779 162.817 16.2779 162.977V163.401C16.2779 163.689 16.1313 163.835 15.8379 163.841L15.2062 163.848C7.09956 149.667 2.39533 134.446 1.094 118.185L1.89422 118.161C2.03114 118.156 2.16192 118.103 2.26308 118.01C2.36425 117.918 2.42918 117.793 2.44622 117.657L2.50222 117.233C2.52889 117.03 2.64089 116.889 2.83822 116.809C3.38756 116.585 3.64356 116.126 3.60623 115.433C3.60121 115.305 3.62431 115.176 3.67398 115.056C3.72364 114.936 3.79873 114.827 3.89422 114.737C6.10222 112.681 7.5901 109.841 10.9661 109.473Z" fill="#76AC88"/>
<path d="M180.286 118.848C182.699 118.848 184.654 116.893 184.654 114.481C184.654 112.068 182.699 110.112 180.286 110.112C177.874 110.112 175.918 112.068 175.918 114.481C175.918 116.893 177.874 118.848 180.286 118.848Z" fill="#490F0F"/>
<path d="M87.3981 112.521C88.7101 115.577 85.7583 115.297 84.0063 115.553C80.7369 115.313 77.5445 115.083 74.4299 114.865C72.1899 114.705 70.5338 115.961 68.3098 113.833C75.1738 110.769 80.6541 112.561 87.3981 112.521Z" fill="#EF7758"/>
<path d="M68.3098 113.833C70.5338 115.961 72.1899 114.705 74.4299 114.865C77.5445 115.083 80.7369 115.313 84.0063 115.553C83.2863 116.102 82.6036 116.633 81.9583 117.145C79.9103 118.793 75.9024 119.185 77.5184 122.705C68.6544 122.505 62.1745 128.969 60.7505 137.385C60.5052 138.83 60.8945 140.075 61.9185 141.121C61.5772 141.185 61.3468 141.318 61.2295 141.521C61.1122 141.74 61.1682 141.886 61.3975 141.961C61.9948 142.158 62.3575 142.548 62.4855 143.129C62.514 143.257 62.5033 143.39 62.4548 143.511C62.4062 143.633 62.3221 143.736 62.2135 143.809C62.0962 143.884 61.9735 143.942 61.8455 143.985C61.7282 144.028 61.6668 144.113 61.6615 144.241L61.5735 149.121C61.5685 149.377 61.4877 149.625 61.3415 149.833C60.9415 150.409 60.7575 151.062 60.7895 151.793C60.7939 151.861 60.78 151.928 60.7492 151.989C60.7183 152.049 60.6718 152.1 60.6144 152.136C60.557 152.172 60.491 152.192 60.4232 152.194C60.3554 152.195 60.2885 152.178 60.2295 152.145C59.4082 151.692 58.9175 151.694 58.7575 152.153L56.2538 145.201C55.7978 143.049 55.2218 141.233 55.1818 139.049C55.1072 134.558 55.4116 130.049 56.0942 125.521C56.8996 125.569 57.5076 125.275 57.9182 124.64C58.0676 124.416 58.1289 124.171 58.1022 123.904C57.9689 122.603 58.4302 121.656 59.4862 121.064C59.7339 120.922 59.9468 120.728 60.1102 120.496C60.6062 119.808 61.2435 119.31 62.0222 119C62.2942 118.894 62.4622 118.696 62.5262 118.408C62.6649 117.752 62.9016 117.278 63.2376 116.985L68.3098 113.833Z" fill="#FDA477"/>
<path d="M167.822 122.425C167.528 122.403 167.256 122.264 167.064 122.041C166.872 121.817 166.776 121.527 166.798 121.233L166.846 120.569C166.906 119.726 167.236 118.936 167.762 118.374C168.289 117.811 168.969 117.522 169.654 117.569L169.862 117.585C170.202 117.609 170.532 117.715 170.835 117.897C171.137 118.079 171.406 118.334 171.625 118.647C171.844 118.96 172.01 119.324 172.112 119.72C172.215 120.116 172.252 120.535 172.222 120.953L172.174 121.625C172.152 121.919 172.014 122.192 171.79 122.384C171.567 122.576 171.276 122.671 170.982 122.649L167.822 122.425Z" fill="#60080C"/>
<path d="M22.5098 118.097L29.5658 121.025C29.6227 121.049 29.6733 121.085 29.7139 121.131C29.7544 121.178 29.7839 121.233 29.8001 121.293C29.8162 121.353 29.8187 121.416 29.8072 121.478C29.7957 121.54 29.7706 121.598 29.7338 121.649C28.7472 122.993 28.3365 124.513 28.5018 126.209C28.5338 126.534 28.3978 126.761 28.0938 126.889L26.6704 127.489C23.7904 127.777 17.4785 128.417 16.6305 125.945C15.6785 123.177 21.0618 119.873 22.5098 118.097Z" fill="#472D30"/>
<path d="M138.742 122.737C144.478 125.089 148.63 131.529 146.862 137.881C145.622 127.617 135.558 119.953 125.83 125.657C124.062 124.497 128.502 122.177 129.534 122.033C132.643 121.18 135.713 121.414 138.742 122.737Z" fill="#070608"/>
<path d="M77.5184 122.705C80.2438 122.971 82.6358 124.158 84.6944 126.265C84.7668 126.342 84.8102 126.441 84.8174 126.546C84.8245 126.652 84.7948 126.756 84.7335 126.842C84.6721 126.928 84.5828 126.99 84.4809 127.018C84.3789 127.045 84.2706 127.036 84.1744 126.993L83.7344 126.777C72.7904 120.721 62.7824 130.609 63.0384 141.585C62.7664 142.188 62.3932 142.033 61.9185 141.121C60.8945 140.075 60.5052 138.83 60.7505 137.385C62.1745 128.969 68.6544 122.505 77.5184 122.705Z" fill="#0E040B"/>
<path d="M34.0283 125.763C33.7853 127.429 34.882 128.968 36.4777 129.201C38.0735 129.433 39.5642 128.272 39.8072 126.606C40.0502 124.94 38.9535 123.401 37.3577 123.168C35.762 122.936 34.2713 124.097 34.0283 125.763Z" fill="#2D1920"/>
<path d="M146.862 137.881C146.051 138.911 145.702 139.967 145.814 141.049C145.841 141.327 145.718 141.495 145.446 141.553C138.257 143.148 131.073 143.167 123.894 141.609C123.627 141.551 123.454 141.393 123.374 141.137C123.022 140.007 123.099 139.268 123.606 138.921C134.254 149.193 140.342 123.201 125.246 127.129C125.166 126.276 125.36 125.785 125.83 125.657C135.558 119.953 145.622 127.617 146.862 137.881Z" fill="#F3DEC9"/>
<path d="M83.7344 126.777L83.5178 127.321C80.8831 126.345 78.9551 126.561 77.7338 127.969C73.0991 133.308 73.6591 137.948 79.4138 141.889C79.8191 142.167 80.5736 142.339 81.6776 142.408C81.7042 142.494 81.7922 142.552 81.9416 142.584C82.1602 142.627 82.2722 142.758 82.2775 142.976C82.2775 143.051 82.2802 143.126 82.2855 143.2C82.2962 143.371 82.2162 143.454 82.0456 143.448C80.0936 143.408 78.2136 142.96 76.3016 143.056C74.8216 143.136 62.8624 143.401 63.0384 141.585C62.7824 130.609 72.7904 120.721 83.7344 126.777Z" fill="#FCECDE"/>
<path d="M125.246 127.129C121.379 130.42 120.833 134.35 123.606 138.921C134.254 149.193 140.342 123.201 125.246 127.129ZM129.702 131.609C129.702 131.076 129.49 130.565 129.114 130.189C128.737 129.812 128.226 129.601 127.694 129.601C127.161 129.601 126.65 129.812 126.274 130.189C125.897 130.565 125.686 131.076 125.686 131.609C125.686 132.141 125.897 132.652 126.274 133.029C126.65 133.405 127.161 133.617 127.694 133.617C128.226 133.617 128.737 133.405 129.114 133.029C129.49 132.652 129.702 132.141 129.702 131.609Z" fill="#070608"/>
<path d="M83.5178 127.321C89.8378 130.401 88.4536 141.976 81.6776 142.408C80.5736 142.339 79.8191 142.167 79.4138 141.889C73.6591 137.948 73.0991 133.308 77.7338 127.969C78.9551 126.561 80.8831 126.345 83.5178 127.321ZM77.7336 133.665C78.4056 134.134 79.1016 134.217 79.8216 133.913C79.9347 133.865 80.0362 133.793 80.1191 133.702C80.2019 133.611 80.2642 133.502 80.3016 133.385C80.803 131.769 80.4403 130.449 79.2136 129.425C79.1142 129.344 78.9928 129.295 78.8646 129.284C78.7365 129.272 78.6075 129.299 78.4936 129.361C77.5656 129.865 75.6696 132.609 77.0376 133.289C77.2074 133.373 77.3613 133.453 77.4837 133.519C77.606 133.585 77.6923 133.635 77.7336 133.665Z" fill="#070608"/>
<path d="M153.478 154.041C153.761 153.155 153.865 152.633 153.79 152.473C156.334 147.785 157.435 143.348 157.094 139.161L157.702 138.849C157.817 138.79 157.916 138.703 157.99 138.597C158.064 138.491 158.111 138.369 158.126 138.241C158.63 134.009 161.19 128.457 165.542 127.105C171.102 125.377 174.486 131.801 174.686 136.353C174.979 142.833 172.683 148.153 167.798 152.313C162.843 156.532 158.07 157.107 153.478 154.041ZM159.95 145.697C167.518 147.681 169.846 135.041 164.734 134.241C160.83 133.625 159.374 142.177 159.198 144.641C159.18 144.879 159.246 145.116 159.384 145.309C159.521 145.502 159.722 145.639 159.95 145.697Z" fill="#EF7758"/>
<path d="M26.6543 128.584C26.6543 128.808 26.7076 129.032 26.8143 129.256C26.9529 129.55 27.1849 129.712 27.5103 129.744L36.6463 130.664C36.7336 130.674 36.8169 130.706 36.8877 130.758C36.9585 130.81 37.0143 130.879 37.0492 130.96C37.0842 131.041 37.0972 131.129 37.0868 131.216C37.0765 131.303 37.0431 131.386 36.9903 131.456C35.2623 133.75 33.3369 135.886 31.2143 137.864C28.0383 140.816 27.1983 137.377 25.9263 138.105C25.3236 137.678 24.6543 137.71 23.9183 138.2C23.7654 138.302 23.587 138.358 23.4036 138.363C23.2201 138.367 23.0391 138.32 22.8812 138.227C22.7234 138.133 22.5951 137.997 22.5111 137.834C22.4271 137.671 22.3908 137.487 22.4063 137.304C22.6943 133.808 25.0063 131.608 26.6543 128.584Z" fill="#2D1920"/>
<path d="M52.7981 133.705C51.8221 133.667 50.8882 133.209 49.9976 132.329C49.7042 132.041 49.5736 132.102 49.6056 132.513C49.7229 133.974 50.2189 135.254 51.0936 136.353C51.152 136.421 51.1844 136.508 51.1852 136.598C51.186 136.689 51.1551 136.776 51.0979 136.846C51.0407 136.915 50.9608 136.963 50.8723 136.979C50.7837 136.996 50.6922 136.981 50.6136 136.937C49.8936 136.574 49.0296 136.47 48.0216 136.625C41.4456 135.153 43.9258 145.457 46.0378 148.345C48.0058 151.033 48.2058 153.513 52.1738 154.425C53.7845 154.969 54.5366 155.948 54.4299 157.361C49.4326 157.116 45.3364 155.369 42.1418 152.121C38.2644 147.673 37.0218 142.585 38.4138 136.857C40.1018 129.921 48.8701 125.633 52.7981 133.705Z" fill="#FDBD8E"/>
<path d="M77.0376 133.289C75.6696 132.609 77.5656 129.865 78.4936 129.361C78.6075 129.299 78.7365 129.272 78.8646 129.284C78.9928 129.295 79.1142 129.344 79.2136 129.425C80.4403 130.449 80.803 131.769 80.3016 133.385C80.2642 133.502 80.2019 133.611 80.1191 133.702C80.0362 133.793 79.9347 133.865 79.8216 133.913C79.1016 134.217 78.4056 134.134 77.7336 133.665C77.6923 133.635 77.606 133.585 77.4837 133.519C77.3613 133.453 77.2074 133.373 77.0376 133.289ZM78.8351 133.221C78.9052 133.216 78.9727 133.186 79.0337 133.134C79.0946 133.083 79.1478 133.011 79.1903 132.921C79.2327 132.832 79.2636 132.728 79.2811 132.614C79.2986 132.501 79.3024 132.38 79.2923 132.26C79.2822 132.139 79.2584 132.021 79.2222 131.912C79.186 131.803 79.1381 131.706 79.0814 131.625C79.0247 131.544 78.9601 131.481 78.8914 131.44C78.8228 131.4 78.7513 131.382 78.6812 131.388C78.611 131.394 78.5435 131.423 78.4826 131.475C78.4216 131.526 78.3684 131.599 78.326 131.688C78.2835 131.777 78.2527 131.882 78.2352 131.995C78.2176 132.109 78.2138 132.229 78.224 132.349C78.2341 132.47 78.2579 132.588 78.2941 132.697C78.3303 132.806 78.3781 132.904 78.4349 132.985C78.4916 133.066 78.5561 133.128 78.6248 133.169C78.6935 133.209 78.7649 133.227 78.8351 133.221Z" fill="#EBE1DA"/>
<path d="M129.702 131.609C129.702 132.141 129.49 132.652 129.114 133.029C128.737 133.405 128.226 133.617 127.694 133.617C127.161 133.617 126.65 133.405 126.274 133.029C125.897 132.652 125.686 132.141 125.686 131.609C125.686 131.076 125.897 130.565 126.274 130.189C126.65 129.812 127.161 129.601 127.694 129.601C128.226 129.601 128.737 129.812 129.114 130.189C129.49 130.565 129.702 131.076 129.702 131.609ZM127.918 132.569C128.323 131.982 128.262 131.59 127.734 131.393C127.494 131.302 127.307 131.364 127.174 131.577C127.03 131.801 127.009 132.089 127.11 132.441C127.133 132.523 127.178 132.597 127.242 132.653C127.305 132.71 127.384 132.747 127.469 132.761C127.554 132.774 127.641 132.763 127.72 132.729C127.8 132.695 127.869 132.64 127.918 132.569Z" fill="#EBE1DA"/>
<path d="M78.224 132.349C78.2665 132.856 78.5401 133.246 78.8351 133.221C79.1301 133.197 79.3348 132.766 79.2923 132.26C79.2498 131.753 78.9762 131.363 78.6812 131.388C78.3862 131.413 78.1814 131.843 78.224 132.349Z" fill="#645A4F"/>
<path d="M127.918 132.569C127.869 132.64 127.8 132.695 127.72 132.729C127.641 132.763 127.554 132.774 127.469 132.761C127.384 132.747 127.305 132.71 127.242 132.653C127.178 132.597 127.133 132.523 127.11 132.441C127.009 132.089 127.03 131.801 127.174 131.577C127.307 131.364 127.494 131.302 127.734 131.393C128.262 131.59 128.323 131.982 127.918 132.569Z" fill="#160B14"/>
<path d="M52.7981 133.705C54.6621 137.345 54.1338 141.785 56.2538 145.201L58.7575 152.153C59.3335 153.3 59.5927 154.318 59.5341 155.209C58.1954 156.739 56.4939 157.457 54.4299 157.361C54.5366 155.948 53.7845 154.969 52.1738 154.425C50.2058 151.438 48.5847 148.39 47.31 145.281C45.366 140.529 45.3256 141.057 48.0216 136.625C49.0296 136.47 49.8936 136.574 50.6136 136.937C50.6922 136.981 50.7837 136.996 50.8723 136.979C50.9608 136.963 51.0407 136.915 51.0979 136.846C51.1551 136.776 51.186 136.689 51.1852 136.598C51.1844 136.508 51.152 136.421 51.0936 136.353C50.2189 135.254 49.7229 133.974 49.6056 132.513C49.5736 132.102 49.7042 132.041 49.9976 132.329C50.8882 133.209 51.8221 133.667 52.7981 133.705ZM48.862 145.337L52.406 146.897C52.8807 147.111 53.062 146.961 52.95 146.449C52.318 143.481 53.246 142.129 51.414 139.265C50.8114 138.311 50.094 137.881 49.262 137.977C49.0007 138.009 48.8194 138.145 48.718 138.385C47.758 140.7 47.774 142.988 48.766 145.249C48.7867 145.291 48.8211 145.322 48.862 145.337Z" fill="#EF7758"/>
<path d="M159.95 145.697C159.722 145.639 159.521 145.502 159.384 145.309C159.246 145.116 159.18 144.879 159.198 144.641C159.374 142.177 160.83 133.625 164.734 134.241C169.846 135.041 167.518 147.681 159.95 145.697Z" fill="#CA6246"/>
<path d="M179.695 135.603C179.325 136.488 179.716 137.494 180.568 137.85C181.42 138.206 182.41 137.778 182.78 136.894C183.15 136.009 182.759 135.003 181.908 134.647C181.056 134.291 180.065 134.719 179.695 135.603Z" fill="#490F0F"/>
<path d="M48.0216 136.625C45.3256 141.057 45.366 140.529 47.31 145.281C48.5847 148.39 50.2058 151.438 52.1738 154.425C48.2058 153.513 48.0058 151.033 46.0378 148.345C43.9258 145.457 41.4456 135.153 48.0216 136.625Z" fill="#FDA477"/>
<path d="M48.862 145.337C48.8211 145.322 48.7867 145.291 48.766 145.249C47.774 142.988 47.758 140.7 48.718 138.385C48.8194 138.145 49.0007 138.009 49.262 137.977C50.094 137.881 50.8114 138.311 51.414 139.265C53.246 142.129 52.318 143.481 52.95 146.449C53.062 146.961 52.8807 147.111 52.406 146.897L48.862 145.337Z" fill="#CA6246"/>
<path d="M40.7098 153.169C39.9472 154.347 38.9126 154.955 37.6059 154.993C37.3467 154.998 37.0933 154.916 36.8859 154.761C32.5393 151.475 30.8937 147.081 31.9497 141.577L32.8297 142.577C33.043 142.817 33.2297 142.798 33.3897 142.521L34.7097 140.257C34.7869 140.123 34.9054 140.018 35.0474 139.958C35.1894 139.897 35.3472 139.885 35.497 139.922C35.6468 139.959 35.7805 140.043 35.8781 140.163C35.9756 140.282 36.0316 140.431 36.0377 140.585C36.1924 144.643 37.515 148.259 40.0057 151.433C40.1657 151.635 40.2484 151.867 40.2537 152.129C40.2644 152.635 40.4165 152.982 40.7098 153.169Z" fill="#2D1920"/>
<path d="M31.9497 141.577C30.8937 147.081 32.5393 151.475 36.8859 154.761C37.0933 154.916 37.3467 154.998 37.6059 154.993C38.9126 154.955 39.9472 154.347 40.7098 153.169C41.0085 152.955 41.3875 152.9 41.8461 153.001L45.1338 156.057C45.3418 156.249 45.4271 156.483 45.3898 156.761C44.9151 160.238 45.6538 163.579 47.6058 166.785C47.3925 168.523 48.8032 170.696 51.8379 173.304C50.2699 173.056 48.9265 172.817 47.6305 171.817C40.6705 166.449 34.4619 161.705 31.5819 152.969C30.7126 150.387 30.1446 147.787 29.8779 145.169C29.7819 144.257 28.8913 143.625 27.2059 143.273C27.4459 141.838 29.027 141.273 31.9497 141.577Z" fill="#4B855D"/>
<path d="M103.67 146.401C104.171 146.31 104.6 146.033 104.958 145.569L105.374 143.769C105.438 143.465 105.318 143.281 105.014 143.217L103.358 142.865C103.123 142.817 103.03 142.675 103.078 142.441C103.163 142.014 103.499 141.806 104.086 141.817C109.782 141.881 109.79 149.201 103.078 148.473C102.931 148.455 102.796 148.387 102.694 148.28C102.593 148.172 102.532 148.033 102.523 147.886C102.513 147.739 102.556 147.593 102.642 147.474C102.729 147.354 102.855 147.269 102.998 147.233C103.355 147.147 103.579 146.87 103.67 146.401Z" fill="#EF7758"/>
<path d="M104.958 145.569C104.6 146.033 104.171 146.31 103.67 146.401L100.038 145.793C99.6535 145.729 99.5069 145.507 99.5975 145.129L99.9895 143.521C100.03 143.35 100.129 143.199 100.27 143.094C100.41 142.989 100.582 142.936 100.758 142.945C102.139 143.014 103.384 143.483 104.494 144.353C104.702 144.518 104.824 144.731 104.862 144.993L104.958 145.569Z" fill="#FDDCAC"/>
<path d="M145.238 148.057C147.334 148.441 152.598 149.745 152.886 152.337C148.734 161.553 135.166 159.769 128.67 155.401C127.267 153.193 127.654 151.433 129.83 150.121C134.214 147.47 139.35 146.782 145.238 148.057Z" fill="#EF7758"/>
<path d="M73.0093 158.801C78.4618 158.496 82.7477 155.849 82.5822 152.889C82.4167 149.929 77.8624 147.777 72.4099 148.081C66.9575 148.386 62.6716 151.033 62.8371 153.993C63.0025 156.953 67.5568 159.106 73.0093 158.801Z" fill="#EF7758"/>
<path d="M114.597 151.609C112.461 157.833 98.5575 159.033 95.8615 153.233C95.84 153.183 95.8347 153.127 95.8463 153.073C95.8579 153.02 95.8859 152.971 95.9263 152.934C95.9667 152.898 96.0176 152.874 96.0719 152.867C96.1262 152.861 96.1813 152.871 96.2295 152.897C102.661 156.641 108.707 156.158 114.365 151.449C114.637 151.22 114.715 151.273 114.597 151.609Z" fill="#2D1920"/>
<path d="M42.1418 152.121C45.3364 155.369 49.4326 157.116 54.4299 157.361C56.4939 157.457 58.1954 156.739 59.5341 155.209C66.8141 165.689 80.7025 170.865 92.8865 172.465L102.71 173.769C102.582 180.241 101.446 186.217 103.846 192.585C102.193 190.307 101.376 187.42 101.398 183.921L101.126 180.089C101.093 179.643 100.89 179.228 100.559 178.929C100.227 178.631 99.7943 178.473 99.3499 178.489C94.3153 178.643 89.2966 178.249 84.2939 177.305C77.8379 176.089 72.3899 175.977 66.0459 172.425C65.6566 172.206 65.4913 172.318 65.5499 172.761C65.7739 174.393 65.6859 176.019 65.2859 177.641C65.2585 177.757 65.2036 177.866 65.1257 177.958C65.0479 178.049 64.9493 178.122 64.8379 178.169C62.8699 179.009 61.7979 177.705 60.9659 175.969C59.1473 172.182 57.2699 168.417 55.3339 164.673C55.1366 164.289 54.8593 164.219 54.5019 164.465C52.8219 165.633 49.4138 169.017 47.6058 166.785C45.6538 163.579 44.9151 160.238 45.3898 156.761C45.4271 156.483 45.3418 156.249 45.1338 156.057L41.8461 153.001C41.8195 152.425 41.9178 152.131 42.1418 152.121Z" fill="#160B14"/>
<path d="M152.886 152.337C153.334 152.326 153.636 152.372 153.79 152.473C153.865 152.633 153.761 153.155 153.478 154.041C144.006 166.537 128.886 171.369 113.574 173.297L102.71 173.769L92.8865 172.465C92.9878 172.438 93.0811 172.409 93.1665 172.377C93.1903 172.364 93.2077 172.344 93.2158 172.319C93.2239 172.295 93.2222 172.267 93.2109 172.242C93.1995 172.216 93.1794 172.194 93.1538 172.18C93.1282 172.165 93.0988 172.158 93.0705 172.161C92.8091 172.203 92.6411 172.075 92.5665 171.777C92.4865 171.467 92.2865 171.291 91.9665 171.249C86.9958 170.587 82.2625 169.259 77.7665 167.265C76.4011 166.657 76.1505 165.745 77.0145 164.529C78.6625 162.217 91.9665 163.473 94.9665 163.537C99.7745 163.649 104.222 162.737 108.886 161.929C111.422 161.489 115.118 161.649 118.286 160.049C118.318 160.033 118.345 160.038 118.366 160.065C118.398 160.107 118.425 160.19 118.446 160.313C118.452 160.361 118.478 160.374 118.526 160.353L122.542 158.401C122.766 158.294 122.878 158.363 122.878 158.609V158.953C122.878 159.294 122.988 159.334 123.206 159.073C124.646 157.371 126.467 156.147 128.67 155.401C135.166 159.769 148.734 161.553 152.886 152.337Z" fill="#FDAD7B"/>
<path d="M31.5819 152.969C34.4619 161.705 40.6705 166.449 47.6305 171.817C48.9265 172.817 50.2699 173.056 51.8379 173.304C59.7792 183.966 67.862 194.585 76.086 205.161C77.534 207.025 76.934 209.161 77.094 211.089C77.1206 211.382 77.27 211.587 77.542 211.705L78.318 212.017C78.0726 211.782 78.0353 212.104 78.2059 212.984C50.8139 204.654 29.8142 188.275 15.2062 163.848L15.8379 163.841C16.1313 163.835 16.2779 163.689 16.2779 163.401V162.977C16.2779 162.817 16.3526 162.707 16.5019 162.649C17.2593 162.345 17.8406 161.843 18.2459 161.145C18.4006 160.889 18.6113 160.691 18.8779 160.553C20.3979 159.769 22.0166 159.31 23.7339 159.177C23.9526 159.161 24.1579 159.097 24.3499 158.985L26.7739 157.577C26.9766 157.465 27.1206 157.299 27.2059 157.081C27.9846 155.107 29.4433 153.737 31.5819 152.969Z" fill="#5F9475"/>
<path d="M101.398 183.921C100.059 184.662 98.683 185.148 97.2696 185.377C90.3416 186.505 83.3976 189.433 82.0856 197.249L78.8458 206.776C78.2378 208.211 78.062 209.958 78.318 212.017L77.542 211.705C77.27 211.587 77.1206 211.382 77.094 211.089C76.934 209.161 77.534 207.025 76.086 205.161C67.862 194.585 59.7792 183.966 51.8379 173.304C48.8032 170.696 47.3925 168.523 47.6058 166.785C49.4138 169.017 52.8219 165.633 54.5019 164.465C54.8593 164.219 55.1366 164.289 55.3339 164.673C57.2699 168.417 59.1473 172.182 60.9659 175.969C61.7979 177.705 62.8699 179.009 64.8379 178.169C64.9493 178.122 65.0479 178.049 65.1257 177.958C65.2036 177.866 65.2585 177.757 65.2859 177.641C65.6859 176.019 65.7739 174.393 65.5499 172.761C65.4913 172.318 65.6566 172.206 66.0459 172.425C72.3899 175.977 77.8379 176.089 84.2939 177.305C89.2966 178.249 94.3153 178.643 99.3499 178.489C99.7943 178.473 100.227 178.631 100.559 178.929C100.89 179.228 101.093 179.643 101.126 180.089L101.398 183.921Z" fill="#316D5D"/>
<path d="M144.062 173.761C140.382 179.529 135.358 185.769 128.678 186.041C126.894 186.113 125.582 186.801 123.87 187.273L118.71 185.384C117.675 184.611 116.305 184.225 114.598 184.225L114.614 179.881C114.619 179.577 114.766 179.374 115.054 179.273C117.123 178.548 118.827 177.329 120.166 175.617C120.234 175.532 120.318 175.461 120.413 175.409C120.508 175.357 120.613 175.324 120.721 175.313C120.829 175.302 120.938 175.313 121.042 175.344C121.146 175.376 121.243 175.428 121.326 175.497C128.942 181.793 133.494 176.961 138.918 171.321C139.729 170.473 140.561 170.452 141.414 171.257L144.062 173.761Z" fill="#30554F"/>
<path d="M113.574 173.297C113.926 181.185 115.79 190.609 110.366 197.193C109.23 197.438 108.177 197.414 107.206 197.121L103.846 192.585C101.446 186.217 102.582 180.241 102.71 173.769L113.574 173.297Z" fill="#EF7758"/>
<path d="M101.398 183.921C101.376 187.42 102.193 190.307 103.846 192.585L107.206 197.12C105.326 199.744 106.446 202.104 106.398 204.448C106.344 206.886 106.262 209.305 106.15 211.705L106.054 208.977L105.95 204.233C102.088 199.059 99.2536 193.204 97.4456 186.665C97.4136 186.542 97.4296 186.425 97.4936 186.313L97.6056 186.129C97.6295 186.087 97.6416 186.038 97.6406 185.99C97.6395 185.941 97.6254 185.894 97.5997 185.853C97.574 185.812 97.5378 185.78 97.495 185.76C97.4523 185.739 97.4047 185.731 97.3576 185.737C95.4162 185.95 93.5709 186.558 91.8216 187.561C87.3202 189.033 84.075 192.262 82.0856 197.249C83.3976 189.433 90.3416 186.505 97.2696 185.377C98.683 185.148 100.059 184.662 101.398 183.921Z" fill="#60080C"/>
<path d="M114.598 184.225C116.305 184.225 117.675 184.611 118.71 185.384C117.915 185.038 117.281 184.923 116.806 185.041C116.518 185.11 116.361 185.291 116.334 185.585C116.217 187.062 116.123 188.534 116.054 190.001C115.926 192.505 116.406 196.601 115.414 199.329C114.87 200.827 115.043 201.99 115.934 202.817C116.323 203.179 116.294 203.273 115.846 203.097C114.315 202.494 112.979 202.393 111.838 202.793L111.83 196.289C113.889 192.662 114.811 188.641 114.598 184.225Z" fill="#891814"/>
<path d="M118.71 185.384L123.87 187.273C131.702 190.329 134.006 196.177 136.326 203.929C136.406 204.195 136.398 204.457 136.302 204.713C135.993 205.502 136.046 206.291 136.462 207.081C136.627 207.397 136.673 207.762 136.592 208.11C136.512 208.458 136.309 208.765 136.022 208.977C133.718 210.651 131.715 211.073 130.014 210.241C129.96 207.062 129.723 204.163 129.302 201.545C129.298 201.502 129.277 201.463 129.244 201.436C129.211 201.409 129.168 201.397 129.126 201.401C129.083 201.405 129.044 201.426 129.017 201.459C128.99 201.492 128.978 201.534 128.982 201.577C129.222 205.726 129.134 209.889 128.718 214.065C128.691 214.358 128.534 214.531 128.246 214.585C123.104 215.55 117.92 215.958 112.694 215.809C112.416 215.798 112.256 215.654 112.214 215.377C111.6 211.307 111.475 207.113 111.838 202.793C112.979 202.393 114.315 202.494 115.846 203.097C116.294 203.273 116.323 203.179 115.934 202.817C115.043 201.99 114.87 200.827 115.414 199.329C116.406 196.601 115.926 192.505 116.054 190.001C116.123 188.534 116.217 187.062 116.334 185.585C116.361 185.291 116.518 185.11 116.806 185.041C117.281 184.923 117.915 185.038 118.71 185.384Z" fill="#CF3722"/>
<path d="M105.95 204.233L105.862 206.345C105.86 206.369 105.848 206.392 105.83 206.411C105.812 206.429 105.789 206.44 105.766 206.442C105.742 206.445 105.721 206.437 105.706 206.422C105.691 206.407 105.684 206.385 105.686 206.361C105.686 206.009 105.646 205.676 105.566 205.361C105.507 205.127 105.478 205.129 105.478 205.369V206.353C105.478 206.951 105.304 207.007 104.958 206.521C103.598 204.625 101.502 203.313 100.302 201.585C97.4431 197.479 94.7471 193.244 92.2138 188.881C91.4458 188.833 91.4136 188.177 91.8216 187.561C93.5709 186.558 95.4162 185.95 97.3576 185.737C97.4047 185.731 97.4523 185.739 97.495 185.76C97.5378 185.78 97.574 185.812 97.5997 185.853C97.6254 185.894 97.6395 185.941 97.6406 185.99C97.6416 186.038 97.6295 186.087 97.6056 186.129L97.4936 186.313C97.4296 186.425 97.4136 186.542 97.4456 186.665C99.2536 193.204 102.088 199.059 105.95 204.233Z" fill="#CF3722"/>
<path d="M91.8216 187.561C91.4136 188.177 91.4458 188.833 92.2138 188.881C91.9951 191.553 90.8485 193.657 88.7738 195.193C88.5551 195.353 88.3872 195.561 88.2698 195.817L86.8778 198.881C85.1018 203.385 85.1899 206.273 85.2059 210.489C85.2079 210.679 85.1552 210.866 85.0542 211.027C84.9533 211.188 84.8082 211.316 84.6364 211.397C84.4645 211.478 84.273 211.508 84.0847 211.483C83.8963 211.458 83.719 211.38 83.5739 211.257L79.9739 208.249C79.0406 208.153 78.6644 207.662 78.8458 206.776L82.0856 197.249C84.075 192.262 87.3202 189.033 91.8216 187.561Z" fill="#ED6735"/>
<path d="M92.2138 188.881C94.7471 193.244 97.4431 197.479 100.302 201.585C101.502 203.313 103.598 204.625 104.958 206.521C105.304 207.007 105.478 206.951 105.478 206.353V205.369C105.478 205.129 105.507 205.127 105.566 205.361C105.646 205.676 105.686 206.009 105.686 206.361C105.684 206.385 105.691 206.407 105.706 206.422C105.721 206.437 105.742 206.445 105.766 206.442C105.789 206.44 105.812 206.429 105.83 206.411C105.848 206.392 105.86 206.369 105.862 206.345L105.95 204.233L106.054 208.977C105.814 208.777 105.47 208.6 105.278 208.952C105.225 209.043 105.147 209.07 105.046 209.032C101.446 207.68 92.75 203.504 89.438 205.528C88.782 203.792 88.7898 199.657 86.8778 198.881L88.2698 195.817C88.3872 195.561 88.5551 195.353 88.7738 195.193C90.8485 193.657 91.9951 191.553 92.2138 188.881Z" fill="#E05E28"/>
<path d="M86.8778 198.881C88.7898 199.657 88.782 203.792 89.438 205.528L88.3818 215.033L83.8459 213.976L79.4782 208.944C79.2702 208.704 79.3102 208.526 79.5982 208.408L79.9739 208.249L83.5739 211.257C83.719 211.38 83.8963 211.458 84.0847 211.483C84.273 211.508 84.4645 211.478 84.6364 211.397C84.8082 211.316 84.9533 211.188 85.0542 211.027C85.1552 210.866 85.2079 210.679 85.2059 210.489C85.1899 206.273 85.1018 203.385 86.8778 198.881Z" fill="#891814"/>
<path d="M106.054 208.977L106.15 211.705C105.825 212.499 105.753 213.529 105.935 214.793C105.954 214.92 105.944 215.05 105.907 215.174C105.87 215.297 105.805 215.411 105.719 215.506C105.632 215.602 105.526 215.677 105.407 215.727C105.288 215.776 105.159 215.799 105.031 215.793L88.3818 215.033L89.438 205.528C92.75 203.504 101.446 207.68 105.046 209.032C105.147 209.07 105.225 209.043 105.278 208.952C105.47 208.6 105.814 208.777 106.054 208.977Z" fill="#F77A2D"/>
<path d="M78.8458 206.776C78.6644 207.662 79.0406 208.153 79.9739 208.249L79.5982 208.408C79.3102 208.526 79.2702 208.704 79.4782 208.944L83.8459 213.976L78.2059 212.984C78.0353 212.104 78.0726 211.782 78.318 212.017C78.062 209.958 78.2378 208.211 78.8458 206.776Z" fill="#754F41"/>
</svg>
