<svg width="214" height="205" viewBox="0 0 214 205" fill="none" xmlns="http://www.w3.org/2000/svg">
<path d="M190.896 49.2778C190.8 49.2618 190.688 49.2801 190.56 49.3334C190.331 49.4241 190.275 49.5788 190.392 49.7974C192.528 53.7814 202.8 76.3734 199.992 78.3814C194.264 75.5868 188.128 74.6085 181.584 75.4458C181.056 74.8272 180.659 73.9819 180.392 72.9099C179.336 68.6219 181.328 69.1419 184.04 67.1979C184.453 66.899 184.738 66.455 184.839 65.9541C184.94 65.4532 184.849 64.932 184.584 64.4939C182.461 61.0326 179.757 57.8752 176.472 55.0219C171.139 40.3286 161.851 28.7364 148.608 20.2457C134.005 11.4457 118.061 7.8244 100.776 9.38173C92.2905 10.0537 84.1708 12.1203 76.4161 15.5817C61.4241 21.987 50.2132 32.563 42.7839 47.3097C41.7439 49.3737 41.0692 51.0403 40.7599 52.3097C37.3199 56.2617 33.8613 60.1947 30.384 64.1094C29.4613 65.1494 29.3227 66.1974 29.968 67.2534C30.5067 68.0854 31.1143 68.4433 31.7917 68.3259L34.6479 70.7338C34.5572 70.7285 34.4665 70.7229 34.3759 70.7176C34.3172 73.4163 33.5732 75.0376 32.1438 75.5816C27.9625 75.1869 23.4371 75.7578 18.5678 77.2938C21.7625 64.6004 26.309 53.8163 32.2077 44.9417C52.3677 14.6217 89.7757 -6.33833 126.672 2.39766C154.168 8.90166 175.88 25.5898 190.896 49.2778Z" fill="#EBECE6"/>
<path d="M148.608 20.2457C148.597 21.4991 149.304 22.3017 150.728 22.6537C151.16 22.7604 151.219 22.9711 150.904 23.2857L150.488 23.7017C150.301 23.8884 150.296 24.0831 150.472 24.2857C151.352 25.2937 151.992 26.4617 153.056 27.2777C155.04 28.7897 157.648 30.5657 158.944 32.7177C159.832 34.1897 161.56 35.8697 162.208 36.7097C166.485 42.2511 169.4 48.4884 170.952 55.4217C170.973 55.5106 170.96 55.6042 170.916 55.6852C170.872 55.7661 170.799 55.8289 170.712 55.8617C170.232 56.0537 169.896 55.8697 169.712 55.3897C166.848 47.7977 162.848 39.6617 157.256 33.7097C156.048 32.4297 152.232 27.5577 150.464 27.7257C150.28 27.7421 150.105 27.8139 149.963 27.9318C149.82 28.0497 149.717 28.2081 149.667 28.3859C149.617 28.5637 149.622 28.7526 149.681 28.9276C149.741 29.1026 149.852 29.2554 150 29.3657C157.544 35.0937 162.712 43.3256 166.608 52.0696C164.976 51.8776 163.48 50.7043 162.12 48.5497C157.672 41.4777 149.176 29.1577 140.848 26.7657C140.79 26.7481 140.728 26.7453 140.668 26.7574C140.609 26.7695 140.553 26.7961 140.506 26.8349C140.46 26.8737 140.423 26.9235 140.401 26.9799C140.378 27.0362 140.369 27.0973 140.376 27.1577C140.397 27.307 140.45 27.4217 140.536 27.5017C140.802 27.7523 140.8 28.0003 140.528 28.2457L136.728 31.6617C136.72 31.6638 136.717 31.6665 136.72 31.6697C136.723 31.6729 136.732 31.6763 136.745 31.6796C136.758 31.6829 136.776 31.686 136.795 31.6885C136.815 31.691 136.836 31.6928 136.856 31.6937C136.888 31.6937 136.922 31.699 136.96 31.7097C137.104 31.7363 137.117 31.8057 137 31.9177C136.098 32.771 135.12 33.5283 134.064 34.1897C133.861 34.3123 133.685 34.4643 133.536 34.6457L131.088 37.6457C130.912 37.8643 130.776 38.1043 130.68 38.3657C130 40.2057 129.48 40.4217 127.536 41.3897C125.896 42.2057 126.08 46.3497 128.736 45.4857C128.864 45.4426 129.002 45.437 129.132 45.4697C129.263 45.5023 129.38 45.5717 129.472 45.6697L130.608 46.8697C130.752 47.019 130.92 47.1257 131.112 47.1897L151.592 53.5737C151.708 53.6032 151.809 53.6752 151.875 53.7754C151.94 53.8756 151.966 53.9968 151.947 54.1151C151.928 54.2335 151.866 54.3405 151.772 54.4149C151.678 54.4894 151.559 54.5261 151.44 54.5177C150.72 54.5017 144.016 54.4457 143.784 54.9897C143.665 55.2672 143.614 55.5685 143.634 55.8718C143.654 56.1751 143.744 56.4729 143.899 56.7438C144.054 57.0146 144.268 57.2518 144.528 57.4382C144.787 57.6245 145.085 57.7555 145.4 57.8217L154.64 59.7417C154.738 59.7614 154.825 59.8172 154.884 59.8979C154.943 59.9787 154.969 60.0786 154.958 60.1779C154.947 60.2773 154.899 60.3689 154.824 60.4348C154.749 60.5006 154.652 60.5359 154.552 60.5337C153.688 60.5177 147.48 60.3497 147.208 59.8377C147.106 59.6563 146.952 59.5497 146.744 59.5177C142.568 58.9337 138.144 57.4137 133.936 57.5817C130.64 57.715 127.384 57.3203 124.168 56.3977C123.832 56.3017 123.704 56.4217 123.784 56.7577C124.048 57.8457 124.496 58.5497 125.6 59.0537C132.928 62.3817 140.704 63.3817 147.952 65.4057C148.16 65.4643 148.229 65.5977 148.16 65.8057C148.138 65.8803 148.083 65.9549 147.992 66.0296C144.851 66.3069 141.973 66.187 139.36 65.6696C130.213 63.2056 123.24 60.9416 118.44 58.8776C113.261 56.6483 108.741 56.9443 104.88 59.7656C101.658 58.7416 97.1599 56.867 91.3839 54.1417C89.7466 53.3683 88.6319 53.3738 88.0399 54.1578L82.3997 49.4617C81.1357 47.6057 79.5038 46.083 77.5038 44.8936C77.2425 44.739 77.0878 44.811 77.0398 45.1096C75.5678 53.915 71.1011 60.9363 63.6398 66.1736C57.6718 70.355 51.8905 73.891 46.2958 76.7816C45.8531 74.8563 45.1144 73.2989 44.0797 72.1096C43.8984 71.9069 43.7037 71.8936 43.4957 72.0696C40.7917 74.4296 30.6157 83.6776 34.3837 87.3816C35.189 88.1709 35.965 88.3256 36.7117 87.8456C39.8957 88.7336 42.4959 88.3417 45.3279 88.8697C45.5305 88.9045 45.7135 89.0118 45.843 89.1714C45.9724 89.3311 46.0395 89.5324 46.0317 89.7378C46.0238 89.9432 45.9417 90.1387 45.8004 90.2881C45.6592 90.4374 45.4686 90.5304 45.2639 90.5497C41.2639 90.9817 37.2639 91.6777 33.4079 91.8297C26.6452 92.1017 19.8826 92.1924 13.1199 92.1017C11.8559 92.0777 10.6639 92.4057 9.4559 92.6937C9.37189 92.7155 9.29802 92.7657 9.24679 92.8358C9.19557 92.9058 9.17016 92.9914 9.17487 93.0781C9.17958 93.1647 9.21411 93.2471 9.27262 93.3112C9.33114 93.3753 9.41004 93.4172 9.49591 93.4297C15.3439 94.2217 21.3679 96.3897 27.0319 98.0457C28.6692 98.5257 32.0106 98.9124 37.0559 99.2057C34.6986 101.654 33.325 104.448 32.9356 107.59C30.4876 109.798 35.3438 114.822 29.5278 115.366C29.2405 115.393 28.9526 115.323 28.7103 115.168C28.468 115.013 28.2854 114.781 28.1918 114.51C26.2958 109.118 15.5118 105.646 10.6158 103.446C5.29579 101.054 3.2958 98.9898 1.6958 93.1978C2.2238 91.1124 3.06912 89.2991 4.23178 87.7578C8.01845 82.7444 12.7971 79.2564 18.5678 77.2938C23.4371 75.7578 27.9625 75.1869 32.1438 75.5816L34.6558 79.7177C34.7945 79.9417 34.9465 79.955 35.1118 79.7577L42.7039 70.8297C48.9279 68.9817 53.328 65.4777 58.392 61.8777C68.0773 54.9817 74.1253 45.6697 76.536 33.9417C76.5509 33.8756 76.5848 33.8155 76.6337 33.7687C76.6826 33.7219 76.7442 33.6906 76.8108 33.6786C76.8774 33.6666 76.9461 33.6746 77.0082 33.7015C77.0703 33.7283 77.1231 33.7729 77.16 33.8297C79.7627 37.8403 82.7547 41.539 86.136 44.9257C86.2355 45.025 86.3536 45.1037 86.4837 45.1572C86.6137 45.2106 86.7531 45.2377 86.8937 45.237C87.0343 45.2362 87.1733 45.2076 87.3028 45.1528C87.4323 45.098 87.5496 45.0181 87.648 44.9177C89.336 43.2057 94.72 38.9337 94.944 36.7097C94.976 36.4163 95.1173 36.187 95.368 36.0217L101.2 32.2057C101.416 32.0666 101.575 31.8566 101.648 31.6137C102.128 29.9657 104.784 28.3577 105.888 26.6297C106.043 26.3897 106.256 26.2297 106.528 26.1497C108.208 25.6377 113.856 19.7897 114.848 18.1417C115.947 16.323 117.099 14.5977 118.304 12.9657C118.405 12.8285 118.472 12.6695 118.499 12.5016C118.527 12.3337 118.515 12.1616 118.463 11.9994C118.412 11.8372 118.323 11.6894 118.203 11.5682C118.084 11.4469 117.937 11.3556 117.776 11.3017C112.448 9.53367 107.144 9.82167 101.632 10.3497C101.381 10.3763 101.2 10.2723 101.088 10.0377L100.776 9.38173C118.061 7.8244 134.005 11.4457 148.608 20.2457ZM22.424 83.8697L22.744 84.9257C22.7587 84.9686 22.7893 85.0042 22.8295 85.025C22.8698 85.0459 22.9165 85.0504 22.96 85.0377L23.528 84.8697C24.6608 84.5277 25.7775 84.1723 26.8144 83.8235C27.8513 83.4748 28.788 83.1397 29.5711 82.8373C30.3541 82.535 30.9681 82.2713 31.378 82.0613C31.7879 81.8514 31.9857 81.6993 31.96 81.6137L31.928 81.5257C31.8739 81.3538 30.9151 81.4628 29.2621 81.8288C27.6091 82.1948 25.3972 82.7879 23.112 83.4777L22.544 83.6457C22.5211 83.6521 22.4998 83.6631 22.4813 83.6779C22.4627 83.6928 22.4474 83.7112 22.4362 83.7321C22.425 83.753 22.4181 83.776 22.416 83.7997C22.4139 83.8233 22.4166 83.8471 22.424 83.8697Z" fill="#9F4633"/>
<path d="M100.776 9.38173L101.088 10.0377C101.2 10.2723 101.381 10.3763 101.632 10.3497C107.144 9.82167 112.448 9.53367 117.776 11.3017C117.937 11.3556 118.084 11.4469 118.203 11.5682C118.323 11.6894 118.412 11.8372 118.463 11.9994C118.515 12.1616 118.527 12.3337 118.499 12.5016C118.472 12.6695 118.405 12.8285 118.304 12.9657C117.099 14.5977 115.947 16.323 114.848 18.1417C113.856 19.7897 108.208 25.6377 106.528 26.1497C106.256 26.2297 106.043 26.3897 105.888 26.6297C104.784 28.3577 102.128 29.9657 101.648 31.6137C101.575 31.8566 101.416 32.0666 101.2 32.2057L95.368 36.0217C95.1173 36.187 94.976 36.4163 94.944 36.7097C94.72 38.9337 89.336 43.2057 87.648 44.9177C87.5496 45.0181 87.4323 45.098 87.3028 45.1528C87.1733 45.2076 87.0343 45.2362 86.8937 45.237C86.7531 45.2377 86.6137 45.2106 86.4837 45.1572C86.3536 45.1037 86.2355 45.025 86.136 44.9257C82.7547 41.539 79.7627 37.8403 77.16 33.8297C77.1231 33.7729 77.0703 33.7283 77.0082 33.7015C76.9461 33.6746 76.8774 33.6666 76.8108 33.6786C76.7442 33.6906 76.6826 33.7219 76.6337 33.7687C76.5848 33.8155 76.5509 33.8756 76.536 33.9417C74.1253 45.6697 68.0773 54.9817 58.392 61.8777C53.328 65.4777 48.9279 68.9817 42.7039 70.8297C42.4212 70.2963 42.6346 69.7657 43.3439 69.2377C43.4604 69.1502 43.5489 69.0302 43.5986 68.8925C43.6483 68.7547 43.6571 68.605 43.6239 68.4617L42.7359 64.7977C42.7107 64.6977 42.6591 64.6064 42.5866 64.5332C42.5141 64.4599 42.4232 64.4075 42.3235 64.3814C42.2238 64.3552 42.1189 64.3563 42.0198 64.3845C41.9207 64.4127 41.8309 64.467 41.7599 64.5417L35.0399 71.6537C35.0024 71.6939 34.953 71.7211 34.8989 71.731C34.8449 71.741 34.789 71.7333 34.7397 71.7091C34.6903 71.6849 34.6501 71.6454 34.6249 71.5965C34.5997 71.5476 34.5909 71.4919 34.5999 71.4377C34.6319 71.267 34.5572 71.0269 34.3759 70.7176C34.4665 70.7229 34.5572 70.7285 34.6479 70.7338L41.6 63.8855C42.112 63.3948 42.3011 62.9203 42.1677 62.4617C42.0984 62.227 42.1357 62.011 42.2797 61.8137C44.0637 59.4217 47.2717 61.1977 49.4317 58.4137C49.6024 58.2003 49.8131 58.0377 50.0637 57.9257C54.6237 55.8937 59.6237 50.6697 62.9517 47.5817C66.8477 43.9737 69.8157 38.7817 73.3597 35.0857C77.317 30.9523 80.1304 26.523 81.7997 21.7977C81.8797 21.5683 82.029 21.4003 82.2477 21.2937C85.2237 19.8483 88.3144 18.7683 91.5197 18.0537C91.6343 18.027 91.7427 17.9689 91.8304 17.8871C91.9181 17.8053 91.9809 17.7037 92.0104 17.5959C92.04 17.4881 92.0349 17.3792 91.9958 17.2837C91.9567 17.1883 91.8855 17.1108 91.7917 17.0617C91.3037 16.7977 75.5677 20.9657 74.4397 21.5977C73.2877 22.2457 72.4237 22.4937 71.3037 22.8297C71.1411 22.8792 70.9669 22.8714 70.8099 22.8075C70.653 22.7435 70.5227 22.6273 70.4405 22.478C70.3584 22.3287 70.3294 22.1553 70.3584 21.9865C70.3873 21.8177 70.4725 21.6636 70.5997 21.5497C71.325 20.915 71.9917 20.2323 72.5997 19.5017C72.7689 19.2954 72.9751 19.1218 73.2077 18.9897C74.4237 18.291 75.581 17.4723 76.6797 16.5337C76.8717 16.3737 76.8824 16.203 76.7117 16.0217C76.5464 15.8457 76.4481 15.699 76.4161 15.5817C84.1708 12.1203 92.2905 10.0537 100.776 9.38173Z" fill="#AD5138"/>
<path d="M76.4161 15.5817C76.4481 15.699 76.5464 15.8457 76.7117 16.0217C76.8824 16.203 76.8717 16.3737 76.6797 16.5337C75.581 17.4723 74.4237 18.291 73.2077 18.9897C72.9751 19.1218 72.7689 19.2954 72.5997 19.5017C71.9917 20.2323 71.325 20.915 70.5997 21.5497C70.4725 21.6636 70.3873 21.8177 70.3584 21.9865C70.3294 22.1553 70.3584 22.3287 70.4405 22.478C70.5227 22.6273 70.653 22.7435 70.8099 22.8075C70.9669 22.8714 71.1411 22.8792 71.3037 22.8297C72.4237 22.4937 73.2877 22.2457 74.4397 21.5977C75.5677 20.9657 91.3037 16.7977 91.7917 17.0617C91.8855 17.1108 91.9567 17.1883 91.9958 17.2837C92.0349 17.3792 92.04 17.4881 92.0104 17.5959C91.9809 17.7037 91.9181 17.8053 91.8304 17.8871C91.7427 17.9689 91.6343 18.027 91.5197 18.0537C88.3144 18.7683 85.2237 19.8483 82.2477 21.2937C82.029 21.4003 81.8797 21.5683 81.7997 21.7977C80.1304 26.523 77.317 30.9523 73.3597 35.0857C69.8157 38.7817 66.8477 43.9737 62.9517 47.5817C59.6237 50.6697 54.6237 55.8937 50.0637 57.9257C49.8131 58.0377 49.6024 58.2003 49.4317 58.4137C47.2717 61.1977 44.0637 59.4217 42.2797 61.8137C42.1357 62.011 42.0984 62.227 42.1677 62.4617C42.3011 62.9203 42.112 63.3948 41.6 63.8855L41.152 59.6055L40.7759 56.7176L40.7599 52.3097C41.0692 51.0403 41.7439 49.3737 42.7839 47.3097C50.2132 32.563 61.4241 21.987 76.4161 15.5817ZM71.5521 23.5414C58.8561 30.6694 44.8961 41.8374 46.1601 58.0774C46.163 58.1347 46.1864 58.189 46.2259 58.2305C46.2654 58.2721 46.3185 58.2981 46.3755 58.3039C46.4325 58.3097 46.4898 58.2949 46.5369 58.2621C46.5839 58.2294 46.6177 58.1809 46.6321 58.1254C48.6881 51.3494 51.4481 45.1094 56.0161 39.6534C61.8774 32.6561 68.9574 27.1681 77.2561 23.1894C77.4142 23.1268 77.5409 23.004 77.6084 22.8479C77.6759 22.6919 77.6787 22.5155 77.6161 22.3574C77.5535 22.1993 77.4307 22.0726 77.2747 22.0051C77.1186 21.9376 76.9422 21.9348 76.7841 21.9974C74.9361 22.5814 73.2641 22.5814 71.5521 23.5414Z" fill="#B86243"/>
<path d="M148.608 20.2457C161.851 28.7364 171.139 40.3286 176.472 55.0219L177.288 62.2619C177.314 62.4954 177.418 62.7149 177.584 62.8859L180.256 65.7179C180.288 65.7517 180.312 65.7921 180.326 65.8362C180.34 65.8804 180.344 65.9272 180.338 65.9731C180.332 66.0191 180.316 66.0631 180.29 66.102C180.265 66.1409 180.231 66.1737 180.192 66.1979L179.992 66.3179C179.917 66.3606 179.845 66.3526 179.776 66.2939L176.056 62.7259C175.309 62.0112 174.997 62.1659 175.12 63.1899C175.381 65.3552 175.117 67.4326 174.328 69.4219C174.237 69.6566 174.066 69.7446 173.816 69.6859C172.37 69.3179 171.341 69.7819 170.728 71.0779C170.632 71.2859 170.61 71.4992 170.664 71.7179C171.424 74.8059 175.232 78.4377 177.192 81.0537C176.984 81.0644 176.816 81.1606 176.688 81.3419L170.576 74.1256C170.491 74.0237 170.384 73.9419 170.264 73.8857C170.144 73.8295 170.012 73.8004 169.879 73.8004C169.745 73.8004 169.613 73.8295 169.492 73.8857C169.371 73.9419 169.263 74.0237 169.176 74.1256L166.56 77.2296C166.505 77.296 166.474 77.3795 166.473 77.4665C166.471 77.5536 166.499 77.6392 166.552 77.7096L170.176 82.4456C170 82.7923 169.786 82.9681 169.536 82.9735L166.88 79.9096C166.539 79.515 166.168 79.4856 165.768 79.8216C162.493 82.6163 161.685 84.619 163.344 85.8296C162.944 86.651 162.187 87.3604 161.072 87.9577C158.368 85.2271 156.024 82.1498 154.04 78.7258C152.899 76.7632 151.856 75.4538 150.912 74.7978C147.216 72.2378 138.4 74.4378 135.576 74.6858C124.76 75.6058 117.72 71.4858 110.04 64.5818C109.272 63.8938 108.632 63.7418 107.696 63.5338C100.587 61.9498 94.0346 58.8245 88.0399 54.1578C88.6319 53.3738 89.7466 53.3683 91.3839 54.1417C97.1599 56.867 101.658 58.7416 104.88 59.7656C106.432 60.4856 107.736 61.1336 109.24 62.2136C116.68 67.5736 125.776 69.5736 134.984 69.2936C135.069 69.2905 135.151 69.2611 135.219 69.2096C135.287 69.1581 135.338 69.0869 135.364 69.0056C135.39 68.9244 135.391 68.8371 135.366 68.7555C135.341 68.6739 135.291 68.6021 135.224 68.5496L133.696 67.3896C133.504 67.2456 133.474 67.075 133.608 66.8776C134.84 65.0696 137.464 66.5576 139.36 65.6696C141.973 66.187 144.851 66.3069 147.992 66.0296L149.152 66.1016C149.371 66.1176 149.491 66.0162 149.512 65.7976L149.712 63.6216C149.723 63.4964 149.776 63.3782 149.861 63.2845C149.946 63.1909 150.059 63.1267 150.184 63.1016C151.747 62.7816 153.067 62.0296 154.144 60.8456C154.224 60.7583 154.326 60.6939 154.44 60.6587C154.554 60.6236 154.675 60.6191 154.792 60.6456C156.477 61.0509 157.555 60.5469 158.024 59.1336C158.12 58.8456 158.243 58.5736 158.392 58.3176C158.856 57.5282 159.507 57.1922 160.344 57.3096C160.616 57.3469 160.755 57.2269 160.76 56.9496C160.824 54.3736 163.64 54.2536 165.912 54.1336C166.12 54.1229 166.309 54.1762 166.48 54.2936L167.32 54.8776C167.378 54.9182 167.448 54.9401 167.519 54.9406C167.59 54.941 167.659 54.92 167.718 54.8801C167.777 54.8403 167.822 54.7836 167.848 54.7174C167.874 54.6513 167.88 54.5788 167.864 54.5096C167.581 53.2829 167.163 52.4696 166.608 52.0696C162.712 43.3256 157.544 35.0937 150 29.3657C149.852 29.2554 149.741 29.1026 149.681 28.9276C149.622 28.7526 149.617 28.5637 149.667 28.3859C149.717 28.2081 149.82 28.0497 149.963 27.9318C150.105 27.8139 150.28 27.7421 150.464 27.7257C152.232 27.5577 156.048 32.4297 157.256 33.7097C162.848 39.6617 166.848 47.7977 169.712 55.3897C169.896 55.8697 170.232 56.0537 170.712 55.8617C170.799 55.8289 170.872 55.7661 170.916 55.6852C170.96 55.6042 170.973 55.5106 170.952 55.4217C169.4 48.4884 166.485 42.2511 162.208 36.7097C161.56 35.8697 159.832 34.1897 158.944 32.7177C157.648 30.5657 155.04 28.7897 153.056 27.2777C151.992 26.4617 151.352 25.2937 150.472 24.2857C150.296 24.0831 150.301 23.8884 150.488 23.7017L150.904 23.2857C151.219 22.9711 151.16 22.7604 150.728 22.6537C149.304 22.3017 148.597 21.4991 148.608 20.2457Z" fill="#792F2C"/>
<path d="M46.1601 58.0774C44.8961 41.8374 58.8561 30.6694 71.5521 23.5414C73.2641 22.5814 74.9361 22.5814 76.7841 21.9974C76.9422 21.9348 77.1186 21.9376 77.2747 22.0051C77.4307 22.0726 77.5535 22.1993 77.6161 22.3574C77.6787 22.5155 77.6759 22.6919 77.6084 22.8479C77.5409 23.004 77.4142 23.1268 77.2561 23.1894C68.9574 27.1681 61.8774 32.6561 56.0161 39.6534C51.4481 45.1094 48.6881 51.3494 46.6321 58.1254C46.6177 58.1809 46.5839 58.2294 46.5369 58.2621C46.4898 58.2949 46.4325 58.3097 46.3755 58.3039C46.3185 58.2981 46.2654 58.2721 46.2259 58.2305C46.1864 58.189 46.163 58.1347 46.1601 58.0774Z" fill="#F17941"/>
<path d="M166.608 52.0696C167.163 52.4696 167.581 53.2829 167.864 54.5096C167.88 54.5788 167.874 54.6513 167.848 54.7174C167.822 54.7836 167.777 54.8403 167.718 54.8801C167.659 54.92 167.59 54.941 167.519 54.9406C167.448 54.9401 167.378 54.9182 167.32 54.8776L166.48 54.2936C166.309 54.1762 166.12 54.1229 165.912 54.1336C163.64 54.2536 160.824 54.3736 160.76 56.9496C160.755 57.2269 160.616 57.3469 160.344 57.3096C159.507 57.1922 158.856 57.5282 158.392 58.3176C158.243 58.5736 158.12 58.8456 158.024 59.1336C157.555 60.5469 156.477 61.0509 154.792 60.6456C154.675 60.6191 154.554 60.6236 154.44 60.6587C154.326 60.6939 154.224 60.7583 154.144 60.8456C153.067 62.0296 151.747 62.7816 150.184 63.1016C150.059 63.1267 149.946 63.1909 149.861 63.2845C149.776 63.3782 149.723 63.4964 149.712 63.6216L149.512 65.7976C149.491 66.0162 149.371 66.1176 149.152 66.1016L147.992 66.0296C148.083 65.9549 148.138 65.8803 148.16 65.8057C148.229 65.5977 148.16 65.4643 147.952 65.4057C140.704 63.3817 132.928 62.3817 125.6 59.0537C124.496 58.5497 124.048 57.8457 123.784 56.7577C123.704 56.4217 123.832 56.3017 124.168 56.3977C127.384 57.3203 130.64 57.715 133.936 57.5817C138.144 57.4137 142.568 58.9337 146.744 59.5177C146.952 59.5497 147.106 59.6563 147.208 59.8377C147.48 60.3497 153.688 60.5177 154.552 60.5337C154.652 60.5359 154.749 60.5006 154.824 60.4348C154.899 60.3689 154.947 60.2773 154.958 60.1779C154.969 60.0786 154.943 59.9787 154.884 59.8979C154.825 59.8172 154.738 59.7614 154.64 59.7417L145.4 57.8217C145.085 57.7555 144.787 57.6245 144.528 57.4382C144.268 57.2518 144.054 57.0146 143.899 56.7438C143.744 56.4729 143.654 56.1751 143.634 55.8718C143.614 55.5685 143.665 55.2672 143.784 54.9897C144.016 54.4457 150.72 54.5017 151.44 54.5177C151.559 54.5261 151.678 54.4894 151.772 54.4149C151.866 54.3405 151.928 54.2335 151.947 54.1151C151.966 53.9968 151.94 53.8756 151.875 53.7754C151.809 53.6752 151.708 53.6032 151.592 53.5737L131.112 47.1897C130.92 47.1257 130.752 47.019 130.608 46.8697L129.472 45.6697C129.38 45.5717 129.263 45.5023 129.132 45.4697C129.002 45.437 128.864 45.4426 128.736 45.4857C126.08 46.3497 125.896 42.2057 127.536 41.3897C129.48 40.4217 130 40.2057 130.68 38.3657C130.776 38.1043 130.912 37.8643 131.088 37.6457L133.536 34.6457C133.685 34.4643 133.861 34.3123 134.064 34.1897C135.12 33.5283 136.098 32.771 137 31.9177C137.117 31.8057 137.104 31.7363 136.96 31.7097C136.922 31.699 136.888 31.6937 136.856 31.6937C136.836 31.6928 136.815 31.691 136.795 31.6885C136.776 31.686 136.758 31.6829 136.745 31.6796C136.732 31.6763 136.723 31.6729 136.72 31.6697C136.717 31.6665 136.72 31.6638 136.728 31.6617L140.528 28.2457C140.8 28.0003 140.802 27.7523 140.536 27.5017C140.45 27.4217 140.397 27.307 140.376 27.1577C140.369 27.0973 140.378 27.0362 140.401 26.9799C140.423 26.9235 140.46 26.8737 140.506 26.8349C140.553 26.7961 140.609 26.7695 140.668 26.7574C140.728 26.7453 140.79 26.7481 140.848 26.7657C149.176 29.1577 157.672 41.4777 162.12 48.5497C163.48 50.7043 164.976 51.8776 166.608 52.0696Z" fill="#863934"/>
<path d="M82.3997 49.4617C79.6797 64.1177 67.432 73.6377 54.92 80.2777C52.5627 81.5257 51.4479 83.4564 51.5759 86.0697C51.1705 92.3204 51.4773 98.5256 52.496 104.686C52.56 105.08 52.488 105.107 52.28 104.766C50.28 101.518 49.264 97.0856 44.584 97.0216C41.704 96.9842 39.1946 97.7124 37.0559 99.2057C32.0106 98.9124 28.6692 98.5257 27.0319 98.0457C21.3679 96.3897 15.3439 94.2217 9.49591 93.4297C9.41004 93.4172 9.33114 93.3753 9.27262 93.3112C9.21411 93.2471 9.17958 93.1647 9.17487 93.0781C9.17016 92.9914 9.19557 92.9058 9.24679 92.8358C9.29802 92.7657 9.37189 92.7155 9.4559 92.6937C10.6639 92.4057 11.8559 92.0777 13.1199 92.1017C19.8826 92.1924 26.6452 92.1017 33.4079 91.8297C37.2639 91.6777 41.2639 90.9817 45.2639 90.5497C45.4686 90.5304 45.6592 90.4374 45.8004 90.2881C45.9417 90.1387 46.0238 89.9432 46.0317 89.7378C46.0395 89.5324 45.9724 89.3311 45.843 89.1714C45.7135 89.0118 45.5305 88.9045 45.3279 88.8697C42.4959 88.3417 39.8957 88.7336 36.7117 87.8456C39.5384 83.5683 42.7331 79.8803 46.2958 76.7816C51.8905 73.891 57.6718 70.355 63.6398 66.1736C71.1011 60.9363 75.5678 53.915 77.0398 45.1096C77.0878 44.811 77.2425 44.739 77.5038 44.8936C79.5038 46.083 81.1357 47.6057 82.3997 49.4617ZM41.9521 84.2059C41.6481 86.3659 42.7068 87.4886 45.1281 87.5739C47.0641 87.6379 52.8241 84.2379 49.7201 82.4219L46.952 78.5818C46.9132 78.5287 46.8627 78.4851 46.8045 78.4545C46.7463 78.4239 46.6821 78.4072 46.6169 78.4056C46.5517 78.4041 46.4872 78.4177 46.4288 78.4455C46.3703 78.4733 46.3194 78.5145 46.28 78.5658L41.9521 84.2059Z" fill="#792F2C"/>
<path d="M190.896 49.2778C197.648 59.2938 202.547 70.2296 205.592 82.0856L199.992 78.3814C202.8 76.3734 192.528 53.7814 190.392 49.7974C190.275 49.5788 190.331 49.4241 190.56 49.3334C190.688 49.2801 190.8 49.2618 190.896 49.2778Z" fill="#D7D2D2"/>
<path d="M88.0399 54.1578C94.0346 58.8245 100.587 61.9498 107.696 63.5338C108.632 63.7418 109.272 63.8938 110.04 64.5818C117.72 71.4858 124.76 75.6058 135.576 74.6858C138.4 74.4378 147.216 72.2378 150.912 74.7978C151.856 75.4538 152.899 76.7632 154.04 78.7258C156.024 82.1498 158.368 85.2271 161.072 87.9577C162.027 88.6991 162.475 89.5525 162.416 90.5178C162.117 95.2858 161.899 100.078 161.76 104.894C161.744 105.443 161.861 105.475 162.112 104.99C164.168 100.99 165.68 96.6538 171.176 96.5018C174.28 96.4165 176.965 97.4668 179.232 99.6535C184.352 105.357 183.088 113.701 177.992 118.773C173.107 123.563 167.613 124.693 161.512 122.165C161.474 122.149 161.434 122.141 161.393 122.141C161.352 122.142 161.311 122.151 161.274 122.169C161.237 122.186 161.204 122.211 161.177 122.242C161.151 122.274 161.131 122.31 161.12 122.349C161.093 122.435 161.101 122.536 161.144 122.653C161.016 122.424 160.848 122.305 160.64 122.294C160.331 122.283 160.163 122.433 160.136 122.742C159.784 126.827 157.568 129.145 153.488 129.694C153.115 129.747 153.016 129.609 153.192 129.278L153.336 129.014C153.4 128.897 153.376 128.798 153.264 128.718L151.664 127.598C151.461 127.454 151.251 127.446 151.032 127.574C147.603 129.649 143.915 130.593 139.968 130.406C135.544 130.19 129.4 129.59 126.696 125.574C126.536 125.339 126.536 125.105 126.696 124.87C126.931 124.518 127.144 124.155 127.336 123.782C127.448 123.553 127.52 123.31 127.552 123.054C127.723 121.763 128.475 120.886 129.808 120.422C130.976 119.499 132.296 119.043 133.768 119.054C137.464 118.483 141.058 117.424 144.552 115.878C147.965 116.912 150.907 118.779 153.376 121.478C153.429 121.538 153.498 121.582 153.575 121.605C153.652 121.628 153.734 121.629 153.812 121.608C153.89 121.588 153.962 121.546 154.019 121.488C154.076 121.43 154.116 121.357 154.136 121.278C155.904 113.518 155.64 106.158 155.328 95.2539C155.211 91.0885 154.048 87.2832 151.84 83.8379C149.024 79.4379 145.216 79.2459 140.624 78.1579C140.331 78.0885 140.125 78.1899 140.008 78.4619L139.84 78.8619C135.656 77.5339 126.752 75.9817 125.112 81.6697C120.973 79.867 117.117 77.5362 113.544 74.6775C104.048 67.0855 92.5838 64.8455 84.2718 56.1735C84.0638 55.9602 83.9011 55.9922 83.7838 56.2695C77.7198 70.7895 68.7438 79.1255 54.3118 85.6295C53.8691 86.1255 52.9572 86.2724 51.5759 86.0697C51.4479 83.4564 52.5627 81.5257 54.92 80.2777C67.432 73.6377 79.6797 64.1177 82.3997 49.4617L88.0399 54.1578ZM167.152 107.173C164.688 108.448 163.416 110.424 163.336 113.101C163.325 113.347 163.397 113.565 163.552 113.757C167.648 118.901 175.12 116.677 175.648 110.125C175.872 110.307 176.176 110.289 176.56 110.07C176.8 109.937 176.899 109.737 176.856 109.47C176.296 105.646 173.584 104.006 169.928 104.118C166.493 104.225 165.568 105.243 167.152 107.173Z" fill="#FCA582"/>
<path d="M40.7599 52.3097L40.7759 56.7176C40.2319 56.6376 39.8557 56.6458 39.4877 57.1098C36.3517 61.0778 33.616 65.0294 29.968 67.2534C29.3227 66.1974 29.4613 65.1494 30.384 64.1094C33.8613 60.1947 37.3199 56.2617 40.7599 52.3097Z" fill="#FDBF9E"/>
<path d="M176.472 55.0219C179.757 57.8752 182.461 61.0326 184.584 64.4939C184.849 64.932 184.94 65.4532 184.839 65.9541C184.738 66.455 184.453 66.899 184.04 67.1979C181.328 69.1419 179.336 68.6219 180.392 72.9099C180.659 73.9819 181.056 74.8272 181.584 75.4458C182.165 78.4805 181.707 81.0831 180.208 83.2537C180.016 83.5311 179.8 83.5524 179.56 83.3177L177.192 81.0537C175.232 78.4377 171.424 74.8059 170.664 71.7179C170.61 71.4992 170.632 71.2859 170.728 71.0779C171.341 69.7819 172.37 69.3179 173.816 69.6859C174.066 69.7446 174.237 69.6566 174.328 69.4219C175.117 67.4326 175.381 65.3552 175.12 63.1899C174.997 62.1659 175.309 62.0112 176.056 62.7259L179.776 66.2939C179.845 66.3526 179.917 66.3606 179.992 66.3179L180.192 66.1979C180.231 66.1737 180.265 66.1409 180.29 66.102C180.316 66.0631 180.332 66.0191 180.338 65.9731C180.344 65.9272 180.34 65.8804 180.326 65.8362C180.312 65.7921 180.288 65.7517 180.256 65.7179L177.584 62.8859C177.418 62.7149 177.314 62.4954 177.288 62.2619L176.472 55.0219Z" fill="#E44A46"/>
<path d="M125.112 81.6697C125.917 83.7604 127.074 84.6402 128.584 84.3096C136.429 82.5816 143.184 84.5151 148.848 90.1097L145.672 102.486C126.152 85.5176 118.448 116.533 133.704 117.813C133.16 117.813 132.904 118.024 132.936 118.446C132.957 118.702 133.093 118.846 133.344 118.878C133.547 118.904 133.688 118.963 133.768 119.054C132.296 119.043 130.976 119.499 129.808 120.422C127.995 120.075 126.429 119.44 125.112 118.517C124.594 118.155 124.146 118.224 123.768 118.725C121.192 122.133 120.739 124.68 122.408 126.366C118.104 127.742 114.168 128.544 110.6 128.774L103.936 128.686C100.944 128.472 97.9946 127.809 95.0879 126.694C94.0853 126.31 93.6346 126.651 93.7359 127.718C94.3653 134.283 98.0905 138.451 104.912 140.222C105.125 141.779 104.677 143.155 103.568 144.35C102.112 145.918 101.536 147.342 100.328 148.886C100.152 149.11 100.205 149.241 100.488 149.278L100.8 149.318C101.04 149.35 101.157 149.489 101.152 149.734C101.131 150.923 100.675 151.912 99.7841 152.702L88.7997 150.398C75.4877 146.758 63.88 139.83 56.656 127.71C57.68 127.614 58.3065 127.264 58.5358 126.662C58.6265 126.438 58.7891 126.291 59.0238 126.222C61.5038 125.51 60.7518 121.27 60.2958 119.286C59.6318 116.454 60.3278 113.814 59.4718 110.974C58.6958 108.382 57.3758 106.07 57.5598 103.278C57.8265 99.2671 57.6398 95.259 56.9998 91.2537C56.6238 88.9017 55.5838 87.5975 54.3118 85.6295C68.7438 79.1255 77.7198 70.7895 83.7838 56.2695C83.9011 55.9922 84.0638 55.9602 84.2718 56.1735C92.5838 64.8455 104.048 67.0855 113.544 74.6775C117.117 77.5362 120.973 79.867 125.112 81.6697ZM84.9839 78.1017C76.1759 76.1817 67.7999 81.2937 65.8559 90.1097C65.7599 90.5524 65.8826 90.627 66.2239 90.3337C72.5199 85.0137 77.7999 81.6217 86.4639 84.3657C90.7519 85.7177 89.7679 79.1497 84.9839 78.1017ZM70.2398 116.573C70.9811 117.459 70.1385 117.683 67.7118 117.245C67.4398 117.192 67.2505 117.293 67.1438 117.549C65.9918 120.381 63.8238 119.789 61.9198 121.237C61.8203 121.313 61.7446 121.415 61.702 121.533C61.6593 121.65 61.6515 121.777 61.6794 121.899C61.7072 122.021 61.7697 122.132 61.8592 122.219C61.9487 122.306 62.0614 122.365 62.1838 122.389L64.5998 122.885C64.7811 122.923 64.9065 123.027 64.9758 123.197C65.3811 124.125 65.4451 125.059 65.1678 125.997C65.0878 126.275 65.1385 126.523 65.3198 126.741C70.1518 132.669 86.1918 131.141 90.4398 125.157C90.5625 124.987 90.6345 124.797 90.6558 124.589L91.1038 120.157C91.1261 119.931 91.0702 119.703 90.9452 119.511C90.8202 119.319 90.6336 119.175 90.4158 119.101L85.9918 117.637C85.7542 117.56 85.4941 117.568 85.2558 117.661C83.6291 118.301 81.9358 118.496 80.1758 118.245C80.8158 118.091 81.0932 117.808 81.0079 117.398C84.2825 117.008 86.496 115.262 87.648 112.158C93.832 95.5097 72.76 92.2137 67.24 106.574C67.1547 106.792 66.9947 106.902 66.76 106.902L63.4 106.918C63.3009 106.92 63.2051 106.954 63.1271 107.015C63.0491 107.076 62.9933 107.161 62.9679 107.257C62.9426 107.353 62.9492 107.454 62.9868 107.546C63.0243 107.638 63.0908 107.715 63.176 107.766L66.568 109.758C66.8453 109.923 67.0294 110.158 67.12 110.462C67.7547 112.638 68.7945 114.675 70.2398 116.573ZM107.739 115.624C107.747 115.455 107.722 115.286 107.666 115.127C107.609 114.967 107.521 114.821 107.408 114.695C107.295 114.57 107.158 114.468 107.005 114.395C106.852 114.323 106.686 114.281 106.518 114.272L106.278 114.26C105.937 114.243 105.603 114.362 105.349 114.591C105.096 114.82 104.944 115.14 104.926 115.481L104.693 120.084C104.685 120.252 104.709 120.421 104.766 120.581C104.823 120.74 104.91 120.887 105.024 121.012C105.137 121.138 105.274 121.24 105.427 121.312C105.58 121.385 105.745 121.427 105.914 121.435L106.154 121.447C106.495 121.464 106.829 121.345 107.083 121.116C107.336 120.887 107.488 120.567 107.506 120.226L107.739 115.624ZM109.392 117.061C108.808 118.949 108.736 123.605 105.472 122.253C105.373 122.212 105.262 122.211 105.162 122.25C105.062 122.289 104.981 122.364 104.936 122.461L104.792 122.773C104.691 122.987 104.752 123.139 104.976 123.229C109.736 125.069 115.408 119.461 109.736 116.901C109.703 116.888 109.668 116.881 109.632 116.881C109.596 116.882 109.561 116.89 109.528 116.905C109.496 116.92 109.467 116.942 109.444 116.969C109.42 116.996 109.403 117.027 109.392 117.061Z" fill="#FED3B3"/>
<path d="M40.7759 56.7176L41.152 59.6055L31.7917 68.3259C31.1143 68.4433 30.5067 68.0854 29.968 67.2534C33.616 65.0294 36.3517 61.0778 39.4877 57.1098C39.8557 56.6458 40.2319 56.6376 40.7759 56.7176Z" fill="#FED3B3"/>
<path d="M139.36 65.6696C137.464 66.5576 134.84 65.0696 133.608 66.8776C133.474 67.075 133.504 67.2456 133.696 67.3896L135.224 68.5496C135.291 68.6021 135.341 68.6739 135.366 68.7555C135.391 68.8371 135.39 68.9244 135.364 69.0056C135.338 69.0869 135.287 69.1581 135.219 69.2096C135.151 69.2611 135.069 69.2905 134.984 69.2936C125.776 69.5736 116.68 67.5736 109.24 62.2136C107.736 61.1336 106.432 60.4856 104.88 59.7656C108.741 56.9443 113.261 56.6483 118.44 58.8776C123.24 60.9416 130.213 63.2056 139.36 65.6696Z" fill="#863934"/>
<path d="M41.152 59.6055L41.6 63.8855L34.6479 70.7338L31.7917 68.3259L41.152 59.6055Z" fill="#F17941"/>
<path d="M42.7039 70.8297L35.1118 79.7577C34.9465 79.955 34.7945 79.9417 34.6558 79.7177L32.1438 75.5816C33.5732 75.0376 34.3172 73.4163 34.3759 70.7176C34.5572 71.0269 34.6319 71.267 34.5999 71.4377C34.5909 71.4919 34.5997 71.5476 34.6249 71.5965C34.6501 71.6454 34.6903 71.6849 34.7397 71.7091C34.789 71.7333 34.8449 71.741 34.8989 71.731C34.953 71.7211 35.0024 71.6939 35.0399 71.6537L41.7599 64.5417C41.8309 64.467 41.9207 64.4127 42.0198 64.3845C42.1189 64.3563 42.2238 64.3552 42.3235 64.3814C42.4232 64.4075 42.5141 64.4599 42.5866 64.5332C42.6591 64.6064 42.7107 64.6977 42.7359 64.7977L43.6239 68.4617C43.6571 68.605 43.6483 68.7547 43.5986 68.8925C43.5489 69.0302 43.4604 69.1502 43.3439 69.2377C42.6346 69.7657 42.4212 70.2963 42.7039 70.8297Z" fill="#FDBF9E"/>
<path d="M46.2958 76.7816C42.7331 79.8803 39.5384 83.5683 36.7117 87.8456C35.965 88.3256 35.189 88.1709 34.3837 87.3816C30.6157 83.6776 40.7917 74.4296 43.4957 72.0696C43.7037 71.8936 43.8984 71.9069 44.0797 72.1096C45.1144 73.2989 45.8531 74.8563 46.2958 76.7816Z" fill="#FDBF9E"/>
<path d="M176.688 81.3419C177.893 82.5206 178.741 83.8214 179.232 85.2454C179.31 85.4792 179.31 85.7293 179.232 85.9574C177.224 91.8774 171.976 84.1016 170.176 82.4456L166.552 77.7096C166.499 77.6392 166.471 77.5536 166.473 77.4665C166.474 77.3795 166.505 77.296 166.56 77.2296L169.176 74.1256C169.263 74.0237 169.371 73.9419 169.492 73.8857C169.613 73.8295 169.745 73.8004 169.879 73.8004C170.012 73.8004 170.144 73.8295 170.264 73.8857C170.384 73.9419 170.491 74.0237 170.576 74.1256L176.688 81.3419Z" fill="#E44A46"/>
<path d="M199.992 78.3814L205.592 82.0856C208.664 85.2802 210.979 89.1309 212.536 93.6375L211.104 93.9735C210.821 94.0429 210.661 94.2215 210.624 94.5095C209.84 100.358 198.752 105.998 193.992 108.638C182.296 115.126 191.256 124.694 196.632 130.67C198.472 132.718 198.872 134.942 197.832 137.342C197.825 137.357 197.821 137.374 197.822 137.391C197.822 137.408 197.827 137.425 197.836 137.44C197.844 137.456 197.856 137.469 197.871 137.48C197.885 137.49 197.902 137.498 197.92 137.502C198.021 137.523 198.133 137.555 198.256 137.598C198.301 137.616 198.34 137.648 198.365 137.69C198.391 137.732 198.403 137.78 198.4 137.829C198.396 137.878 198.377 137.924 198.346 137.962C198.314 137.999 198.271 138.026 198.224 138.038C197.147 138.283 196.259 138.795 195.56 139.574C195.379 139.771 195.157 139.907 194.896 139.982C191.048 141.078 188.072 141.366 183.864 140.59C181.096 140.078 168.448 137.246 168.024 141.91C167.8 144.39 168.333 146.667 169.624 148.742C169.768 148.971 169.813 149.216 169.76 149.478C169.296 151.71 169.792 155.438 167.168 156.566C155.128 161.742 147.856 151.542 136.776 149.998C136.003 149.891 135.955 149.011 136.632 147.358L141.928 144.494L142.304 145.477C142.389 145.712 142.549 145.784 142.784 145.693C149.496 143.085 155.456 139.453 158.6 133.325C159.544 131.496 160.539 129.963 161.584 128.725C161.67 128.624 161.776 128.542 161.895 128.482C162.015 128.423 162.146 128.389 162.28 128.381C168.88 128.045 174.976 127.213 178.712 121.045C178.866 120.795 178.877 120.536 178.744 120.269L177.992 118.773C183.088 113.701 184.352 105.357 179.232 99.6535C187.888 98.7015 193.344 95.8215 200.576 93.0135C200.778 92.9335 200.845 92.7922 200.776 92.5895C200.05 90.5308 198.72 89.7682 196.784 90.3015C190.872 91.9335 184.04 94.2295 177.856 93.2775C175.002 92.8348 172.104 92.5548 169.16 92.4375C168.872 92.4215 168.712 92.2695 168.68 91.9815L168.4 89.0055C169.989 88.3548 170.821 87.0801 170.896 85.1815C170.906 84.9228 170.827 84.6708 170.672 84.4695L169.536 82.9735C169.786 82.9681 170 82.7923 170.176 82.4456C171.976 84.1016 177.224 91.8774 179.232 85.9574C179.31 85.7293 179.31 85.4792 179.232 85.2454C178.741 83.8214 177.893 82.5206 176.688 81.3419C176.816 81.1606 176.984 81.0644 177.192 81.0537L179.56 83.3177C179.8 83.5524 180.016 83.5311 180.208 83.2537C181.707 81.0831 182.165 78.4805 181.584 75.4458C188.128 74.6085 194.264 75.5868 199.992 78.3814Z" fill="#471E33"/>
<path d="M65.8559 90.1097C67.7999 81.2937 76.1759 76.1817 84.9839 78.1017C89.7679 79.1497 90.7519 85.7177 86.4639 84.3657C77.7999 81.6217 72.5199 85.0137 66.2239 90.3337C65.8826 90.627 65.7599 90.5524 65.8559 90.1097Z" fill="#792F2C"/>
<path d="M139.84 78.8619C145.397 81.3152 148.4 85.0644 148.848 90.1097C143.184 84.5151 136.429 82.5816 128.584 84.3096C127.074 84.6402 125.917 83.7604 125.112 81.6697C126.752 75.9817 135.656 77.5339 139.84 78.8619Z" fill="#863934"/>
<path d="M144.552 115.878C144.568 115.552 144.776 115.267 145.176 115.022C146.768 112.022 147 109.302 150.448 107.686C150.585 107.623 150.697 107.516 150.767 107.383C150.837 107.249 150.86 107.096 150.833 106.948C150.807 106.799 150.732 106.664 150.62 106.563C150.508 106.462 150.366 106.401 150.216 106.39C149.571 106.331 148.979 106.502 148.44 106.902C148.328 106.987 148.191 107.032 148.051 107.031C147.91 107.029 147.774 106.981 147.664 106.894C147.413 106.696 147.32 106.448 147.384 106.15C147.443 105.878 147.403 105.616 147.264 105.366L145.672 102.486L148.848 90.1097C148.4 85.0644 145.397 81.3152 139.84 78.8619L140.008 78.4619C140.125 78.1899 140.331 78.0885 140.624 78.1579C145.216 79.2459 149.024 79.4379 151.84 83.8379C154.048 87.2832 155.211 91.0885 155.328 95.2539C155.64 106.158 155.904 113.518 154.136 121.278C154.116 121.357 154.076 121.43 154.019 121.488C153.962 121.546 153.89 121.588 153.812 121.608C153.734 121.629 153.652 121.628 153.575 121.605C153.498 121.582 153.429 121.538 153.376 121.478C150.907 118.779 147.965 116.912 144.552 115.878Z" fill="#FDBF9E"/>
<path d="M49.7201 82.4219C47.9281 84.7686 45.3388 85.3632 41.9521 84.2059L46.28 78.5658C46.3194 78.5145 46.3703 78.4733 46.4288 78.4455C46.4872 78.4177 46.5517 78.4041 46.6169 78.4056C46.6821 78.4072 46.7463 78.4239 46.8045 78.4545C46.8627 78.4851 46.9132 78.5287 46.952 78.5818L49.7201 82.4219Z" fill="#F17941"/>
<path d="M169.536 82.9735L170.672 84.4695C170.827 84.6708 170.906 84.9228 170.896 85.1815C170.821 87.0801 169.989 88.3548 168.4 89.0055C166.56 88.9255 164.875 87.867 163.344 85.8296C161.685 84.619 162.493 82.6163 165.768 79.8216C166.168 79.4856 166.539 79.515 166.88 79.9096L169.536 82.9735Z" fill="#E44A46"/>
<path d="M22.424 83.8697C22.4166 83.8471 22.4139 83.8233 22.416 83.7997C22.4181 83.776 22.425 83.753 22.4362 83.7321C22.4474 83.7112 22.4627 83.6928 22.4813 83.6779C22.4998 83.6631 22.5211 83.6521 22.544 83.6457L23.112 83.4777C25.3972 82.7879 27.6091 82.1948 29.2621 81.8288C30.9151 81.4628 31.8739 81.3538 31.928 81.5257L31.96 81.6137C31.9857 81.6993 31.7879 81.8514 31.378 82.0613C30.9681 82.2713 30.3541 82.535 29.5711 82.8373C28.788 83.1397 27.8513 83.4748 26.8144 83.8235C25.7775 84.1723 24.6608 84.5277 23.528 84.8697L22.96 85.0377C22.9165 85.0504 22.8698 85.0459 22.8295 85.025C22.7893 85.0042 22.7587 84.9686 22.744 84.9257L22.424 83.8697Z" fill="#D17857"/>
<path d="M49.7201 82.4219C52.8241 84.2379 47.0641 87.6379 45.1281 87.5739C42.7068 87.4886 41.6481 86.3659 41.9521 84.2059C45.3388 85.3632 47.9281 84.7686 49.7201 82.4219Z" fill="#FCA582"/>
<path d="M54.3118 85.6295C55.5838 87.5975 56.6238 88.9017 56.9998 91.2537C57.6398 95.259 57.8265 99.2671 57.5598 103.278C57.3758 106.07 58.6958 108.382 59.4718 110.974C60.3278 113.814 59.6318 116.454 60.2958 119.286C60.7518 121.27 61.5038 125.51 59.0238 126.222C58.7891 126.291 58.6265 126.438 58.5358 126.662C58.3065 127.264 57.68 127.614 56.656 127.71L54.352 122.118C54.1707 119.755 54.056 117.408 54.008 115.078C53.9707 113.131 53.7627 111.574 53.384 110.406C52.808 108.63 52.0534 107.216 51.12 106.166C48.5014 102.854 45.1357 102.054 41.0237 103.766C40.9486 103.798 40.8856 103.854 40.8441 103.924C40.8027 103.995 40.7852 104.077 40.7942 104.158C40.8033 104.239 40.8385 104.314 40.8943 104.371C40.9502 104.429 41.0238 104.466 41.1037 104.478C41.6531 104.568 42.3117 104.318 43.0797 103.726C44.0077 103.784 44.4985 104.291 44.5519 105.246C44.5679 105.518 44.4879 105.763 44.3119 105.982L42.5759 108.094L41.952 108.462C40.4 109.192 39.6693 110.31 39.7599 111.814L36.1996 112.054C35.9116 112.075 35.7677 112.23 35.7677 112.518C35.773 113.328 36.005 114.059 36.4636 114.71C36.6236 114.934 36.6876 115.182 36.6556 115.454C36.5756 116.211 36.2023 116.728 35.5356 117.005C33.6583 114.317 32.7916 111.179 32.9356 107.59C33.325 104.448 34.6986 101.654 37.0559 99.2057C39.1946 97.7124 41.704 96.9842 44.584 97.0216C49.264 97.0856 50.28 101.518 52.28 104.766C52.488 105.107 52.56 105.08 52.496 104.686C51.4773 98.5256 51.1705 92.3204 51.5759 86.0697C52.9572 86.2724 53.8691 86.1255 54.3118 85.6295Z" fill="#FDBF9E"/>
<path d="M163.344 85.8296C164.875 87.867 166.56 88.9255 168.4 89.0055L168.68 91.9815C168.712 92.2695 168.872 92.4215 169.16 92.4375C172.104 92.5548 175.002 92.8348 177.856 93.2775C184.04 94.2295 190.872 91.9335 196.784 90.3015C198.72 89.7682 200.05 90.5308 200.776 92.5895C200.845 92.7922 200.778 92.9335 200.576 93.0135C193.344 95.8215 187.888 98.7015 179.232 99.6535C176.965 97.4668 174.28 96.4165 171.176 96.5018C165.68 96.6538 164.168 100.99 162.112 104.99C161.861 105.475 161.744 105.443 161.76 104.894C161.899 100.078 162.117 95.2858 162.416 90.5178C162.475 89.5525 162.027 88.6991 161.072 87.9577C162.187 87.3604 162.944 86.651 163.344 85.8296Z" fill="#3A1F2C"/>
<path d="M32.9356 107.59C32.7916 111.179 33.6583 114.317 35.5356 117.005L38.1916 120.149C36.8956 127.861 49.1678 128.286 53.9038 127.79C54.4764 127.73 55.0521 127.87 55.5353 128.184C56.0185 128.498 56.3801 128.969 56.5599 129.518C58.6559 135.974 63.0238 139.942 69.0238 143.494C72.9678 145.822 76.0479 147.638 80.1599 148.59C80.2821 148.619 80.3914 148.687 80.4708 148.782C80.5503 148.877 80.5956 148.995 80.5998 149.118C80.6105 149.502 80.4772 149.814 80.1998 150.054C77.3412 149.942 75.2852 150.24 74.0318 150.949C66.9598 154.957 60.0798 160.045 51.4398 158.341C51.1896 158.289 50.9606 158.161 50.7838 157.973C49.9945 157.147 49.3758 157.405 48.9278 158.749C43.1678 153.765 45.8478 149.453 48.4078 143.741C48.7011 142.675 48.648 141.387 48.248 139.878C48.184 139.643 48.0373 139.486 47.808 139.406C39.76 136.606 27.496 147.526 20.888 140.646C19.576 139.275 18.6479 139.168 18.1039 140.326C9.56789 130.886 21.6479 124.846 19.4559 119.702C18.3359 117.062 12.9359 115.254 10.4719 113.974C2.12789 109.654 -1.3682 102.854 1.6958 93.1978C3.2958 98.9898 5.29579 101.054 10.6158 103.446C15.5118 105.646 26.2958 109.118 28.1918 114.51C28.2854 114.781 28.468 115.013 28.7103 115.168C28.9526 115.323 29.2405 115.393 29.5278 115.366C35.3438 114.822 30.4876 109.798 32.9356 107.59Z" fill="#792F2C"/>
<path d="M212.536 93.6375C214.173 100.486 212.779 106.227 208.352 110.862L201.56 115.23C199.539 116.131 197.845 117.28 196.48 118.678C196.305 118.858 196.202 119.094 196.192 119.342C196.04 122.046 199.096 125.966 200.32 128.55C201.573 135.403 199.277 140.166 193.432 142.838C188.168 144.046 182.648 143.574 177.392 142.694C175.608 142.39 167.984 142.214 169.856 145.83C173.576 153.014 170.48 158.19 163.592 160.478C152.104 164.294 143.136 150.366 129.336 158.614C128.749 158.966 127.643 159.288 126.016 159.582C122.712 159.414 115.568 158.974 116.944 153.686C116.987 153.521 117.077 153.372 117.203 153.257C117.329 153.142 117.487 153.066 117.656 153.038C123.992 151.993 130.317 150.099 136.632 147.358C135.955 149.011 136.003 149.891 136.776 149.998C147.856 151.542 155.128 161.742 167.168 156.566C169.792 155.438 169.296 151.71 169.76 149.478C169.813 149.216 169.768 148.971 169.624 148.742C168.333 146.667 167.8 144.39 168.024 141.91C168.448 137.246 181.096 140.078 183.864 140.59C188.072 141.366 191.048 141.078 194.896 139.982C195.157 139.907 195.379 139.771 195.56 139.574C196.259 138.795 197.147 138.283 198.224 138.038C198.271 138.026 198.314 137.999 198.346 137.962C198.377 137.924 198.396 137.878 198.4 137.829C198.403 137.78 198.391 137.732 198.365 137.69C198.34 137.648 198.301 137.616 198.256 137.598C198.133 137.555 198.021 137.523 197.92 137.502C197.902 137.498 197.885 137.49 197.871 137.48C197.856 137.469 197.844 137.456 197.836 137.44C197.827 137.425 197.822 137.408 197.822 137.391C197.821 137.374 197.825 137.357 197.832 137.342C198.872 134.942 198.472 132.718 196.632 130.67C191.256 124.694 182.296 115.126 193.992 108.638C198.752 105.998 209.84 100.358 210.624 94.5095C210.661 94.2215 210.821 94.0429 211.104 93.9735L212.536 93.6375Z" fill="#3A1F2C"/>
<path d="M81.0079 117.398C73.4159 117.43 70.3601 107.382 75.9921 102.686C76.029 102.651 76.0521 102.603 76.0574 102.552C76.0627 102.502 76.0498 102.451 76.021 102.408C75.9923 102.366 75.9495 102.336 75.9002 102.322C75.851 102.308 75.7985 102.313 75.7521 102.334C69.9068 105.577 68.1575 110.299 70.5041 116.502C70.4135 116.529 70.3251 116.552 70.2398 116.573C68.7945 114.675 67.7547 112.638 67.12 110.462C67.0294 110.158 66.8453 109.923 66.568 109.758L63.176 107.766C63.0908 107.715 63.0243 107.638 62.9868 107.546C62.9492 107.454 62.9426 107.353 62.9679 107.257C62.9933 107.161 63.0491 107.076 63.1271 107.015C63.2051 106.954 63.3009 106.92 63.4 106.918L66.76 106.902C66.9947 106.902 67.1547 106.792 67.24 106.574C72.76 92.2137 93.832 95.5097 87.648 112.158C86.496 115.262 84.2825 117.008 81.0079 117.398ZM83.9838 105.526V105.222C83.9838 105.062 83.9038 104.963 83.7438 104.926C83.4931 104.867 83.3198 104.976 83.2238 105.254C83.1331 105.526 83.1891 105.758 83.3918 105.95C84.0371 106.568 84.8051 106.896 85.6958 106.934C86.3198 106.966 86.5891 106.672 86.5038 106.054C86.3651 105.094 85.8638 104.467 84.9998 104.174C84.6424 104.056 84.5251 104.176 84.6478 104.534L85.0238 105.598C85.0464 105.664 85.0523 105.735 85.0409 105.804C85.0294 105.873 85.0011 105.938 84.9583 105.994C84.9155 106.049 84.8596 106.093 84.7957 106.122C84.7317 106.15 84.6617 106.163 84.5918 106.158C84.5011 106.152 84.4131 106.128 84.3278 106.086C84.2239 106.032 84.1368 105.952 84.0761 105.853C84.0153 105.754 83.9834 105.641 83.9838 105.526ZM85.0239 111.022C83.9839 111.31 82.032 109.75 80.368 109.846C80.112 109.861 79.8565 109.803 79.632 109.678C78.3146 108.968 76.832 108.824 75.184 109.246C74.928 109.315 74.7946 109.48 74.784 109.742C74.528 117.182 82.36 118.502 86.184 112.614C86.3007 112.434 86.3603 112.222 86.3546 112.007C86.349 111.793 86.2784 111.585 86.1523 111.412C86.0263 111.239 85.8507 111.109 85.6491 111.039C85.4474 110.969 85.2293 110.963 85.0239 111.022Z" fill="#4E181A"/>
<path d="M145.672 102.486L147.264 105.366C147.403 105.616 147.443 105.878 147.384 106.15C147.32 106.448 147.413 106.696 147.664 106.894C147.774 106.981 147.91 107.029 148.051 107.031C148.191 107.032 148.328 106.987 148.44 106.902C148.979 106.502 149.571 106.331 150.216 106.39C150.366 106.401 150.508 106.462 150.62 106.563C150.732 106.664 150.807 106.799 150.833 106.948C150.86 107.096 150.837 107.249 150.767 107.383C150.697 107.516 150.585 107.623 150.448 107.686C147 109.302 146.768 112.022 145.176 115.022C146.472 108.318 144.208 104.014 138.384 102.11C138.112 102.019 137.579 102.099 136.784 102.35L132.696 103.382C132.668 103.392 132.645 103.412 132.63 103.437C132.615 103.463 132.609 103.493 132.614 103.522C132.619 103.551 132.633 103.578 132.656 103.598C132.678 103.617 132.706 103.629 132.736 103.63C133.941 103.534 135.123 103.291 136.28 102.902C136.433 102.849 136.594 102.827 136.752 102.838L137 102.862C144.912 106.086 141.216 116.837 133.704 117.813C118.448 116.533 126.152 85.5176 145.672 102.486ZM133.368 106.918L134.632 106.886C134.68 106.884 134.728 106.874 134.772 106.854C134.816 106.835 134.856 106.807 134.89 106.772C134.923 106.737 134.949 106.696 134.967 106.651C134.984 106.606 134.993 106.558 134.992 106.51L134.976 105.99C134.968 105.654 134.865 105.334 134.69 105.1C134.514 104.866 134.281 104.737 134.04 104.742H133.864C133.622 104.748 133.394 104.889 133.229 105.132C133.064 105.375 132.976 105.701 132.984 106.038L132.992 106.558C132.993 106.606 133.003 106.654 133.023 106.698C133.042 106.742 133.07 106.782 133.105 106.815C133.14 106.849 133.181 106.875 133.226 106.893C133.271 106.91 133.319 106.919 133.368 106.918ZM128.512 113.966C131.736 119.494 139.272 116.398 139.44 110.646C139.445 110.403 139.366 110.165 139.217 109.973C139.069 109.781 138.858 109.645 138.622 109.589C138.385 109.533 138.136 109.559 137.917 109.664C137.698 109.769 137.521 109.946 137.416 110.166C136.931 111.211 136.088 111.734 134.888 111.734C134.595 111.734 134.308 111.811 134.056 111.958C132.68 112.758 131.221 112.928 129.68 112.47C129.485 112.411 129.276 112.412 129.082 112.474C128.887 112.536 128.716 112.655 128.59 112.816C128.464 112.978 128.389 113.174 128.375 113.379C128.361 113.584 128.409 113.788 128.512 113.966Z" fill="#4E181A"/>
<path d="M145.176 115.022C144.776 115.267 144.568 115.552 144.552 115.878C141.058 117.424 137.464 118.483 133.768 119.054C133.688 118.963 133.547 118.904 133.344 118.878C133.093 118.846 132.957 118.702 132.936 118.446C132.904 118.024 133.16 117.813 133.704 117.813C141.216 116.837 144.912 106.086 137 102.862C136.829 102.691 136.757 102.52 136.784 102.35C137.579 102.099 138.112 102.019 138.384 102.11C144.208 104.014 146.472 108.318 145.176 115.022Z" fill="#FEFDFE"/>
<path d="M81.0079 117.398C81.0932 117.808 80.8158 118.091 80.1758 118.245L70.5041 116.502C68.1575 110.299 69.9068 105.577 75.7521 102.334C75.7985 102.313 75.851 102.308 75.9002 102.322C75.9495 102.336 75.9923 102.366 76.021 102.408C76.0498 102.451 76.0627 102.502 76.0574 102.552C76.0521 102.603 76.029 102.651 75.9921 102.686C70.3601 107.382 73.4159 117.43 81.0079 117.398Z" fill="#FEFDFE"/>
<path d="M136.784 102.35C136.757 102.52 136.829 102.691 137 102.862L136.752 102.838C136.594 102.827 136.433 102.849 136.28 102.902C135.123 103.291 133.941 103.534 132.736 103.63C132.706 103.629 132.678 103.617 132.656 103.598C132.633 103.578 132.619 103.551 132.614 103.522C132.609 103.493 132.615 103.463 132.63 103.437C132.645 103.412 132.668 103.392 132.696 103.382L136.784 102.35Z" fill="#8F4631"/>
<path d="M51.12 106.166C47.824 104.507 45.1437 103.694 43.0797 103.726C42.3117 104.318 41.6531 104.568 41.1037 104.478C41.0238 104.466 40.9502 104.429 40.8943 104.371C40.8385 104.314 40.8033 104.239 40.7942 104.158C40.7852 104.077 40.8027 103.995 40.8441 103.924C40.8856 103.854 40.9486 103.798 41.0237 103.766C45.1357 102.054 48.5014 102.854 51.12 106.166Z" fill="#F17941"/>
<path d="M51.12 106.166C52.0534 107.216 52.808 108.63 53.384 110.406C53.7627 111.574 53.9707 113.131 54.008 115.078C54.056 117.408 54.1707 119.755 54.352 122.118C49.208 125.31 42.8796 123.797 38.1916 120.149L35.5356 117.005C36.2023 116.728 36.5756 116.211 36.6556 115.454C36.6876 115.182 36.6236 114.934 36.4636 114.71C36.005 114.059 35.773 113.328 35.7677 112.518C35.7677 112.23 35.9116 112.075 36.1996 112.054L39.7599 111.814C39.9626 113.371 40.6372 114.608 41.7839 115.526C42.4292 116.528 43.5574 117.12 45.1681 117.302C45.4348 117.334 45.6854 117.288 45.9201 117.166C46.6454 116.782 47.6721 116.571 49.0001 116.534C51.0721 116.47 54.7441 112.894 51.6401 111.126C51.4481 110.795 51.213 110.598 50.9356 110.534C49.0236 106.302 46.0559 107.734 42.5759 108.094L44.3119 105.982C44.4879 105.763 44.5679 105.518 44.5519 105.246C44.4985 104.291 44.0077 103.784 43.0797 103.726C45.1437 103.694 47.824 104.507 51.12 106.166Z" fill="#FCA582"/>
<path d="M84.3278 106.086C84.4131 106.128 84.5011 106.152 84.5918 106.158C84.6617 106.163 84.7317 106.15 84.7957 106.122C84.8596 106.093 84.9155 106.049 84.9583 105.994C85.0011 105.938 85.0294 105.873 85.0409 105.804C85.0523 105.735 85.0464 105.664 85.0238 105.598L84.6478 104.534C84.5251 104.176 84.6424 104.056 84.9998 104.174C85.8638 104.467 86.3651 105.094 86.5038 106.054C86.5891 106.672 86.3198 106.966 85.6958 106.934C84.8051 106.896 84.0371 106.568 83.3918 105.95C83.1891 105.758 83.1331 105.526 83.2238 105.254C83.3198 104.976 83.4931 104.867 83.7438 104.926C83.9038 104.963 83.9838 105.062 83.9838 105.222V105.526C83.9834 105.641 84.0153 105.754 84.0761 105.853C84.1368 105.952 84.2239 106.032 84.3278 106.086Z" fill="#D7D2D2"/>
<path d="M175.648 110.125C175.608 106.485 169.64 106.293 167.152 107.173C165.568 105.243 166.493 104.225 169.928 104.118C173.584 104.006 176.296 105.646 176.856 109.47C176.899 109.737 176.8 109.937 176.56 110.07C176.176 110.289 175.872 110.307 175.648 110.125Z" fill="#FDBF9E"/>
<path d="M133.368 106.918C133.319 106.919 133.271 106.91 133.226 106.893C133.181 106.875 133.14 106.849 133.105 106.815C133.07 106.782 133.042 106.742 133.023 106.698C133.003 106.654 132.993 106.606 132.992 106.558L132.984 106.038C132.976 105.701 133.064 105.375 133.229 105.132C133.394 104.889 133.622 104.748 133.864 104.742H134.04C134.281 104.737 134.514 104.866 134.69 105.1C134.865 105.334 134.968 105.654 134.976 105.99L134.992 106.51C134.993 106.558 134.984 106.606 134.967 106.651C134.949 106.696 134.923 106.737 134.89 106.772C134.856 106.807 134.816 106.835 134.772 106.854C134.728 106.874 134.68 106.884 134.632 106.886L133.368 106.918Z" fill="#D7D2D2"/>
<path d="M175.648 110.125C175.12 116.677 167.648 118.901 163.552 113.757C163.397 113.565 163.325 113.347 163.336 113.101C163.416 110.424 164.688 108.448 167.152 107.173C169.64 106.293 175.608 106.485 175.648 110.125ZM167.2 112.19L171.792 114.862C171.946 114.949 172.128 114.972 172.299 114.925C172.47 114.879 172.615 114.767 172.704 114.614L172.768 114.51C173.248 113.683 173.41 112.717 173.22 111.824C173.029 110.932 172.501 110.186 171.752 109.75L171.656 109.694C170.906 109.258 169.996 109.168 169.126 109.444C168.256 109.72 167.497 110.34 167.016 111.166L166.952 111.27C166.907 111.346 166.879 111.431 166.867 111.519C166.856 111.607 166.862 111.696 166.885 111.781C166.908 111.867 166.947 111.947 167.001 112.017C167.056 112.087 167.123 112.146 167.2 112.19Z" fill="#FE6E48"/>
<path d="M50.9356 110.534C50.9196 110.71 50.8667 110.848 50.776 110.95C50.5734 111.179 50.3841 111.171 50.2081 110.926C48.0641 107.974 45.2801 108.822 42.4081 109.142C42.1201 109.168 41.9707 109.038 41.9601 108.75L41.952 108.462L42.5759 108.094C46.0559 107.734 49.0236 106.302 50.9356 110.534Z" fill="#AD5138"/>
<path d="M41.952 108.462L41.9601 108.75C41.9707 109.038 42.1201 109.168 42.4081 109.142C45.2801 108.822 48.0641 107.974 50.2081 110.926C50.3841 111.171 50.5734 111.179 50.776 110.95C50.8667 110.848 50.9196 110.71 50.9356 110.534C51.213 110.598 51.4481 110.795 51.6401 111.126C51.4881 111.926 51.0397 114.262 49.7037 113.654C49.469 113.547 49.4237 113.384 49.5677 113.166C51.2397 110.638 39.8559 107.062 41.7839 115.526C40.6372 114.608 39.9626 113.371 39.7599 111.814C39.6693 110.31 40.4 109.192 41.952 108.462Z" fill="#FE6E48"/>
<path d="M80.368 109.846C82.032 109.75 83.9839 111.31 85.0239 111.022C85.2293 110.963 85.4474 110.969 85.6491 111.039C85.8507 111.109 86.0263 111.239 86.1523 111.412C86.2784 111.585 86.349 111.793 86.3546 112.007C86.3603 112.222 86.3007 112.434 86.184 112.614C82.36 118.502 74.528 117.182 74.784 109.742C74.7946 109.48 74.928 109.315 75.184 109.246C76.832 108.824 78.3146 108.968 79.632 109.678C79.8565 109.803 80.112 109.861 80.368 109.846Z" fill="#863934"/>
<path d="M167.2 112.19C167.123 112.146 167.056 112.087 167.001 112.017C166.947 111.947 166.908 111.867 166.885 111.781C166.862 111.696 166.856 111.607 166.867 111.519C166.879 111.431 166.907 111.346 166.952 111.27L167.016 111.166C167.497 110.34 168.256 109.72 169.126 109.444C169.996 109.168 170.906 109.258 171.656 109.694L171.752 109.75C172.501 110.186 173.029 110.932 173.22 111.824C173.41 112.717 173.248 113.683 172.768 114.51L172.704 114.614C172.615 114.767 172.47 114.879 172.299 114.925C172.128 114.972 171.946 114.949 171.792 114.862L167.2 112.19Z" fill="#FB9673"/>
<path d="M139.44 110.646C139.272 116.398 131.736 119.494 128.512 113.966C128.409 113.788 128.361 113.584 128.375 113.379C128.389 113.174 128.464 112.978 128.59 112.816C128.716 112.655 128.887 112.536 129.082 112.474C129.276 112.412 129.485 112.411 129.68 112.47C131.221 112.928 132.68 112.758 134.056 111.958C134.308 111.811 134.595 111.734 134.888 111.734C136.088 111.734 136.931 111.211 137.416 110.166C137.521 109.946 137.698 109.769 137.917 109.664C138.136 109.559 138.385 109.533 138.622 109.589C138.858 109.645 139.069 109.781 139.217 109.973C139.366 110.165 139.445 110.403 139.44 110.646Z" fill="#863934"/>
<path d="M51.6401 111.126C54.7441 112.894 51.0721 116.47 49.0001 116.534C47.6721 116.571 46.6454 116.782 45.9201 117.166C45.6854 117.288 45.4348 117.334 45.1681 117.302C43.5574 117.12 42.4292 116.528 41.7839 115.526C39.8559 107.062 51.2397 110.638 49.5677 113.166C49.4237 113.384 49.469 113.547 49.7037 113.654C51.0397 114.262 51.4881 111.926 51.6401 111.126Z" fill="#FB9673"/>
<path d="M106.518 114.272L106.278 114.26C105.567 114.224 104.962 114.771 104.926 115.481L104.693 120.084C104.657 120.794 105.204 121.399 105.914 121.435L106.154 121.447C106.864 121.483 107.47 120.936 107.506 120.226L107.739 115.624C107.775 114.913 107.228 114.308 106.518 114.272Z" fill="#FEFDFE"/>
<path d="M201.56 115.23C201.229 116.259 200.394 117.147 199.056 117.894C198.869 118 198.821 118.15 198.912 118.342C198.954 118.422 198.984 118.499 199 118.574C199.025 118.661 199.017 118.755 198.976 118.838C198.234 120.288 198.173 121.648 198.792 122.918C199.853 125.104 200.363 126.982 200.32 128.55C199.096 125.966 196.04 122.046 196.192 119.342C196.202 119.094 196.305 118.858 196.48 118.678C197.845 117.28 199.539 116.131 201.56 115.23Z" fill="#EBECE6"/>
<path d="M70.2398 116.573C70.3251 116.552 70.4135 116.529 70.5041 116.502L80.1758 118.245C81.9358 118.496 83.6291 118.301 85.2558 117.661C85.4941 117.568 85.7542 117.56 85.9918 117.637L90.4158 119.101C90.6336 119.175 90.8202 119.319 90.9452 119.511C91.0702 119.703 91.1261 119.931 91.1038 120.157L90.6558 124.589C90.6345 124.797 90.5625 124.987 90.4398 125.157C86.1918 131.141 70.1518 132.669 65.3198 126.741C65.1385 126.523 65.0878 126.275 65.1678 125.997C65.4451 125.059 65.3811 124.125 64.9758 123.197C64.9065 123.027 64.7811 122.923 64.5998 122.885L62.1838 122.389C62.0614 122.365 61.9487 122.306 61.8592 122.219C61.7697 122.132 61.7072 122.021 61.6794 121.899C61.6515 121.777 61.6593 121.65 61.702 121.533C61.7446 121.415 61.8203 121.313 61.9198 121.237C63.8238 119.789 65.9918 120.381 67.1438 117.549C67.2505 117.293 67.4398 117.192 67.7118 117.245C70.1385 117.683 70.9811 117.459 70.2398 116.573ZM80.1586 121.505C80.1526 121.312 79.8629 121.136 79.3532 121.015C78.8436 120.895 78.1558 120.84 77.4411 120.862C77.0872 120.873 76.7374 120.903 76.4116 120.95C76.0858 120.997 75.7904 121.06 75.5423 121.135C75.2942 121.21 75.0982 121.297 74.9656 121.389C74.833 121.482 74.7663 121.579 74.7693 121.674C74.7754 121.867 75.0651 122.043 75.5748 122.164C76.0844 122.285 76.7722 122.34 77.4869 122.317C77.8408 122.306 78.1906 122.276 78.5164 122.23C78.8422 122.183 79.1376 122.12 79.3857 122.044C79.6338 121.969 79.8297 121.882 79.9623 121.79C80.095 121.697 80.1617 121.6 80.1586 121.505Z" fill="#FDBF9E"/>
<path d="M109.392 117.061C109.403 117.027 109.42 116.996 109.444 116.969C109.467 116.942 109.496 116.92 109.528 116.905C109.561 116.89 109.596 116.882 109.632 116.881C109.668 116.881 109.703 116.888 109.736 116.901C115.408 119.461 109.736 125.069 104.976 123.229C104.752 123.139 104.691 122.987 104.792 122.773L104.936 122.461C104.981 122.364 105.062 122.289 105.162 122.25C105.262 122.211 105.373 122.212 105.472 122.253C108.736 123.605 108.808 118.949 109.392 117.061Z" fill="#F17941"/>
<path d="M129.808 120.422C128.475 120.886 127.723 121.763 127.552 123.054C127.52 123.31 127.448 123.553 127.336 123.782C127.144 124.155 126.931 124.518 126.696 124.87C126.536 125.105 126.536 125.339 126.696 125.574C129.4 129.59 135.544 130.19 139.968 130.406C143.915 130.593 147.603 129.649 151.032 127.574C151.251 127.446 151.461 127.454 151.664 127.598L153.264 128.718C153.376 128.798 153.4 128.897 153.336 129.014L153.192 129.278C153.016 129.609 153.115 129.747 153.488 129.694C157.568 129.145 159.784 126.827 160.136 122.742C160.163 122.433 160.331 122.283 160.64 122.294C160.848 122.305 161.016 122.424 161.144 122.653C157.501 132.173 151.096 139.454 141.928 144.494L136.632 147.358C130.317 150.099 123.992 151.993 117.656 153.038C117.487 153.066 117.329 153.142 117.203 153.257C117.077 153.372 116.987 153.521 116.944 153.686C115.568 158.974 122.712 159.414 126.016 159.582C125.733 160.003 125.627 160.299 125.696 160.47C122.768 159.702 121.168 162.35 119.384 163.374C115.848 165.416 112.149 166.486 108.288 166.582C104.272 165.92 100.536 164.64 97.0799 162.742C96.8293 162.608 96.6293 162.422 96.4799 162.182C95.9573 161.36 95.2906 161.43 94.4799 162.39C94.3573 162.539 94.2986 162.707 94.3039 162.894C94.4319 166.902 94.032 170.67 95.808 174.686C94.512 174.59 95.4079 172.726 94.0079 172.238C93.8929 172.197 93.7916 172.124 93.7153 172.028C93.639 171.932 93.5907 171.816 93.5759 171.694C93.3146 169.31 93.1812 166.454 93.1759 163.126C93.1706 161.851 92.6026 161.171 91.4719 161.086C91.3432 161.076 91.2137 161.097 91.0941 161.147C90.9745 161.197 90.8682 161.274 90.7839 161.374C89.6212 162.728 87.9626 163.355 85.8079 163.254C87.9572 161.403 90.3839 160.371 93.0879 160.157C93.3599 160.136 93.5519 160.005 93.6639 159.765C93.7599 159.563 93.7892 159.344 93.7519 159.109C95.9199 158.941 100.688 159.126 100.92 156.278C105.325 157.51 108.44 160.347 110.264 164.79C110.311 164.902 110.392 164.996 110.495 165.059C110.598 165.122 110.719 165.151 110.84 165.142C114.408 164.83 118.416 164.246 118.8 159.894C118.812 159.758 118.782 159.622 118.715 159.503C118.648 159.385 118.547 159.289 118.424 159.23C115.688 157.942 116.528 156.142 115.896 153.95C115.827 153.704 115.664 153.592 115.408 153.614C110.587 153.934 105.72 153.816 100.808 153.262L99.7841 152.702C100.675 151.912 101.131 150.923 101.152 149.734C101.157 149.489 101.04 149.35 100.8 149.318L100.488 149.278C100.205 149.241 100.152 149.11 100.328 148.886C101.536 147.342 102.112 145.918 103.568 144.35C104.677 143.155 105.125 141.779 104.912 140.222C108.549 140.808 111.626 140.555 114.144 139.462C120.016 136.907 122.771 132.542 122.408 126.366C120.739 124.68 121.192 122.133 123.768 118.725C124.146 118.224 124.594 118.155 125.112 118.517C126.429 119.44 127.995 120.075 129.808 120.422Z" fill="#FDBF9E"/>
<path d="M177.992 118.773L178.744 120.269C178.877 120.536 178.866 120.795 178.712 121.045C174.976 127.213 168.88 128.045 162.28 128.381C162.146 128.389 162.015 128.423 161.895 128.482C161.776 128.542 161.67 128.624 161.584 128.725C160.539 129.963 159.544 131.496 158.6 133.325C155.456 139.453 149.496 143.085 142.784 145.693C142.549 145.784 142.389 145.712 142.304 145.477L141.928 144.494C151.096 139.454 157.501 132.173 161.144 122.653C161.101 122.536 161.093 122.435 161.12 122.349C161.131 122.31 161.151 122.274 161.177 122.242C161.204 122.211 161.237 122.186 161.274 122.169C161.311 122.151 161.352 122.142 161.393 122.141C161.434 122.141 161.474 122.149 161.512 122.165C167.613 124.693 173.107 123.563 177.992 118.773Z" fill="#3A1F2C"/>
<path d="M38.1916 120.149C42.8796 123.797 49.208 125.31 54.352 122.118L56.656 127.71C63.88 139.83 75.4877 146.758 88.7997 150.398L88.0557 151.342C87.885 151.555 87.6664 151.635 87.3997 151.582L80.1998 150.054C80.4772 149.814 80.6105 149.502 80.5998 149.118C80.5956 148.995 80.5503 148.877 80.4708 148.782C80.3914 148.687 80.2821 148.619 80.1599 148.59C76.0479 147.638 72.9678 145.822 69.0238 143.494C63.0238 139.942 58.6559 135.974 56.5599 129.518C56.3801 128.969 56.0185 128.498 55.5353 128.184C55.0521 127.87 54.4764 127.73 53.9038 127.79C49.1678 128.286 36.8956 127.861 38.1916 120.149Z" fill="#4E181A"/>
<path d="M77.4869 122.317C78.9751 122.271 80.1712 121.907 80.1586 121.505C80.146 121.103 78.9293 120.815 77.4411 120.862C75.9529 120.909 74.7567 121.272 74.7693 121.674C74.782 122.076 75.9986 122.364 77.4869 122.317Z" fill="#FED3B3"/>
<path d="M122.408 126.366C122.771 132.542 120.016 136.907 114.144 139.462C111.626 140.555 108.549 140.808 104.912 140.222C98.0905 138.451 94.3653 134.283 93.7359 127.718C93.6346 126.651 94.0853 126.31 95.0879 126.694C97.9946 127.809 100.944 128.472 103.936 128.686L110.6 128.774C114.168 128.544 118.104 127.742 122.408 126.366ZM95.8321 128.406C97.0961 134.758 102.8 139.229 109.384 138.397C115.256 137.656 119.072 134.256 120.832 128.198C120.981 127.68 120.8 127.496 120.288 127.646C112.341 129.934 104.368 130.016 96.3681 127.894C96.2964 127.876 96.2214 127.877 96.1501 127.896C96.0788 127.915 96.0134 127.952 95.96 128.003C95.9066 128.054 95.8669 128.117 95.8446 128.188C95.8222 128.258 95.8179 128.333 95.8321 128.406Z" fill="#792F2C"/>
<path d="M109.384 138.397C102.8 139.229 97.0961 134.758 95.8321 128.406C95.8179 128.333 95.8222 128.258 95.8446 128.188C95.8669 128.117 95.9066 128.054 95.96 128.003C96.0134 127.952 96.0788 127.915 96.1501 127.896C96.2214 127.877 96.2964 127.876 96.3681 127.894C104.368 130.016 112.341 129.934 120.288 127.646C120.8 127.496 120.981 127.68 120.832 128.198C119.072 134.256 115.256 137.656 109.384 138.397Z" fill="#FEFDFE"/>
<path d="M48.4078 143.741C46.1518 140.621 40.7679 142.206 37.5759 143.094C35.0319 143.798 31.72 144.214 27.64 144.342C23.912 144.064 20.7332 142.726 18.1039 140.326C18.6479 139.168 19.576 139.275 20.888 140.646C27.496 147.526 39.76 136.606 47.808 139.406C48.0373 139.486 48.184 139.643 48.248 139.878C48.648 141.387 48.7011 142.675 48.4078 143.741Z" fill="#4E181A"/>
<path d="M48.4078 143.741C45.8478 149.453 43.1678 153.765 48.9278 158.749C64.3198 168.605 74.8958 147.917 90.8078 158.645C91.6078 159.184 92.5892 159.339 93.7519 159.109C93.7892 159.344 93.7599 159.563 93.6639 159.765C93.5519 160.005 93.3599 160.136 93.0879 160.157C90.3839 160.371 87.9572 161.403 85.8079 163.254C79.5572 166.15 74.9013 170.121 71.84 175.166C69.944 178.294 62.3677 190.726 64.6077 190.886L64.6 192.021C46.3867 181.04 32.9094 165.771 24.168 146.213C24.1182 146.103 24.0923 145.983 24.0919 145.862C24.0915 145.74 24.1166 145.62 24.1657 145.509C24.2148 145.399 24.2866 145.299 24.3766 145.218C24.4666 145.136 24.5727 145.075 24.688 145.037C25.0133 144.936 25.3307 144.971 25.64 145.141C25.896 145.28 26.1707 145.339 26.464 145.317C28.848 145.184 29.24 144.859 27.64 144.342C31.72 144.214 35.0319 143.798 37.5759 143.094C40.7679 142.206 46.1518 140.621 48.4078 143.741Z" fill="#EBECE6"/>
<path d="M193.432 142.838C192.685 143.659 192.008 144.438 191.4 145.174C190.808 145.894 190.269 146.76 189.784 147.773C182.52 162.835 172.445 175.736 159.56 186.478C159.416 186.595 159.288 186.579 159.176 186.43C158.962 186.131 158.866 186.088 158.888 186.302C157.496 181.854 155.328 178.83 152.312 174.75C145.784 165.918 138.144 162.99 127.784 160.326C127.442 160.24 126.97 160.398 126.368 160.798C126.704 160.675 126.48 160.566 125.696 160.47C125.627 160.299 125.733 160.003 126.016 159.582C127.643 159.288 128.749 158.966 129.336 158.614C143.136 150.366 152.104 164.294 163.592 160.478C170.48 158.19 173.576 153.014 169.856 145.83C167.984 142.214 175.608 142.39 177.392 142.694C182.648 143.574 188.168 144.046 193.432 142.838Z" fill="#EBECE6"/>
<path d="M80.1998 150.054L87.3997 151.582C87.6664 151.635 87.885 151.555 88.0557 151.342L88.7997 150.398L99.7841 152.702L100.808 153.262L100.92 156.278C100.688 159.126 95.9199 158.941 93.7519 159.109C92.5892 159.339 91.6078 159.184 90.8078 158.645C74.8958 147.917 64.3198 168.605 48.9278 158.749C49.3758 157.405 49.9945 157.147 50.7838 157.973C50.9606 158.161 51.1896 158.289 51.4398 158.341C60.0798 160.045 66.9598 154.957 74.0318 150.949C75.2852 150.24 77.3412 149.942 80.1998 150.054Z" fill="#3A1F2C"/>
<path d="M100.92 156.278L100.808 153.262C105.72 153.816 110.587 153.934 115.408 153.614C115.664 153.592 115.827 153.704 115.896 153.95C116.528 156.142 115.688 157.942 118.424 159.23C118.547 159.289 118.648 159.385 118.715 159.503C118.782 159.622 118.812 159.758 118.8 159.894C118.416 164.246 114.408 164.83 110.84 165.142C110.719 165.151 110.598 165.122 110.495 165.059C110.392 164.996 110.311 164.902 110.264 164.79C108.44 160.347 105.325 157.51 100.92 156.278Z" fill="#FB9673"/>
<path d="M125.696 160.47C126.48 160.566 126.704 160.675 126.368 160.798C126.234 162.291 126.224 163.83 126.336 165.414C126.704 170.566 125.744 174.614 122.712 178.862C122.498 179.15 122.395 179.446 122.4 179.75L121.512 180.27C121.288 180.398 121.096 180.358 120.936 180.15C117.904 176.126 113.088 168.03 108.288 166.582C112.149 166.486 115.848 165.416 119.384 163.374C121.168 162.35 122.768 159.702 125.696 160.47Z" fill="#31A3A6"/>
<path d="M158.888 186.302C157.904 187.446 157.072 188.926 155.816 189.766C151.405 192.699 147.083 195.022 142.848 196.734L142.48 188.182C142.469 188.027 142.387 187.944 142.232 187.934L141.808 187.902C141.483 187.875 141.333 187.699 141.36 187.374C141.984 179.974 140.76 173.15 139.32 165.894C139.31 165.838 139.28 165.789 139.237 165.753C139.194 165.717 139.14 165.697 139.084 165.697C139.028 165.697 138.973 165.717 138.93 165.753C138.887 165.789 138.858 165.838 138.848 165.894C136.859 175.467 135.285 185.216 134.128 195.142C130.592 191.838 126.232 187.374 122.688 186.182C122.57 186.141 122.444 186.127 122.318 186.14C122.193 186.152 122.07 186.191 121.96 186.254C117.085 189.011 111.821 189.947 106.168 189.062C103.906 188.262 101.685 187.294 99.5036 186.158C97.3036 185.014 93.1756 179.878 92.2556 177.79C91.3596 175.766 89.3196 169.238 90.5276 167.278C90.677 167.033 90.765 167.054 90.7916 167.342C91.8076 177.678 96.5436 186.182 107.704 187.334C111.496 187.718 118.424 187.582 121.56 184.718L121.552 185.046C121.548 185.172 121.58 185.296 121.645 185.405C121.709 185.513 121.803 185.601 121.915 185.658C122.028 185.715 122.154 185.739 122.28 185.727C122.405 185.715 122.525 185.667 122.624 185.59C128.984 180.598 130.984 172.662 131.16 164.91C131.181 164.03 131.024 163.187 130.688 162.382C130.491 161.912 130.336 161.926 130.224 162.422C129.808 164.262 130.088 166.374 129.888 167.862C129.099 173.51 126.755 178.574 122.856 183.054C123.192 181.539 123.144 180.142 122.712 178.862C125.744 174.614 126.704 170.566 126.336 165.414C126.224 163.83 126.234 162.291 126.368 160.798C126.97 160.398 127.442 160.24 127.784 160.326C138.144 162.99 145.784 165.918 152.312 174.75C155.328 178.83 157.496 181.854 158.888 186.302Z" fill="#FDBC4C"/>
<path d="M95.808 174.686C100.928 184.614 114.472 189.846 122.4 179.75C122.395 179.446 122.498 179.15 122.712 178.862C123.144 180.142 123.192 181.539 122.856 183.054L121.56 184.718C118.424 187.582 111.496 187.718 107.704 187.334C96.5436 186.182 91.8076 177.678 90.7916 167.342C90.765 167.054 90.677 167.033 90.5276 167.278C89.3196 169.238 91.3596 175.766 92.2556 177.79C93.1756 179.878 97.3036 185.014 99.5036 186.158C101.685 187.294 103.906 188.262 106.168 189.062C101.128 192.558 97.3516 196.646 93.1276 201.102C93.0517 201.181 92.9489 201.229 92.8394 201.237C92.7299 201.244 92.6215 201.21 92.5356 201.142C91.6236 200.422 88.7039 201.206 87.3359 201.118C78.3039 199.63 72.1037 195.046 64.6077 190.886C62.3677 190.726 69.944 178.294 71.84 175.166C74.9013 170.121 79.5572 166.15 85.8079 163.254C87.9626 163.355 89.6212 162.728 90.7839 161.374C90.8682 161.274 90.9745 161.197 91.0941 161.147C91.2137 161.097 91.3432 161.076 91.4719 161.086C92.6026 161.171 93.1706 161.851 93.1759 163.126C93.1812 166.454 93.3146 169.31 93.5759 171.694C93.5907 171.816 93.639 171.932 93.7153 172.028C93.7916 172.124 93.8929 172.197 94.0079 172.238C95.4079 172.726 94.512 174.59 95.808 174.686ZM80.1521 198.326L83.7281 199.158C83.9414 199.206 84.0881 199.126 84.1681 198.918C85.2721 196.11 83.9921 194.398 84.3041 191.838C84.8481 187.331 85.2988 182.816 85.6561 178.294C85.8641 175.622 86.8321 173.35 87.6401 170.774C87.6464 170.757 87.6493 170.739 87.6487 170.721C87.6481 170.703 87.644 170.686 87.6365 170.669C87.6291 170.653 87.6186 170.638 87.6054 170.626C87.5923 170.614 87.5769 170.604 87.5601 170.598C87.5433 170.591 87.5254 170.589 87.5075 170.589C87.4895 170.59 87.4719 170.594 87.4555 170.601C87.4392 170.609 87.4245 170.619 87.4122 170.632C87.4 170.646 87.3904 170.661 87.3841 170.678C83.7148 179.264 81.0961 188.168 79.5281 197.39C79.4924 197.595 79.5371 197.806 79.6531 197.98C79.7691 198.154 79.9476 198.278 80.1521 198.326Z" fill="#FED44A"/>
<path d="M108.288 166.582C113.088 168.03 117.904 176.126 120.936 180.15C121.096 180.358 121.288 180.398 121.512 180.27L122.4 179.75C114.472 189.846 100.928 184.614 95.808 174.686C94.032 170.67 94.4319 166.902 94.3039 162.894C94.2986 162.707 94.3573 162.539 94.4799 162.39C95.2906 161.43 95.9573 161.36 96.4799 162.182C96.6293 162.422 96.8293 162.608 97.0799 162.742C100.536 164.64 104.272 165.92 108.288 166.582Z" fill="#8BC6BA"/>
<path d="M121.56 184.718L122.856 183.054C126.755 178.574 129.099 173.51 129.888 167.862C130.088 166.374 129.808 164.262 130.224 162.422C130.336 161.926 130.491 161.912 130.688 162.382C131.024 163.187 131.181 164.03 131.16 164.91C130.984 172.662 128.984 180.598 122.624 185.59C122.525 185.667 122.405 185.715 122.28 185.727C122.154 185.739 122.028 185.715 121.915 185.658C121.803 185.601 121.709 185.513 121.645 185.405C121.58 185.296 121.548 185.172 121.552 185.046L121.56 184.718Z" fill="#F69F3A"/>
<path d="M142.848 196.734L137.184 198.982C135.536 199.014 135.104 196.326 134.128 195.142C135.285 185.216 136.859 175.467 138.848 165.894C138.858 165.838 138.887 165.789 138.93 165.753C138.973 165.717 139.028 165.697 139.084 165.697C139.14 165.697 139.194 165.717 139.237 165.753C139.28 165.789 139.31 165.838 139.32 165.894C140.76 173.15 141.984 179.974 141.36 187.374C141.333 187.699 141.483 187.875 141.808 187.902L142.232 187.934C142.387 187.944 142.469 188.027 142.48 188.182L142.848 196.734Z" fill="#F69F3A"/>
<path d="M80.1521 198.326C79.9476 198.278 79.7691 198.154 79.6531 197.98C79.5371 197.806 79.4924 197.595 79.5281 197.39C81.0961 188.168 83.7148 179.264 87.3841 170.678C87.3904 170.661 87.4 170.646 87.4122 170.632C87.4245 170.619 87.4392 170.609 87.4555 170.601C87.4719 170.594 87.4895 170.59 87.5075 170.589C87.5254 170.589 87.5433 170.591 87.5601 170.598C87.5769 170.604 87.5923 170.614 87.6054 170.626C87.6186 170.638 87.6291 170.653 87.6365 170.669C87.644 170.686 87.6481 170.703 87.6487 170.721C87.6493 170.739 87.6464 170.757 87.6401 170.774C86.8321 173.35 85.8641 175.622 85.6561 178.294C85.2988 182.816 84.8481 187.331 84.3041 191.838C83.9921 194.398 85.2721 196.11 84.1681 198.918C84.0881 199.126 83.9414 199.206 83.7281 199.158L80.1521 198.326Z" fill="#FDBC4C"/>
<path d="M134.128 195.142C135.104 196.326 135.536 199.014 137.184 198.982C136.901 199.696 136.626 199.974 136.36 199.814C128.306 202.155 123.096 203.422 120.728 203.614C111.837 204.344 102.962 204.179 94.1036 203.118C93.7036 203.07 93.157 202.912 92.4636 202.646C90.5516 201.918 89.2719 202.35 87.3359 201.118C88.7039 201.206 91.6236 200.422 92.5356 201.142C92.6215 201.21 92.7299 201.244 92.8394 201.237C92.9489 201.229 93.0517 201.181 93.1276 201.102C97.3516 196.646 101.128 192.558 106.168 189.062C111.821 189.947 117.085 189.011 121.96 186.254C122.07 186.191 122.193 186.152 122.318 186.14C122.444 186.127 122.57 186.141 122.688 186.182C126.232 187.374 130.592 191.838 134.128 195.142Z" fill="#FED44A"/>
</svg>
