<svg width="214" height="216" viewBox="0 0 214 216" fill="none" xmlns="http://www.w3.org/2000/svg">
<path d="M120.523 0.768813C120.819 1.68881 119.5 1.78433 118.868 1.68833C116.324 1.28833 106.252 1.61635 107.556 6.06435C107.625 6.29902 107.561 6.491 107.364 6.64033C106.916 6.987 106.345 7.5817 105.652 8.42436C103.668 10.8404 96.4277 15.6883 96.0757 19.0083C96.0437 19.3123 95.8917 19.531 95.6197 19.6644C94.7024 20.1124 93.913 20.7203 93.2517 21.4883C93.065 21.7017 92.8303 21.827 92.5477 21.8644L87.2437 22.4883C73.7477 22.7043 55.6433 27.5681 48.5793 40.2641C46.2273 43.4695 44.7339 47.0428 44.0992 50.9841C44.0512 51.2828 43.8779 51.4534 43.5793 51.4961L41.9953 51.7201C36.6033 52.8828 34.8864 55.5337 36.8437 59.6724C32.2917 57.2484 24.2513 70.6564 22.7953 74.0804L22.0037 69.3123C21.9829 69.1955 21.9245 69.0889 21.8376 69.0092C21.7507 68.9296 21.6403 68.8814 21.5237 68.8724C20.2517 68.7844 14.7397 70.9603 14.1237 71.5843C10.8037 74.9203 8.88369 79.1924 5.95569 82.4724C5.34769 83.1524 4.31569 83.7604 4.21169 84.9204C3.98769 87.3737 3.39572 89.5017 2.43572 91.3043C2.29705 91.5603 2.27838 91.8243 2.37971 92.0963C2.78504 93.1683 2.66503 94.203 2.0197 95.2003C1.9237 95.3497 1.78769 95.4057 1.61169 95.3684C1.47836 95.3364 1.35572 95.347 1.24372 95.4003C4.83306 65.2403 18.2619 40.8324 41.5312 22.1764C65.0512 4.64037 91.3821 -2.49519 120.523 0.768813Z" fill="#FCCA73"/>
<path d="M120.523 0.768813C134.902 2.67281 148.323 7.24612 160.787 14.4888L160.499 14.8484C160.382 14.987 160.246 15.011 160.091 14.9204L159.883 14.7923C159.766 14.723 159.662 14.7363 159.571 14.8323C158.563 15.819 157.363 16.1817 155.971 15.9204C155.688 15.8617 155.454 15.9444 155.267 16.1684C154.91 16.5897 154.427 16.939 153.819 17.2164C151.878 18.0964 150.31 19.475 149.115 21.3524C148.976 21.5657 148.939 21.795 149.003 22.0403C149.667 24.5523 141.403 27.2004 140.475 27.3444C138.987 24.2884 134.252 18.0808 130.396 18.9608C128.972 19.2861 128.14 20.3661 127.9 22.2008C127.882 22.3284 127.9 22.4582 127.951 22.5766C128.002 22.6949 128.083 22.7973 128.188 22.8728C132.372 25.8888 136.988 28.9848 137.492 33.2088C137.886 36.4621 138.249 39.8061 138.58 43.2408C138.782 45.3528 138.356 45.4888 137.3 43.6488C131.772 33.9768 114.268 23.7288 103.084 23.5528C102.87 23.5528 102.766 23.6568 102.772 23.8648V24.1208L101.764 24.0168C97.0437 22.8701 92.2037 22.3603 87.2437 22.4883L92.5477 21.8644C92.8303 21.827 93.065 21.7017 93.2517 21.4883C93.913 20.7203 94.7024 20.1124 95.6197 19.6644C95.8917 19.531 96.0437 19.3123 96.0757 19.0083C96.4277 15.6883 103.668 10.8404 105.652 8.42436C106.345 7.5817 106.916 6.987 107.364 6.64033C107.561 6.491 107.625 6.29902 107.556 6.06435C106.252 1.61635 116.324 1.28833 118.868 1.68833C119.5 1.78433 120.819 1.68881 120.523 0.768813Z" fill="#FCC36A"/>
<path d="M160.787 14.4888C169.358 19.4755 177.12 25.5688 184.075 32.7688L181.947 32.2804C181.653 32.211 181.427 32.3017 181.267 32.5524C180.771 33.3097 180.064 33.7417 179.147 33.8484C178.891 33.875 178.685 33.9924 178.531 34.2004C177.339 35.7764 176.515 37.0564 174.795 38.3044C173.477 39.2644 172.264 40.443 171.155 41.8404C167.864 38.8057 164.683 36.894 161.611 36.1046C156.502 34.7926 151.435 35.9926 146.411 39.7046L151.315 32.1041C151.389 31.9868 151.435 31.8531 151.447 31.7147C151.458 31.5762 151.437 31.4372 151.383 31.3096C151.329 31.182 151.246 31.0696 151.139 30.9823C151.032 30.8949 150.906 30.8351 150.771 30.8081C148.315 30.3041 143.723 33.3921 141.547 34.9441L140.475 27.3444C141.403 27.2004 149.667 24.5523 149.003 22.0403C148.939 21.795 148.976 21.5657 149.115 21.3524C150.31 19.475 151.878 18.0964 153.819 17.2164C154.427 16.939 154.91 16.5897 155.267 16.1684C155.454 15.9444 155.688 15.8617 155.971 15.9204C157.363 16.1817 158.563 15.819 159.571 14.8323C159.662 14.7363 159.766 14.723 159.883 14.7923L160.091 14.9204C160.246 15.011 160.382 14.987 160.499 14.8484L160.787 14.4888Z" fill="#FCBA5E"/>
<path d="M140.475 27.3444L141.547 34.9441C140.848 36.7468 140.509 38.8726 140.53 41.3206C140.53 41.582 140.437 41.8033 140.25 41.9846C137.842 44.2806 140.162 46.2966 139.562 48.7286C139.426 49.2806 139.482 49.8406 140.074 49.9926C140.123 50.0046 140.174 50.0055 140.224 49.9951C140.273 49.9847 140.319 49.9633 140.359 49.9326C140.399 49.9019 140.432 49.8625 140.455 49.8175C140.477 49.7725 140.49 49.723 140.49 49.6726C140.538 48.0246 141.056 46.5393 142.042 45.2166C143.621 43.0886 145.078 41.2513 146.411 39.7046C151.435 35.9926 156.502 34.7926 161.611 36.1046C164.683 36.894 167.864 38.8057 171.155 41.8404C171.691 42.3044 176.411 46.6879 174.083 47.2399C167.659 39.5679 159.723 38.3919 151.859 45.0479L146.819 48.6325C146.727 48.6963 146.652 48.7816 146.601 48.8809C146.549 48.9803 146.523 49.0907 146.523 49.2026C146.524 49.3145 146.552 49.4246 146.605 49.5232C146.658 49.6218 146.734 49.706 146.827 49.7685C152.851 53.8645 156.315 59.9205 158.947 67.3605C162.11 76.3258 164.894 85.4085 167.299 94.6085C168.435 98.9685 165.947 102.848 169.507 106.44C169.006 107.598 169.054 108.15 169.651 108.097C169.742 108.089 169.832 108.104 169.916 108.139C169.999 108.175 170.072 108.23 170.13 108.3C170.187 108.37 170.227 108.453 170.245 108.541C170.264 108.63 170.26 108.722 170.235 108.809C168.641 114.302 165.849 118.254 161.859 120.665L162.723 117.905C165.694 112.374 166.411 106.729 164.875 100.969C164.139 96.1421 162.907 91.9447 161.179 88.3767C156.227 78.1207 152.419 66.9286 146.771 57.1126C145.787 55.4086 145.899 53.8646 145.907 52.0166C145.911 51.9005 145.875 51.7866 145.805 51.694C145.735 51.6015 145.635 51.536 145.522 51.5087C145.409 51.4814 145.29 51.494 145.185 51.5443C145.081 51.5946 144.996 51.6794 144.947 51.7846C140.667 60.3046 136.627 73.9126 139.955 83.2966L139.275 84.8562C135.366 78.5468 133.393 71.7792 133.355 64.5525C133.355 64.3018 133.278 64.2778 133.123 64.4805C125.726 74.3312 115.926 80.7658 103.723 83.7845C90.8754 87.1765 77.0751 86.7442 65.2031 80.6962C58.7551 76.9148 53.56 71.923 49.6187 65.7204L49.3953 64.2001L54.6913 67.9441C65.0833 73.7761 72.5866 78.5686 85.1786 78.3286C86.1279 78.3126 86.7679 78.0566 87.0986 77.5606C87.3439 77.1873 87.2586 76.9233 86.8426 76.7686L85.7706 76.3606C85.7218 76.3449 85.6797 76.3135 85.6506 76.2713C85.6216 76.2291 85.6073 76.1785 85.61 76.1274C85.6128 76.0762 85.6324 76.0274 85.6657 75.9885C85.6991 75.9497 85.7444 75.923 85.7946 75.9126C86.8773 75.6459 87.5679 74.982 87.8666 73.9206C96.1119 73.6113 104.235 72.1338 112.235 69.4885C112.915 69.2645 114.003 69.5605 113.979 70.3285C113.978 70.4291 114.004 70.5283 114.053 70.6158C114.103 70.7033 114.175 70.776 114.262 70.8264C114.349 70.8769 114.448 70.9033 114.549 70.9029C114.65 70.9026 114.748 70.8756 114.835 70.8245C122.179 66.4325 134.731 57.3925 137.267 48.9365C137.342 48.6965 137.302 48.4752 137.147 48.2725L126.507 34.5765C126.363 34.3845 126.176 34.3232 125.947 34.3925C125.051 34.6485 124.777 35.4938 125.123 36.9285C118.987 29.0085 113.082 26.8244 102.77 24.1204L102.772 23.8648C102.766 23.6568 102.87 23.5528 103.084 23.5528C114.268 23.7288 131.772 33.9768 137.3 43.6488C138.356 45.4888 138.782 45.3528 138.58 43.2408C138.249 39.8061 137.886 36.4621 137.492 33.2088C136.988 28.9848 132.372 25.8888 128.188 22.8728C128.083 22.7973 128.002 22.6949 127.951 22.5766C127.9 22.4582 127.882 22.3284 127.9 22.2008C128.14 20.3661 128.972 19.2861 130.396 18.9608C134.252 18.0808 138.987 24.2884 140.475 27.3444Z" fill="#FD9C26"/>
<path d="M101.762 24.0165C101.821 24.2991 101.816 24.555 101.747 24.7843C101.71 24.9002 101.636 25.0001 101.537 25.0671C101.438 25.1341 101.32 25.1642 101.203 25.1524C100.36 25.0777 99.592 25.291 98.8986 25.7923C98.7226 25.9203 98.5253 25.9924 98.3066 26.0084C92.2746 26.4617 86.4107 27.6937 80.7147 29.7044C80.4895 29.7867 80.3054 29.9564 80.2026 30.1764C79.5546 31.5844 78.3626 31.3764 77.3066 31.8244C74.2773 33.1204 71.5493 34.8644 69.1227 37.0564C68.824 37.323 68.864 37.395 69.2427 37.2724C69.8347 37.0804 70.3733 36.7337 70.8586 36.2323L73.0421 36.3441C73.2714 36.3548 73.4821 36.4241 73.6741 36.5521C73.9727 36.7548 74.1407 37.0295 74.1781 37.3761C74.2101 37.6535 74.3247 37.6934 74.5221 37.4961L74.8101 37.2081C75.0927 36.9255 75.1807 36.9761 75.0741 37.3601C74.1701 40.5041 70.4101 43.9441 67.8741 45.5521C66.2421 46.5841 65.6661 47.7281 64.3941 49.0641C64.2181 49.2508 64.1354 49.4721 64.146 49.7281L64.4261 57.1521C64.4421 57.4401 64.3301 57.6668 64.0901 57.8321C63.6634 58.1308 63.3968 58.5441 63.2901 59.0721C63.2649 59.2001 63.1903 59.3129 63.0825 59.3863C62.9747 59.4597 62.8423 59.4876 62.7141 59.4641L59.45 58.8801C59.1247 58.8214 59.0367 58.9388 59.1861 59.2321L60.1381 61.1521L61.722 63.7761L54.69 67.9441L49.394 64.2001C44.4607 56.2161 44.1888 48.2377 48.5781 40.2644C55.6421 27.5684 73.7462 22.7048 87.2422 22.4888C92.2022 22.3608 97.0425 22.8698 101.762 24.0165ZM49.298 55.1281C52.81 57.3761 54.65 52.7921 54.226 50.0801C54.2083 49.9609 54.1442 49.8533 54.0471 49.7802C53.9501 49.707 53.8277 49.674 53.706 49.6881C50.7673 50.0348 48.9273 51.6214 48.186 54.4481C48.1113 54.7254 48.2153 54.8854 48.498 54.9281L48.906 54.9761C49.0446 54.9975 49.1753 55.0481 49.298 55.1281Z" fill="#FED987"/>
<path d="M101.762 24.0165L102.77 24.1204C113.082 26.8244 118.987 29.0085 125.123 36.9285L124.835 38.3923C124.781 38.659 124.851 38.8883 125.043 39.0803C127.467 41.4883 126.827 45.2643 126.755 48.2883C126.753 48.3545 126.734 48.419 126.698 48.4748C126.662 48.5305 126.612 48.5753 126.552 48.6042C126.493 48.6332 126.426 48.6451 126.36 48.6388C126.294 48.6325 126.232 48.6081 126.179 48.5684C122.973 46.195 119.483 44.3497 115.707 43.0323C115.12 42.8243 115.061 42.923 115.531 43.3283L130.467 56.1444C130.546 56.212 130.61 56.2972 130.651 56.3933C130.693 56.4893 130.711 56.5937 130.706 56.6982C130.701 56.8027 130.671 56.9046 130.62 56.9958C130.569 57.0871 130.497 57.1653 130.411 57.2244C115.989 67.2617 100.123 71.8057 82.8107 70.8564C80.7573 70.7444 78.448 70.3043 75.8827 69.5363C78.944 65.867 82.4007 62.7072 86.2513 60.0565C86.9313 59.5845 87.9314 59.5765 88.2194 58.6805C88.2994 58.4298 88.43 58.2112 88.6114 58.0245L90.0513 56.5445C90.27 56.3205 90.3447 56.3605 90.2754 56.6645C90.1954 56.9899 90.0167 57.2699 89.7394 57.5045C89.7229 57.5247 89.7144 57.5496 89.7152 57.5751C89.716 57.6006 89.7261 57.6252 89.7438 57.6448C89.7615 57.6644 89.7858 57.6778 89.8127 57.6828C89.8395 57.6879 89.8673 57.6843 89.8914 57.6725C91.2194 56.6432 92.238 55.3712 92.9473 53.8565C93.07 53.5952 93.2647 53.4058 93.5314 53.2885C97.2034 51.7045 100.651 47.0325 103.139 43.9285C103.152 43.9154 103.162 43.8999 103.168 43.8829C103.175 43.866 103.178 43.8479 103.178 43.8297C103.178 43.8115 103.174 43.7936 103.166 43.7769C103.159 43.7602 103.149 43.7451 103.135 43.7325C103.122 43.7199 103.107 43.71 103.09 43.7034C103.073 43.6968 103.055 43.6936 103.037 43.6939C103.018 43.6943 103 43.6982 102.984 43.7056C102.967 43.7129 102.952 43.7234 102.939 43.7365C102.209 44.3925 101.505 45.0885 100.827 45.8245C100.805 45.8418 100.779 45.8487 100.753 45.844C100.727 45.8393 100.704 45.8233 100.687 45.7988C100.67 45.7742 100.661 45.7427 100.66 45.7095C100.659 45.6762 100.667 45.6434 100.683 45.6165C101.633 44.4752 102.617 43.3579 103.635 42.2645C103.806 42.0832 103.929 41.8725 104.003 41.6325C104.275 40.7472 104.803 40.1632 105.587 39.8805C105.727 39.8309 105.851 39.7444 105.946 39.6301C106.041 39.5158 106.103 39.378 106.126 39.2313C106.149 39.0846 106.132 38.9344 106.076 38.7966C106.021 38.6588 105.929 38.5385 105.811 38.4485L104.851 37.7205C104.627 37.5445 104.558 37.3205 104.643 37.0485C105.038 35.7952 105.737 34.7152 106.739 33.8085C106.942 33.6325 107.174 33.5525 107.435 33.5685C107.974 33.5952 108.422 33.4245 108.779 33.0565C108.862 32.9701 108.921 32.8632 108.949 32.7466C108.976 32.63 108.973 32.5079 108.938 32.3927C108.903 32.2774 108.838 32.173 108.75 32.0901C108.662 32.0072 108.553 31.9487 108.435 31.9205L102.451 30.5445C102.185 30.4859 101.918 30.4965 101.651 30.5765C100.905 30.8112 100.273 30.7019 99.7553 30.2485C99.5313 30.0459 99.27 29.9552 98.9714 29.9765C96.934 30.1205 93.6514 30.2725 89.1234 30.4325C82.8194 30.6565 76.7306 32.5897 70.8586 36.2323C70.3733 36.7337 69.8347 37.0804 69.2427 37.2724C68.864 37.395 68.824 37.323 69.1227 37.0564C71.5493 34.8644 74.2773 33.1204 77.3066 31.8244C78.3626 31.3764 79.5546 31.5844 80.2026 30.1764C80.3054 29.9564 80.4895 29.7867 80.7147 29.7044C86.4107 27.6937 92.2746 26.4617 98.3066 26.0084C98.5253 25.9924 98.7226 25.9203 98.8986 25.7923C99.592 25.291 100.36 25.0777 101.203 25.1524C101.32 25.1642 101.438 25.1341 101.537 25.0671C101.636 25.0001 101.71 24.9002 101.747 24.7843C101.816 24.555 101.821 24.2991 101.762 24.0165Z" fill="#FCBA5E"/>
<path d="M75.8827 69.5363C70.1974 67.755 65.307 64.8563 61.211 60.8403C61.0083 60.643 60.787 60.6136 60.547 60.7523C60.3657 60.8536 60.2287 60.9868 60.1381 61.1521L59.1861 59.2321C59.0367 58.9388 59.1247 58.8214 59.45 58.8801L62.7141 59.4641C62.8423 59.4876 62.9747 59.4597 63.0825 59.3863C63.1903 59.3129 63.2649 59.2001 63.2901 59.0721C63.3968 58.5441 63.6634 58.1308 64.0901 57.8321C64.3301 57.6668 64.4421 57.4401 64.4261 57.1521L64.146 49.7281C64.1354 49.4721 64.2181 49.2508 64.3941 49.0641C65.6661 47.7281 66.2421 46.5841 67.8741 45.5521C70.4101 43.9441 74.1701 40.5041 75.0741 37.3601C75.1807 36.9761 75.0927 36.9255 74.8101 37.2081L74.5221 37.4961C74.3247 37.6934 74.2101 37.6535 74.1781 37.3761C74.1407 37.0295 73.9727 36.7548 73.6741 36.5521C73.4821 36.4241 73.2714 36.3548 73.0421 36.3441L70.8586 36.2323C76.7306 32.5897 82.8181 30.6565 89.1221 30.4325C93.6501 30.2725 96.9327 30.1205 98.9701 29.9765C99.2687 29.9552 99.5301 30.0459 99.7541 30.2485C100.271 30.7019 100.903 30.8112 101.65 30.5765C101.917 30.4965 102.183 30.4859 102.45 30.5445L108.434 31.9205C108.552 31.9487 108.66 32.0072 108.748 32.0901C108.837 32.173 108.902 32.2774 108.936 32.3927C108.971 32.5079 108.975 32.6301 108.947 32.7466C108.919 32.8632 108.861 32.9701 108.778 33.0565C108.421 33.4245 107.973 33.5952 107.434 33.5685C107.173 33.5525 106.941 33.6325 106.738 33.8085C105.735 34.7152 105.037 35.7952 104.642 37.0485C104.557 37.3205 104.626 37.5445 104.85 37.7205L105.81 38.4485C105.928 38.5385 106.02 38.6588 106.075 38.7966C106.131 38.9344 106.148 39.0846 106.125 39.2313C106.102 39.378 106.04 39.5158 105.945 39.6301C105.85 39.7444 105.726 39.8309 105.586 39.8805C104.802 40.1632 104.274 40.7472 104.002 41.6325C103.927 41.8725 103.805 42.0832 103.634 42.2645C102.615 43.3579 101.631 44.4752 100.682 45.6165C100.666 45.6434 100.658 45.6762 100.659 45.7095C100.659 45.7427 100.669 45.7742 100.686 45.7988C100.703 45.8233 100.726 45.8393 100.752 45.844C100.777 45.8487 100.804 45.8418 100.826 45.8245C101.503 45.0885 102.207 44.3925 102.938 43.7365C102.951 43.7234 102.966 43.7129 102.982 43.7056C102.999 43.6982 103.017 43.6943 103.035 43.6939C103.053 43.6936 103.072 43.6968 103.088 43.7034C103.105 43.71 103.121 43.7199 103.134 43.7325C103.147 43.7451 103.158 43.7602 103.165 43.7769C103.172 43.7936 103.176 43.8115 103.177 43.8297C103.177 43.8479 103.174 43.866 103.167 43.8829C103.161 43.8999 103.151 43.9154 103.138 43.9285C100.65 47.0325 97.2021 51.7045 93.5301 53.2885C93.2634 53.4058 93.0687 53.5952 92.946 53.8565C92.2367 55.3712 91.2181 56.6432 89.8901 57.6725C89.866 57.6843 89.8382 57.6879 89.8114 57.6828C89.7845 57.6778 89.7602 57.6644 89.7425 57.6448C89.7248 57.6252 89.7147 57.6006 89.7139 57.5751C89.7131 57.5496 89.7216 57.5247 89.7381 57.5045C90.0154 57.2699 90.1941 56.9899 90.2741 56.6645C90.3434 56.3605 90.2687 56.3205 90.05 56.5445L88.6101 58.0245C88.4287 58.2112 88.2981 58.4298 88.2181 58.6805C87.9301 59.5765 86.93 59.5845 86.25 60.0565C82.3994 62.7072 78.944 65.867 75.8827 69.5363Z" fill="#FCCA73"/>
<path d="M146.411 39.7046C145.078 41.2513 143.621 43.0886 142.042 45.2166C141.056 46.5393 140.538 48.0246 140.49 49.6726C140.49 49.723 140.477 49.7725 140.455 49.8175C140.432 49.8625 140.399 49.9019 140.359 49.9326C140.319 49.9633 140.273 49.9847 140.224 49.9951C140.174 50.0055 140.123 50.0046 140.074 49.9926C139.482 49.8406 139.426 49.2806 139.562 48.7286C140.162 46.2966 137.842 44.2806 140.25 41.9846C140.437 41.8033 140.53 41.582 140.53 41.3206C140.509 38.8726 140.848 36.7468 141.547 34.9441C143.723 33.3921 148.315 30.3041 150.771 30.8081C150.906 30.8351 151.032 30.8949 151.139 30.9823C151.246 31.0696 151.329 31.182 151.383 31.3096C151.437 31.4372 151.458 31.5762 151.447 31.7147C151.435 31.8531 151.389 31.9868 151.315 32.1041L146.411 39.7046Z" fill="#ED6926"/>
<path d="M184.075 32.7688C199.627 49.0248 209.081 68.3228 212.435 90.6641C212.179 90.8775 211.939 90.9445 211.715 90.8645C211.449 90.7632 211.297 90.5712 211.259 90.2885L210.499 84.9365C210.474 84.7523 210.412 84.575 210.315 84.4154C210.219 84.2559 210.091 84.1174 209.939 84.0085L209.107 83.4085C208.883 83.2432 208.819 83.0299 208.915 82.7685C209.577 80.9765 209.467 79.2325 208.587 77.5365C208.533 77.4316 208.453 77.3424 208.353 77.2779C208.253 77.2134 208.138 77.1757 208.019 77.1685L207.523 77.1285C207.193 77.1018 207.025 76.9232 207.019 76.5925C207.014 74.5765 206.318 72.8565 204.931 71.4325C204.755 71.2458 204.638 71.0245 204.579 70.7685C204.409 69.9685 204.067 69.2512 203.555 68.6165C203.529 68.5845 203.51 68.5738 203.499 68.5845L203.331 68.7765C203.235 68.8885 203.142 68.8832 203.051 68.7605C201.638 66.8352 199.817 66.5578 197.587 67.9285C197.342 68.0832 197.155 68.2939 197.027 68.5605L196.003 70.7285C195.902 70.9418 195.763 70.9658 195.587 70.8005C195.235 70.4752 194.881 70.3125 194.523 70.3125L183.906 63.0399C183.677 62.8852 183.6 62.9413 183.674 63.2079L185.931 70.8805C186.433 72.1232 186.998 73.3019 187.627 74.4166C191.203 80.7526 190.075 89.0166 186.667 95.0965C185.363 97.4246 184.595 99.1686 183.723 101.361C183.632 101.595 183.715 101.715 183.971 101.721C184.472 101.731 184.803 101.521 184.963 101.089C185.624 99.2592 186.795 98.1765 188.475 97.8405C189.939 98.8565 191.323 100.041 192.603 98.0086C193.654 96.3392 194.195 94.5312 194.227 92.5845C194.232 92.3339 194.36 92.1979 194.611 92.1766C195.176 92.1339 195.715 91.9792 196.227 91.7126C197.102 91.8299 197.603 92.3472 197.731 93.2646C197.779 93.6219 197.981 93.7686 198.339 93.7046L200.955 93.2246C201.163 93.1872 201.307 93.2646 201.387 93.4566L202.275 95.6086C205.339 101.313 211.491 108.105 207.547 114.737C204.64 119.627 201.019 123.403 196.683 126.065C195.088 127.211 193.517 127.846 191.971 127.968C191.091 128.043 190.405 127.71 189.915 126.968C189.776 126.763 189.564 126.62 189.323 126.568C185.755 125.832 184.171 124.016 184.523 120.32C184.539 120.146 184.599 119.978 184.698 119.833C184.797 119.688 184.932 119.571 185.089 119.493C185.246 119.414 185.42 119.377 185.595 119.385C185.771 119.392 185.941 119.444 186.091 119.536C193.971 124.336 200.995 118 200.019 109.576C199.991 109.342 199.89 109.122 199.729 108.948C199.568 108.774 199.356 108.655 199.123 108.608C196.979 108.176 195.843 109.024 194.707 110.888C192.915 113.848 190.469 116.03 187.371 117.432C187.297 117.467 187.214 117.473 187.136 117.45C187.058 117.428 186.99 117.378 186.947 117.309C186.903 117.241 186.885 117.159 186.897 117.079C186.909 116.999 186.949 116.925 187.011 116.872C189.016 115.16 190.4 112.998 191.163 110.384C191.589 108.934 191.088 108.456 189.659 108.952C186.896 109.923 184.059 110.611 181.147 111.016C180.96 111.043 180.851 111.147 180.819 111.328C180.509 112.928 180.099 114.512 179.587 116.08C177.531 122.336 182.491 125.712 187.851 127C188.064 127.054 188.171 127.19 188.171 127.408V127.752C188.171 127.806 188.16 127.859 188.138 127.908C188.116 127.957 188.083 128.001 188.042 128.037C188.001 128.072 187.953 128.099 187.901 128.115C187.848 128.131 187.793 128.135 187.739 128.128C180.907 127.312 177.467 127.432 174.483 120.208C174.131 119.254 174.173 118.379 174.61 117.584C176.093 114.896 177.496 112.139 178.818 109.312C178.936 109.067 178.906 108.843 178.73 108.64L176.882 106.472C176.237 104.909 176.149 103.486 176.618 102.2C178.906 95.9604 180.256 89.8777 180.666 83.9524C180.922 79.3657 180.731 74.9577 180.091 70.7283L178.459 63.2487C178.446 63.1923 178.454 63.1332 178.48 63.0818C178.507 63.0304 178.55 62.9898 178.603 62.967C178.656 62.9442 178.716 62.9407 178.771 62.9571C178.827 62.9735 178.875 63.0087 178.907 63.0567L179.459 63.8727C179.667 64.1767 179.901 64.198 180.163 63.9367L182.363 61.7207C182.447 61.6367 182.504 61.5288 182.526 61.4115C182.547 61.2942 182.532 61.1732 182.483 61.0647C180.227 56.1154 177.427 51.5066 174.083 47.2399C176.411 46.6879 171.691 42.3044 171.155 41.8404C172.264 40.443 173.477 39.2644 174.795 38.3044C176.515 37.0564 177.339 35.7764 178.531 34.2004C178.685 33.9924 178.891 33.875 179.147 33.8484C180.064 33.7417 180.771 33.3097 181.267 32.5524C181.427 32.3017 181.653 32.211 181.947 32.2804L184.075 32.7688ZM185.979 107.328C186.454 107.43 186.76 107.472 186.899 107.456C189.987 107.08 193.003 106.048 196.171 106.28C197.515 106.376 198.883 106.451 200.275 106.504C200.595 106.515 200.699 106.368 200.587 106.064C200.006 104.512 198.984 103.374 197.523 102.648C197.262 102.52 197.024 102.555 196.811 102.752C196.443 103.099 196.088 103.232 195.747 103.152C191.987 102.32 188.616 103.024 185.635 105.264C185.438 105.408 185.304 105.598 185.235 105.832C184.979 106.675 185.227 107.174 185.979 107.328Z" fill="#FAA83F"/>
<path d="M87.8666 73.9206C77.3066 74.1873 68.5924 70.8058 61.723 63.7764L60.139 61.1525C60.2297 60.9872 60.3657 60.8536 60.547 60.7523C60.787 60.6136 61.0083 60.643 61.211 60.8403C65.307 64.8563 70.1974 67.755 75.8827 69.5363C78.448 70.3043 80.7573 70.7444 82.8107 70.8564C100.123 71.8057 115.989 67.2617 130.411 57.2244C130.497 57.1653 130.569 57.0871 130.62 56.9958C130.671 56.9046 130.701 56.8027 130.706 56.6982C130.711 56.5937 130.693 56.4893 130.651 56.3933C130.61 56.2972 130.546 56.212 130.467 56.1444L115.531 43.3283C115.061 42.923 115.12 42.8243 115.707 43.0323C119.483 44.3497 122.973 46.195 126.179 48.5684C126.232 48.6081 126.294 48.6325 126.36 48.6388C126.426 48.6451 126.493 48.6332 126.552 48.6042C126.612 48.5753 126.662 48.5305 126.698 48.4748C126.734 48.419 126.753 48.3545 126.755 48.2883C126.827 45.2643 127.467 41.4883 125.043 39.0803C124.851 38.8883 124.781 38.659 124.835 38.3923L125.123 36.9285C124.777 35.4938 125.051 34.6485 125.947 34.3925C126.176 34.3232 126.363 34.3845 126.507 34.5765L137.147 48.2725C137.302 48.4752 137.342 48.6965 137.267 48.9365C134.731 57.3925 122.179 66.4325 114.835 70.8245C114.748 70.8756 114.65 70.9026 114.549 70.9029C114.448 70.9033 114.349 70.8769 114.262 70.8264C114.175 70.776 114.103 70.7033 114.053 70.6158C114.004 70.5283 113.978 70.4291 113.979 70.3285C114.003 69.5605 112.915 69.2645 112.235 69.4885C104.235 72.1338 96.1119 73.6113 87.8666 73.9206Z" fill="#FB8A30"/>
<path d="M48.5793 40.2641C44.1899 48.2375 44.462 56.2161 49.3953 64.2001L49.6187 65.7204C49.3573 65.6884 49.1227 65.7368 48.9147 65.8648C48.7333 65.9768 48.56 65.9661 48.3947 65.8327C47.9147 65.4434 47.5013 65.5208 47.1547 66.0648C44.456 61.9954 43.232 57.6137 43.4827 52.9204C43.4934 52.6217 43.352 52.451 43.0587 52.4084C42.2853 52.3017 41.9313 52.0721 41.9953 51.7201L43.5793 51.4961C43.8779 51.4534 44.0512 51.2828 44.0992 50.9841C44.7339 47.0428 46.2273 43.4695 48.5793 40.2641Z" fill="#ED6926"/>
<path d="M174.083 47.2399C177.427 51.5066 180.227 56.1154 182.483 61.0647C182.532 61.1732 182.547 61.2942 182.526 61.4115C182.504 61.5288 182.447 61.6367 182.363 61.7207L180.163 63.9367C179.901 64.198 179.667 64.1767 179.459 63.8727L178.907 63.0567C178.875 63.0087 178.827 62.9735 178.771 62.9571C178.716 62.9407 178.656 62.9442 178.603 62.967C178.55 62.9898 178.507 63.0304 178.48 63.0818C178.454 63.1332 178.446 63.1923 178.459 63.2487L180.091 70.7283C179.493 71.5497 178.296 71.5738 176.499 70.8005C176.386 70.7511 176.288 70.674 176.212 70.5762C176.137 70.4784 176.087 70.363 176.067 70.2405C175.771 68.2245 175.019 66.4565 174.651 64.4965C173.339 57.6432 170.123 52.2938 165.003 48.4485C161.523 45.7125 157.987 47.9359 154.755 49.6159L151.859 45.0479C159.723 38.3919 167.659 39.5679 174.083 47.2399Z" fill="#FCCA73"/>
<path d="M151.859 45.0479L154.755 49.6159C155.769 53.0026 156.661 55.4297 157.435 56.8964C161.605 64.8537 165.651 72.8937 169.571 81.0164C169.612 81.0984 169.676 81.1666 169.756 81.2126C169.835 81.2586 169.927 81.2804 170.018 81.2753C170.11 81.2702 170.198 81.2384 170.272 81.1839C170.346 81.1294 170.403 81.0545 170.435 80.9684C171.315 78.5684 173.395 77.8323 174.891 75.9923C175.061 75.7843 175.144 75.5444 175.139 75.2724C174.771 65.5017 171.392 56.5605 165.003 48.4485C170.123 52.2938 173.339 57.6432 174.651 64.4965C175.019 66.4565 175.771 68.2245 176.067 70.2405C176.087 70.363 176.137 70.4784 176.212 70.5762C176.288 70.674 176.386 70.7511 176.499 70.8005C178.296 71.5738 179.493 71.5497 180.091 70.7283C180.731 74.9577 180.922 79.3657 180.666 83.9524C178.714 90.5844 178.019 96.2484 173.027 99.5204C172.797 99.675 172.717 99.8857 172.787 100.152C172.888 100.504 173.104 100.875 173.435 101.264C170.675 102.152 170.875 104.192 170.475 106.528C170.427 106.8 170.265 106.942 169.987 106.953C169.79 106.958 169.63 106.787 169.507 106.44C165.947 102.848 168.435 98.9685 167.299 94.6085C164.894 85.4085 162.11 76.3258 158.947 67.3605C156.315 59.9205 152.851 53.8645 146.827 49.7685C146.734 49.706 146.658 49.6218 146.605 49.5232C146.552 49.4246 146.524 49.3145 146.523 49.2026C146.523 49.0907 146.549 48.9803 146.601 48.8809C146.652 48.7816 146.727 48.6963 146.819 48.6325L151.859 45.0479Z" fill="#FCBA5E"/>
<path d="M165.003 48.4485C171.392 56.5605 174.771 65.5017 175.139 75.2724C175.144 75.5444 175.061 75.7843 174.891 75.9923C173.395 77.8323 171.315 78.5684 170.435 80.9684C170.403 81.0545 170.346 81.1294 170.272 81.1839C170.198 81.2384 170.11 81.2702 170.018 81.2753C169.927 81.2804 169.835 81.2586 169.756 81.2126C169.676 81.1666 169.612 81.0984 169.571 81.0164C165.651 72.8937 161.605 64.8537 157.435 56.8964C156.661 55.4297 155.768 53.0034 154.755 49.6167C157.987 47.9367 161.523 45.7125 165.003 48.4485Z" fill="#FED987"/>
<path d="M48.906 54.9761L48.498 54.9281C48.2153 54.8854 48.1113 54.7254 48.186 54.4481C48.9273 51.6214 50.7673 50.0348 53.706 49.6881C53.8277 49.674 53.9501 49.707 54.0471 49.7802C54.1442 49.8533 54.2083 49.9609 54.226 50.0801C54.65 52.7921 52.81 57.3761 49.298 55.1281C49.1753 55.0481 49.0446 54.9975 48.906 54.9761Z" fill="#FCE8A3"/>
<path d="M164.875 100.968C161.798 100.173 158.152 98.7202 153.939 96.6082C149.853 94.5548 146.427 92.1495 143.659 89.3922C141.899 87.6322 141.275 85.4726 139.955 83.2966C136.627 73.9126 140.667 60.3046 144.947 51.7846C144.996 51.6794 145.081 51.5946 145.185 51.5443C145.29 51.494 145.409 51.4814 145.522 51.5087C145.635 51.536 145.735 51.6015 145.805 51.694C145.875 51.7866 145.911 51.9005 145.907 52.0166C145.899 53.8646 145.787 55.4086 146.771 57.1126C152.419 66.9286 156.227 78.1207 161.179 88.3767C162.907 91.9447 164.139 96.1412 164.875 100.968Z" fill="#FCC36A"/>
<path d="M41.9953 51.7201C41.9313 52.0721 42.2853 52.3017 43.0587 52.4084C43.352 52.451 43.4934 52.6217 43.4827 52.9204C43.232 57.6137 44.456 61.9954 47.1547 66.0648C47.1493 66.0861 47.1444 66.1041 47.139 66.1201C46.3017 66.1895 45.616 66.7364 45.0827 67.7604L43.0265 66.568L40.9062 65.0087L37.9702 64.9206C37.8279 64.9169 37.6904 64.8699 37.5758 64.7859C37.4612 64.7018 37.3749 64.5845 37.3281 64.4495C37.2814 64.3145 37.2764 64.168 37.3139 64.0293C37.3514 63.8906 37.4296 63.7663 37.5382 63.6726C38.6049 62.7712 38.7116 62.0512 37.8582 61.5126C37.2769 61.1179 36.9397 60.5044 36.8437 59.6724C34.8864 55.5337 36.6033 52.8828 41.9953 51.7201Z" fill="#FAA83F"/>
<path d="M36.8437 59.6724C36.9397 60.5044 37.2783 61.1178 37.8596 61.5125C38.0409 62.0511 37.9685 62.4245 37.6431 62.6325C34.9151 64.4165 32.8351 65.8165 31.0111 68.7365C29.6431 70.9125 27.8271 73.0886 26.9391 75.3046C25.9471 77.7846 25.3524 80.3739 25.1551 83.0726C25.1498 83.0886 25.1551 83.0992 25.1711 83.1046C25.2511 83.1312 25.3231 83.1472 25.3871 83.1526C25.5045 83.1686 25.5738 83.1179 25.5951 83.0005C27.2965 74.4672 32.4009 68.4698 40.9076 65.0085L43.0276 66.5685C42.9316 68.5685 40.3876 69.1765 39.2996 70.7605C38.4089 72.0565 37.8676 72.8165 37.6756 73.0405C34.4063 76.8165 32.0969 81.1311 30.7476 85.9845C30.4676 86.9925 29.4596 87.8965 29.3716 88.6885C29.0249 91.9738 29.4569 95.0778 30.6676 98.0005C29.6329 99.3445 29.1129 100.624 29.1076 101.84L27.2432 107.377C26.1072 107.865 25.6352 107.049 25.4672 106.105C25.1632 101.257 23.7656 96.8642 21.275 92.9282C21.4296 92.1815 21.0166 91.6857 20.0352 91.4403C19.92 91.4107 19.7993 91.4106 19.6846 91.44C19.5699 91.4694 19.4648 91.5273 19.3792 91.6083C17.8912 93.0323 16.8752 94.6884 16.3312 96.5764C14.6299 98.267 13.2353 100.243 12.1473 102.505C12.0193 102.777 12.0967 102.859 12.3793 102.753L17.7073 100.673C17.5847 103.158 16.1954 104.712 13.5394 105.336C13.2964 105.393 13.081 105.535 12.9314 105.736C9.13136 110.72 11.4514 117.592 15.4274 121.504C16.2194 122.28 16.1633 123.024 15.1073 123.464C11.4167 120.6 8.96359 117.555 7.74759 114.328C4.04359 104.528 13.4996 96.1605 18.0516 88.3445C20.5796 84.0085 21.2033 78.7444 22.7953 74.0804C24.2513 70.6564 32.2917 57.2484 36.8437 59.6724Z" fill="#FCE8A3"/>
<path d="M37.8596 61.5125C38.7129 62.0511 38.6049 62.7712 37.5382 63.6726C37.4296 63.7663 37.3514 63.8906 37.3139 64.0293C37.2764 64.168 37.2814 64.3145 37.3281 64.4495C37.3749 64.5845 37.4612 64.7018 37.5758 64.7859C37.6904 64.8699 37.8279 64.9169 37.9702 64.9206L40.9076 65.0085C32.4009 68.4698 27.2965 74.4672 25.5951 83.0005C25.5738 83.1179 25.5045 83.1686 25.3871 83.1526C25.3231 83.1472 25.2511 83.1312 25.1711 83.1046C25.1551 83.0992 25.1498 83.0886 25.1551 83.0726C25.3524 80.3739 25.9471 77.7846 26.9391 75.3046C27.8271 73.0886 29.6431 70.9125 31.0111 68.7365C32.8351 65.8165 34.9151 64.4165 37.6431 62.6325C37.9685 62.4245 38.0409 62.0511 37.8596 61.5125Z" fill="#FCC36A"/>
<path d="M194.522 70.3119C197.013 72.5573 198.602 75.2719 199.29 78.4559C195.461 74.5573 191.008 72.0319 185.93 70.8799L183.674 63.2079C183.6 62.9413 183.677 62.8852 183.906 63.0399L194.522 70.3119Z" fill="#FB8A30"/>
<path d="M61.723 63.7764C68.5924 70.8058 77.3066 74.1873 87.8666 73.9206C87.5679 74.982 86.8773 75.6459 85.7946 75.9126C85.7444 75.923 85.6991 75.9497 85.6657 75.9885C85.6324 76.0274 85.6128 76.0762 85.61 76.1274C85.6073 76.1785 85.6216 76.2291 85.6506 76.2713C85.6797 76.3135 85.7218 76.3449 85.7706 76.3606L86.8426 76.7686C87.2586 76.9233 87.3439 77.1873 87.0986 77.5606C86.7679 78.0566 86.1279 78.3126 85.1786 78.3286C72.5866 78.5686 65.0833 73.7761 54.6913 67.9441L61.723 63.7764Z" fill="#FCBA5E"/>
<path d="M139.274 84.8565C139.637 85.0485 139.911 85.3525 140.098 85.7685C140.231 86.0672 140.138 86.2565 139.818 86.3365L139.546 86.4005C138.516 85.6272 137.568 84.2695 136.698 82.3282L133.042 71.6565C132.998 71.531 132.924 71.4183 132.826 71.3286C132.729 71.2389 132.61 71.1752 132.482 71.1433C132.354 71.1114 132.22 71.1124 132.092 71.1462C131.965 71.18 131.849 71.2454 131.754 71.3365C127.674 75.2405 119.09 81.8325 113.482 82.5125C110.066 82.9205 107.77 83.8005 104.762 84.5285C104.415 84.6138 104.069 84.3658 103.722 83.7845C115.925 80.7658 125.725 74.3312 133.122 64.4805C133.277 64.2778 133.354 64.3018 133.354 64.5525C133.391 71.7792 135.365 78.5472 139.274 84.8565Z" fill="#B7291B"/>
<path d="M49.6187 65.7204C53.56 71.923 58.7551 76.9148 65.2031 80.6962C64.7924 80.9095 64.3872 80.9947 63.9872 80.9521C63.7094 80.9212 63.4526 80.7871 63.2672 80.5761C62.8192 80.0534 62.2672 79.7467 61.6112 79.6561C61.3445 79.6241 61.2432 79.7387 61.3072 80.0001C61.4779 80.6667 61.2192 81.0721 60.5312 81.2161C60.2912 80.7734 60.0115 80.5207 59.6915 80.4567C59.3768 80.3927 59.2461 80.5207 59.2994 80.8407C60.3634 87.1687 57.2915 90.0807 52.1875 94.1287C52.2835 93.3607 52.1362 92.6696 51.7468 92.0563C52.9788 90.6563 56.4506 87.9688 54.2746 85.9768C54.1891 85.8984 54.0819 85.8475 53.9665 85.8304C53.8511 85.8133 53.7328 85.8308 53.6266 85.8807C50.7039 87.2514 48.3226 89.2434 46.4826 91.8568C46.4216 91.9385 46.3351 91.9975 46.2367 92.0243C46.1383 92.0511 46.0338 92.0441 45.9398 92.0045C45.8458 91.9648 45.7678 91.8949 45.7183 91.8058C45.6688 91.7166 45.6506 91.6135 45.6666 91.5128C46.2186 88.6248 46.6026 86.1528 48.0186 83.5768C49.3786 81.1128 50.7652 78.6541 52.1786 76.2007C52.2417 76.0945 52.2821 75.9757 52.2973 75.8519C52.3124 75.728 52.302 75.6017 52.2666 75.4807C51.8986 74.2381 51.2692 73.1794 50.3786 72.3047L48.6907 68.3923L47.139 66.1201C47.1444 66.1041 47.1493 66.0861 47.1547 66.0648C47.5013 65.5208 47.9147 65.4434 48.3947 65.8327C48.56 65.9661 48.7333 65.9768 48.9147 65.8648C49.1227 65.7368 49.3573 65.6884 49.6187 65.7204Z" fill="#C15227"/>
<path d="M47.139 66.1201L48.6907 68.3923C40.4667 73.8803 32.1303 83.6483 35.3303 94.1603C35.3996 94.3843 35.549 94.4723 35.7783 94.4243C36.8076 94.2216 37.6023 93.6723 38.1623 92.7763C37.5916 95.8696 38.5568 98.4406 41.0581 100.489C41.3461 100.723 41.4981 100.654 41.5141 100.281L41.6901 95.5126C42.9541 97.3579 43.7036 99.3952 43.9383 101.625C44.0143 102.327 43.8566 103.035 43.4893 103.639C43.1221 104.244 42.5657 104.711 41.9062 104.969C41.5009 105.123 40.8396 105.374 39.9222 105.721C36.2022 107.113 32.2182 104.088 29.1062 101.84C29.1116 100.624 29.6317 99.3448 30.6664 98.0008C32.2344 101.009 34.6192 103.28 37.8192 104.816C37.8902 104.853 37.9716 104.863 38.0489 104.845C38.1262 104.827 38.1944 104.781 38.2414 104.715C38.2884 104.65 38.3112 104.57 38.3056 104.489C38.3001 104.408 38.2666 104.331 38.2112 104.272C25.8352 91.1202 33.0267 77.4244 45.0827 67.7604C45.616 66.7364 46.3017 66.1895 47.139 66.1201Z" fill="#FCCA73"/>
<path d="M43.0265 66.568L45.0827 67.7604C33.0267 77.4244 25.8352 91.1202 38.2112 104.272C38.2666 104.331 38.3001 104.408 38.3056 104.489C38.3112 104.57 38.2884 104.65 38.2414 104.715C38.1944 104.781 38.1262 104.827 38.0489 104.845C37.9716 104.863 37.8902 104.853 37.8192 104.816C34.6192 103.28 32.2344 101.009 30.6664 98.0008C29.4557 95.0781 29.0237 91.9741 29.3704 88.6888C29.4584 87.8968 30.4664 86.9928 30.7464 85.9848C32.0957 81.1314 34.4051 76.8168 37.6744 73.0408C37.8664 72.8168 38.4077 72.0568 39.2984 70.7608C40.3864 69.1768 42.9305 68.568 43.0265 66.568Z" fill="#FB8A30"/>
<path d="M212.435 90.6641C214.473 106.797 213.483 122.528 209.467 137.856C200.131 170.88 176.571 197.368 144.427 209.456C143.397 209.222 142.891 208.793 142.907 208.169C143.115 198.785 140.531 188.529 132.803 182.713C138.92 181.87 144.022 179.566 148.107 175.801C148.899 175.073 149.883 174.593 150.787 174.073C151.019 173.933 151.295 173.882 151.563 173.929C162.283 175.713 172.083 170.209 177.531 161.337C177.67 161.113 177.747 160.87 177.763 160.609C177.811 159.689 178.251 159.393 179.179 159.385C189.515 159.321 196.003 152.841 201.083 144.761C201.121 144.693 201.133 144.615 201.117 144.539C201.101 144.464 201.059 144.397 200.998 144.35C200.936 144.303 200.86 144.28 200.783 144.285C200.707 144.29 200.634 144.322 200.579 144.377L198.531 146.577C198.334 146.785 198.112 146.819 197.867 146.681C197.019 146.201 196.488 145.462 196.275 144.465C196.867 143.451 196.838 141.95 196.187 139.961C196.475 139.235 197.102 138.459 198.067 137.633C198.264 133.307 197.803 129.451 196.683 126.065C201.019 123.403 204.64 119.627 207.547 114.737C211.491 108.105 205.339 101.313 202.275 95.6086C202.285 95.3526 202.349 95.171 202.467 95.0644C202.584 94.9577 202.632 94.8244 202.611 94.6644C202.589 94.5044 202.528 94.403 202.427 94.3604C202.224 94.2804 202.117 94.1284 202.107 93.9044C202.053 92.5124 202.011 91.1257 201.979 89.7444C201.931 87.3284 200.971 84.6804 201.323 81.8724C201.353 81.6145 201.291 81.3558 201.147 81.1443L199.291 78.4566C198.603 75.2726 197.014 72.5579 194.523 70.3125C194.881 70.3125 195.235 70.4752 195.587 70.8005C195.763 70.9658 195.902 70.9418 196.003 70.7285L197.027 68.5605C197.155 68.2939 197.342 68.0832 197.587 67.9285C199.817 66.5578 201.638 66.8352 203.051 68.7605C203.142 68.8832 203.235 68.8885 203.331 68.7765L203.499 68.5845C203.51 68.5738 203.529 68.5845 203.555 68.6165C204.067 69.2512 204.409 69.9685 204.579 70.7685C204.638 71.0245 204.755 71.2458 204.931 71.4325C206.318 72.8565 207.014 74.5765 207.019 76.5925C207.025 76.9232 207.193 77.1018 207.523 77.1285L208.019 77.1685C208.138 77.1757 208.253 77.2134 208.353 77.2779C208.453 77.3424 208.533 77.4316 208.587 77.5365C209.467 79.2325 209.577 80.9765 208.915 82.7685C208.819 83.0299 208.883 83.2432 209.107 83.4085L209.939 84.0085C210.091 84.1174 210.219 84.2559 210.315 84.4154C210.412 84.575 210.474 84.7523 210.499 84.9365L211.259 90.2885C211.297 90.5712 211.449 90.7632 211.715 90.8645C211.939 90.9445 212.179 90.8775 212.435 90.6641Z" fill="#FD9C26"/>
<path d="M48.6907 68.3923L50.3786 72.3047L50.1623 72.2083C49.9916 72.1389 49.8529 72.1789 49.7463 72.3282C49.5489 72.6216 49.525 72.8349 49.6743 72.9683C49.7765 73.0554 49.8423 73.1778 49.8586 73.3111C49.8749 73.4444 49.8405 73.579 49.7623 73.6882L42.1221 84.2962C40.0634 87.0802 38.7436 89.9069 38.1623 92.7763C37.6023 93.6723 36.8076 94.2216 35.7783 94.4243C35.549 94.4723 35.3996 94.3843 35.3303 94.1603C32.1303 83.6483 40.4667 73.8803 48.6907 68.3923Z" fill="#FB8A30"/>
<path d="M22.7953 74.0804C21.2033 78.7444 20.578 84.0085 18.05 88.3445C13.498 96.1605 4.04203 104.529 7.74603 114.329C8.96203 117.555 11.4167 120.6 15.1073 123.464C15.1233 123.501 15.1382 123.541 15.1542 123.584C13.2609 123.509 11.3813 123.032 9.51467 122.152C9.264 122.035 9.01066 122.022 8.75466 122.112C7.31466 122.624 5.96533 123.312 4.70666 124.176C4.67466 124.198 4.65069 124.19 4.63469 124.152C4.61336 124.078 4.58934 124.003 4.56267 123.928C4.44 123.603 4.256 123.563 4.01067 123.808L3.68269 124.144C3.48002 124.347 3.35466 124.59 3.30666 124.872L2.62666 129.32C0.514665 118.109 0.0528284 106.803 1.24216 95.4006C1.35416 95.3473 1.4768 95.3362 1.61013 95.3682C1.78613 95.4055 1.92214 95.3495 2.01814 95.2002C2.66347 94.2028 2.78348 93.1682 2.37815 92.0962C2.27681 91.8242 2.29549 91.5602 2.43415 91.3042C3.39415 89.5015 3.98613 87.3735 4.21013 84.9202C4.31413 83.7602 5.34612 83.1522 5.95412 82.4722C8.88212 79.1922 10.8021 74.9202 14.1221 71.5842C14.7381 70.9602 20.2501 68.7842 21.5221 68.8722C21.6388 68.8813 21.7492 68.9294 21.8361 69.0091C21.9229 69.0887 21.9813 69.1953 22.0021 69.3122L22.7953 74.0804Z" fill="#FCC36A"/>
<path d="M185.931 70.8805C191.009 72.0325 195.462 74.5579 199.291 78.4566L201.147 81.1443C201.291 81.3558 201.353 81.6145 201.323 81.8724C200.971 84.6804 201.931 87.3284 201.979 89.7444C202.011 91.1257 202.053 92.5124 202.107 93.9044C202.117 94.1284 202.224 94.2804 202.427 94.3604C202.528 94.403 202.589 94.5044 202.611 94.6644C202.632 94.8244 202.584 94.9577 202.467 95.0644C202.349 95.171 202.285 95.3526 202.275 95.6086L201.387 93.4566C201.307 93.2646 201.163 93.1872 200.955 93.2246L198.339 93.7046C197.981 93.7686 197.779 93.6219 197.731 93.2646C197.603 92.3472 197.102 91.8299 196.227 91.7126L191.659 88.6161C191.584 88.5664 191.5 88.5338 191.411 88.5206C191.322 88.5075 191.232 88.5143 191.147 88.5404C191.062 88.5665 190.984 88.6112 190.919 88.6714C190.854 88.7316 190.803 88.8056 190.771 88.8881C189.576 91.9014 188.811 94.8859 188.475 97.8405C186.795 98.1765 185.624 99.2592 184.963 101.089C184.803 101.521 184.472 101.731 183.971 101.721C183.715 101.715 183.632 101.595 183.723 101.361C184.595 99.1686 185.363 97.4246 186.667 95.0965C190.075 89.0166 191.203 80.7526 187.627 74.4166C186.998 73.3019 186.433 72.1232 185.931 70.8805Z" fill="#FB9E50"/>
<path d="M136.699 82.3288C117.83 92.2008 98.4992 94.7711 78.7072 90.0404C72.9632 88.6644 66.9046 85.7228 60.5312 81.2161C61.2192 81.0721 61.4779 80.6667 61.3072 80.0001C61.2432 79.7387 61.3445 79.6241 61.6112 79.6561C62.2672 79.7467 62.8192 80.0534 63.2672 80.5761C63.4526 80.7871 63.7094 80.9212 63.9872 80.9521C64.3872 80.9947 64.7924 80.9095 65.2031 80.6962C77.0751 86.7442 90.8754 87.1765 103.723 83.7845C104.07 84.3658 104.417 84.6141 104.763 84.5288C107.771 83.8008 110.067 82.9208 113.483 82.5128C119.091 81.8328 127.675 75.2408 131.755 71.3368C131.85 71.2457 131.967 71.1802 132.094 71.1465C132.221 71.1127 132.355 71.1117 132.483 71.1435C132.612 71.1754 132.73 71.2392 132.828 71.3288C132.926 71.4185 133 71.5313 133.043 71.6568L136.699 82.3288Z" fill="#CA6246"/>
<path d="M50.3794 72.304C51.2701 73.1787 51.8986 74.2381 52.2666 75.4807C52.302 75.6017 52.3124 75.728 52.2973 75.8519C52.2821 75.9757 52.2417 76.0945 52.1786 76.2007C50.7652 78.6541 49.3786 81.1128 48.0186 83.5768C46.6026 86.1528 46.2186 88.6248 45.6666 91.5128C45.6506 91.6135 45.6688 91.7166 45.7183 91.8058C45.7678 91.8949 45.8458 91.9648 45.9398 92.0045C46.0338 92.0441 46.1383 92.0511 46.2367 92.0243C46.3351 91.9975 46.4216 91.9385 46.4826 91.8568C48.3226 89.2434 50.7039 87.2514 53.6266 85.8807C53.7328 85.8308 53.8511 85.8133 53.9665 85.8304C54.0819 85.8475 54.1891 85.8984 54.2746 85.9768C56.4506 87.9688 52.9788 90.6563 51.7468 92.0563C48.2748 94.9203 44.0981 99.9363 50.0901 103.512C49.9381 105.248 47.3627 104.081 45.9627 105.561C45.7796 105.754 45.5504 105.895 45.2987 105.969C42.4987 106.801 39.6667 107.494 36.8027 108.049C34.1707 108.553 33.5547 109.665 33.1307 112.113C31.9467 119.081 36.2987 121.137 42.4347 123.921C42.68 124.033 42.928 124.046 43.1787 123.961C46.0267 122.99 48.3333 121.286 50.0987 118.849C50.312 118.555 50.2747 118.299 49.9867 118.081C49.592 117.782 49.2054 117.465 48.8267 117.129C48.6347 116.953 48.632 116.771 48.8187 116.585C48.9893 116.419 49.264 116.299 49.6427 116.225C50.5014 117.003 51.3781 117.536 52.2741 117.824C53.5781 117.672 54.5147 117.752 53.9067 119.36C50.8667 127.398 44.9147 131.046 36.0507 130.304C35.2613 130.24 34.208 129.798 32.8907 128.976L33.7228 128.081C33.9521 127.835 33.9174 127.635 33.6187 127.481L32.7147 127.017C32.6596 126.988 32.6116 126.948 32.5745 126.898C32.5374 126.848 32.5121 126.791 32.5005 126.73C32.489 126.669 32.4914 126.606 32.5078 126.546C32.5241 126.487 32.5539 126.431 32.5948 126.385L33.1067 125.817C33.1803 125.736 33.2191 125.629 33.2146 125.52C33.2101 125.41 33.1627 125.307 33.0828 125.233C28.1548 120.593 24.2912 114.113 27.2432 107.377L29.1076 101.84C32.2196 104.088 36.2022 107.113 39.9222 105.721C40.8396 105.374 41.5009 105.123 41.9062 104.969C42.5657 104.711 43.1221 104.244 43.4893 103.639C43.8566 103.035 44.0143 102.327 43.9383 101.625C43.7036 99.3952 42.9541 97.3579 41.6901 95.5126C41.3381 92.7606 41.7141 91.2242 42.6101 87.9602C42.9994 86.5362 42.8381 85.3147 42.1234 84.296L49.7634 73.688C49.8416 73.5788 49.876 73.4442 49.8597 73.3109C49.8434 73.1775 49.7776 73.0552 49.6754 72.9681C49.5261 72.8347 49.5501 72.6214 49.7474 72.328C49.8541 72.1787 49.9927 72.1387 50.1634 72.208L50.3794 72.304Z" fill="#FB9E50"/>
<path d="M60.5312 81.2161C66.9046 85.7228 72.9632 88.6644 78.7072 90.0404C98.4992 94.7711 117.83 92.2008 136.699 82.3288C137.569 84.2701 138.518 85.627 139.547 86.4003C139.414 86.6456 139.206 86.8667 138.923 87.0641L126.851 93.2001C115.096 96.1494 102.992 97.1414 90.539 96.1761L85.675 95.4805C86.027 95.2779 86.0797 95.0189 85.8344 94.7043C85.669 94.4909 85.453 94.3709 85.1864 94.3442C80.7464 93.9042 73.6664 93.2482 69.6904 91.3282C69.3064 91.1469 68.9064 90.9709 68.4904 90.8002C68.181 90.6776 67.9224 90.7469 67.7144 91.0083L65.2424 94.0802C65.0664 94.2936 64.8397 94.3842 64.5624 94.3522C63.8157 94.2509 63.477 93.9149 63.5463 93.3442C63.5567 93.27 63.5455 93.1943 63.5142 93.1262C63.4828 93.0581 63.4326 93.0004 63.3694 92.96C63.3063 92.9195 63.2328 92.8981 63.1579 92.8981C63.0829 92.8982 63.0094 92.9198 62.9463 92.9603C59.9943 94.8163 53.8904 97.1603 53.4264 100.904C53.3944 101.166 53.2477 101.31 52.9864 101.336C52.101 101.438 51.7714 101.982 51.9954 102.969C51.3021 100.062 51.3661 97.1153 52.1875 94.1287C57.2915 90.0807 60.3634 87.1687 59.2994 80.8407C59.2461 80.5207 59.3768 80.3927 59.6915 80.4567C60.0115 80.5207 60.2912 80.7734 60.5312 81.2161Z" fill="#F99B63"/>
<path d="M139.954 83.2962C141.274 85.4722 141.899 87.6322 143.659 89.3922C146.427 92.1495 149.853 94.5548 153.939 96.6082C158.152 98.7202 161.797 100.174 164.874 100.968C166.41 106.728 165.693 112.373 162.722 117.904C155.805 107.723 148.338 97.7469 140.322 87.9762C140.122 87.7362 140.21 87.8402 140.162 87.5442C140.13 87.3308 140.007 87.2082 139.794 87.1762L138.922 87.0641C139.205 86.8668 139.412 86.6458 139.546 86.4005L139.818 86.3365C140.138 86.2565 140.231 86.0672 140.098 85.7685C139.911 85.3525 139.637 85.0485 139.274 84.8565L139.954 83.2962Z" fill="#FAA83F"/>
<path d="M180.666 83.9524C180.256 89.8777 178.906 95.9604 176.618 102.2C176.149 103.486 176.237 104.909 176.882 106.472C175.165 105.309 174.016 103.574 173.435 101.264C173.104 100.875 172.888 100.504 172.787 100.152C172.717 99.8857 172.797 99.675 173.027 99.5204C178.019 96.2484 178.714 90.5844 180.666 83.9524Z" fill="#C15227"/>
<path d="M42.1221 84.2962C42.8368 85.3148 42.9994 86.5362 42.6101 87.9602C41.7141 91.2242 41.3381 92.7606 41.6901 95.5126L41.5141 100.281C41.4981 100.654 41.3461 100.723 41.0581 100.489C38.5568 98.4406 37.5916 95.8696 38.1623 92.7763C38.7436 89.9069 40.0634 87.0802 42.1221 84.2962Z" fill="#FED987"/>
<path d="M138.923 87.0641L139.795 87.1761C140.009 87.2081 140.131 87.3308 140.163 87.5441C140.211 87.8401 140.123 87.7361 140.323 87.9761C148.339 97.7468 155.806 107.723 162.723 117.905L161.859 120.665C161.331 121.865 161.265 123.035 161.659 124.177C162.835 125.473 163.834 126.473 163.73 128.369C163.506 132.507 162.362 136.555 160.298 140.513C159.386 141.542 158.888 142.803 158.803 144.297C152.539 157.105 139.307 162.696 125.715 164.472L113.395 165.848L102.379 165.712C102.342 165.605 102.232 165.547 102.051 165.536C101.848 165.526 101.704 165.43 101.619 165.248C100.541 163.056 100.435 160.891 101.299 158.752C106.235 160.056 112.514 160.648 116.682 157.952C117.968 158.192 118.899 157.449 119.475 155.721C119.553 155.479 119.694 155.259 119.883 155.081C120.619 154.382 121.008 153.534 121.051 152.537C121.061 152.291 121.163 152.097 121.355 151.953C125.051 149.129 126.531 144.705 131.931 144.705C137.067 151.089 151.627 150.64 157.115 144.208C157.265 144.027 157.275 143.84 157.147 143.648C152.931 137.488 142.987 137.328 136.731 139.224C136.294 138.397 136.246 137.683 136.587 137.08C136.715 136.862 136.904 136.723 137.155 136.664C137.688 136.536 138.182 136.326 138.635 136.032C138.976 135.808 138.944 135.715 138.539 135.752C138.294 135.774 138.056 135.758 137.827 135.704C137.76 135.694 137.7 135.66 137.658 135.609C137.616 135.557 137.595 135.492 137.598 135.423C137.601 135.355 137.628 135.289 137.674 135.236C137.72 135.184 137.783 135.148 137.851 135.136C137.984 135.11 138.152 135.115 138.355 135.152C143.123 135.024 147.872 135.086 152.603 135.336C153.363 135.368 153.443 135.024 153.443 134.352C157.443 124.936 147.098 111.337 136.786 114.513C133.442 115.545 131.226 116.513 129.514 119.465C127.717 118.451 125.856 116.499 123.931 113.609C120.245 108.089 120.117 103.201 123.547 98.9446C134.835 97.2006 140.611 100.664 146.731 109.632C146.902 109.877 147.067 109.877 147.227 109.632C149.595 106.016 144.219 99.8961 141.307 97.5921C137.456 94.5521 132.939 94.1574 127.755 96.4081L126.851 93.2001L138.923 87.0641Z" fill="#FDBC79"/>
<path d="M196.227 91.7126C195.715 91.9792 195.176 92.1339 194.611 92.1766C194.36 92.1979 194.232 92.3339 194.227 92.5845C194.195 94.5312 193.654 96.3392 192.603 98.0086C191.323 100.041 189.939 98.8565 188.475 97.8405C188.811 94.8859 189.576 91.9014 190.771 88.8881C190.803 88.8056 190.854 88.7316 190.919 88.6714C190.984 88.6112 191.062 88.5665 191.147 88.5404C191.232 88.5143 191.322 88.5075 191.411 88.5206C191.5 88.5338 191.584 88.5664 191.659 88.6161L196.227 91.7126Z" fill="#C15227"/>
<path d="M85.675 95.4805C78.259 95.9925 68.1628 103.001 69.7628 111.745C69.3735 112.193 68.7394 112.617 67.8594 113.017C67.0594 111.801 66.0341 111.005 64.7861 110.632C64.4501 110.531 64.2688 110.653 64.2421 111C64.1355 112.36 64.6368 113.499 65.7461 114.416C66.4288 115.733 67.4349 116.624 68.7629 117.088C69.0295 117.131 69.2638 117.286 69.4665 117.552C65.7331 120.731 63.5248 124.742 62.8422 129.584C59.8742 128.712 63.2902 135.401 63.6822 136.009C63.7618 136.131 63.87 136.232 63.9975 136.303C64.125 136.374 64.2679 136.412 64.4137 136.416C64.5596 136.419 64.704 136.386 64.8344 136.321C64.9649 136.256 65.0774 136.159 65.1622 136.041C65.2955 135.854 65.2315 135.657 64.9702 135.449C65.0128 135.379 65.0583 135.307 65.1063 135.232C65.4103 136.107 66.0209 136.419 66.9383 136.169C70.8156 135.129 74.7382 134.886 78.7062 135.441C78.7702 135.451 78.8209 135.427 78.8582 135.369L79.0262 135.081C79.0902 134.969 79.1862 134.915 79.3142 134.921C84.9089 135.15 87.9622 133.102 88.4742 128.777C88.9222 125.907 88.7121 123.422 87.8427 121.321C87.7307 121.049 87.8107 120.963 88.0827 121.065C88.4827 121.214 88.8161 121.214 89.0827 121.065C90.5814 119.87 91.6481 118.811 92.2828 117.888C93.6908 115.84 99.3708 106.784 96.8828 104.096C95.6561 101.093 93.5417 98.4534 90.539 96.1761C102.992 97.1414 115.096 96.1494 126.851 93.2001L127.755 96.4081L123.547 98.9446C120.117 103.201 120.245 108.089 123.931 113.609C125.856 116.499 127.717 118.451 129.514 119.465L128.907 122.672C128.555 124.645 128.705 125.421 129.355 125C129.43 131.181 132.43 134.566 138.355 135.152C138.152 135.115 137.984 135.11 137.851 135.136C137.783 135.148 137.72 135.184 137.674 135.236C137.628 135.289 137.601 135.355 137.598 135.423C137.595 135.492 137.616 135.557 137.658 135.609C137.7 135.66 137.76 135.694 137.827 135.704C138.056 135.758 138.294 135.774 138.539 135.752C138.944 135.715 138.976 135.808 138.635 136.032C138.182 136.326 137.688 136.536 137.155 136.664C136.904 136.723 136.715 136.862 136.587 137.08C136.246 137.683 136.294 138.397 136.731 139.224C133.467 140.173 131.867 142.001 131.931 144.705C126.531 144.705 125.051 149.129 121.355 151.953C121.163 152.097 121.061 152.291 121.051 152.537C121.008 153.534 120.619 154.382 119.883 155.081C119.694 155.259 119.553 155.479 119.475 155.721C118.899 157.449 117.968 158.192 116.682 157.952C119.253 155.52 120.488 152.653 120.387 149.352C120.371 148.941 120.214 148.875 119.915 149.152C114.963 153.8 99.6591 155.208 94.5631 150.648C94.3871 150.493 94.3178 150.533 94.3551 150.768C95.0591 154.939 97.3733 157.6 101.299 158.752C100.435 160.891 100.541 163.056 101.619 165.248C101.704 165.43 101.848 165.526 102.051 165.536C102.232 165.547 102.342 165.605 102.379 165.712C102 165.819 101.87 165.805 101.987 165.672C86.7629 165.368 67.0029 161.128 60.8589 145.008C60.8321 144.938 60.7898 144.875 60.7351 144.824C60.6804 144.772 60.6148 144.734 60.5432 144.712C60.4716 144.689 60.3958 144.683 60.3216 144.695C60.2474 144.706 60.1767 144.734 60.1149 144.776C53.4429 149.376 46.4909 145.304 41.5469 140.432L38.2828 135.336C40.0188 134.472 41.0908 137.473 43.2028 137.993C43.4633 138.061 43.698 138.209 43.8748 138.417C46.8668 142.009 53.1068 145.953 57.9708 144.673C59.8268 144.187 60.7335 143.246 60.6908 141.849C55.7948 136.193 56.6673 131.624 58.7633 124.344C59.3633 122.24 57.3553 120.552 56.0273 119.296C54.7153 118.048 54.4993 116.928 53.9953 115.296C52.6513 111.44 51.9847 107.331 51.9954 102.969C51.7714 101.982 52.101 101.438 52.9864 101.336C53.2477 101.31 53.3944 101.166 53.4264 100.904C53.8904 97.1603 59.9943 94.8163 62.9463 92.9603C63.0094 92.9198 63.0829 92.8982 63.1579 92.8981C63.2328 92.8981 63.3063 92.9195 63.3694 92.96C63.4326 93.0004 63.4828 93.0581 63.5142 93.1262C63.5455 93.1943 63.5567 93.27 63.5463 93.3442C63.477 93.9149 63.8157 94.2509 64.5624 94.3522C64.8397 94.3842 65.0664 94.2936 65.2424 94.0802L67.7144 91.0083C67.9224 90.7469 68.181 90.6776 68.4904 90.8002C68.9064 90.9709 69.3064 91.1469 69.6904 91.3282C73.6664 93.2482 80.7464 93.9042 85.1864 94.3442C85.453 94.3709 85.669 94.4909 85.8344 94.7043C86.0797 95.0189 86.027 95.2779 85.675 95.4805ZM105.803 136.504C104.512 136.264 103.654 136.696 103.227 137.8C103.181 137.923 103.166 138.055 103.184 138.185C103.202 138.315 103.253 138.439 103.331 138.544C103.784 139.152 104.56 139.507 105.659 139.608L104.091 140.008C103.82 140.08 103.578 140.234 103.398 140.449C103.219 140.664 103.111 140.93 103.089 141.209C103.067 141.489 103.132 141.768 103.276 142.009C103.419 142.249 103.634 142.439 103.891 142.552C107.011 143.923 109.293 143.142 110.739 140.208C110.877 139.932 110.9 139.61 110.803 139.312C110.203 137.568 105.131 133.536 105.803 136.504ZM65.9864 143.944C67.3064 149.056 76.1624 149.336 79.9944 148.656C82.2424 148.256 90.1544 145.376 86.4264 141.768C80.3864 135.92 72.5623 139.04 66.2503 143.24C65.9943 143.411 65.9064 143.646 65.9864 143.944Z" fill="#FECB8A"/>
<path d="M21.275 92.9282L16.3312 96.5764C16.8752 94.6884 17.8912 93.0323 19.3792 91.6083C19.4648 91.5273 19.5699 91.4694 19.6846 91.44C19.7993 91.4106 19.92 91.4107 20.0352 91.4403C21.0166 91.6857 21.4296 92.1815 21.275 92.9282Z" fill="#FED987"/>
<path d="M51.7468 92.0563C52.1362 92.6696 52.2825 93.3603 52.1865 94.1283C51.3651 97.115 51.301 100.062 51.9944 102.968C51.9837 107.331 52.6513 111.44 53.9953 115.296C53.8886 116.368 53.3141 117.211 52.2741 117.824C51.3781 117.536 50.5014 117.003 49.6427 116.225C46.2934 113.686 45.6211 110.582 47.6265 106.913C47.7545 106.678 47.9411 106.51 48.1865 106.409L50.6345 105.393C50.9331 105.265 51.0638 105.038 51.0265 104.713C50.9518 104.131 50.6394 103.731 50.0901 103.512C44.0981 99.9363 48.2748 94.9203 51.7468 92.0563Z" fill="#B7291B"/>
<path d="M21.275 92.9282C23.7656 96.8642 25.1632 101.257 25.4672 106.105C25.3605 106.979 24.9927 106.48 24.3633 104.608C24.2749 104.337 24.1076 104.1 23.8833 103.928C22.9873 103.246 22.3473 102.384 21.9633 101.344C21.8567 101.062 21.6593 100.88 21.3713 100.8C20.07 100.443 18.8487 100.401 17.7073 100.673L12.3793 102.753C12.0967 102.859 12.0193 102.777 12.1473 102.505C13.2353 100.243 14.6299 98.267 16.3312 96.5764L21.275 92.9282Z" fill="#FB8A30"/>
<path d="M123.547 98.9446L127.755 96.4081C132.939 94.1574 137.456 94.5521 141.307 97.5921C144.219 99.8961 149.595 106.016 147.227 109.632C147.067 109.877 146.902 109.877 146.731 109.632C140.611 100.664 134.835 97.2006 123.547 98.9446Z" fill="#F98759"/>
<path d="M85.675 95.4805L90.539 96.1761C93.5417 98.4534 95.6561 101.093 96.8828 104.096C90.7628 100.288 85.0185 97.7686 78.5145 102.505C75.0851 104.995 72.4131 108.137 70.4985 111.929C70.4739 111.975 70.4386 112.015 70.3956 112.044C70.3527 112.074 70.3033 112.093 70.252 112.099C70.2006 112.106 70.1489 112.099 70.1012 112.081C70.0535 112.062 70.0114 112.032 69.9785 111.993L69.7628 111.745C68.1628 103.001 78.259 95.9925 85.675 95.4805Z" fill="#FB8A30"/>
<path d="M96.8828 104.096C99.3708 106.784 93.6908 115.84 92.2828 117.888C91.6481 118.811 90.5814 119.87 89.0827 121.065C85.2827 114.001 75.4425 113.008 69.4665 117.552C69.2638 117.286 69.0295 117.131 68.7629 117.088C69.1202 117.008 69.4135 116.886 69.6428 116.721C69.8828 116.539 69.9521 116.307 69.8508 116.025C69.6214 115.379 69.1655 114.798 68.4828 114.281L67.8594 113.017C68.7394 112.617 69.3735 112.193 69.7628 111.745L69.9785 111.993C70.0114 112.032 70.0535 112.062 70.1012 112.081C70.1489 112.099 70.2006 112.106 70.252 112.099C70.3033 112.093 70.3527 112.074 70.3956 112.044C70.4386 112.015 70.4739 111.975 70.4985 111.929C72.4131 108.137 75.0851 104.995 78.5145 102.505C85.0185 97.7686 90.7628 100.288 96.8828 104.096Z" fill="#FDBC79"/>
<path d="M25.4672 106.105C25.6352 107.049 26.1072 107.865 27.2432 107.377C24.2912 114.113 28.1548 120.593 33.0828 125.233C33.1627 125.307 33.2101 125.41 33.2146 125.52C33.2191 125.629 33.1803 125.736 33.1067 125.817L32.5948 126.385C32.5539 126.431 32.5241 126.487 32.5078 126.546C32.4914 126.606 32.489 126.669 32.5005 126.73C32.5121 126.791 32.5374 126.848 32.5745 126.898C32.6116 126.948 32.6596 126.988 32.7147 127.017L33.6187 127.481C33.9174 127.635 33.9521 127.835 33.7228 128.081L32.8907 128.976L31.3553 128.16C31.0247 127.984 30.9287 128.07 31.0673 128.417L31.4354 129.321C30.806 130.233 30.262 130.433 29.8033 129.921C29.6875 129.792 29.5358 129.712 29.3692 129.692C29.2026 129.672 29.0296 129.713 28.8744 129.809C28.7192 129.905 28.5896 130.052 28.5037 130.228C28.4178 130.404 28.3799 130.602 28.3954 130.792C28.598 133.352 29.7847 135.35 31.9553 136.784C32.3287 137.03 32.2487 137.379 31.7153 137.832C28.3127 134.952 25.9278 131.195 24.5625 126.56C23.1491 121.616 22.4059 116.491 22.3312 111.184C23.8352 106.896 17.5234 106.696 16.5314 110.336C15.39 114.496 16.2967 118.555 19.2513 122.512C19.2247 123.419 18.7227 124.203 17.7467 124.865C17.6956 124.9 17.6361 124.921 17.5741 124.926C17.5122 124.931 17.45 124.92 17.3939 124.893C17.3378 124.866 17.2899 124.825 17.2549 124.774C17.2199 124.722 17.1991 124.663 17.1947 124.601L17.1627 124.185C17.1603 124.16 17.1632 124.136 17.1711 124.113C17.179 124.091 17.1918 124.07 17.2085 124.052C17.2252 124.035 17.2455 124.021 17.2679 124.012C17.2904 124.003 17.3146 123.999 17.3387 124.001C17.488 124.011 17.616 123.99 17.7227 123.937C17.8933 123.857 17.8853 123.809 17.6987 123.793L15.1553 123.584C15.1393 123.542 15.1233 123.501 15.1073 123.464C16.1633 123.024 16.2194 122.28 15.4274 121.504C11.4514 117.592 9.13136 110.72 12.9314 105.736C13.081 105.535 13.2964 105.393 13.5394 105.336C16.1954 104.712 17.5847 103.158 17.7073 100.673C18.8487 100.401 20.07 100.443 21.3713 100.8C21.6593 100.88 21.8567 101.062 21.9633 101.344C22.3473 102.384 22.9873 103.246 23.8833 103.928C24.1076 104.1 24.2749 104.337 24.3633 104.608C24.9927 106.48 25.3605 106.979 25.4672 106.105Z" fill="#FED987"/>
<path d="M173.435 101.264C174.016 103.574 175.166 105.309 176.883 106.472L178.731 108.64C178.907 108.843 178.937 109.067 178.819 109.312C177.497 112.139 176.094 114.896 174.611 117.584C174.174 118.379 174.131 119.254 174.483 120.208L172.859 123.361C172.726 123.611 172.526 123.787 172.259 123.889C169.534 124.886 166.819 124.862 164.115 123.817C164.004 123.773 163.884 123.757 163.765 123.771C163.647 123.785 163.533 123.828 163.435 123.897C162.945 124.238 162.353 124.331 161.659 124.177C161.265 123.035 161.331 121.865 161.859 120.665C165.849 118.254 168.641 114.302 170.235 108.809C170.26 108.722 170.264 108.63 170.245 108.541C170.227 108.453 170.187 108.37 170.13 108.3C170.072 108.23 169.999 108.175 169.916 108.139C169.832 108.104 169.742 108.089 169.651 108.097C169.054 108.15 169.006 107.598 169.507 106.44C169.63 106.787 169.79 106.958 169.987 106.953C170.265 106.942 170.427 106.8 170.475 106.528C170.875 104.192 170.675 102.152 173.435 101.264Z" fill="#FB8A30"/>
<path d="M185.979 107.328C185.227 107.174 184.979 106.675 185.235 105.832C185.304 105.598 185.438 105.408 185.635 105.264C188.616 103.024 191.987 102.32 195.747 103.152C196.088 103.232 196.443 103.099 196.811 102.752C197.024 102.555 197.262 102.52 197.523 102.648C198.984 103.374 200.006 104.512 200.587 106.064C200.699 106.368 200.595 106.515 200.275 106.504C198.883 106.451 197.515 106.376 196.171 106.28C193.003 106.048 189.987 107.08 186.899 107.456C186.76 107.472 186.454 107.43 185.979 107.328Z" fill="#FCC36A"/>
<path d="M50.0901 103.512C50.6394 103.731 50.9518 104.131 51.0265 104.713C51.0638 105.038 50.9331 105.265 50.6345 105.393L48.1865 106.409C47.9411 106.51 47.7545 106.678 47.6265 106.913C45.6211 110.582 46.2934 113.686 49.6427 116.225C49.264 116.299 48.9893 116.419 48.8187 116.585C48.632 116.771 48.6347 116.953 48.8267 117.129C49.2054 117.465 49.592 117.782 49.9867 118.081C50.2747 118.299 50.312 118.555 50.0987 118.849C48.3333 121.286 46.0267 122.99 43.1787 123.961C42.928 124.046 42.68 124.033 42.4347 123.921C36.2987 121.137 31.9467 119.081 33.1307 112.113C33.5547 109.665 34.1707 108.553 36.8027 108.049C39.6667 107.494 42.4987 106.801 45.2987 105.969C45.5504 105.895 45.7796 105.754 45.9627 105.561C47.3627 104.081 49.9381 105.248 50.0901 103.512ZM43.3149 121.544C44.1202 122.408 45.2509 122.347 46.7069 121.36C47.5762 120.768 47.5709 120.184 46.6909 119.608C43.4509 117.472 41.2429 115.504 40.7229 111.32C40.6909 111.043 40.5575 110.979 40.3229 111.128C35.9549 113.872 41.2429 119.32 43.3149 121.544Z" fill="#C15227"/>
<path d="M22.3301 111.184C21.2901 112.192 21.1007 113.192 21.762 114.184C21.9113 114.408 21.9807 114.656 21.97 114.928C21.866 117.544 23.4981 122.592 19.2501 122.512C16.2955 118.555 15.3888 114.496 16.5301 110.336C17.5221 106.696 23.8341 106.896 22.3301 111.184Z" fill="#C15227"/>
<path d="M196.683 126.065C197.803 129.451 198.264 133.307 198.067 137.633L196.602 136.76C196.384 136.627 196.152 136.587 195.906 136.64C194.65 136.888 193.634 135 193.426 134C193.395 133.837 193.313 133.689 193.192 133.576C193.071 133.463 192.917 133.392 192.752 133.373C192.587 133.353 192.419 133.386 192.273 133.467C192.127 133.548 192.01 133.673 191.938 133.824C190.186 137.616 187.018 143.736 181.706 140.688C181.665 140.667 181.617 140.659 181.571 140.666C181.525 140.673 181.482 140.694 181.448 140.727C181.415 140.76 181.392 140.802 181.384 140.848C181.376 140.894 181.382 140.942 181.402 140.984C182.256 142.589 181.8 143.68 180.034 144.256C178.194 142.512 176.768 140.331 175.755 137.713L176.275 136.424C176.541 133.486 176.171 130.814 175.163 128.408C175.058 128.155 174.897 127.929 174.692 127.746C174.488 127.563 174.244 127.429 173.98 127.353C173.716 127.277 173.438 127.261 173.166 127.307C172.895 127.352 172.637 127.458 172.411 127.616C171.851 128.006 171.446 128.614 171.195 129.44C167.443 134.144 164.818 137.673 160.298 140.513C162.362 136.555 163.506 132.507 163.73 128.369C163.834 126.473 162.835 125.473 161.659 124.177C162.353 124.331 162.945 124.238 163.435 123.897C163.533 123.828 163.647 123.785 163.765 123.771C163.884 123.757 164.004 123.773 164.115 123.817C166.819 124.862 169.534 124.886 172.259 123.889C172.526 123.787 172.726 123.611 172.859 123.361L174.483 120.208C177.467 127.432 180.907 127.312 187.739 128.128C187.793 128.135 187.848 128.131 187.901 128.115C187.953 128.099 188.001 128.072 188.042 128.037C188.083 128.001 188.116 127.957 188.138 127.908C188.16 127.859 188.171 127.806 188.171 127.752V127.408C188.171 127.19 188.064 127.054 187.851 127C182.491 125.712 177.531 122.336 179.587 116.08C180.099 114.512 180.509 112.928 180.819 111.328C180.851 111.147 180.96 111.043 181.147 111.016C184.059 110.611 186.896 109.923 189.659 108.952C191.088 108.456 191.589 108.934 191.163 110.384C190.4 112.998 189.016 115.16 187.011 116.872C186.949 116.925 186.909 116.999 186.897 117.079C186.885 117.159 186.903 117.241 186.947 117.309C186.99 117.378 187.058 117.428 187.136 117.45C187.214 117.473 187.297 117.467 187.371 117.432C190.469 116.03 192.915 113.848 194.707 110.888C195.843 109.024 196.979 108.176 199.123 108.608C199.356 108.655 199.568 108.774 199.729 108.948C199.89 109.122 199.991 109.342 200.019 109.576C200.995 118 193.971 124.336 186.091 119.536C185.941 119.444 185.771 119.392 185.595 119.385C185.42 119.377 185.246 119.414 185.089 119.493C184.932 119.571 184.797 119.688 184.698 119.833C184.599 119.978 184.539 120.146 184.523 120.32C184.171 124.016 185.755 125.832 189.323 126.568C189.564 126.62 189.776 126.763 189.915 126.968C190.405 127.71 191.091 128.043 191.971 127.968C193.517 127.846 195.088 127.211 196.683 126.065ZM186.635 115.854C186.57 115.713 186.334 115.659 185.977 115.702C185.621 115.746 185.174 115.884 184.734 116.086C184.295 116.288 183.899 116.538 183.634 116.78C183.369 117.022 183.256 117.238 183.321 117.378C183.386 117.519 183.622 117.574 183.979 117.53C184.335 117.487 184.783 117.349 185.222 117.147C185.662 116.945 186.057 116.695 186.322 116.452C186.587 116.21 186.7 115.995 186.635 115.854ZM182.499 132.944C183.091 134.592 185.091 136.392 186.923 135.856C188.043 135.528 190.715 131.832 190.347 130.672C190.317 130.582 190.266 130.501 190.199 130.436C190.131 130.37 190.048 130.322 189.958 130.296C189.868 130.27 189.773 130.266 189.682 130.286C189.591 130.306 189.506 130.347 189.435 130.408C187.987 131.624 184.915 134.216 183.059 132.56C183 132.51 182.927 132.481 182.85 132.477C182.772 132.473 182.696 132.495 182.633 132.538C182.569 132.582 182.521 132.645 182.497 132.719C182.473 132.792 182.474 132.871 182.499 132.944Z" fill="#C15227"/>
<path d="M67.8581 113.016L68.4828 114.281C68.4348 115.241 67.5221 115.285 65.7461 114.416C64.6368 113.499 64.1355 112.36 64.2421 111C64.2688 110.653 64.4501 110.531 64.7861 110.632C66.0341 111.005 67.0581 111.8 67.8581 113.016Z" fill="#F99B63"/>
<path d="M43.3149 121.544C41.2429 119.32 35.9549 113.872 40.3229 111.128C40.5575 110.979 40.6909 111.043 40.7229 111.32C41.2429 115.504 43.4509 117.472 46.6909 119.608C47.5709 120.184 47.5762 120.768 46.7069 121.36C45.2509 122.347 44.1202 122.408 43.3149 121.544Z" fill="#FB8A30"/>
<path d="M22.3312 111.184C22.4059 116.491 23.1491 121.616 24.5625 126.56C23.8958 127.259 23.674 128.256 23.898 129.552C23.9449 129.803 23.9199 130.061 23.826 130.296C22.714 133.168 28.178 138.384 30.026 139.672C30.2447 139.822 30.3993 140.022 30.49 140.272L30.9474 141.496C30.5261 141.581 29.9847 141.549 29.3234 141.4C22.5634 138.104 23.0099 133.721 21.4659 127.145C21.4372 127.022 21.3695 126.911 21.2731 126.829C21.1767 126.747 21.0567 126.698 20.9312 126.69C20.8057 126.682 20.6816 126.715 20.5775 126.784C20.4734 126.853 20.3949 126.954 20.3539 127.073C18.2099 132.953 16.6659 141.169 19.3859 147.121C20.1379 148.753 21.8179 150.177 22.6819 152.121C21.8019 152.35 20.8771 151.374 19.9064 149.192C19.8749 149.128 19.822 149.076 19.7568 149.046C19.6916 149.016 19.618 149.009 19.5484 149.027C19.4789 149.045 19.4176 149.086 19.375 149.144C19.3323 149.202 19.3109 149.273 19.3144 149.344C19.4531 151.03 20.1037 152.699 21.2664 154.352L17.8033 156.296C17.5633 156.435 17.358 156.614 17.1874 156.832L14.0587 160.848C8.656 150.987 4.84533 140.477 2.62666 129.32L3.30666 124.872C3.35466 124.59 3.48002 124.347 3.68269 124.144L4.01067 123.808C4.256 123.563 4.44 123.603 4.56267 123.928C4.58934 124.003 4.61336 124.078 4.63469 124.152C4.65069 124.19 4.67466 124.198 4.70666 124.176C5.96533 123.312 7.31466 122.624 8.75466 122.112C9.01066 122.022 9.264 122.035 9.51467 122.152C11.3813 123.032 13.262 123.51 15.1553 123.584L17.6987 123.793C17.8853 123.809 17.8933 123.857 17.7227 123.937C17.616 123.99 17.488 124.011 17.3387 124.001C17.3146 123.999 17.2904 124.003 17.2679 124.012C17.2455 124.021 17.2252 124.035 17.2085 124.052C17.1918 124.07 17.179 124.091 17.1711 124.113C17.1632 124.136 17.1603 124.16 17.1627 124.185L17.1947 124.601C17.1991 124.663 17.2199 124.722 17.2549 124.774C17.2899 124.825 17.3378 124.866 17.3939 124.893C17.45 124.92 17.5122 124.931 17.5741 124.926C17.6361 124.921 17.6956 124.9 17.7467 124.865C18.7227 124.203 19.2247 123.419 19.2513 122.512C23.4993 122.592 21.866 117.544 21.97 114.928C21.9807 114.656 21.9113 114.408 21.762 114.184C21.1007 113.192 21.2912 112.192 22.3312 111.184Z" fill="#FCBA5E"/>
<path d="M153.443 134.352L152.29 134.337C151.981 134.337 151.826 134.182 151.826 133.873C151.89 126.929 147.21 115.009 138.226 116.345C137.746 116.414 137.714 116.571 138.13 116.817C142.712 119.505 144.258 123.233 142.77 128.001C142.152 129.979 141.12 131.422 139.674 132.329C132.682 136.713 127.402 123.601 132.282 122.297C132.402 122.264 132.529 122.271 132.643 122.315C132.757 122.36 132.853 122.441 132.914 122.545L134.042 124.385C134.165 124.593 134.344 124.713 134.578 124.745C135.698 124.905 136.48 124.478 136.922 123.465C136.972 123.35 136.983 123.221 136.953 123.098C136.923 122.975 136.853 122.865 136.754 122.785C134.938 121.321 133.562 120.929 133.362 118.241C133.353 118.143 133.318 118.049 133.261 117.97C133.204 117.89 133.127 117.827 133.037 117.787C132.947 117.747 132.849 117.732 132.751 117.742C132.654 117.753 132.561 117.79 132.482 117.849C130.536 119.321 129.418 121.147 129.13 123.328C129.024 123.365 128.949 123.147 128.906 122.672L129.514 119.465C131.226 116.513 133.442 115.545 136.786 114.513C147.098 111.337 157.443 124.936 153.443 134.352Z" fill="#070608"/>
<path d="M68.4828 114.281C69.1655 114.798 69.6214 115.379 69.8508 116.025C69.9521 116.307 69.8828 116.539 69.6428 116.721C69.4135 116.886 69.1202 117.008 68.7629 117.088C67.4349 116.624 66.4288 115.733 65.7461 114.416C67.5221 115.285 68.4348 115.241 68.4828 114.281Z" fill="#C15227"/>
<path d="M89.0827 121.065C88.8161 121.214 88.4827 121.214 88.0827 121.065C87.8107 120.963 87.7307 121.049 87.8427 121.321C88.7121 123.422 88.9222 125.907 88.4742 128.777C85.9996 132.963 82.9573 134.486 79.3466 133.345C75.4586 132.113 74.0347 126.769 75.1227 123.353C76.0613 120.414 77.9253 118.305 80.7147 117.025C80.7421 117.015 80.7654 116.996 80.7806 116.971C80.7958 116.946 80.8021 116.917 80.7984 116.888C80.7947 116.859 80.7812 116.832 80.7601 116.812C80.7391 116.792 80.7117 116.779 80.6827 116.777C70.6027 114.937 65.0503 127.28 65.1063 135.232C65.0583 135.307 65.0128 135.379 64.9702 135.449C62.9328 133.726 62.2235 131.771 62.8422 129.584C63.5248 124.742 65.7331 120.731 69.4665 117.552C75.4425 113.008 85.2827 114.001 89.0827 121.065ZM77.2824 124.257C78.1784 124.87 79.133 124.955 80.1464 124.513C80.4731 124.37 80.7313 124.105 80.8657 123.775C81.0002 123.445 81.0005 123.075 80.8664 122.744C78.8504 117.832 74.8744 122.617 77.2824 124.257Z" fill="#070608"/>
<path d="M53.9953 115.296C54.4993 116.928 54.7153 118.048 56.0273 119.296C57.3553 120.552 59.3633 122.24 58.7633 124.344C56.6673 131.624 55.7957 136.192 60.6917 141.848L57.9477 139.608C57.7343 139.432 57.497 139.302 57.2357 139.216C52.9104 137.766 49.561 135.102 47.1877 131.224C47.0544 131.006 46.8623 130.87 46.6117 130.816C43.8677 130.192 40.0997 131.664 37.5797 131.624C37.329 131.619 37.193 131.741 37.1717 131.992C37.113 132.669 37.2223 133.221 37.4997 133.648C36.8277 134.213 36.7237 135.011 37.1877 136.04C37.2944 136.269 37.3104 136.504 37.2357 136.744C36.7557 138.28 37.1317 139.47 38.3637 140.312C38.4747 140.387 38.5531 140.502 38.5828 140.633C38.6125 140.763 38.5914 140.9 38.5237 141.016C38.1984 141.571 37.641 141.931 36.8517 142.096L33.9317 138.392C33.7824 138.195 33.7184 137.973 33.7397 137.728C34.0197 134.856 30.7797 134.152 31.9077 130.224C31.9717 130 31.921 129.805 31.7557 129.64L31.4354 129.321L31.0673 128.417C30.9287 128.07 31.0247 127.984 31.3553 128.16L32.8917 128.976C34.209 129.798 35.2623 130.24 36.0517 130.304C44.9157 131.046 50.8677 127.398 53.9077 119.36C54.5157 117.752 53.5797 117.672 52.2757 117.824C53.3157 117.211 53.8886 116.368 53.9953 115.296Z" fill="#C15227"/>
<path d="M185.223 117.147C186.138 116.726 186.771 116.147 186.636 115.854C186.502 115.561 185.65 115.665 184.735 116.086C183.82 116.506 183.187 117.085 183.322 117.378C183.457 117.671 184.308 117.568 185.223 117.147Z" fill="#FB8A30"/>
<path d="M153.443 134.352C153.443 135.024 153.363 135.368 152.603 135.336C147.872 135.086 143.123 135.024 138.355 135.152C132.43 134.566 129.43 131.181 129.355 125C129.169 124.552 129.094 123.995 129.131 123.328C129.419 121.147 130.537 119.32 132.483 117.848C132.562 117.789 132.655 117.753 132.752 117.742C132.85 117.731 132.948 117.746 133.038 117.786C133.128 117.826 133.205 117.889 133.262 117.969C133.319 118.049 133.354 118.142 133.363 118.24C133.563 120.928 134.939 121.32 136.755 122.784C136.854 122.865 136.923 122.975 136.954 123.098C136.984 123.22 136.973 123.349 136.923 123.464C136.481 124.477 135.699 124.904 134.579 124.744C134.345 124.712 134.166 124.592 134.043 124.384L132.915 122.544C132.854 122.44 132.758 122.359 132.644 122.315C132.53 122.27 132.403 122.263 132.283 122.296C127.403 123.6 132.683 136.712 139.675 132.328C141.121 131.421 142.153 129.979 142.771 128C144.259 123.232 142.713 119.504 138.131 116.816C137.715 116.571 137.747 116.413 138.227 116.344C147.211 115.008 151.891 126.928 151.827 133.872C151.827 134.181 151.982 134.336 152.291 134.336L153.443 134.352Z" fill="#FCECDE"/>
<path d="M88.4742 128.777C87.9622 133.102 84.9089 135.15 79.3142 134.921C79.1862 134.915 79.0902 134.969 79.0262 135.081L78.8582 135.369C78.8209 135.427 78.7702 135.451 78.7062 135.441C74.7382 134.886 70.8156 135.129 66.9383 136.169C66.0209 136.419 65.4103 136.107 65.1063 135.232C65.0503 127.28 70.6027 114.937 80.6827 116.777C80.7117 116.779 80.7391 116.792 80.7601 116.812C80.7812 116.832 80.7947 116.859 80.7984 116.888C80.8021 116.917 80.7958 116.946 80.7806 116.971C80.7654 116.996 80.7421 117.015 80.7147 117.025C77.9253 118.305 76.0613 120.414 75.1227 123.353C74.0347 126.769 75.4586 132.113 79.3466 133.345C82.9573 134.486 85.9996 132.963 88.4742 128.777Z" fill="#FCECDE"/>
<path d="M77.2824 124.257C74.8744 122.617 78.8504 117.832 80.8664 122.744C81.0005 123.075 81.0002 123.445 80.8657 123.775C80.7313 124.105 80.4731 124.37 80.1464 124.513C79.133 124.955 78.1784 124.87 77.2824 124.257Z" fill="#EBE1DA"/>
<path d="M128.907 122.672C128.95 123.147 129.025 123.365 129.131 123.328C129.094 123.995 129.169 124.552 129.355 125C128.705 125.421 128.555 124.645 128.907 122.672Z" fill="#C15227"/>
<path d="M29.3219 141.401L30.9459 142.969C31.1272 143.145 31.3433 143.241 31.5939 143.257L34.8819 143.489C31.7566 146.315 28.4046 146.849 24.8259 145.089C24.5486 144.95 24.4419 145.033 24.5059 145.337C26.0899 152.553 33.7219 155.089 39.5859 150.457C39.6713 150.483 39.7432 150.513 39.8019 150.545C39.8303 150.56 39.8545 150.583 39.8723 150.61C39.8901 150.637 39.901 150.668 39.9042 150.7C39.9073 150.733 39.9026 150.765 39.8903 150.795C39.8781 150.825 39.8587 150.852 39.8339 150.873C37.5459 152.899 34.9379 154.198 32.0099 154.769C28.6606 155.707 25.5513 154.825 22.6819 152.121C21.8179 150.177 20.1379 148.753 19.3859 147.121C16.6659 141.169 18.2099 132.953 20.3539 127.073C20.3949 126.954 20.4734 126.853 20.5775 126.784C20.6816 126.715 20.8057 126.682 20.9312 126.69C21.0567 126.698 21.1767 126.747 21.2731 126.829C21.3695 126.911 21.4372 127.022 21.4659 127.145C23.0099 133.721 22.5619 138.105 29.3219 141.401Z" fill="#FED987"/>
<path d="M24.5625 126.56C25.9278 131.195 28.3113 134.952 31.7139 137.832C32.6046 138.563 33.3015 139.413 33.8029 140.384C33.9362 140.645 33.8909 140.872 33.6669 141.064C33.0322 141.603 32.1246 141.747 30.946 141.496L30.49 140.272C30.3993 140.022 30.2447 139.822 30.026 139.672C28.178 138.384 22.714 133.168 23.826 130.296C23.9199 130.061 23.9449 129.803 23.898 129.552C23.674 128.256 23.8958 127.259 24.5625 126.56Z" fill="#C15227"/>
<path d="M176.275 136.424L172.939 133.337C172.753 133.161 172.611 132.955 172.515 132.721L171.195 129.44C171.446 128.614 171.851 128.006 172.411 127.616C172.637 127.458 172.895 127.352 173.166 127.307C173.438 127.261 173.716 127.277 173.98 127.353C174.244 127.429 174.488 127.563 174.692 127.746C174.897 127.929 175.058 128.155 175.163 128.408C176.171 130.814 176.541 133.486 176.275 136.424Z" fill="#ED6926"/>
<path d="M31.4341 129.32L31.7543 129.64C31.9197 129.806 31.9703 130 31.9063 130.224C30.7783 134.152 34.0184 134.856 33.7384 137.728C33.717 137.974 33.781 138.195 33.9303 138.392L36.85 142.096C36.274 142.822 35.6179 143.286 34.8819 143.489L31.5939 143.257C31.3433 143.241 31.1272 143.145 30.9459 142.969L29.3219 141.401C29.9833 141.55 30.5246 141.582 30.946 141.496C32.1246 141.747 33.0322 141.603 33.6669 141.064C33.8909 140.872 33.9362 140.645 33.8029 140.384C33.3015 139.413 32.6046 138.563 31.7139 137.832C32.2473 137.379 32.3273 137.03 31.9539 136.784C29.7833 135.35 28.5966 133.352 28.394 130.792C28.3785 130.602 28.4164 130.404 28.5023 130.228C28.5882 130.051 28.7178 129.905 28.873 129.809C29.0282 129.713 29.2012 129.672 29.3678 129.692C29.5344 129.712 29.6861 129.792 29.8019 129.92C30.2606 130.432 30.8048 130.232 31.4341 129.32Z" fill="#FB8A30"/>
<path d="M62.8422 129.584C62.2235 131.771 62.9328 133.726 64.9702 135.449C65.2315 135.657 65.2955 135.854 65.1622 136.041C65.0774 136.159 64.9649 136.256 64.8344 136.321C64.704 136.386 64.5596 136.419 64.4137 136.416C64.2679 136.412 64.125 136.374 63.9975 136.303C63.87 136.232 63.7618 136.131 63.6822 136.009C63.2902 135.401 59.8742 128.712 62.8422 129.584Z" fill="#FCE8A3"/>
<path d="M171.195 129.44L172.515 132.721C172.611 132.955 172.753 133.161 172.939 133.337L176.275 136.424L175.755 137.713C173.813 141.707 170.712 144.355 166.451 145.656C163.742 146.296 161.192 145.843 158.803 144.297C158.888 142.803 159.386 141.542 160.298 140.513C164.818 137.673 167.443 134.144 171.195 129.44Z" fill="#FCA85B"/>
<path d="M186.923 135.856C185.091 136.392 183.091 134.592 182.499 132.944C182.474 132.871 182.473 132.792 182.497 132.719C182.521 132.645 182.569 132.582 182.633 132.538C182.696 132.495 182.772 132.473 182.85 132.477C182.927 132.481 183 132.51 183.059 132.56C184.915 134.216 187.987 131.624 189.435 130.408C189.506 130.347 189.591 130.306 189.682 130.286C189.773 130.266 189.868 130.27 189.958 130.296C190.048 130.322 190.131 130.37 190.199 130.436C190.266 130.501 190.317 130.582 190.347 130.672C190.715 131.832 188.043 135.528 186.923 135.856Z" fill="#FB8A30"/>
<path d="M60.6917 141.848C60.7344 143.245 59.8268 144.187 57.9708 144.673C53.1068 145.953 46.8668 142.009 43.8748 138.417C43.698 138.209 43.4633 138.061 43.2028 137.993C41.0908 137.473 40.0188 134.472 38.2828 135.336L37.4997 133.648C37.2223 133.221 37.113 132.669 37.1717 131.992C37.193 131.741 37.329 131.619 37.5797 131.624C40.0997 131.664 43.8677 130.192 46.6117 130.816C46.8623 130.87 47.0544 131.006 47.1877 131.224C49.561 135.102 52.9104 137.766 57.2357 139.216C57.497 139.302 57.7343 139.432 57.9477 139.608L60.6917 141.848Z" fill="#FB9E50"/>
<path d="M198.067 137.633C197.102 138.459 196.475 139.235 196.187 139.961C194.059 142.753 192.427 145.52 189.019 146.696C185.547 147.368 182.186 147.224 180.034 144.256C181.8 143.68 182.256 142.589 181.402 140.984C181.382 140.942 181.376 140.894 181.384 140.848C181.392 140.802 181.415 140.76 181.448 140.727C181.482 140.694 181.525 140.673 181.571 140.666C181.617 140.659 181.665 140.667 181.706 140.688C187.018 143.736 190.186 137.616 191.938 133.824C192.01 133.673 192.127 133.548 192.273 133.467C192.419 133.386 192.587 133.353 192.752 133.373C192.917 133.392 193.071 133.463 193.192 133.576C193.313 133.689 193.395 133.837 193.426 134C193.634 135 194.65 136.888 195.906 136.64C196.152 136.587 196.384 136.627 196.602 136.76L198.067 137.633Z" fill="#FB9E50"/>
<path d="M37.4997 133.648L38.2828 135.336L41.5469 140.432C37.7869 143.008 42.9309 146.44 45.2269 148.488C43.4029 148.328 42.0268 147.457 40.9468 149.529L39.5871 150.456C33.7231 155.088 26.091 152.552 24.507 145.336C24.443 145.032 24.5497 144.95 24.8271 145.088C28.4057 146.848 31.7581 146.315 34.8834 143.488C35.6194 143.285 36.2757 142.821 36.8517 142.096C37.641 141.931 38.1984 141.571 38.5237 141.016C38.5914 140.9 38.6125 140.763 38.5828 140.633C38.5531 140.502 38.4747 140.387 38.3637 140.312C37.1317 139.47 36.7557 138.28 37.2357 136.744C37.3104 136.504 37.2944 136.269 37.1877 136.04C36.7237 135.011 36.8277 134.213 37.4997 133.648Z" fill="#B7291B"/>
<path d="M105.659 139.608C107.195 139.488 106.619 137.336 105.803 136.504C105.131 133.536 110.203 137.568 110.803 139.312C110.9 139.61 110.877 139.932 110.739 140.208C109.293 143.142 107.011 143.923 103.891 142.552C103.634 142.439 103.419 142.249 103.276 142.009C103.132 141.768 103.067 141.489 103.089 141.209C103.111 140.93 103.219 140.664 103.398 140.449C103.578 140.234 103.82 140.08 104.091 140.008L105.659 139.608Z" fill="#F99B63"/>
<path d="M105.803 136.504C106.619 137.336 107.195 139.488 105.659 139.608C104.56 139.507 103.784 139.152 103.331 138.544C103.253 138.439 103.202 138.315 103.184 138.185C103.166 138.055 103.181 137.923 103.227 137.8C103.654 136.696 104.512 136.264 105.803 136.504Z" fill="#FCECDE"/>
<path d="M175.755 137.713C176.768 140.331 178.195 142.513 180.035 144.257C182.187 147.225 185.547 147.368 189.019 146.696C190.011 148.304 187.027 148.065 186.147 147.929C181.147 147.121 172.931 146.369 168.683 149.713C161.579 155.313 156.262 158.979 152.731 160.713C144.195 164.897 131.235 171.081 121.275 169.145C119.947 168.889 118.598 168.705 117.227 168.593C116.923 168.566 116.782 168.705 116.803 169.009C116.825 169.243 116.977 169.48 117.259 169.72L118.979 172.712C117.71 172.611 116.619 171.505 115.707 169.393C115.59 169.11 115.385 168.921 115.091 168.825C114.665 168.686 114.161 168.672 113.579 168.784L113.395 165.848L125.715 164.472L125.979 164.937C126.113 165.171 126.313 165.273 126.579 165.241C132.315 164.569 137.779 163.249 142.939 160.585C144.747 159.657 147.715 158.569 149.115 157.193C149.939 156.377 151.251 156.289 151.963 155.873C155.435 153.803 158.31 151.075 160.587 147.689C160.66 147.584 160.755 147.497 160.866 147.435C160.977 147.373 161.1 147.336 161.227 147.329C161.643 147.305 169.483 147.672 166.451 145.656C170.712 144.355 173.813 141.707 175.755 137.713Z" fill="#891814"/>
<path d="M131.93 144.704C131.866 142 133.466 140.174 136.73 139.224C142.986 137.328 152.93 137.488 157.146 143.648C157.274 143.84 157.263 144.027 157.114 144.208C151.626 150.64 137.066 151.088 131.93 144.704Z" fill="#F98759"/>
<path d="M79.9944 148.656C76.1624 149.336 67.3064 149.056 65.9864 143.944C65.9064 143.646 65.9943 143.411 66.2503 143.24C72.5623 139.04 80.3864 135.92 86.4264 141.768C90.1544 145.376 82.2424 148.256 79.9944 148.656Z" fill="#F98759"/>
<path d="M196.186 139.96C196.837 141.95 196.866 143.451 196.274 144.464C192.178 150.192 185.866 156.12 178.106 154.472C177.986 154.448 177.874 154.391 177.784 154.308C177.694 154.225 177.628 154.118 177.594 154C176.738 151.04 172.29 157.272 170.178 157.784C169.917 157.848 169.687 157.971 169.49 158.152C162.986 164.232 155.13 166.608 146.954 169.496C146.693 169.587 146.431 169.59 146.17 169.504C144.178 168.872 138.234 173.472 135.826 174.192C129.911 175.947 124.506 174.84 119.61 170.872C119.066 170.432 117.994 168.656 117.258 169.72C116.975 169.48 116.823 169.243 116.802 169.008C116.781 168.704 116.922 168.565 117.226 168.592C118.597 168.704 119.946 168.888 121.274 169.144C131.234 171.08 144.194 164.896 152.73 160.712C156.261 158.979 161.578 155.312 168.682 149.712C172.93 146.368 181.146 147.12 186.146 147.928C187.026 148.064 190.011 148.304 189.019 146.696C192.427 145.52 194.058 142.752 196.186 139.96Z" fill="#C15227"/>
<path d="M41.5469 140.432C46.4909 145.304 53.4429 149.376 60.1149 144.776C60.1767 144.734 60.2474 144.706 60.3216 144.695C60.3958 144.683 60.4716 144.689 60.5432 144.712C60.6148 144.734 60.6804 144.772 60.7351 144.824C60.7898 144.875 60.8321 144.938 60.8589 145.008C67.0029 161.128 86.7629 165.368 101.987 165.672L101.955 168.369C91.5333 168.139 83.4689 167.475 77.7622 166.376C72.6796 165.4 67.7249 163.174 62.8982 159.696C60.0662 157.656 55.2022 152.856 50.9302 150.584C50.3436 150.27 49.7356 150.568 49.1062 151.48L45.2269 148.488C42.9309 146.44 37.7869 143.008 41.5469 140.432Z" fill="#60080C"/>
<path d="M158.803 144.297C161.192 145.843 163.742 146.296 166.451 145.656C169.483 147.672 161.643 147.305 161.227 147.329C161.1 147.336 160.977 147.373 160.866 147.435C160.755 147.497 160.66 147.584 160.587 147.689C158.31 151.075 155.435 153.803 151.963 155.873C151.251 156.289 149.939 156.377 149.115 157.193C147.715 158.569 144.747 159.657 142.939 160.585C137.779 163.249 132.315 164.569 126.579 165.241C126.313 165.273 126.113 165.171 125.979 164.937L125.715 164.472C139.307 162.696 152.539 157.105 158.803 144.297Z" fill="#60080C"/>
<path d="M132.803 182.713L124.371 179.392C121.427 178.091 118.294 177.077 114.971 176.352C114.31 176.208 113.915 175.536 113.787 174.336C114.785 173.52 115.846 173.601 116.971 174.577C117.174 174.753 117.409 174.825 117.675 174.793L119.595 174.537C119.705 174.522 119.816 174.533 119.92 174.569C120.024 174.605 120.119 174.665 120.195 174.745C120.547 175.118 120.963 175.246 121.443 175.129C121.806 175.038 121.838 174.878 121.539 174.649L118.979 172.712L117.259 169.72C117.995 168.656 119.067 170.432 119.611 170.872C124.507 174.84 129.913 175.947 135.827 174.192C138.235 173.472 144.179 168.872 146.171 169.504C146.433 169.589 146.694 169.587 146.955 169.496C155.131 166.608 162.987 164.232 169.491 158.152C169.689 157.971 169.918 157.848 170.179 157.784C172.291 157.272 176.739 151.04 177.595 154C177.629 154.118 177.695 154.224 177.785 154.308C177.876 154.391 177.987 154.448 178.107 154.472C185.867 156.12 192.179 150.193 196.275 144.465C196.488 145.462 197.019 146.201 197.867 146.681C198.112 146.819 198.334 146.785 198.531 146.577L200.579 144.377C200.634 144.322 200.707 144.29 200.783 144.285C200.86 144.28 200.936 144.303 200.998 144.35C201.059 144.397 201.101 144.464 201.117 144.539C201.133 144.615 201.121 144.693 201.083 144.761C196.003 152.841 189.515 159.321 179.179 159.385C178.251 159.393 177.811 159.689 177.763 160.609C177.747 160.87 177.67 161.113 177.531 161.337C172.083 170.209 162.283 175.713 151.563 173.929C151.295 173.882 151.019 173.933 150.787 174.073C149.883 174.593 148.899 175.073 148.107 175.801C144.022 179.566 138.92 181.87 132.803 182.713Z" fill="#ED6926"/>
<path d="M45.2269 148.488L49.1062 151.48L58.4594 160.656L56.7952 161.32C56.5605 161.416 56.3365 161.392 56.1232 161.248C54.1312 159.912 40.8748 151.097 40.9468 149.529C42.0268 147.457 43.4029 148.328 45.2269 148.488Z" fill="#C15227"/>
<path d="M22.6819 152.121C25.5513 154.825 28.6616 155.707 32.0109 154.768C34.5496 156.304 36.9389 158.163 39.1789 160.344C42.9469 164.008 50.1869 165.736 55.4749 167.552C55.5304 167.575 55.592 167.578 55.6492 167.56C55.7064 167.542 55.7555 167.504 55.7879 167.454C55.8202 167.403 55.8339 167.343 55.8264 167.284C55.8189 167.224 55.7908 167.169 55.7469 167.128C54.9096 166.237 53.9176 165.555 52.7709 165.08C46.7923 162.637 41.6003 159.046 37.1949 154.304C36.9709 154.064 37.0003 153.859 37.2829 153.688L40.1069 152.032C40.3629 151.883 40.5816 151.923 40.7629 152.152C45.4109 157.984 52.9069 162.752 58.6269 167.704C62.2589 170.84 65.0829 172.856 67.0989 173.752C74.5389 177.056 81.9229 176.008 89.7229 173.968C89.8541 173.94 89.9911 173.959 90.1096 174.022C90.2282 174.085 90.3206 174.188 90.3704 174.312C90.4203 174.437 90.4244 174.575 90.382 174.703C90.3396 174.83 90.2535 174.938 90.1389 175.008C88.7416 175.776 88.3763 176.384 89.0429 176.832C81.9149 180.696 72.7312 181.896 65.1952 178.6C61.0832 176.8 58.8431 174.28 55.6511 170.48C55.4645 170.267 55.2325 170.139 54.9551 170.096C45.6671 168.688 41.0272 166.8 32.9632 161.976C28.9232 159.56 24.6664 158.536 21.2664 154.352C20.1037 152.699 19.4531 151.03 19.3144 149.344C19.3109 149.273 19.3323 149.202 19.375 149.144C19.4176 149.086 19.4789 149.045 19.5484 149.027C19.618 149.009 19.6916 149.016 19.7568 149.046C19.822 149.076 19.8749 149.128 19.9064 149.192C20.8771 151.374 21.8019 152.35 22.6819 152.121Z" fill="#ED6926"/>
<path d="M116.682 157.952C112.514 160.648 106.235 160.056 101.299 158.752C97.3733 157.6 95.0591 154.939 94.3551 150.768C94.3178 150.533 94.3871 150.493 94.5631 150.648C99.6591 155.208 114.963 153.8 119.915 149.152C120.214 148.875 120.371 148.941 120.387 149.352C120.488 152.653 119.253 155.52 116.682 157.952Z" fill="#891814"/>
<path d="M40.9468 149.529C40.8748 151.097 54.1312 159.912 56.1232 161.248C56.3365 161.392 56.5605 161.416 56.7952 161.32L58.4594 160.656C67.1394 171.496 78.1794 172.752 91.2754 171.08C93.7394 170.76 97.4034 171.176 100.595 169.8C100.867 169.683 101.019 169.771 101.051 170.064C101.235 171.664 100.635 174.76 102.115 174.768C102.462 176.576 101.971 177.459 100.643 177.416L101.602 175.425C101.636 175.355 101.65 175.278 101.642 175.202C101.635 175.125 101.607 175.052 101.56 174.991C101.514 174.93 101.451 174.882 101.38 174.854C101.308 174.826 101.23 174.819 101.154 174.833L97.2741 175.513C97.1477 175.535 97.0176 175.522 96.8968 175.477C96.7759 175.432 96.6688 175.356 96.5862 175.257C94.3542 172.481 91.4269 175.544 89.0429 176.832C88.3763 176.384 88.7416 175.776 90.1389 175.008C90.2535 174.938 90.3396 174.83 90.382 174.703C90.4244 174.575 90.4203 174.437 90.3704 174.312C90.3206 174.188 90.2282 174.085 90.1096 174.022C89.9911 173.959 89.8541 173.94 89.7229 173.968C81.9229 176.008 74.5389 177.056 67.0989 173.752C65.0829 172.856 62.2589 170.84 58.6269 167.704C52.9069 162.752 45.4109 157.984 40.7629 152.152C40.5816 151.923 40.3629 151.883 40.1069 152.032L37.2829 153.688C37.0003 153.859 36.9709 154.064 37.1949 154.304C41.6003 159.046 46.7923 162.637 52.7709 165.08C53.9176 165.555 54.9096 166.237 55.7469 167.128C55.7908 167.169 55.8189 167.224 55.8264 167.284C55.8339 167.343 55.8202 167.403 55.7879 167.454C55.7555 167.504 55.7064 167.542 55.6492 167.56C55.592 167.578 55.5304 167.575 55.4749 167.552C50.1869 165.736 42.9469 164.008 39.1789 160.344C36.9389 158.163 34.5496 156.304 32.0109 154.768C34.9389 154.198 37.5469 152.899 39.8349 150.872C39.8597 150.851 39.8791 150.825 39.8913 150.795C39.9036 150.765 39.9083 150.732 39.9051 150.7C39.902 150.668 39.8911 150.637 39.8733 150.609C39.8555 150.582 39.8313 150.56 39.8029 150.544C39.7442 150.512 39.6724 150.483 39.5871 150.456L40.9468 149.529Z" fill="#E05E28"/>
<path d="M101.955 168.369L101.947 171.721L102.114 174.769C100.634 174.761 101.234 171.664 101.05 170.064C101.018 169.771 100.866 169.683 100.594 169.8C97.4023 171.176 93.7382 170.76 91.2742 171.08C78.1782 172.752 67.1382 171.497 58.4582 160.657L49.1062 151.48C49.7356 150.568 50.3436 150.27 50.9302 150.584C55.2022 152.856 60.0662 157.656 62.8982 159.696C67.7249 163.174 72.6796 165.4 77.7622 166.376C83.4689 167.475 91.5333 168.139 101.955 168.369Z" fill="#B7291B"/>
<path d="M21.2664 154.352C24.6664 158.536 28.9232 159.56 32.9632 161.976C41.0272 166.8 45.6671 168.688 54.9551 170.096C55.2325 170.139 55.4645 170.267 55.6511 170.48C58.8431 174.28 61.0832 176.8 65.1952 178.6C72.7312 181.896 81.9149 180.696 89.0429 176.832C91.4269 175.544 94.3554 172.48 96.5874 175.256C96.67 175.356 96.7772 175.432 96.898 175.477C97.0188 175.522 97.149 175.534 97.2754 175.512L101.155 174.832C101.231 174.819 101.309 174.826 101.381 174.854C101.452 174.882 101.515 174.929 101.561 174.991C101.608 175.052 101.636 175.125 101.644 175.202C101.651 175.278 101.637 175.355 101.603 175.424L100.643 177.416L96.3792 178.032C96.1232 178.07 95.8805 178.024 95.6512 177.896C94.5685 177.283 93.6619 177.36 92.9312 178.128L91.5547 178.728C90.44 178.648 89.2914 178.958 88.1073 179.656C75.3953 184.12 73.2834 199.16 72.5714 210.392C46.8487 200.958 27.344 184.443 14.0587 160.848L17.1874 156.832C17.358 156.614 17.5633 156.435 17.8033 156.296L21.2664 154.352Z" fill="#FAA83F"/>
<path d="M101.987 165.672C101.87 165.805 102 165.819 102.379 165.712L113.395 165.848L113.579 168.784L113.362 171.824L101.947 171.721L101.955 168.369L101.987 165.672Z" fill="#FB8A30"/>
<path d="M113.578 168.784C114.159 168.672 114.663 168.686 115.09 168.825C115.383 168.921 115.589 169.11 115.706 169.393C116.618 171.505 117.709 172.611 118.978 172.713L121.538 174.648C121.837 174.878 121.805 175.038 121.442 175.128C120.962 175.246 120.546 175.118 120.194 174.745C120.117 174.665 120.023 174.605 119.919 174.569C119.815 174.533 119.703 174.522 119.594 174.536L117.674 174.792C117.407 174.824 117.173 174.753 116.97 174.577C115.845 173.601 114.783 173.52 113.786 174.336C113.466 173.504 113.325 172.667 113.362 171.824L113.578 168.784Z" fill="#C15227"/>
<path d="M113.362 171.824C113.325 172.667 113.467 173.504 113.787 174.336C113.915 175.536 114.31 176.208 114.971 176.352C118.294 177.077 121.427 178.091 124.371 179.392L123.227 180.512C122.517 179.712 121.755 179.224 120.939 179.048C120.683 178.995 120.507 179.091 120.411 179.336C118.843 183.568 115.747 189.04 111.115 190.128C104.299 191.736 98.0672 184.592 95.4272 178.904C95.3152 178.664 95.1312 178.52 94.8752 178.472L92.9312 178.128C93.6619 177.36 94.5685 177.283 95.6512 177.896C95.8805 178.024 96.1232 178.07 96.3792 178.032L100.643 177.416C101.971 177.459 102.462 176.576 102.115 174.768L101.947 171.721L113.362 171.824Z" fill="#FB9E50"/>
<path d="M92.9312 178.128L94.8752 178.472C95.1312 178.52 95.3152 178.664 95.4272 178.904C98.0672 184.592 104.299 191.736 111.115 190.128C115.747 189.04 118.843 183.568 120.411 179.336C120.507 179.091 120.683 178.995 120.939 179.048C121.755 179.224 122.517 179.712 123.227 180.512C118.819 191.024 108.227 197.864 98.7867 187.296C96.648 184.901 95.096 182.323 94.1307 179.56C94.04 179.309 93.88 179.125 93.6507 179.008C93.0053 178.677 92.3067 178.584 91.5547 178.728L92.9312 178.128Z" fill="#CA6246"/>
<path d="M123.227 180.512L124.37 179.392L132.803 182.713C140.531 188.529 143.115 198.785 142.907 208.169C142.891 208.793 143.397 209.222 144.427 209.456L135.691 212.136C136.443 210.832 136.747 209.52 137.595 208.312C139.109 206.168 140.176 203.8 140.795 201.208C140.933 200.606 140.845 200.571 140.531 201.104C139.288 203.206 137.835 205.147 136.171 206.928C135.995 207.115 135.867 207.331 135.787 207.576L135.259 209.216C135.242 209.254 135.213 209.285 135.177 209.305C135.14 209.324 135.098 209.33 135.057 209.323C135.017 209.316 134.98 209.295 134.953 209.264C134.925 209.233 134.909 209.194 134.907 209.152C135.109 204.32 134.808 199.512 134.003 194.728C133.998 194.675 133.973 194.626 133.933 194.592C133.892 194.557 133.84 194.54 133.787 194.544C133.734 194.549 133.684 194.574 133.65 194.614C133.615 194.655 133.598 194.707 133.603 194.76L133.554 212.608L132.13 213.081C126.258 214.409 120.231 215.254 114.05 215.617L114.554 196.272C114.565 195.958 114.416 195.832 114.106 195.896C102.45 198.472 91.7862 190.144 88.1062 179.656C89.2902 178.957 90.44 178.648 91.5547 178.728C92.3067 178.584 93.0053 178.677 93.6507 179.008C93.88 179.125 94.04 179.309 94.1307 179.56C95.096 182.323 96.648 184.901 98.7867 187.296C108.227 197.864 118.819 191.024 123.227 180.512Z" fill="#E6C9BB"/>
<path d="M88.1062 179.656C91.7862 190.144 102.45 198.472 114.106 195.896C114.416 195.832 114.565 195.958 114.554 196.272L114.05 215.617C103.357 216.209 92.8233 215.307 82.45 212.913C82.9353 206.305 82.928 200.136 82.4267 194.408C82.3147 193.139 82.216 193.139 82.1307 194.408C81.7947 199.363 81.6427 204.334 81.6747 209.32C81.6745 209.399 81.6545 209.476 81.6165 209.544C81.5786 209.612 81.5241 209.67 81.4582 209.711C81.3922 209.752 81.3172 209.775 81.2402 209.778C81.1632 209.781 81.0869 209.764 81.0187 209.728C78.72 208.555 76.8907 206.87 75.5307 204.672C75.4133 204.486 75.3013 204.488 75.1947 204.68C74.6027 205.776 79.2027 209.504 78.9387 210.176C78.848 210.411 78.9147 210.59 79.1387 210.712C79.7467 211.048 80.029 211.518 79.9863 212.12L72.5703 210.392C73.2823 199.16 75.3942 184.12 88.1062 179.656Z" fill="#FCECDE"/>
<path d="M82.4514 212.912L79.9875 212.12C80.0301 211.518 79.7467 211.048 79.1387 210.712C78.9147 210.59 78.848 210.411 78.9387 210.176C79.2027 209.504 74.6027 205.776 75.1947 204.68C75.3013 204.488 75.4133 204.486 75.5307 204.672C76.8907 206.87 78.72 208.555 81.0187 209.728C81.0869 209.764 81.1632 209.781 81.2402 209.778C81.3172 209.775 81.3922 209.752 81.4582 209.711C81.5241 209.67 81.5786 209.612 81.6165 209.544C81.6545 209.476 81.6745 209.399 81.6747 209.32C81.6427 204.334 81.7947 199.363 82.1307 194.408C82.216 193.139 82.3147 193.139 82.4267 194.408C82.928 200.136 82.9368 206.304 82.4514 212.912Z" fill="#A2A570"/>
<path d="M135.691 212.136L133.555 212.609L133.603 194.76C133.598 194.707 133.615 194.655 133.65 194.614C133.684 194.574 133.734 194.549 133.787 194.544C133.84 194.54 133.892 194.557 133.933 194.592C133.973 194.626 133.998 194.675 134.003 194.728C134.808 199.512 135.109 204.32 134.907 209.152C134.909 209.194 134.925 209.233 134.953 209.264C134.98 209.295 135.017 209.316 135.057 209.323C135.098 209.33 135.14 209.324 135.177 209.305C135.213 209.285 135.242 209.254 135.259 209.216L135.787 207.576C135.867 207.331 135.995 207.115 136.171 206.928C137.835 205.147 139.288 203.206 140.531 201.104C140.845 200.571 140.933 200.606 140.795 201.208C140.176 203.8 139.109 206.168 137.595 208.312C136.747 209.52 136.443 210.832 135.691 212.136Z" fill="#A2A570"/>
</svg>
