<svg width="213" height="216" viewBox="0 0 213 216" fill="none" xmlns="http://www.w3.org/2000/svg">
<path d="M142.666 6.55666L138.761 9.70866C138.558 9.86866 138.329 9.96732 138.073 10.0047C136.193 10.2607 134.793 10.2127 133.073 11.2767C131.569 12.2047 129.971 12.978 128.281 13.5966C128.003 13.698 127.809 13.8873 127.697 14.1647C127.121 15.61 126.025 16.37 124.409 16.4446C124.158 16.4553 124.025 16.3353 124.009 16.0846L123.969 15.6047C123.965 15.5453 123.947 15.4877 123.917 15.4362C123.887 15.3848 123.845 15.3408 123.795 15.3077C123.745 15.2745 123.688 15.2531 123.628 15.2449C123.568 15.2368 123.507 15.2422 123.449 15.2607L119.193 16.7087C118.915 16.8047 118.921 16.8527 119.209 16.8527H120.977C121.371 16.8527 121.374 16.8847 120.985 16.9487C117.63 17.5087 114.249 17.778 110.841 17.7567L120.194 18.0367C109.146 17.7727 100.745 18.3968 90.7531 22.4288C84.4918 24.9622 78.4011 27.8875 72.4811 31.2049C72.2624 31.3275 72.1478 31.2609 72.1371 31.0049C72.0571 28.1809 70.9771 20.0689 67.2251 19.9409C66.9371 19.9302 66.7344 20.0608 66.6171 20.3328C65.2838 23.4528 63.4758 25.7649 61.1931 27.2689C50.7131 34.1889 33.5531 45.2769 44.8411 60.1889C45.0758 60.4982 45.0011 60.6822 44.6171 60.7409C35.6304 62.0902 29.3664 67.0609 25.8251 75.6529L26.1772 70.9007C26.1985 70.5914 26.0865 70.3461 25.8412 70.1648C24.6572 69.3114 23.3718 69.2448 21.9852 69.9648C21.7505 70.0874 21.6252 70.2794 21.6092 70.5407C21.5825 70.9461 21.3265 71.1861 20.8412 71.2608C20.7132 71.2768 20.6358 71.2207 20.6092 71.0927C20.5878 71.0074 20.5372 70.9221 20.4572 70.8367C20.2918 70.6501 20.0892 70.5781 19.8492 70.6208C17.5718 71.0368 15.3478 71.6154 13.1772 72.3568C11.5292 72.9248 9.83316 72.3408 10.0012 70.3248C10.0172 70.1381 9.92916 70.0447 9.73716 70.0447L8.26516 70.0688C8.12649 70.0741 8.03316 70.0127 7.98516 69.8847L7.48916 68.6367C10.6732 60.3167 14.8921 52.4286 20.1454 44.9726C47.9134 5.84464 97.4017 -8.25134 142.666 6.55666Z" fill="#91C299"/>
<path d="M142.666 6.55666C159.423 12.5407 173.449 21.6607 184.745 33.9167C207.273 58.3567 214.969 88.5007 212.185 121.253C211.369 130.81 209.217 140.063 205.729 149.013C202.678 156.485 198.873 163.485 194.313 170.013L190.361 165.892C190.174 165.7 190.121 165.474 190.201 165.213C191.737 160.189 192.588 155.055 192.753 149.813C192.825 147.549 191.721 145.86 193.593 143.428C198.049 137.676 196.001 133.589 193.841 127.405C193.257 125.717 194.697 124.045 194.825 122.477C194.985 120.471 194.716 118.53 194.017 116.653C193.867 116.252 193.828 115.818 193.904 115.399C193.98 114.979 194.168 114.588 194.449 114.269C198.689 109.437 201.113 104.541 196.417 98.7165C196.246 98.5085 196.166 98.2712 196.177 98.0045C196.401 92.3085 194.289 88.6605 192.025 83.6445C191.289 82.0045 191.305 80.7805 192.337 79.3965C194.993 75.8525 197.489 72.9885 197.401 68.2765C197.396 68.0259 197.329 67.7804 197.207 67.5618C197.084 67.3433 196.909 67.1584 196.698 67.0238C196.486 66.8892 196.245 66.8089 195.995 66.7902C195.745 66.7715 195.494 66.8149 195.265 66.9165C192.572 68.1005 189.516 68.3325 186.097 67.6125C187.83 64.2312 187.716 61.346 185.753 58.9567L185.321 55.7406C185.273 55.3886 185.105 55.314 184.817 55.5167C180.089 58.8767 175.473 58.5966 169.729 58.1886L157.674 41.3008C158.959 36.9648 157.905 33.2767 154.513 30.2367C154.588 29.2181 154.356 28.3007 153.817 27.4847C153.785 27.4337 153.742 27.3901 153.692 27.3566C153.641 27.3231 153.584 27.3004 153.524 27.2899C153.464 27.2794 153.403 27.2813 153.343 27.2956C153.283 27.3098 153.227 27.3361 153.177 27.3727C146.753 32.1887 138.113 31.7887 130.609 30.8047C130.951 26.474 129.889 22.3671 127.425 18.4844C125.436 17.6897 123.025 17.5406 120.193 18.0366L110.841 17.7567C114.249 17.778 117.63 17.5087 120.985 16.9487C121.374 16.8847 121.371 16.8527 120.977 16.8527H119.209C118.921 16.8527 118.915 16.8047 119.193 16.7087L123.449 15.2607C123.507 15.2422 123.568 15.2368 123.628 15.2449C123.688 15.2531 123.745 15.2745 123.795 15.3077C123.845 15.3408 123.887 15.3848 123.917 15.4362C123.947 15.4877 123.965 15.5453 123.969 15.6047L124.009 16.0846C124.025 16.3353 124.158 16.4553 124.409 16.4446C126.025 16.37 127.121 15.61 127.697 14.1647C127.809 13.8873 128.003 13.698 128.281 13.5966C129.971 12.978 131.569 12.2047 133.073 11.2767C134.793 10.2127 136.193 10.2607 138.073 10.0047C138.329 9.96732 138.558 9.86866 138.761 9.70866L142.666 6.55666Z" fill="#7EBA98"/>
<path d="M127.425 18.4844C126.313 21.3804 123.562 21.3324 120.594 21.6444C110.258 21.7564 103.93 21.9405 94.9939 24.4845C85.1059 27.6525 75.3932 33.3328 66.2652 38.3808C66.1517 38.4461 66.0185 38.4683 65.8899 38.4433C65.7614 38.4183 65.6462 38.3478 65.5655 38.2447C65.4848 38.1416 65.444 38.0129 65.4505 37.8821C65.4571 37.7513 65.5105 37.6273 65.6012 37.5328C67.0358 35.9861 68.5985 34.3941 70.2892 32.7568C72.3052 30.8048 70.3292 25.8928 69.0172 24.0928C68.8465 23.8581 68.6598 23.8421 68.4572 24.0448L64.2892 28.2368C51.5052 37.4368 36.4888 45.5488 48.6648 63.7168C48.6779 63.7377 48.685 63.7618 48.6854 63.7864C48.6859 63.8111 48.6796 63.8354 48.6673 63.8568C48.6549 63.8782 48.637 63.8958 48.6154 63.9077C48.5939 63.9197 48.5694 63.9256 48.5448 63.9248C30.2648 63.2768 28.6008 79.6367 22.1048 91.6447C18.8568 96.2447 14.2251 99.7085 9.34505 95.5325C9.27221 95.4721 9.1821 95.4363 9.08766 95.4303C8.99322 95.4242 8.89928 95.4483 8.81933 95.4989C8.73938 95.5495 8.67752 95.6242 8.64262 95.7122C8.60771 95.8001 8.60156 95.8969 8.62505 95.9885C10.2624 102.063 14.137 105.61 20.249 106.629C19.6837 107.295 18.2544 107.202 15.961 106.348C16.377 106.524 16.4064 106.492 16.049 106.252C10.193 103.324 6.42491 97.9724 8.25691 91.2124C8.27074 91.1454 8.30792 91.0856 8.36182 91.0435C8.41572 91.0015 8.48281 90.98 8.55111 90.9829C8.6194 90.9858 8.68444 91.0129 8.7346 91.0593C8.78476 91.1057 8.81677 91.1685 8.82491 91.2363C9.74491 96.1563 17.4089 94.3804 19.4409 91.2524C21.7182 87.7484 23.8464 82.5489 25.8251 75.6529C29.3664 67.0609 35.6304 62.0902 44.6171 60.7409C45.0011 60.6822 45.0758 60.4982 44.8411 60.1889C33.5531 45.2769 50.7131 34.1889 61.1931 27.2689C63.4758 25.7649 65.2838 23.4528 66.6171 20.3328C66.7344 20.0608 66.9371 19.9302 67.2251 19.9409C70.9771 20.0689 72.0571 28.1809 72.1371 31.0049C72.1478 31.2609 72.2624 31.3275 72.4811 31.2049C78.4011 27.8875 84.4918 24.9622 90.7531 22.4288C100.745 18.3968 109.146 17.7727 120.194 18.0367C123.026 17.5407 125.436 17.6897 127.425 18.4844Z" fill="#F1E8B9"/>
<path d="M127.425 18.4844C129.889 22.3671 130.951 26.474 130.609 30.8047C128.044 31.4714 125.228 32.7807 122.161 34.7327L122.065 30.8845C122.06 30.6539 122.146 30.4299 122.305 30.2606C124.278 28.1966 124.729 25.8205 123.657 23.1325C123.55 22.8605 123.35 22.7059 123.057 22.6686L120.713 22.3805C120.451 22.3485 120.358 22.2072 120.433 21.9566C120.459 21.8552 120.513 21.7512 120.593 21.6445C123.561 21.3325 126.313 21.3804 127.425 18.4844Z" fill="#220509"/>
<path d="M120.593 21.6445C120.513 21.7512 120.459 21.8552 120.433 21.9566C120.358 22.2072 120.451 22.3485 120.713 22.3805L123.057 22.6686C123.35 22.7059 123.55 22.8605 123.657 23.1325C124.729 25.8205 124.278 28.1966 122.305 30.2606C122.146 30.4299 122.06 30.6539 122.065 30.8845L122.161 34.7327C124.534 34.05 125.913 33.8847 126.297 34.2367C131.934 34.0553 137.166 34.5671 141.993 35.7724C142.265 35.8417 142.462 36.0017 142.585 36.2524C143.145 37.3991 144.017 37.8684 145.201 37.6604C147.633 37.2284 149.753 37.4364 151.561 38.2844C151.817 38.4017 151.916 38.5991 151.857 38.8764C151.42 40.9991 150.324 42.6524 148.569 43.8364C148.329 43.9964 148.321 44.1644 148.545 44.3404C149.228 44.863 149.654 45.5004 149.825 46.2524C150.737 50.2684 151.481 54.1164 154.209 57.1964C156.097 59.3244 157.71 61.639 159.049 64.1404C159.825 65.5804 160.569 65.3884 161.689 64.4444L165.833 72.6447C165.883 72.7423 165.91 72.8502 165.912 72.9601C165.914 73.0699 165.89 73.1787 165.843 73.2778C165.796 73.377 165.726 73.4639 165.64 73.5317C165.553 73.5995 165.452 73.6464 165.345 73.6687C164.166 73.914 163.115 74.434 162.193 75.2287C161.809 75.5588 161.332 75.7622 160.828 75.8109C160.324 75.8596 159.817 75.7512 159.377 75.5007C153.969 72.4047 148.497 68.7807 142.841 66.6607C138.873 65.1727 123.161 59.7167 119.753 61.4447C119.687 61.4792 119.633 61.5333 119.599 61.5995C119.565 61.6658 119.553 61.7409 119.563 61.8146C119.574 61.8883 119.607 61.9569 119.658 62.011C119.709 62.0651 119.776 62.1021 119.849 62.1167C134.577 64.8127 155.905 73.3247 164.449 86.5327C164.518 86.6403 164.554 86.7659 164.551 86.8938C164.549 87.0217 164.509 87.1461 164.437 87.2513C164.364 87.3565 164.262 87.4378 164.143 87.4851C164.024 87.5323 163.894 87.5433 163.769 87.5167C163.393 87.4367 162.401 87.2767 162.001 87.0447C155.753 83.3407 149.145 79.1007 143.065 76.2927C124.921 67.9087 104.801 65.3887 85.0088 64.5807C83.6408 64.5247 82.0408 63.4607 80.2408 64.5727C80.0115 64.7114 79.7635 64.794 79.4968 64.8207C75.4008 65.2047 71.2941 65.3487 67.1768 65.2527C64.2648 65.1807 62.4168 66.7167 59.3048 65.0047C59.0648 64.8767 58.8088 64.8207 58.5368 64.8367C57.7368 64.8847 57.1048 65.2393 56.6408 65.9007C56.4868 66.121 56.2515 66.2731 55.9848 66.3247C53.9848 66.698 51.9715 66.8927 49.9448 66.9087C38.3768 66.9807 32.2568 86.0207 27.4168 94.0447C26.1155 96.194 24.4435 96.5674 22.4008 95.1647C22.1661 95.0047 22.0861 94.7887 22.1608 94.5167C22.4488 93.4554 22.4301 92.4981 22.1048 91.6447C28.6008 79.6367 30.2648 63.2768 48.5448 63.9248C48.5694 63.9256 48.5939 63.9197 48.6154 63.9077C48.637 63.8958 48.6549 63.8782 48.6673 63.8568C48.6796 63.8354 48.6859 63.8111 48.6854 63.7864C48.685 63.7618 48.6779 63.7377 48.6648 63.7168C36.4888 45.5488 51.5052 37.4368 64.2892 28.2368C64.8652 28.9301 64.8202 29.5805 64.1535 30.1885C63.9829 30.3485 63.9242 30.5432 63.9775 30.7726L64.2655 31.9246C64.4522 32.6552 64.2335 33.2339 63.6095 33.6606C56.9962 38.1886 54.9615 44.4766 57.5055 52.5246C57.6015 52.8286 57.7935 53.0446 58.0815 53.1726C58.4442 53.3379 58.7082 53.6152 58.8735 54.0046C58.9855 54.2766 59.0175 54.5592 58.9695 54.8526C58.8895 55.3806 59.0709 55.7672 59.5135 56.0126C59.6487 56.0881 59.8082 56.1078 59.9588 56.0676C60.1094 56.0273 60.2394 55.9302 60.3215 55.7965L60.6655 55.2126C60.7989 54.9886 60.9855 54.8206 61.2255 54.7086C67.7589 51.6846 73.5775 47.6259 78.6815 42.5325C84.2415 36.9885 89.4415 33.4446 95.2575 29.2686C97.3535 27.7566 99.8335 25.2366 103.058 23.9566C103.101 23.9404 103.136 23.9095 103.157 23.8695C103.178 23.8295 103.184 23.7829 103.174 23.7379C103.163 23.6929 103.137 23.6525 103.099 23.6237C103.062 23.5949 103.016 23.5796 102.97 23.5805C100.474 23.7192 98.0442 24.2072 95.6815 25.0445C95.5682 25.0851 95.4435 25.0834 95.3293 25.0395C95.2152 24.9956 95.119 24.9124 95.0575 24.8046C95.0095 24.7192 94.9874 24.6125 94.9928 24.4845C103.929 21.9405 110.257 21.7565 120.593 21.6445ZM121.25 28.9646C121.354 28.7909 121.41 28.5926 121.411 28.3901C121.413 28.1876 121.361 27.9883 121.259 27.8129C121.158 27.6375 121.012 27.4923 120.836 27.3924C120.66 27.2925 120.46 27.2414 120.258 27.2446C118.338 27.2766 114.914 26.7166 113.282 28.0686C112.53 28.6926 111.994 29.1059 111.674 29.3086C103.818 34.2686 96.0417 39.8606 87.9297 44.3406C86.319 45.2312 85.0017 46.4926 83.9777 48.1246C83.8454 48.3337 83.7801 48.5778 83.7902 48.8248C83.8003 49.0718 83.8854 49.3101 84.0343 49.5084C84.1832 49.7067 84.389 49.8556 84.6245 49.9356C84.86 50.0156 85.1142 50.0229 85.3537 49.9566C90.2097 48.5966 95.8417 45.3886 99.0497 43.9806C105.962 40.9486 112.834 38.3646 118.474 33.1566C119.802 31.9326 120.314 30.5246 121.25 28.9646ZM97.6736 49.2445C98.1216 49.4365 98.495 49.5058 98.7936 49.4525C111.234 47.2125 123.962 46.4525 135.85 51.5005C135.942 51.5401 136.046 51.549 136.145 51.5261C136.244 51.5031 136.334 51.4493 136.402 51.3725C137.818 49.7725 130.786 46.3084 129.778 45.9324C118.418 41.6818 107.703 42.5911 97.6336 48.6605C97.2656 48.8845 97.279 49.0791 97.6736 49.2445Z" fill="#2E2430"/>
<path d="M64.2892 28.2368L68.4572 24.0448C68.6598 23.8421 68.8465 23.8581 69.0172 24.0928C70.3292 25.8928 72.3052 30.8048 70.2892 32.7568C68.5985 34.3941 67.0358 35.9861 65.6012 37.5328C65.5105 37.6273 65.4571 37.7513 65.4505 37.8821C65.444 38.0129 65.4848 38.1416 65.5655 38.2447C65.6462 38.3478 65.7614 38.4183 65.8899 38.4433C66.0185 38.4683 66.1517 38.4461 66.2652 38.3808C75.3932 33.3328 85.1059 27.6525 94.9939 24.4845C94.9885 24.6125 95.0095 24.7192 95.0575 24.8046C95.119 24.9124 95.2152 24.9956 95.3293 25.0395C95.4435 25.0834 95.5682 25.0851 95.6815 25.0445C98.0442 24.2072 100.474 23.7192 102.97 23.5805C103.016 23.5796 103.062 23.5949 103.099 23.6237C103.137 23.6525 103.163 23.6929 103.174 23.7379C103.184 23.7829 103.178 23.8295 103.157 23.8695C103.136 23.9095 103.101 23.9404 103.058 23.9566C99.8335 25.2366 97.3535 27.7566 95.2575 29.2686C89.4415 33.4446 84.2415 36.9885 78.6815 42.5325C73.5775 47.6259 67.7589 51.6846 61.2255 54.7086C60.9855 54.8206 60.7989 54.9886 60.6655 55.2126L60.3215 55.7965C60.2394 55.9302 60.1094 56.0273 59.9588 56.0676C59.8082 56.1078 59.6487 56.0881 59.5135 56.0126C59.0709 55.7672 58.8895 55.3806 58.9695 54.8526C59.0175 54.5592 58.9855 54.2766 58.8735 54.0046C58.7082 53.6152 58.4442 53.3379 58.0815 53.1726C57.7935 53.0446 57.6015 52.8286 57.5055 52.5246C54.9615 44.4766 56.9962 38.1886 63.6095 33.6606C64.2335 33.2339 64.4522 32.6552 64.2655 31.9246L63.9775 30.7726C63.9242 30.5432 63.9829 30.3485 64.1535 30.1885C64.8202 29.5805 64.8652 28.9301 64.2892 28.2368Z" fill="#4B3540"/>
<path d="M121.25 28.9646C120.314 30.5246 119.802 31.9326 118.474 33.1566C112.834 38.3646 105.962 40.9486 99.0497 43.9806C95.8417 45.3886 90.2097 48.5966 85.3537 49.9566C85.1142 50.0229 84.86 50.0156 84.6245 49.9356C84.389 49.8556 84.1832 49.7067 84.0343 49.5084C83.8854 49.3101 83.8003 49.0718 83.7902 48.8248C83.7801 48.5778 83.8454 48.3337 83.9777 48.1246C85.0017 46.4926 86.319 45.2312 87.9297 44.3406C96.0417 39.8606 103.818 34.2686 111.674 29.3086C111.994 29.1059 112.53 28.6926 113.282 28.0686C114.914 26.7166 118.338 27.2766 120.258 27.2446C120.46 27.2414 120.66 27.2925 120.836 27.3924C121.012 27.4923 121.158 27.6375 121.259 27.8129C121.361 27.9883 121.413 28.1876 121.411 28.3901C121.41 28.5926 121.354 28.7909 121.25 28.9646Z" fill="#4B3540"/>
<path d="M154.513 30.2367C153.633 33.0207 143.977 33.9168 141.593 33.9248C141.438 33.9248 139.486 33.6954 135.737 33.2367C132.564 32.8527 129.417 33.186 126.297 34.2367C125.913 33.8847 124.534 34.05 122.161 34.7327C125.228 32.7807 128.044 31.4714 130.609 30.8047C138.113 31.7887 146.753 32.1887 153.177 27.3727C153.227 27.3361 153.283 27.3098 153.343 27.2956C153.403 27.2813 153.464 27.2794 153.524 27.2899C153.584 27.3004 153.641 27.3231 153.692 27.3566C153.742 27.3901 153.785 27.4337 153.817 27.4847C154.356 28.3007 154.588 29.2181 154.513 30.2367Z" fill="#F1E8B9"/>
<path d="M157.674 41.3008C155.714 44.3568 153.33 49.3088 155.85 51.7888C159.316 55.2075 163.679 57.6101 168.938 58.9968C174.703 60.8635 180.308 60.85 185.753 58.9567C187.716 61.346 187.83 64.2312 186.097 67.6125C184.7 70.1992 182.644 72.1565 179.929 73.4845C179.673 73.6125 179.663 73.7565 179.897 73.9165C190.545 81.2605 191.577 96.0205 183.289 105.58C183.207 105.675 183.163 105.797 183.168 105.923C183.172 106.049 183.224 106.17 183.313 106.261C184.753 107.725 186.353 109.229 187.297 110.821C190.057 115.445 190.889 122.38 186.537 126.428C186.442 126.518 186.329 126.587 186.205 126.63C186.082 126.673 185.951 126.69 185.82 126.68C185.69 126.669 185.563 126.631 185.448 126.569C185.333 126.506 185.233 126.42 185.153 126.317C183.692 124.455 181.772 123.634 179.393 123.853C179.084 123.879 179.001 124.031 179.145 124.309L179.961 125.932C176.321 122.764 171.361 121.221 167.097 124.165C164.852 125.626 163.686 127.738 163.601 130.501C163.489 134.085 170.169 138.917 165.233 141.205C164.966 141.328 164.737 141.28 164.545 141.061C162.742 138.97 160.58 137.181 158.057 135.693L158.433 129.621C159.281 123.306 159.551 116.898 159.242 110.397C159.237 110.266 159.196 110.14 159.124 110.032C159.052 109.923 158.952 109.836 158.834 109.781C152.37 106.645 144.77 104.901 137.794 103.309C135.261 102.098 132.633 101.469 129.913 101.421C109.089 96.4607 90.9933 90.2127 73.2093 78.7327C72.964 78.5727 72.756 78.6127 72.5853 78.8527L69.4173 83.1967C63.284 90.4394 56.3029 96.8819 48.4735 102.525C46.8522 112.407 46.1345 122.309 46.3212 132.229C45.8412 134.842 44.983 136.946 43.7457 138.541C42.3617 140.317 40.0017 141.309 38.6177 138.741C37.9617 137.525 37.3563 136.613 36.8017 136.005C39.1803 135.551 41.279 134.42 43.0977 132.612C46.8577 128.86 43.2177 124.06 39.0017 122.852C35.1777 121.002 31.9876 121.751 29.4329 125.101C27.6729 126.797 24.7056 130.037 25.0256 132.413C24.6949 132.535 24.5051 132.143 24.4571 131.237L23.361 129.013C21.913 119.069 25.929 112.965 31.769 105.461C32.729 104.229 32.593 103.053 32.577 101.533C33.3237 102.861 33.4601 103.933 32.9854 104.749C32.8574 104.967 32.8601 105.189 32.9934 105.413C34.0548 107.183 35.0788 108.981 36.0654 110.805C38.5934 115.469 42.7774 102.837 43.0734 101.837C43.3774 100.797 44.0334 99.3247 44.6574 98.7167C51.3294 92.2127 59.1694 86.9887 65.2014 79.7887C66.7694 77.9247 67.0494 76.4527 66.7854 74.1247C66.7578 73.8894 66.7939 73.6511 66.8901 73.4346C66.9863 73.2181 67.1389 73.0311 67.3323 72.8932C67.5257 72.7553 67.7528 72.6715 67.99 72.6503C68.2272 72.6291 68.4659 72.6713 68.6814 72.7727C71.5054 74.1087 74.5694 75.2927 77.2974 76.7087C94.1028 85.4447 111.329 91.7674 128.977 95.6767C131.175 96.162 133.655 96.1433 136.417 95.6207C136.668 95.5727 136.876 95.4527 137.041 95.2607C139.041 92.9407 141.201 91.0046 137.953 88.3326C135.751 86.5246 133.903 85.3113 132.409 84.6927C119.425 77.8447 102.225 74.6848 87.9048 73.1008C90.5128 72.3115 93.2355 72.1406 96.0728 72.5886C109.825 74.7486 132.785 75.2286 142.697 86.3406C146.825 90.9646 151.083 94.4179 155.473 96.7006C156.955 97.4739 158.987 97.7006 161.569 97.3806C161.707 97.3625 161.848 97.4001 161.96 97.4853C162.072 97.5704 162.147 97.6965 162.169 97.8366C162.462 99.8366 163.539 101.087 165.401 101.589C165.462 101.607 165.523 101.64 165.576 101.685C165.628 101.729 165.668 101.782 165.691 101.835C165.713 101.888 165.717 101.938 165.7 101.979C165.684 102.02 165.649 102.048 165.601 102.061C165.483 102.087 165.374 102.13 165.273 102.189C165.239 102.21 165.211 102.24 165.194 102.276C165.177 102.312 165.17 102.352 165.175 102.392C165.181 102.432 165.197 102.469 165.223 102.5C165.248 102.53 165.283 102.553 165.321 102.565C169.321 103.661 170.337 97.4606 170.561 94.8606C170.574 94.7192 170.628 94.5847 170.716 94.4733C170.804 94.3619 170.922 94.2783 171.057 94.2326C171.191 94.187 171.336 94.1811 171.474 94.2159C171.611 94.2507 171.736 94.3245 171.833 94.4286C173.681 96.4046 174.833 98.4526 173.129 101.021C172.078 102.605 170.721 103.925 169.057 104.981C168.9 105.082 168.77 105.22 168.678 105.383C168.587 105.546 168.536 105.729 168.532 105.915C168.527 106.102 168.568 106.286 168.651 106.452C168.734 106.618 168.857 106.761 169.009 106.869C170.193 107.709 171.361 108.477 172.809 109.069C179.185 111.669 184.433 115.125 185.977 122.341C185.991 122.412 186.023 122.478 186.07 122.534C186.116 122.59 186.176 122.633 186.244 122.66C186.313 122.687 186.387 122.697 186.46 122.688C186.533 122.68 186.604 122.654 186.665 122.613C188.585 121.285 186.337 113.045 184.121 110.357C182.833 108.805 176.145 106.101 178.081 103.533C181.897 98.4686 185.841 93.2926 180.985 86.9886C180.912 86.896 180.869 86.7838 180.86 86.6665C180.852 86.5491 180.878 86.4319 180.937 86.3297C180.995 86.2275 181.083 86.1451 181.188 86.0929C181.294 86.0407 181.412 86.0211 181.529 86.0366L182.073 86.1086C182.19 86.1246 182.278 86.0793 182.337 85.9726C184.107 82.8153 183.937 79.9966 181.825 77.5166C181.35 76.9619 180.385 76.3326 178.929 75.6286C176.486 74.4552 174.801 72.5459 173.873 69.9006C173.787 69.6499 173.627 69.4606 173.393 69.3326C170.113 67.5406 167.185 66.9966 163.921 64.5406C162.987 63.8419 162.244 63.8097 161.689 64.4444C160.569 65.3884 159.825 65.5804 159.049 64.1404C157.71 61.639 156.097 59.3244 154.209 57.1964C151.481 54.1164 150.737 50.2684 149.825 46.2524C149.654 45.5004 149.228 44.863 148.545 44.3404C148.321 44.1644 148.329 43.9964 148.569 43.8364C150.324 42.6524 151.42 40.9991 151.857 38.8764C151.916 38.5991 151.817 38.4017 151.561 38.2844C149.753 37.4364 147.633 37.2284 145.201 37.6604C144.017 37.8684 143.145 37.3991 142.585 36.2524C142.462 36.0017 142.265 35.8417 141.993 35.7724C137.166 34.5671 131.934 34.0553 126.297 34.2367C129.417 33.186 132.564 32.8527 135.737 33.2367C139.486 33.6954 141.438 33.9248 141.593 33.9248C143.977 33.9168 153.633 33.0207 154.513 30.2367C157.905 33.2767 158.959 36.9648 157.674 41.3008Z" fill="#060510"/>
<path d="M157.674 41.3008L169.73 58.1885C169.111 58.4765 168.847 58.7461 168.938 58.9968C163.679 57.6101 159.316 55.2075 155.85 51.7888C153.33 49.3088 155.714 44.3568 157.674 41.3008Z" fill="#5DA491"/>
<path d="M97.6736 49.2445C97.279 49.0791 97.2656 48.8845 97.6336 48.6605C107.703 42.5911 118.418 41.6818 129.778 45.9324C130.786 46.3084 137.818 49.7725 136.402 51.3725C136.334 51.4493 136.244 51.5031 136.145 51.5261C136.046 51.549 135.942 51.5401 135.85 51.5005C123.962 46.4525 111.234 47.2125 98.7936 49.4525C98.495 49.5058 98.1216 49.4365 97.6736 49.2445Z" fill="#4B3540"/>
<path d="M185.753 58.9567C180.308 60.85 174.703 60.8635 168.938 58.9968C168.847 58.7461 169.111 58.4765 169.73 58.1885C175.474 58.5965 180.09 58.8766 184.818 55.5166C185.106 55.3139 185.274 55.3885 185.322 55.7405L185.753 58.9567Z" fill="#F1E8B9"/>
<path d="M161.689 64.4444C162.244 63.8097 162.987 63.8419 163.921 64.5406C167.185 66.9966 170.113 67.5406 173.393 69.3326C173.627 69.4606 173.787 69.6499 173.873 69.9006C174.801 72.5459 176.486 74.4552 178.929 75.6286C180.385 76.3326 181.35 76.9619 181.825 77.5166C183.937 79.9966 184.107 82.8153 182.337 85.9726C182.278 86.0793 182.19 86.1246 182.073 86.1086L181.529 86.0366C181.412 86.0211 181.294 86.0407 181.188 86.0929C181.083 86.1451 180.995 86.2275 180.937 86.3297C180.878 86.4319 180.852 86.5491 180.86 86.6665C180.869 86.7838 180.912 86.896 180.985 86.9886C185.841 93.2926 181.897 98.4686 178.081 103.533C176.145 106.101 182.833 108.805 184.121 110.357C186.337 113.045 188.585 121.285 186.665 122.613C186.604 122.654 186.533 122.68 186.46 122.688C186.387 122.697 186.313 122.687 186.244 122.66C186.176 122.633 186.116 122.59 186.07 122.534C186.023 122.478 185.991 122.412 185.977 122.341C184.433 115.125 179.185 111.669 172.809 109.069C171.361 108.477 170.193 107.709 169.009 106.869C168.857 106.761 168.734 106.618 168.651 106.452C168.568 106.286 168.527 106.102 168.532 105.915C168.536 105.729 168.587 105.546 168.678 105.383C168.77 105.22 168.9 105.082 169.057 104.981C170.721 103.925 172.078 102.605 173.129 101.021C174.833 98.4526 173.681 96.4046 171.833 94.4286C171.736 94.3245 171.611 94.2507 171.474 94.2159C171.336 94.1811 171.191 94.187 171.057 94.2326C170.922 94.2783 170.804 94.3619 170.716 94.4733C170.628 94.5847 170.574 94.7192 170.561 94.8606C170.337 97.4606 169.321 103.661 165.321 102.565C165.283 102.553 165.248 102.53 165.223 102.5C165.197 102.469 165.181 102.432 165.175 102.392C165.17 102.352 165.177 102.312 165.194 102.276C165.211 102.24 165.239 102.21 165.273 102.189C165.374 102.13 165.483 102.087 165.601 102.061C165.649 102.048 165.684 102.02 165.7 101.979C165.717 101.938 165.713 101.888 165.691 101.835C165.668 101.782 165.628 101.729 165.576 101.685C165.523 101.64 165.462 101.607 165.401 101.589C163.539 101.087 162.462 99.8366 162.169 97.8366C162.147 97.6965 162.072 97.5704 161.96 97.4853C161.848 97.4001 161.707 97.3625 161.569 97.3806C158.987 97.7006 156.955 97.4739 155.473 96.7006C151.083 94.4179 146.825 90.9646 142.697 86.3406C132.785 75.2286 109.825 74.7486 96.0728 72.5886C93.2355 72.1406 90.5128 72.3115 87.9048 73.1008L73.0573 71.3886C72.9582 71.3763 72.8578 71.3886 72.7646 71.4243C72.6713 71.46 72.5881 71.5181 72.522 71.5937C72.4559 71.6692 72.4089 71.7599 72.3851 71.858C72.3613 71.956 72.3613 72.0585 72.3853 72.1567C73.4173 76.3007 76.6173 74.4766 79.4013 75.2286C86.9639 77.282 92.9773 79.3407 97.4413 81.4047C107.447 86.034 117.879 89.394 128.737 91.4846C129.046 91.5433 129.365 91.5187 129.663 91.4134C129.961 91.308 130.226 91.1256 130.433 90.8846L132.601 88.3567C132.697 88.2471 132.748 88.1054 132.743 87.9599C132.739 87.8145 132.68 87.6762 132.577 87.5727L131.641 86.5886C131.46 86.3966 131.473 86.218 131.681 86.0527C132.209 85.6473 132.452 85.194 132.409 84.6927C133.903 85.3113 135.751 86.5246 137.953 88.3326C141.201 91.0046 139.041 92.9407 137.041 95.2607C136.876 95.4527 136.668 95.5727 136.417 95.6207C133.655 96.1433 131.175 96.162 128.977 95.6767C111.329 91.7674 94.1028 85.4447 77.2974 76.7087C74.5694 75.2927 71.5054 74.1087 68.6814 72.7727C68.4659 72.6713 68.2272 72.6291 67.99 72.6503C67.7528 72.6715 67.5257 72.7553 67.3323 72.8932C67.1389 73.0311 66.9863 73.2181 66.8901 73.4346C66.7939 73.6511 66.7578 73.8894 66.7854 74.1247C67.0494 76.4527 66.7694 77.9247 65.2014 79.7887C59.1694 86.9887 51.3294 92.2127 44.6574 98.7167C44.0334 99.3247 43.3774 100.797 43.0734 101.837C42.7774 102.837 38.5934 115.469 36.0654 110.805C35.0788 108.981 34.0548 107.183 32.9934 105.413C32.8601 105.189 32.8574 104.967 32.9854 104.749C33.4601 103.933 33.3237 102.861 32.577 101.533L26.9774 107.061C24.8601 106.277 22.617 106.133 20.249 106.629C14.137 105.61 10.2624 102.063 8.62505 95.9885C8.60156 95.8969 8.60771 95.8001 8.64262 95.7122C8.67752 95.6242 8.73938 95.5495 8.81933 95.4989C8.89928 95.4483 8.99322 95.4242 9.08766 95.4303C9.1821 95.4363 9.27221 95.4721 9.34505 95.5325C14.2251 99.7085 18.8568 96.2447 22.1048 91.6447C22.4301 92.4981 22.4488 93.4554 22.1608 94.5167C22.0861 94.7887 22.1661 95.0047 22.4008 95.1647C24.4435 96.5674 26.1155 96.194 27.4168 94.0447C32.2568 86.0207 38.3768 66.9807 49.9448 66.9087C51.9715 66.8927 53.9848 66.698 55.9848 66.3247C56.2515 66.2731 56.4868 66.121 56.6408 65.9007C57.1048 65.2393 57.7368 64.8847 58.5368 64.8367C58.8088 64.8207 59.0648 64.8767 59.3048 65.0047C62.4168 66.7167 64.2648 65.1807 67.1768 65.2527C71.2941 65.3487 75.4008 65.2047 79.4968 64.8207C79.7635 64.794 80.0115 64.7114 80.2408 64.5727C82.0408 63.4607 83.6408 64.5247 85.0088 64.5807C104.801 65.3887 124.921 67.9087 143.065 76.2927C149.145 79.1007 155.753 83.3407 162.001 87.0447C162.401 87.2767 163.393 87.4367 163.769 87.5167C163.894 87.5433 164.024 87.5323 164.143 87.4851C164.262 87.4378 164.364 87.3565 164.437 87.2513C164.509 87.1461 164.549 87.0217 164.551 86.8938C164.554 86.7659 164.518 86.6403 164.449 86.5327C155.905 73.3247 134.577 64.8127 119.849 62.1167C119.776 62.1021 119.709 62.0651 119.658 62.011C119.607 61.9569 119.574 61.8883 119.563 61.8146C119.553 61.7409 119.565 61.6658 119.599 61.5995C119.633 61.5333 119.687 61.4792 119.753 61.4447C123.161 59.7167 138.873 65.1727 142.841 66.6607C148.497 68.7807 153.969 72.4047 159.377 75.5007C159.817 75.7512 160.324 75.8596 160.828 75.8109C161.332 75.7622 161.809 75.5588 162.193 75.2287C163.115 74.434 164.166 73.914 165.345 73.6687C165.452 73.6464 165.553 73.5995 165.64 73.5317C165.726 73.4639 165.796 73.377 165.843 73.2778C165.89 73.1787 165.914 73.0699 165.912 72.9601C165.91 72.8502 165.883 72.7423 165.833 72.6447L161.689 64.4444ZM48.5452 86.1166C48.3052 88.8206 52.2892 89.0766 52.7052 86.9966C52.7532 86.7459 52.8545 86.5139 53.0092 86.3006C55.4252 83.0206 58.3932 81.6286 58.8572 77.0926C58.8729 76.9413 58.852 76.7885 58.7965 76.6469C58.7409 76.5053 58.6522 76.379 58.5378 76.2787C58.4235 76.1785 58.2867 76.107 58.1391 76.0705C57.9914 76.0339 57.8371 76.0333 57.6892 76.0686C50.1425 77.8766 44.2225 81.5113 39.9292 86.9726C37.8732 89.5886 34.6492 95.3806 36.6492 98.7166C36.7441 98.8743 36.878 99.0049 37.0381 99.0958C37.1981 99.1868 37.3789 99.2349 37.5629 99.2357C37.747 99.2365 37.9282 99.1899 38.089 99.1004C38.2498 99.0109 38.3849 98.8815 38.4812 98.7246C40.5372 95.3646 44.8172 87.7246 48.2012 85.8926C48.4572 85.7539 48.5719 85.8286 48.5452 86.1166Z" fill="#181325"/>
<path d="M194.313 170.013C182.644 187.154 167.207 199.53 148.002 207.14C147.516 206.975 147.337 206.994 147.465 207.196L145.233 201.197L145.161 200.877L145.225 200.125C145.241 199.884 145.189 199.643 145.073 199.429L139.945 190.237L137.233 186.78L132.041 182.093C125.817 179.106 119.119 177.477 111.945 177.205L111.433 174.148C128.753 171.356 151.921 165.125 158.201 146.373C170.745 157.797 192.265 140.772 179.961 125.932L179.145 124.309C179.001 124.031 179.084 123.879 179.393 123.853C181.772 123.634 183.692 124.455 185.153 126.317C185.233 126.42 185.333 126.506 185.448 126.569C185.563 126.631 185.69 126.669 185.82 126.68C185.951 126.69 186.082 126.673 186.205 126.63C186.329 126.587 186.442 126.518 186.537 126.428C190.889 122.38 190.057 115.445 187.297 110.821C186.353 109.229 184.753 107.725 183.313 106.261C183.224 106.17 183.172 106.049 183.168 105.923C183.163 105.797 183.207 105.675 183.289 105.58C191.577 96.0205 190.545 81.2605 179.897 73.9165C179.663 73.7565 179.673 73.6125 179.929 73.4845C182.644 72.1565 184.7 70.1992 186.097 67.6125C189.516 68.3325 192.572 68.1005 195.265 66.9165C195.494 66.8149 195.745 66.7715 195.995 66.7902C196.245 66.8089 196.486 66.8892 196.698 67.0238C196.909 67.1584 197.084 67.3433 197.207 67.5618C197.329 67.7804 197.396 68.0259 197.401 68.2765C197.489 72.9885 194.993 75.8525 192.337 79.3965C191.305 80.7805 191.289 82.0045 192.025 83.6445C194.289 88.6605 196.401 92.3085 196.177 98.0045C196.166 98.2712 196.246 98.5085 196.417 98.7165C201.113 104.541 198.689 109.437 194.449 114.269C194.168 114.588 193.98 114.979 193.904 115.399C193.828 115.818 193.867 116.252 194.017 116.653C194.716 118.53 194.985 120.471 194.825 122.477C194.697 124.045 193.257 125.717 193.841 127.405C196.001 133.589 198.049 137.676 193.593 143.428C191.721 145.86 192.825 147.549 192.753 149.813C192.588 155.055 191.737 160.189 190.201 165.213C190.121 165.474 190.174 165.7 190.361 165.892L194.313 170.013ZM168.954 175.645L161.762 177.893C161.42 177.999 161.426 178.079 161.778 178.133L167.018 178.909C168.836 180.023 169.916 182.023 170.257 184.909C170.266 184.965 170.293 185.018 170.334 185.058C170.375 185.098 170.428 185.124 170.485 185.131C170.542 185.138 170.6 185.127 170.65 185.098C170.7 185.07 170.739 185.026 170.761 184.973C173.033 178.917 173.233 179.317 179.289 177.813C179.342 177.798 179.389 177.766 179.422 177.722C179.454 177.678 179.472 177.624 179.471 177.57C179.47 177.515 179.451 177.462 179.417 177.419C179.382 177.376 179.335 177.346 179.281 177.333C173.185 175.853 172.345 175.109 171.033 168.925C171.021 168.847 170.982 168.777 170.922 168.726C170.863 168.676 170.787 168.648 170.709 168.648C170.631 168.648 170.556 168.676 170.496 168.726C170.437 168.777 170.397 168.847 170.385 168.925L168.954 175.645Z" fill="#48928C"/>
<path d="M7.48916 68.6367L7.98516 69.8847C8.03316 70.0127 8.12649 70.0741 8.26516 70.0688L9.73716 70.0447C9.92916 70.0447 10.0172 70.1381 10.0012 70.3248C9.83316 72.3408 11.5292 72.9248 13.1772 72.3568C15.3478 71.6154 17.5718 71.0368 19.8492 70.6208C20.0892 70.5781 20.2918 70.6501 20.4572 70.8367C20.5372 70.9221 20.5878 71.0074 20.6092 71.0927C20.6358 71.2207 20.7132 71.2768 20.8412 71.2608C21.3265 71.1861 21.5825 70.9461 21.6092 70.5407C21.6252 70.2794 21.7505 70.0874 21.9852 69.9648C23.3718 69.2448 24.6572 69.3114 25.8412 70.1648C26.0865 70.3461 26.1985 70.5914 26.1772 70.9007L25.8251 75.6529C23.8464 82.5489 21.7182 87.7484 19.4409 91.2524C17.4089 94.3804 9.74491 96.1563 8.82491 91.2363C8.81677 91.1685 8.78476 91.1057 8.7346 91.0593C8.68444 91.0129 8.6194 90.9858 8.55111 90.9829C8.48281 90.98 8.41572 91.0015 8.36182 91.0435C8.30792 91.0856 8.27074 91.1454 8.25691 91.2124C6.42491 97.9724 10.193 103.324 16.049 106.252C15.5957 106.844 15.0683 106.778 14.4657 106.053C14.3003 105.85 14.0923 105.701 13.8417 105.605C11.4577 104.717 10.1297 102.301 8.61766 100.421C8.48432 100.25 8.31366 100.154 8.10566 100.133C7.54032 100.063 7.07366 99.8233 6.70566 99.4127C6.52966 99.2207 6.46566 99.2527 6.51366 99.5087C6.53499 99.6313 6.58566 99.7513 6.66566 99.8687C6.68595 99.9052 6.69171 99.9464 6.68196 99.9854C6.67221 100.024 6.64755 100.059 6.61206 100.083C6.57657 100.107 6.5324 100.12 6.48685 100.119C6.44131 100.118 6.39713 100.103 6.36166 100.077L5.14566 99.0127C5.06594 98.9404 4.97028 98.8876 4.86618 98.8585C4.76208 98.8293 4.65238 98.8246 4.54566 98.8446C3.67099 99.0206 3.13766 99.5353 2.94566 100.389C2.91336 100.522 2.84917 100.646 2.75859 100.749C2.66802 100.852 2.55377 100.931 2.42566 100.981C1.86033 101.199 1.57766 101.554 1.57766 102.045C1.60433 106.311 1.60433 110.578 1.57766 114.845C1.57766 115.237 0.985283 116.573 0.601283 115.653C0.590616 111.322 0.651946 106.991 0.785279 102.661C1.15328 90.9221 3.38783 79.5807 7.48916 68.6367Z" fill="#7EBA98"/>
<path d="M87.9048 73.1008C102.225 74.6848 119.425 77.8447 132.409 84.6927C132.452 85.194 132.209 85.6473 131.681 86.0527C131.473 86.218 131.46 86.3966 131.641 86.5886L132.577 87.5727C132.68 87.6762 132.739 87.8145 132.743 87.9599C132.748 88.1054 132.697 88.2471 132.601 88.3567L130.433 90.8846C130.226 91.1256 129.961 91.308 129.663 91.4134C129.365 91.5187 129.046 91.5433 128.737 91.4846C117.879 89.394 107.447 86.034 97.4413 81.4047C92.9773 79.3407 86.9639 77.282 79.4013 75.2286C76.6173 74.4766 73.4173 76.3007 72.3853 72.1567C72.3613 72.0585 72.3613 71.956 72.3851 71.858C72.4089 71.7599 72.4559 71.6692 72.522 71.5937C72.5881 71.5181 72.6713 71.46 72.7646 71.4243C72.8578 71.3886 72.9582 71.3763 73.0573 71.3886L87.9048 73.1008Z" fill="#2E2430"/>
<path d="M48.2012 85.8926C44.8172 87.7246 40.5372 95.3646 38.4812 98.7246C38.3849 98.8815 38.2498 99.0109 38.089 99.1004C37.9282 99.1899 37.747 99.2365 37.5629 99.2357C37.3789 99.2349 37.1981 99.1868 37.0381 99.0958C36.878 99.0049 36.7441 98.8743 36.6492 98.7166C34.6492 95.3806 37.8732 89.5886 39.9292 86.9726C44.2225 81.5113 50.1425 77.8766 57.6892 76.0686C57.8371 76.0333 57.9914 76.0339 58.1391 76.0705C58.2867 76.107 58.4235 76.1785 58.5378 76.2787C58.6522 76.379 58.7409 76.5053 58.7965 76.6469C58.852 76.7885 58.8729 76.9413 58.8572 77.0926C58.3932 81.6286 55.4252 83.0206 53.0092 86.3006C52.8545 86.5139 52.7532 86.7459 52.7052 86.9966C52.2892 89.0766 48.3052 88.8206 48.5452 86.1166C48.5719 85.8286 48.4572 85.7539 48.2012 85.8926Z" fill="#2E2430"/>
<path d="M129.913 101.421L128.969 101.501C127.79 101.554 126.719 101.906 125.753 102.557C115.353 100.551 105.279 97.9513 95.5298 94.7567C87.6311 92.2073 80.1192 88.9621 72.9939 85.0207L69.4173 83.1967L72.5853 78.8527C72.756 78.6127 72.964 78.5727 73.2093 78.7327C90.9933 90.2127 109.089 96.4607 129.913 101.421Z" fill="#73382A"/>
<path d="M69.4173 83.1967L72.9939 85.0207C72.0659 86.2687 71.7615 87.7487 70.9375 88.9247C67.5829 93.6714 63.9482 98.1967 60.0335 102.501C57.6735 105.093 55.4735 106.485 52.0575 107.325C50.5322 107.703 49.3375 108.626 48.4735 110.093V102.525C56.3029 96.8819 63.284 90.4394 69.4173 83.1967Z" fill="#D05C43"/>
<path d="M72.9939 85.0207C80.1192 88.9621 87.6311 92.2073 95.5298 94.7567C95.1351 97.1407 95.0358 99.2366 95.2331 101.045C96.3371 111.205 98.2785 121.602 101.057 132.237C101.281 133.101 101.14 133.863 100.633 134.525C100.222 133.586 100.084 132.69 100.217 131.837C100.227 131.761 100.212 131.683 100.175 131.616C100.138 131.549 100.081 131.495 100.011 131.463C99.9413 131.431 99.8632 131.422 99.788 131.437C99.7129 131.453 99.6446 131.492 99.5931 131.549C99.4118 131.757 99.2891 131.991 99.2251 132.253C98.7558 132.498 98.4306 132.89 98.2493 133.428C98.1693 133.663 98.0093 133.74 97.7693 133.66L97.5533 133.588C97.292 133.498 97.036 133.506 96.7853 133.612L94.0573 134.756C93.9096 134.818 93.7494 134.843 93.5905 134.829C93.4315 134.815 93.2787 134.763 93.1453 134.676C91.3933 133.54 89.9293 134.42 88.5613 134.364C86.2413 134.279 83.9186 134.266 81.5933 134.324C81.316 134.33 81.1106 134.21 80.9773 133.964L80.6173 133.308C81.1293 133.316 80.6808 132.557 79.9688 132.645C80.5715 129.525 80.076 126.943 78.4813 124.901C74.8387 119.967 70.1909 118.645 64.5376 120.933C61.0389 123.066 58.4942 125.989 56.9049 129.701C56.7929 129.962 56.8062 130.218 56.9449 130.469L57.7209 131.829C57.2515 133.946 57.7798 135.714 59.3051 137.133C59.393 137.211 59.4533 137.316 59.4774 137.431C59.5016 137.546 59.4884 137.666 59.4397 137.774C59.391 137.882 59.3092 137.973 59.2061 138.033C59.103 138.093 58.9837 138.119 58.8651 138.109C57.5211 137.986 56.5665 138.482 56.0011 139.597C55.8731 139.847 55.6865 140.039 55.4411 140.173L50.8571 142.621C48.1771 132.469 48.4095 122.317 48.4735 110.093C49.3375 108.626 50.5322 107.703 52.0575 107.325C55.4735 106.485 57.6735 105.093 60.0335 102.501C63.9482 98.1967 67.5829 93.6714 70.9375 88.9247C71.7615 87.7487 72.0659 86.2687 72.9939 85.0207ZM72.3448 109.101C74.2648 109.415 76.0808 109.602 77.7928 109.661C78.0354 109.667 78.2746 109.603 78.4808 109.475C78.687 109.347 78.8511 109.161 78.9528 108.941C81.1208 104.253 77.9368 101.677 73.5048 102.413C67.2594 103.453 62.3608 106.738 58.8088 112.269C58.2434 113.138 58.1954 113.906 58.6647 114.573C58.7297 114.664 58.8119 114.742 58.9068 114.802C59.0016 114.861 59.1072 114.902 59.2173 114.92C59.3275 114.939 59.44 114.935 59.5484 114.91C59.6568 114.885 59.7589 114.838 59.8488 114.773C63.0568 112.445 68.5448 108.477 72.3448 109.101Z" fill="#DA805E"/>
<path d="M95.5298 94.7567C105.279 97.9513 115.353 100.551 125.753 102.557C123.289 105.293 123.082 110.717 128.434 109.813C137.698 108.237 140.618 109.629 147.61 115.997C147.708 116.087 147.838 116.136 147.972 116.131C148.107 116.127 148.235 116.07 148.33 115.973L149.562 114.677C149.759 114.463 149.762 114.247 149.57 114.029C145.266 109.101 144.402 105.845 137.754 103.709C137.807 103.517 137.821 103.383 137.794 103.309C144.77 104.901 152.37 106.645 158.834 109.781C158.952 109.836 159.052 109.923 159.124 110.032C159.196 110.14 159.237 110.266 159.242 110.397C159.551 116.898 159.281 123.306 158.433 129.621C156.145 129.37 153.543 129.674 150.625 130.533C150.468 130.581 150.297 130.567 150.147 130.493C149.997 130.418 149.879 130.29 149.817 130.133C148.724 127.242 147.041 124.762 144.769 122.693C144.674 122.604 144.552 122.547 144.421 122.532C144.29 122.516 144.158 122.541 144.041 122.605C143.812 122.733 143.647 122.869 143.545 123.013C137.841 119.317 129.201 119.965 126.249 127.045C125.62 126.736 125.089 126.874 124.657 127.461C124.609 127.519 124.558 127.522 124.505 127.469C124.457 127.415 124.406 127.362 124.353 127.309C124.156 127.117 124.036 127.156 123.993 127.428C123.982 127.508 123.972 127.586 123.961 127.661C123.95 127.714 123.929 127.719 123.897 127.677C122.241 125.253 107.929 126.621 105.209 127.077C98.5528 128.181 112.801 141.956 104.417 145.98C102.753 146.78 100.948 147.063 99.0008 146.828C98.7342 146.796 98.5609 146.652 98.4809 146.396L97.9688 144.701C99.5582 145.341 100.876 145.042 101.921 143.804C102.134 143.548 102.076 143.431 101.745 143.452L99.0248 143.596C99.2328 143.1 99.2758 142.682 99.1531 142.341L100.297 141.709C100.537 141.575 100.657 141.37 100.657 141.093L100.633 134.525C101.14 133.863 101.281 133.101 101.057 132.237C98.2785 121.602 96.3371 111.205 95.2331 101.045C95.0358 99.2366 95.1351 97.1407 95.5298 94.7567Z" fill="#CF7253"/>
<path d="M16.049 106.252C16.4064 106.492 16.377 106.524 15.961 106.348L21.577 113.716C21.6622 113.829 21.7214 113.959 21.7504 114.098C21.7795 114.236 21.7776 114.379 21.745 114.516C21.5317 115.434 21.6864 115.967 22.209 116.116C21.297 120.426 21.4706 124.679 22.7292 128.876C22.7665 128.998 22.8477 129.102 22.9572 129.167C23.0667 129.232 23.1965 129.254 23.3212 129.228C23.4599 129.202 23.473 129.13 23.361 129.013L24.4571 131.237C24.4945 131.642 24.444 131.943 24.3053 132.141C24.108 132.423 23.8813 132.447 23.6253 132.213L21.4733 130.269C21.3293 130.146 21.1693 130.117 20.9933 130.181C19.02 130.933 17.2733 132.053 15.7533 133.541C15.5506 133.733 15.3133 133.869 15.0413 133.949C13.0493 134.509 7.84932 136.565 8.12132 139.189C8.14228 139.424 8.09807 139.665 7.99332 139.885C7.26798 141.367 6.35385 142.421 5.24985 143.045L2.79366 133.26C1.52966 127.447 0.798616 121.578 0.601283 115.653C0.985283 116.573 1.57766 115.237 1.57766 114.845C1.60433 110.578 1.60433 106.311 1.57766 102.045C1.57766 101.554 1.86033 101.199 2.42566 100.981C2.55377 100.931 2.66802 100.852 2.75859 100.749C2.84917 100.646 2.91336 100.522 2.94566 100.389C3.13766 99.5353 3.67099 99.0206 4.54566 98.8446C4.65238 98.8246 4.76208 98.8293 4.86618 98.8585C4.97028 98.8876 5.06594 98.9404 5.14566 99.0127L6.36166 100.077C6.39713 100.103 6.44131 100.118 6.48685 100.119C6.5324 100.12 6.57657 100.107 6.61206 100.083C6.64755 100.059 6.67221 100.024 6.68196 99.9854C6.69171 99.9464 6.68595 99.9052 6.66566 99.8687C6.58566 99.7513 6.53499 99.6313 6.51366 99.5087C6.46566 99.2527 6.52966 99.2207 6.70566 99.4127C7.07366 99.8233 7.54032 100.063 8.10566 100.133C8.31366 100.154 8.48432 100.25 8.61766 100.421C10.1297 102.301 11.4577 104.717 13.8417 105.605C14.0923 105.701 14.3003 105.85 14.4657 106.053C15.0683 106.778 15.5957 106.844 16.049 106.252Z" fill="#6DAF96"/>
<path d="M129.913 101.421C132.633 101.469 135.26 102.098 137.793 103.309C137.82 103.383 137.807 103.517 137.754 103.709C134.927 102.551 131.998 101.815 128.969 101.501L129.913 101.421Z" fill="#4B3540"/>
<path d="M32.577 101.533C32.593 103.053 32.729 104.229 31.769 105.461C25.929 112.965 21.913 119.069 23.361 129.013C23.473 129.13 23.4599 129.202 23.3212 129.228C23.1965 129.254 23.0667 129.232 22.9572 129.167C22.8477 129.102 22.7665 128.998 22.7292 128.876C21.4706 124.679 21.297 120.426 22.209 116.116C23.265 113.076 24.8548 110.058 26.9774 107.061L32.577 101.533Z" fill="#F1E8B9"/>
<path d="M128.969 101.501C131.998 101.815 134.927 102.551 137.754 103.709C144.402 105.845 145.266 109.101 149.57 114.029C149.762 114.247 149.759 114.463 149.562 114.677L148.33 115.973C148.235 116.07 148.107 116.127 147.972 116.131C147.838 116.136 147.708 116.087 147.61 115.997C140.618 109.629 137.698 108.237 128.434 109.813C123.082 110.717 123.289 105.293 125.753 102.557C126.719 101.906 127.79 101.554 128.969 101.501Z" fill="#060510"/>
<path d="M72.3448 109.101C68.5448 108.477 63.0568 112.445 59.8488 114.773C59.7589 114.838 59.6568 114.885 59.5484 114.91C59.44 114.935 59.3275 114.939 59.2173 114.92C59.1072 114.902 59.0016 114.861 58.9068 114.802C58.8119 114.742 58.7297 114.664 58.6647 114.573C58.1954 113.906 58.2434 113.138 58.8088 112.269C62.3608 106.738 67.2594 103.453 73.5048 102.413C77.9368 101.677 81.1208 104.253 78.9528 108.941C78.8511 109.161 78.687 109.347 78.4808 109.475C78.2746 109.603 78.0354 109.667 77.7928 109.661C76.0808 109.602 74.2648 109.415 72.3448 109.101Z" fill="#1A060F"/>
<path d="M48.4735 102.525V110.093C48.4095 122.317 48.1771 132.469 50.8571 142.621C54.8251 157.509 72.0571 166.685 86.0011 170.237C86.2518 170.301 86.2918 170.431 86.1211 170.629C85.9931 170.778 85.8251 170.877 85.6171 170.925C71.6811 168.293 55.4091 160.485 49.4251 146.909L46.3212 132.229C46.1345 122.309 46.8522 112.407 48.4735 102.525Z" fill="#FCC093"/>
<path d="M15.961 106.348C18.2544 107.202 19.6837 107.295 20.249 106.629C22.617 106.133 24.8601 106.277 26.9774 107.061C24.8548 110.058 23.265 113.076 22.209 116.116C21.6864 115.967 21.5317 115.434 21.745 114.516C21.7776 114.379 21.7795 114.236 21.7504 114.098C21.7214 113.959 21.6622 113.829 21.577 113.716L15.961 106.348Z" fill="#48928C"/>
<path d="M78.4813 124.901C73.164 121.034 68.0332 120.549 63.0892 123.445C63.3825 122.799 63.8545 122.327 64.5052 122.029C64.7132 121.933 64.8145 121.77 64.8092 121.541C64.7985 121.317 64.7083 121.114 64.5376 120.933C70.1909 118.645 74.8387 119.967 78.4813 124.901Z" fill="#6D261A"/>
<path d="M143.545 123.013C146.34 124.991 147.975 127.586 148.449 130.796C148.113 131.975 147.655 132.73 147.074 133.061C146.343 126.719 142.959 123.535 136.921 123.509C134.665 123.501 133.817 124.621 134.873 126.797C134.956 126.965 135.09 127.102 135.257 127.188C135.423 127.274 135.613 127.304 135.798 127.274C135.983 127.243 136.154 127.154 136.284 127.019C136.414 126.884 136.497 126.711 136.521 126.525C136.753 124.749 139.577 127.117 139.977 127.677L137.737 127.636C137.359 127.631 137.265 127.788 137.457 128.108C139.657 131.788 134.953 134.916 131.713 134.892C129.673 134.868 129.321 135.461 129.625 137.421C126.607 135.41 125.302 132.538 125.713 128.805L126.249 127.045C129.201 119.965 137.841 119.317 143.545 123.013Z" fill="#060510"/>
<path d="M64.5376 120.933C64.7083 121.114 64.7985 121.317 64.8092 121.541C64.8145 121.77 64.7132 121.933 64.5052 122.029C63.8545 122.327 63.3825 122.799 63.0892 123.445C62.1185 124.159 61.9289 124.911 62.5209 125.701C59.6889 127.839 58.652 130.514 59.4093 133.725C59.3933 133.815 59.2577 133.861 59.0017 133.861L57.7209 131.829L56.9449 130.469C56.8062 130.218 56.7929 129.962 56.9049 129.701C58.4942 125.989 61.0389 123.066 64.5376 120.933Z" fill="#2E1319"/>
<path d="M78.4813 124.901C80.076 126.943 80.5715 129.525 79.9688 132.645C78.1688 137.485 72.9532 139.653 68.7692 136.365C65.3852 133.709 64.3052 126.381 69.6172 124.805C69.7376 124.77 69.8656 124.771 69.9853 124.809C70.1049 124.846 70.2109 124.918 70.2902 125.015C70.3694 125.112 70.4184 125.23 70.431 125.355C70.4436 125.48 70.4194 125.605 70.3612 125.717L70.1772 126.069C70.0439 126.325 70.1212 126.453 70.4092 126.453C71.0492 126.453 71.5825 126.221 72.0092 125.757C72.1028 125.654 72.1548 125.52 72.1548 125.382C72.1548 125.244 72.1028 125.112 72.0092 125.013C69.2332 122.077 65.0969 123.205 62.5209 125.701C61.9289 124.911 62.1185 124.159 63.0892 123.445C68.0332 120.549 73.164 121.034 78.4813 124.901Z" fill="#1A060F"/>
<path d="M39.0008 122.853C37.7954 127.269 37.063 131.653 36.8017 136.005C37.3563 136.613 37.9617 137.525 38.6177 138.741C40.0017 141.309 42.3617 140.317 43.7457 138.541C44.983 136.946 45.8412 134.842 46.3212 132.229L49.4251 146.909C44.6731 149.927 39.4542 150.509 33.7688 148.653L31.561 146.837C30.0784 145.215 29.3821 143.717 29.4728 142.341C29.4888 142.074 29.4248 141.826 29.2808 141.597C26.6888 137.445 27.0168 134.277 28.6008 129.669C29.1181 128.159 29.3956 126.637 29.4329 125.101C31.9876 121.751 35.1768 121.002 39.0008 122.853Z" fill="#CF7253"/>
<path d="M158.433 129.621L158.057 135.693L158.369 143.477C157.777 144.554 157.721 145.519 158.201 146.373C151.921 165.125 128.753 171.356 111.433 174.148C111.7 173.62 111.489 173.375 110.801 173.413C105.084 173.733 100.006 173.581 95.5688 172.957C95.4355 172.829 95.3824 172.708 95.4091 172.596C95.6918 172.682 95.8895 172.564 96.0015 172.244C96.0761 172.026 96.2255 171.89 96.4495 171.836C100.489 170.804 105.361 171.781 108.873 169.701C109.103 169.562 109.353 169.485 109.625 169.469C118.409 169.037 127.745 166.412 135.361 162.684C144.321 158.295 150.727 151.247 154.577 141.54C154.679 141.295 154.623 141.095 154.409 140.94L150.233 137.94C150.115 137.857 150.014 137.751 149.937 137.629C149.86 137.507 149.808 137.37 149.785 137.228C149.497 135.588 150.305 131.236 148.449 130.796C147.975 127.586 146.34 124.991 143.545 123.013C143.647 122.869 143.812 122.733 144.041 122.605C144.158 122.541 144.29 122.516 144.421 122.532C144.552 122.547 144.674 122.604 144.769 122.693C147.041 124.762 148.724 127.242 149.817 130.133C149.879 130.29 149.997 130.418 150.147 130.493C150.297 130.567 150.468 130.581 150.625 130.533C153.543 129.674 156.145 129.37 158.433 129.621Z" fill="#DA805E"/>
<path d="M179.961 125.932C192.265 140.772 170.745 157.797 158.201 146.373C157.721 145.519 157.777 144.554 158.369 143.477C160.001 142.805 161.937 144.069 163.473 145.357C166.977 148.277 170.929 141.533 171.353 138.965C171.556 137.754 171.315 136.272 170.633 134.517C169.294 131.072 168.116 127.621 167.097 124.165C171.361 121.221 176.321 122.764 179.961 125.932Z" fill="#EA8359"/>
<path d="M39.0017 122.852C43.2177 124.06 46.8577 128.86 43.0977 132.612C41.279 134.42 39.1803 135.551 36.8017 136.005C37.063 131.653 37.7963 127.268 39.0017 122.852Z" fill="#BE3624"/>
<path d="M79.9688 132.645C80.6808 132.557 81.1293 133.316 80.6173 133.308C78.6333 139.676 73.4017 139.893 67.8657 138.661C63.8231 138.287 61.004 136.642 59.4093 133.725C58.652 130.514 59.6889 127.839 62.5209 125.701C65.0969 123.205 69.2332 122.077 72.0092 125.013C72.1028 125.112 72.1548 125.244 72.1548 125.382C72.1548 125.52 72.1028 125.654 72.0092 125.757C71.5825 126.221 71.0492 126.453 70.4092 126.453C70.1212 126.453 70.0439 126.325 70.1772 126.069L70.3612 125.717C70.4194 125.605 70.4436 125.48 70.431 125.355C70.4184 125.23 70.3694 125.112 70.2902 125.015C70.2109 124.918 70.1049 124.846 69.9853 124.809C69.8656 124.771 69.7376 124.77 69.6172 124.805C64.3052 126.381 65.3852 133.709 68.7692 136.365C72.9532 139.653 78.1688 137.485 79.9688 132.645Z" fill="#F8F5F3"/>
<path d="M147.074 133.061C145.65 137.829 138.993 139.661 134.737 139.845C128.217 140.117 124.497 135.661 125.057 129.253C125.089 128.845 125.305 128.557 125.713 128.805C125.302 132.538 126.607 135.41 129.625 137.421C136.377 141.165 141.761 134.373 139.977 127.677C139.577 127.117 136.753 124.749 136.521 126.525C136.497 126.711 136.414 126.884 136.284 127.019C136.154 127.154 135.983 127.243 135.798 127.274C135.613 127.304 135.423 127.274 135.257 127.188C135.09 127.102 134.956 126.965 134.873 126.797C133.817 124.621 134.665 123.501 136.921 123.509C142.959 123.535 146.343 126.719 147.074 133.061Z" fill="#F8F5F3"/>
<path d="M167.097 124.165C168.116 127.621 169.294 131.072 170.633 134.517C171.315 136.272 171.556 137.754 171.353 138.965C170.929 141.533 166.977 148.277 163.473 145.357C161.937 144.069 160.001 142.805 158.369 143.477L158.057 135.693C160.58 137.181 162.742 138.97 164.545 141.061C164.737 141.28 164.966 141.328 165.233 141.205C170.169 138.917 163.489 134.085 163.601 130.501C163.686 127.738 164.852 125.626 167.097 124.165Z" fill="#BE3624"/>
<path d="M29.4329 125.101C29.3956 126.637 29.1181 128.159 28.6008 129.669C27.0168 134.277 26.6888 137.445 29.2808 141.597C29.4248 141.826 29.4888 142.074 29.4728 142.341C29.3821 143.717 30.0784 145.215 31.561 146.837C26.2437 143.775 24.0656 138.967 25.0256 132.413C24.7056 130.037 27.6729 126.797 29.4329 125.101Z" fill="#FCC093"/>
<path d="M126.249 127.045L125.713 128.805C125.305 128.557 125.089 128.845 125.057 129.253C124.497 135.661 128.217 140.117 134.737 139.845C138.993 139.661 145.65 137.829 147.074 133.061C147.655 132.73 148.113 131.975 148.449 130.796C150.305 131.236 149.497 135.588 149.785 137.228C149.808 137.37 149.86 137.507 149.937 137.629C150.014 137.751 150.115 137.857 150.233 137.94L154.409 140.94C154.623 141.095 154.679 141.295 154.577 141.54C150.727 151.247 144.321 158.295 135.361 162.684C127.745 166.412 118.409 169.037 109.625 169.469C109.353 169.485 109.103 169.562 108.873 169.701C105.361 171.781 100.489 170.804 96.4495 171.836C96.2255 171.89 96.0761 172.026 96.0015 172.244C95.8895 172.564 95.6918 172.682 95.4091 172.596L85.6171 170.925C85.8251 170.877 85.9931 170.778 86.1211 170.629C86.2918 170.431 86.2518 170.301 86.0011 170.237C72.0571 166.685 54.8251 157.509 50.8571 142.621L55.4411 140.173C55.6865 140.039 55.8731 139.847 56.0011 139.597C56.5665 138.482 57.5211 137.986 58.8651 138.109C58.9837 138.119 59.103 138.093 59.2061 138.033C59.3092 137.973 59.391 137.882 59.4397 137.774C59.4884 137.666 59.5016 137.546 59.4774 137.431C59.4533 137.316 59.393 137.211 59.3051 137.133C57.7798 135.714 57.2515 133.946 57.7209 131.829L59.0017 133.861L60.1937 135.933C57.1857 139.109 70.6815 140.773 71.6175 140.781C71.6675 140.781 71.7158 140.762 71.7535 140.729C71.7911 140.696 71.8156 140.651 71.8224 140.601C71.8292 140.552 71.8179 140.501 71.7906 140.459C71.7632 140.417 71.7216 140.387 71.6735 140.373L67.5615 139.293C67.5401 139.064 67.6417 138.853 67.8657 138.661C73.4017 139.893 78.6333 139.676 80.6173 133.308L80.9773 133.964C81.1106 134.21 81.316 134.33 81.5933 134.324C83.9186 134.266 86.2413 134.279 88.5613 134.364C89.9293 134.42 91.3933 133.54 93.1453 134.676C93.2787 134.763 93.4315 134.815 93.5905 134.829C93.7494 134.843 93.9096 134.818 94.0573 134.756L96.7853 133.612C97.036 133.506 97.292 133.498 97.5533 133.588L97.7693 133.66C98.0093 133.74 98.1693 133.663 98.2493 133.428C98.4306 132.89 98.7558 132.498 99.2251 132.253L95.9776 140.828C95.9069 141.015 95.8907 141.225 95.9315 141.426C95.9723 141.627 96.0678 141.81 96.2041 141.946C96.3403 142.082 96.5101 142.165 96.6882 142.183C96.8664 142.201 97.0435 142.152 97.1936 142.044C97.6309 141.73 98.2838 141.829 99.1531 142.341C99.2758 142.682 99.2328 143.1 99.0248 143.596C98.3742 143.34 97.8098 143.341 97.3298 143.597C97.0791 143.73 97.0365 143.911 97.2018 144.141C97.3991 144.418 97.6542 144.605 97.9688 144.701L98.4809 146.396C98.5609 146.652 98.7342 146.796 99.0008 146.828C100.948 147.063 102.753 146.78 104.417 145.98C112.801 141.956 98.5528 128.181 105.209 127.077C107.929 126.621 122.241 125.253 123.897 127.677C123.929 127.719 123.95 127.714 123.961 127.661C123.972 127.586 123.982 127.508 123.993 127.428C124.036 127.156 124.156 127.117 124.353 127.309C124.406 127.362 124.457 127.415 124.505 127.469C124.558 127.522 124.609 127.519 124.657 127.461C125.089 126.874 125.62 126.736 126.249 127.045ZM101.641 165.405C104.857 166.077 107.659 165.245 110.049 162.909C115.769 159.093 117.178 152.581 116.77 146.309C116.716 145.514 116.362 145.338 115.706 145.781C115.076 146.202 114.306 146.49 113.394 146.645C107.098 147.733 97.2495 149.373 91.1455 147.573C90.3935 147.349 90.1135 147.618 90.3055 148.381C91.9615 154.973 95.4807 162.333 101.641 165.405Z" fill="#EA8359"/>
<path d="M139.977 127.677C141.761 134.373 136.377 141.165 129.625 137.421C129.321 135.461 129.673 134.868 131.713 134.892C134.953 134.916 139.657 131.788 137.457 128.108C137.265 127.788 137.359 127.631 137.737 127.636L139.977 127.677Z" fill="#220509"/>
<path d="M24.4571 131.237C24.5051 132.143 24.6949 132.535 25.0256 132.413C24.0656 138.967 26.2437 143.775 31.561 146.837L33.7688 148.653C32.4302 148.423 32.0786 149.277 32.7133 151.213C38.5853 169.08 50.004 181.944 66.9693 189.805C67.252 189.933 67.3933 190.152 67.3933 190.461V191.261C67.3933 191.709 67.5426 191.765 67.8413 191.429C68.2306 190.991 68.6706 190.733 69.1613 190.653C66.6386 195.624 64.6333 200.951 63.1453 206.637C35.7693 194.397 14.0818 171.749 5.24985 143.045C6.35385 142.421 7.26798 141.367 7.99332 139.885C8.09807 139.665 8.14228 139.424 8.12132 139.189C7.84932 136.565 13.0493 134.509 15.0413 133.949C15.3133 133.869 15.5506 133.733 15.7533 133.541C17.2733 132.053 19.02 130.933 20.9933 130.181C21.1693 130.117 21.3293 130.146 21.4733 130.269L23.6253 132.213C23.8813 132.447 24.108 132.423 24.3053 132.141C24.444 131.943 24.4945 131.642 24.4571 131.237Z" fill="#4C9A8F"/>
<path d="M100.633 134.525L100.657 141.093C100.657 141.37 100.537 141.575 100.297 141.709L99.1531 142.341C98.2838 141.829 97.6309 141.73 97.1936 142.044C97.0435 142.152 96.8664 142.201 96.6882 142.183C96.5101 142.165 96.3403 142.082 96.2041 141.946C96.0678 141.81 95.9723 141.627 95.9315 141.426C95.8907 141.225 95.9069 141.015 95.9776 140.828L99.2251 132.253C99.2891 131.991 99.4118 131.757 99.5931 131.549C99.6446 131.492 99.7129 131.453 99.788 131.437C99.8632 131.422 99.9413 131.431 100.011 131.463C100.081 131.495 100.138 131.549 100.175 131.616C100.212 131.683 100.227 131.761 100.217 131.837C100.084 132.69 100.222 133.586 100.633 134.525Z" fill="#FCC093"/>
<path d="M59.4093 133.725C61.004 136.642 63.8231 138.287 67.8657 138.661C67.6417 138.853 67.5401 139.064 67.5615 139.293C64.8521 139.042 62.3963 137.922 60.1937 135.933L59.0017 133.861C59.2577 133.861 59.3933 133.815 59.4093 133.725Z" fill="#AE5E39"/>
<path d="M60.1937 135.933C62.3963 137.922 64.8521 139.042 67.5615 139.293L71.6735 140.373C71.7216 140.387 71.7632 140.417 71.7906 140.459C71.8179 140.501 71.8292 140.552 71.8224 140.601C71.8156 140.651 71.7911 140.696 71.7535 140.729C71.7158 140.762 71.6675 140.781 71.6175 140.781C70.6815 140.773 57.1857 139.109 60.1937 135.933Z" fill="#FCC093"/>
<path d="M99.0248 143.596L101.745 143.452C102.076 143.431 102.134 143.548 101.921 143.804C100.876 145.042 99.5582 145.341 97.9688 144.701C97.6542 144.605 97.3991 144.418 97.2018 144.141C97.0365 143.911 97.0791 143.73 97.3298 143.597C97.8098 143.341 98.3742 143.34 99.0248 143.596Z" fill="#932318"/>
<path d="M110.049 162.909C110.937 159.229 105.705 160.277 103.945 160.829C103.822 160.866 103.71 160.931 103.616 161.018C103.521 161.105 103.448 161.213 103.401 161.333C103.139 162.026 102.702 162.594 102.089 163.037C101.849 163.202 101.723 163.431 101.713 163.725L101.641 165.405C95.4807 162.333 91.9615 154.973 90.3055 148.381C90.1135 147.618 90.3935 147.349 91.1455 147.573C97.2495 149.373 107.098 147.733 113.394 146.645C114.306 146.49 115.076 146.202 115.706 145.781C116.362 145.338 116.716 145.514 116.77 146.309C117.178 152.581 115.769 159.093 110.049 162.909ZM93.7532 153.796C93.5718 154.1 93.7905 154.618 94.4092 155.348C98.4732 156.815 102.785 157.234 107.345 156.604C109.441 156.316 114.777 155.204 114.561 152.452L114.985 148.189C115.049 147.506 114.743 147.223 114.065 147.341C107.031 148.567 99.9401 149.143 92.7934 149.069C92.5374 149.063 92.4121 149.189 92.4174 149.445C92.4388 151.002 92.8838 152.452 93.7532 153.796Z" fill="#2D0909"/>
<path d="M49.4251 146.909C55.4091 160.485 71.6811 168.293 85.6171 170.925L95.4091 172.596C95.3824 172.708 95.4355 172.829 95.5688 172.957C95.8568 174.311 95.7507 175.61 95.2493 176.853C90.6413 176.943 86.2356 177.972 82.0329 179.94C80.6142 180.191 79.2685 180.906 77.9939 182.085C77.7859 182.026 77.5933 182.034 77.4173 182.109C75.7853 181.501 70.0013 189.269 69.1613 190.653C68.6706 190.733 68.2306 190.991 67.8413 191.429C67.5426 191.765 67.3933 191.709 67.3933 191.261V190.461C67.3933 190.152 67.252 189.933 66.9693 189.805C50.004 181.944 38.5853 169.08 32.7133 151.213C32.0786 149.277 32.4302 148.423 33.7688 148.653C39.4542 150.509 44.6731 149.927 49.4251 146.909Z" fill="#428A8A"/>
<path d="M114.561 152.452L113.817 152.82C107.167 155.007 100.478 155.332 93.7532 153.796C92.8838 152.452 92.4388 151.002 92.4174 149.445C92.4121 149.189 92.5374 149.063 92.7934 149.069C99.9401 149.143 107.031 148.567 114.065 147.341C114.743 147.223 115.049 147.506 114.985 148.189L114.561 152.452Z" fill="#F8F5F3"/>
<path d="M114.561 152.452C114.777 155.204 109.441 156.316 107.345 156.604C102.785 157.234 98.4732 156.815 94.4092 155.348C97.6492 155.38 113.033 155.372 113.817 152.82L114.561 152.452Z" fill="#FCDBB9"/>
<path d="M113.817 152.82C113.033 155.372 97.6492 155.38 94.4092 155.348C93.7905 154.618 93.5718 154.1 93.7532 153.796C100.478 155.332 107.167 155.007 113.817 152.82Z" fill="#A2825D"/>
<path d="M110.049 162.909C107.659 165.245 104.857 166.077 101.641 165.405L101.713 163.725C101.723 163.431 101.849 163.202 102.089 163.037C102.702 162.594 103.139 162.026 103.401 161.333C103.448 161.213 103.521 161.105 103.616 161.018C103.71 160.931 103.822 160.866 103.945 160.829C105.705 160.277 110.937 159.229 110.049 162.909Z" fill="#BE3624"/>
<path d="M167.018 178.909L168.954 175.645L170.385 168.925C170.397 168.847 170.437 168.777 170.496 168.726C170.556 168.676 170.631 168.648 170.709 168.648C170.787 168.648 170.863 168.676 170.922 168.726C170.982 168.777 171.021 168.847 171.033 168.925C172.345 175.109 173.185 175.853 179.281 177.333C179.335 177.346 179.382 177.376 179.417 177.419C179.451 177.462 179.47 177.515 179.471 177.57C179.472 177.624 179.454 177.678 179.422 177.722C179.389 177.766 179.342 177.798 179.289 177.813C173.233 179.317 173.033 178.917 170.761 184.973C170.739 185.026 170.7 185.07 170.65 185.098C170.6 185.127 170.542 185.138 170.485 185.131C170.428 185.124 170.375 185.098 170.334 185.058C170.293 185.018 170.266 184.965 170.257 184.909C169.916 182.023 168.836 180.023 167.018 178.909Z" fill="#C8CD9C"/>
<path d="M95.5688 172.957C100.006 173.581 105.084 173.733 110.801 173.413C111.489 173.375 111.7 173.62 111.433 174.148L111.945 177.205C111.796 177.914 111.836 178.455 112.065 178.829C112.128 178.932 112.218 179.016 112.327 179.071C112.436 179.126 112.559 179.15 112.681 179.141C115.444 178.949 118.327 179.234 121.329 179.997C120.401 184.357 109.345 187.005 105.961 187.253C99.7853 187.717 91.8413 184.861 86.5853 181.365C86.5022 181.309 86.4389 181.229 86.4046 181.135C86.3702 181.041 86.3666 180.938 86.3942 180.842C86.4218 180.746 86.4792 180.661 86.5581 180.6C86.637 180.539 86.7334 180.504 86.8333 180.501C89.6653 180.416 92.2706 179.759 94.6493 178.533C95.4573 178.253 95.5533 177.565 95.2493 176.853C95.7507 175.61 95.8568 174.311 95.5688 172.957ZM95.5856 180.757C94.5616 182.941 99.5616 184.789 101.122 184.869C101.41 184.879 101.562 184.741 101.578 184.453C101.732 181.498 100.407 179.885 97.6016 179.613C96.6576 179.517 95.9856 179.898 95.5856 180.757Z" fill="#BE3624"/>
<path d="M168.954 175.645L167.018 178.909L161.778 178.133C161.426 178.079 161.42 177.999 161.762 177.893L168.954 175.645Z" fill="#A5CBA5"/>
<path d="M95.2493 176.853C95.5533 177.565 95.4573 178.253 94.6493 178.533L93.6489 178.317C93.4142 178.269 93.1822 178.293 92.9529 178.389C91.2009 179.149 89.2489 179.013 87.6569 179.341C85.8382 179.719 83.9636 179.919 82.0329 179.94C86.2356 177.972 90.6413 176.943 95.2493 176.853Z" fill="#41120F"/>
<path d="M132.041 182.093L129.042 181.933C126.546 180.226 123.975 179.581 121.329 179.997C118.327 179.234 115.444 178.949 112.681 179.141C112.559 179.15 112.436 179.126 112.327 179.071C112.218 179.016 112.128 178.932 112.065 178.829C111.836 178.455 111.796 177.914 111.945 177.205C119.119 177.477 125.817 179.106 132.041 182.093Z" fill="#2D0909"/>
<path d="M94.6493 178.533C92.2706 179.759 89.6653 180.416 86.8333 180.501C86.7334 180.504 86.637 180.539 86.5581 180.6C86.4792 180.661 86.4218 180.746 86.3942 180.842C86.3666 180.938 86.3702 181.041 86.4046 181.135C86.4389 181.229 86.5022 181.309 86.5853 181.365C91.8413 184.861 99.7853 187.717 105.961 187.253C109.345 187.005 120.401 184.357 121.329 179.997C123.975 179.581 126.546 180.226 129.042 181.933C121.73 188.869 110.73 191.637 100.874 190.829C95.7855 189.029 90.3699 188.188 85.6339 186.004C83.2232 184.9 80.8258 183.77 78.4418 182.612C78.3138 182.548 78.2125 182.458 78.1378 182.34L77.9939 182.085C79.2685 180.906 80.6142 180.191 82.0329 179.94C83.9636 179.919 85.8382 179.719 87.6569 179.341C89.2489 179.013 91.2009 179.149 92.9529 178.389C93.1822 178.293 93.4142 178.269 93.6489 178.317L94.6493 178.533Z" fill="#6D261A"/>
<path d="M101.122 184.869C99.5616 184.789 94.5616 182.941 95.5856 180.757C95.9856 179.898 96.6576 179.517 97.6016 179.613C100.407 179.885 101.732 181.498 101.578 184.453C101.562 184.741 101.41 184.879 101.122 184.869Z" fill="#CF7253"/>
<path d="M129.042 181.933L132.041 182.093L137.233 186.78C135.057 188.775 133.423 190.911 132.33 193.188C132.246 193.365 132.113 193.514 131.947 193.617C131.781 193.721 131.589 193.775 131.394 193.773L101.394 193.461C101.437 192.538 101.263 191.661 100.874 190.829C110.73 191.637 121.73 188.869 129.042 181.933Z" fill="#BE3624"/>
<path d="M77.4173 182.109C75.3213 184.965 73.001 186.957 71.361 190.429C71.4784 190.599 71.4438 190.743 71.2571 190.861C68.0091 195.341 66.1614 202.213 64.5374 207.573C63.7161 207.226 63.252 206.914 63.1453 206.637C64.6333 200.951 66.6386 195.624 69.1613 190.653C70.0013 189.269 75.7853 181.501 77.4173 182.109Z" fill="#FCC093"/>
<path d="M77.4173 182.109C77.5933 182.034 77.7859 182.026 77.9939 182.085L78.1378 182.34C78.2125 182.458 78.3138 182.548 78.4418 182.612C80.8258 183.77 83.2232 184.9 85.6339 186.004C90.3699 188.188 95.7855 189.029 100.874 190.829C101.263 191.661 101.437 192.538 101.394 193.461C94.2099 193.717 86.897 193.261 79.777 194.053C79.4944 194.085 79.3584 193.957 79.369 193.669L79.401 192.741C79.4046 192.617 79.3668 192.497 79.2937 192.397C79.2205 192.298 79.1163 192.226 78.9976 192.193C78.8789 192.16 78.7525 192.167 78.6386 192.215C78.5247 192.262 78.4298 192.345 78.369 192.453C78.1077 192.922 78.105 193.375 78.361 193.813C78.6277 194.277 78.513 194.413 78.017 194.221C76.345 193.581 72.457 190.389 71.361 190.429C73.001 186.957 75.3213 184.965 77.4173 182.109Z" fill="#D05C43"/>
<path d="M137.233 186.78L139.945 190.237C135.151 193.271 132.849 197.594 133.041 203.205C133.043 203.226 133.04 203.248 133.034 203.269C133.027 203.29 133.017 203.31 133.003 203.328C132.989 203.345 132.972 203.36 132.953 203.372C132.935 203.383 132.914 203.391 132.893 203.395C132.872 203.399 132.851 203.398 132.831 203.393C132.811 203.388 132.792 203.38 132.777 203.367C132.761 203.355 132.747 203.339 132.738 203.321C132.729 203.302 132.723 203.282 132.721 203.261C132.46 201.127 132.281 198.989 132.185 196.845C132.169 196.503 131.991 196.33 131.649 196.325L102.593 195.533C102.508 195.533 102.447 195.573 102.409 195.653C102.351 195.775 102.276 195.845 102.185 195.861C101.785 194.549 81.8579 196.557 79.5219 196.805C78.9139 196.869 78.5885 197.205 78.5459 197.813C78.1992 202.325 77.3481 206.887 75.9934 211.5L73.1776 210.485L75.9691 197.877C76.0713 197.413 76.0322 196.928 75.857 196.485C75.6817 196.042 75.3782 195.66 74.9851 195.389C73.3691 194.274 72.1265 192.765 71.2571 190.861C71.4438 190.743 71.4784 190.599 71.361 190.429C72.457 190.389 76.345 193.581 78.017 194.221C78.513 194.413 78.6277 194.277 78.361 193.813C78.105 193.375 78.1077 192.922 78.369 192.453C78.4298 192.345 78.5247 192.262 78.6386 192.215C78.7525 192.167 78.8789 192.16 78.9976 192.193C79.1163 192.226 79.2205 192.298 79.2937 192.397C79.3668 192.497 79.4046 192.617 79.401 192.741L79.369 193.669C79.3584 193.957 79.4944 194.085 79.777 194.053C86.897 193.261 94.2099 193.717 101.394 193.461L131.394 193.773C131.589 193.775 131.781 193.721 131.947 193.617C132.113 193.514 132.246 193.365 132.33 193.188C133.423 190.911 135.057 188.775 137.233 186.78Z" fill="#6D261A"/>
<path d="M139.945 190.237L145.073 199.429C145.189 199.643 145.241 199.884 145.225 200.125L145.161 200.877L144.873 200.437C144.713 200.191 144.51 200.149 144.265 200.309C141.801 201.941 139.385 203.645 137.017 205.421C134.769 207.109 133.313 209.461 129.745 210.013C122.668 211.111 115.252 211.533 107.497 211.277C105.321 206.285 103.551 201.146 102.185 195.861C102.276 195.845 102.351 195.775 102.409 195.653C102.447 195.573 102.508 195.533 102.593 195.533L131.649 196.325C131.991 196.33 132.169 196.503 132.185 196.845C132.281 198.989 132.46 201.127 132.721 203.261C132.723 203.282 132.729 203.302 132.738 203.321C132.747 203.339 132.761 203.355 132.777 203.367C132.792 203.38 132.811 203.388 132.831 203.393C132.851 203.398 132.872 203.399 132.893 203.395C132.914 203.391 132.935 203.383 132.953 203.372C132.972 203.36 132.989 203.345 133.003 203.328C133.017 203.31 133.027 203.29 133.034 203.269C133.04 203.248 133.043 203.226 133.041 203.205C132.849 197.594 135.151 193.271 139.945 190.237Z" fill="#BE3624"/>
<path d="M71.2571 190.861C72.1265 192.765 73.3691 194.274 74.9851 195.389C75.3782 195.66 75.6817 196.042 75.857 196.485C76.0322 196.928 76.0713 197.413 75.9691 197.877L73.1776 210.485L64.5374 207.573C66.1614 202.213 68.0091 195.341 71.2571 190.861Z" fill="#F4672F"/>
<path d="M102.185 195.861C103.551 201.146 105.321 206.285 107.497 211.277C98.345 211.896 88.9965 212.141 79.4499 212.013C78.3512 212.093 77.1988 211.922 75.9934 211.5C77.3481 206.887 78.1992 202.325 78.5459 197.813C78.5885 197.205 78.9139 196.869 79.5219 196.805C81.8579 196.557 101.785 194.549 102.185 195.861Z" fill="#F4672F"/>
<path d="M145.161 200.877L145.233 201.197C144.71 201.223 144.31 201.418 144.033 201.78C143.873 201.988 143.79 202.221 143.785 202.477C143.705 204.845 140.369 206.068 138.681 207.292C138.423 207.48 138.236 207.748 138.15 208.054C138.064 208.361 138.083 208.687 138.205 208.981C138.327 209.275 138.545 209.52 138.823 209.675C139.101 209.83 139.423 209.887 139.737 209.837C142.153 209.447 144.729 208.567 147.465 207.196C147.337 206.994 147.516 206.975 148.002 207.14C147.69 209.26 136.929 211.573 135.201 211.901C122.745 214.245 109.561 216.101 97.2653 214.797C92.4413 214.285 85.3939 213.917 79.4499 212.013C88.9965 212.141 98.345 211.896 107.497 211.277C115.252 211.533 122.668 211.111 129.745 210.013C133.313 209.461 134.769 207.109 137.017 205.421C139.385 203.645 141.801 201.941 144.265 200.309C144.51 200.149 144.713 200.191 144.873 200.437L145.161 200.877Z" fill="#6D261A"/>
<path d="M145.233 201.197L147.465 207.196C144.729 208.567 142.153 209.447 139.737 209.837C139.423 209.887 139.101 209.83 138.823 209.675C138.545 209.52 138.327 209.275 138.205 208.981C138.083 208.687 138.064 208.361 138.15 208.054C138.236 207.748 138.423 207.48 138.681 207.292C140.369 206.068 143.705 204.845 143.785 202.477C143.79 202.221 143.873 201.988 144.033 201.78C144.31 201.418 144.71 201.223 145.233 201.197Z" fill="#932318"/>
</svg>
