<svg width="214" height="215" viewBox="0 0 214 215" fill="none" xmlns="http://www.w3.org/2000/svg">
<path d="M149.487 9.15C160.223 13.7313 169.913 19.8967 178.558 27.6461C177.796 27.8007 177.084 27.574 176.422 26.966C176.406 26.9554 176.409 26.9474 176.43 26.942C176.542 26.926 176.612 26.91 176.638 26.894C176.782 26.814 176.769 26.734 176.598 26.654L172.638 24.742C172.38 24.6178 172.173 24.4054 172.054 24.142C171.873 23.7367 171.449 23.614 170.782 23.774C170.644 23.806 170.532 23.766 170.446 23.654C170.382 23.5634 170.361 23.47 170.382 23.374C170.42 23.198 170.364 23.0567 170.214 22.95C168.326 21.622 163.862 17.998 163.286 20.094C163.222 20.3233 163.076 20.462 162.846 20.51C160.958 20.8994 159.401 21.8007 158.174 23.214C157.988 23.4273 157.753 23.5447 157.47 23.566C155.246 23.758 152.102 23.942 152.798 27.022C152.852 27.2567 152.78 27.438 152.582 27.566L152.214 27.806C152.168 27.8375 152.129 27.8787 152.1 27.9267C152.071 27.9748 152.054 28.0284 152.048 28.0836C152.043 28.1388 152.05 28.1943 152.069 28.2459C152.088 28.2976 152.119 28.3441 152.158 28.382C153.854 30.0727 154.326 31.894 153.574 33.846L148.542 28.4859C147.294 26.2246 145.025 24.3073 141.734 22.7339C133.254 18.6779 125.814 15.4379 116.582 14.9979C97.3342 14.0859 81.6462 21.0859 72.4142 38.1339C71.7342 39.3819 70.8222 40.1099 70.9422 41.8539C70.9636 42.1313 70.9049 42.3926 70.7662 42.6379C69.9822 44.0406 69.5769 45.5446 69.5502 47.1499C69.5501 47.3837 69.4712 47.6118 69.3262 47.7979L66.7982 51.0939C66.3129 51.2006 66.0223 51.1152 65.9263 50.8379C65.6863 48.8379 64.5822 47.1819 62.6142 45.8699C57.1156 41.7152 51.4784 41.5526 45.7024 45.3819C42.1557 47.7339 40.6091 50.9072 41.0624 54.9019C41.6117 55.1846 42.1263 55.6299 42.6063 56.2379C39.0543 57.2513 36.7184 59.4752 35.5984 62.9099C34.1798 67.2565 34.5851 71.4939 36.8144 75.6219C25.7504 80.1659 17.7023 87.6059 16.7103 100.126C16.737 101.182 16.3342 101.051 15.5022 99.734C15.3635 99.5153 15.3155 99.278 15.3582 99.022C16.1262 94.526 18.9982 89.59 17.6942 85.942C17.6413 85.7896 17.554 85.6514 17.4389 85.5383C17.3239 85.4251 17.1843 85.3401 17.031 85.2898C16.8777 85.2394 16.7148 85.2252 16.5551 85.2481C16.3954 85.2711 16.2431 85.3306 16.1102 85.422L5.66221 92.638C5.52887 92.734 5.47288 92.862 5.49421 93.022L5.52621 93.27C5.56888 93.5953 5.44087 93.8247 5.14221 93.958L3.31821 94.774C3.05154 94.8913 2.92888 95.0967 2.95021 95.39C3.05688 96.9207 2.91821 98.4007 2.53421 99.83C1.59021 103.358 1.96621 108.182 2.27021 111.838C2.39288 113.326 1.89688 114.614 0.782209 115.702C-0.455124 92.8753 4.59589 71.6887 15.9346 52.142C44.5426 6.28601 99.3186 -11.538 149.487 9.15Z" fill="#FDD784"/>
<path d="M148.542 28.4859C138.521 21.3766 127.385 17.5659 115.135 17.0539C113.273 16.8299 111.804 16.7741 110.726 16.8861C91.7502 18.8167 78.5609 28.2834 71.1582 45.2861C71.1358 45.3445 71.1355 45.4098 71.1573 45.4693C71.1791 45.5288 71.2214 45.5782 71.2762 45.6081C71.3309 45.638 71.3942 45.6461 71.4536 45.6309C71.5131 45.6158 71.5646 45.5784 71.5982 45.526C73.2142 43.046 76.1662 37.918 78.4302 36.758C78.5307 36.708 78.6438 36.6889 78.7551 36.7031C78.8664 36.7173 78.9711 36.7641 79.0558 36.8377C79.1406 36.9113 79.2016 37.0084 79.2312 37.1167C79.2608 37.2249 79.2577 37.3396 79.2222 37.446C77.8462 41.454 75.7902 48.6461 71.8622 50.6301C70.3662 50.9901 68.2702 52.1659 66.7982 51.0939L69.3262 47.7979C69.4712 47.6118 69.5501 47.3837 69.5502 47.1499C69.5769 45.5446 69.9822 44.0406 70.7662 42.6379C70.9049 42.3926 70.9636 42.1313 70.9422 41.8539C70.8222 40.1099 71.7342 39.3819 72.4142 38.1339C81.6462 21.0859 97.3342 14.0859 116.582 14.9979C125.814 15.4379 133.254 18.6779 141.734 22.7339C145.025 24.3073 147.294 26.2246 148.542 28.4859Z" fill="#FCE4AD"/>
<path d="M115.135 17.0539L114.678 17.4139C114.492 17.5579 114.454 17.7312 114.566 17.9339L114.958 18.7019C109.382 18.5979 99.0465 21.422 96.6225 27.174C96.59 27.2524 96.5805 27.3384 96.5951 27.422C96.6096 27.5056 96.6476 27.5833 96.7046 27.6462C96.7616 27.709 96.8352 27.7544 96.917 27.777C96.9988 27.7997 97.0853 27.7986 97.1665 27.774C103.817 25.742 110.321 23.2273 116.678 20.23C119.681 18.966 123.132 19.0381 127.03 20.4461C127.665 21.4381 129.11 22.0461 131.366 22.2701C132.23 22.3581 137.094 24.0061 136.966 25.9021C136.951 26.1844 137.045 26.4623 137.23 26.6781C140.116 30.0167 140.921 33.8967 139.646 38.3181C139.571 38.5747 139.446 38.8137 139.277 39.0208C139.108 39.2279 138.9 39.3989 138.664 39.5235C138.428 39.6482 138.169 39.724 137.904 39.7464C137.638 39.7689 137.371 39.7374 137.118 39.6541C131.79 37.9101 126.35 36.3901 120.71 37.3181C110.35 39.0221 100.582 44.7101 92.5024 49.4301C89.4837 51.1954 89.625 51.5074 92.9264 50.3661C98.6944 48.3741 104.422 45.8861 110.654 44.7901L117.038 44.582C119.326 46.5447 119.353 48.126 117.118 49.326C116.948 49.4167 116.849 49.558 116.822 49.75L116.598 51.222C116.566 51.4353 116.609 51.6327 116.726 51.814C117.089 52.4007 116.94 52.846 116.278 53.15C106.854 57.518 99.9263 62.55 88.9503 62.686C85.0196 62.7287 80.657 62.054 75.8623 60.662C76.4063 58.1767 76.2413 55.8512 75.3666 53.6859C74.4973 52.0486 73.3289 51.0301 71.8622 50.6301C75.7902 48.6461 77.8462 41.454 79.2222 37.446C79.2577 37.3396 79.2608 37.2249 79.2312 37.1167C79.2016 37.0084 79.1406 36.9113 79.0558 36.8377C78.9711 36.7641 78.8664 36.7173 78.7551 36.7031C78.6438 36.6889 78.5307 36.708 78.4302 36.758C76.1662 37.918 73.2142 43.046 71.5982 45.526C71.5646 45.5784 71.5131 45.6158 71.4536 45.6309C71.3942 45.6461 71.3309 45.638 71.2762 45.6081C71.2214 45.5782 71.1791 45.5288 71.1573 45.4693C71.1355 45.4098 71.1358 45.3445 71.1582 45.2861C78.5609 28.2834 91.7502 18.8167 110.726 16.8861C111.804 16.7741 113.273 16.8299 115.135 17.0539ZM91.8544 23.3021C88.7664 24.7661 79.2704 30.1181 82.1104 34.1021C82.158 34.1678 82.2195 34.2223 82.2905 34.2616C82.3615 34.3008 82.4403 34.324 82.5213 34.3293C82.6023 34.3347 82.6834 34.3221 82.759 34.2925C82.8345 34.2629 82.9026 34.217 82.9584 34.1581L92.4384 24.1101C92.5248 24.0257 92.578 23.913 92.5883 23.7927C92.5986 23.6724 92.5654 23.5523 92.4946 23.4544C92.4239 23.3566 92.3203 23.2873 92.2028 23.2594C92.0853 23.2314 91.9617 23.2466 91.8544 23.3021Z" fill="#6D261A"/>
<path d="M115.135 17.0539C127.385 17.5659 138.521 21.3766 148.542 28.4859L153.574 33.846C157.942 39.15 160.118 46.2701 157.23 52.8621C157.108 53.1394 157.196 53.3154 157.494 53.3901C160.038 54.0221 162.918 54.5501 165.11 55.8461C170.673 59.1314 174.764 63.9074 177.382 70.1741C179.537 75.9767 181.553 81.886 183.43 87.902C184.958 92.798 188.734 94.974 190.814 99.326C196.086 110.35 185.998 124.11 176.558 128.87C176.697 127.537 176.841 126.342 176.99 125.286C178.67 113.334 164.55 105.91 158.078 118.726L156.758 121.118C157.089 116.11 157.126 112.187 156.87 109.35C155.63 95.4059 144.646 85.8779 135.51 75.9019L131.35 68.0861C131.217 67.8301 131.036 67.7901 130.806 67.9661C119.014 76.9901 105.846 80.3501 91.2305 80.5021C81.7265 80.5981 72.2785 79.3181 64.0465 74.1901C63.7798 74.0248 63.6012 74.0915 63.5105 74.3901C63.2172 75.3768 63.1692 76.1661 63.3665 76.7581C63.4358 88.8488 59.0544 98.4353 50.2224 105.518C48.5424 106.862 49.0624 111.43 49.3824 114.502L43.4385 112.342C41.5078 112.171 40.3506 112.342 39.9666 112.854C32.7506 113.358 29.2463 120.374 29.8783 126.886C23.1183 119.326 18.3345 114.758 16.9185 104.526C17.1105 104.302 17.1905 104.025 17.1585 103.694C17.1373 103.594 17.1566 103.49 17.2121 103.405C17.2676 103.319 17.3548 103.259 17.4545 103.238C17.5543 103.217 17.6583 103.236 17.7438 103.292C17.8294 103.347 17.8893 103.434 17.9105 103.534C18.2092 104.441 18.4999 105.353 18.7825 106.27C19.7985 109.55 24.6945 107.454 26.1985 106.118C27.6225 104.865 29.0199 103.558 30.3905 102.198C30.5879 101.995 30.8145 101.953 31.0705 102.07C31.8599 102.433 32.6652 102.433 33.4865 102.07C33.5928 102.023 33.7123 102.013 33.8245 102.044C33.9368 102.075 34.0351 102.143 34.1025 102.238C34.3692 102.617 34.7399 102.771 35.2145 102.702C35.4652 102.659 35.6172 102.761 35.6705 103.006C35.8839 103.918 36.3905 104.635 37.1905 105.158C37.4359 105.318 37.6892 105.329 37.9505 105.19L39.3185 104.462L40.8225 104.526C41.0892 104.537 41.2199 104.675 41.2145 104.942C41.1985 105.758 41.7425 106.086 42.8465 105.926C43.2061 105.874 43.5413 105.712 43.8065 105.462C49.5985 99.91 55.5985 93.494 57.5345 85.494C58.3265 82.206 58.0145 77.75 59.0145 73.518C59.4225 71.75 57.9905 69.95 59.5745 69.014C61.9585 69.766 64.2597 69.9074 66.4784 69.438C66.9104 69.8007 67.0516 70.2859 66.9023 70.8939C66.8436 71.1499 66.929 71.3445 67.1583 71.4779C70.289 73.2645 73.601 74.5899 77.0943 75.4539C96.6783 79.4219 127.406 76.4139 136.182 54.9659C136.294 54.6939 136.484 54.6165 136.75 54.7339C138.889 55.6405 140.238 57.1445 140.798 59.2459C139.15 59.6885 138.268 60.5607 138.15 61.8621C138.124 62.1394 138.228 62.3527 138.462 62.5021C141.694 64.5421 145.582 66.4301 148.094 68.8301C152.982 73.5101 154.438 79.8301 156.358 87.0701C160.438 101.702 176.942 101.31 186.43 110.198C186.485 110.249 186.553 110.285 186.626 110.301C186.7 110.318 186.776 110.314 186.848 110.292C186.919 110.269 186.984 110.227 187.034 110.172C187.084 110.116 187.119 110.047 187.134 109.974C187.518 108.07 188.31 106.078 188.11 104.23C187.67 100.278 183.262 97.0619 180.63 94.4139C180.441 94.2299 180.332 93.9769 180.326 93.7099C180.316 93.2779 180.534 92.9899 180.982 92.8459L185.719 96.6939C185.865 96.8057 186.047 96.86 186.231 96.8463C186.414 96.8327 186.587 96.7522 186.715 96.62C186.843 96.4879 186.918 96.3132 186.926 96.1293C186.935 95.9453 186.875 95.7648 186.759 95.6219L183.743 92.1019C182.495 89.1099 180.438 87.022 179.302 84.262C174.022 71.438 168.71 57.1261 151.942 57.6541C150.934 57.6807 150.07 57.5261 149.35 57.1901C149.165 57.102 149 56.9755 148.867 56.8188C148.734 56.6622 148.636 56.479 148.579 56.2815C148.522 56.084 148.508 55.8767 148.538 55.6733C148.567 55.47 148.64 55.2752 148.75 55.1021C149.694 53.6247 150.004 52.0007 149.678 50.2301C153.078 47.5741 153.39 44.2541 151.774 40.2301C149.182 33.7341 146.246 28.3821 139.55 25.6141C139.3 25.5074 139.116 25.3341 138.998 25.0941C138.518 24.1234 137.732 23.6487 136.638 23.6701C136.377 23.6754 136.137 23.6087 135.918 23.4701C133.241 21.7367 130.278 20.7288 127.03 20.4461C123.132 19.0381 119.681 18.966 116.678 20.23L116.486 19.3979C116.428 19.1259 116.268 18.9339 116.006 18.8219C115.686 18.6833 115.337 18.6432 114.958 18.7019L114.566 17.9339C114.454 17.7312 114.492 17.5579 114.678 17.4139L115.135 17.0539Z" fill="#2D0909"/>
<path d="M114.958 18.7019C115.337 18.6432 115.686 18.6833 116.006 18.8219C116.268 18.9339 116.428 19.1259 116.486 19.3979L116.678 20.23C110.321 23.2273 103.817 25.742 97.1665 27.774C97.0853 27.7986 96.9988 27.7997 96.917 27.777C96.8352 27.7544 96.7616 27.709 96.7046 27.6462C96.6476 27.5833 96.6096 27.5056 96.5951 27.422C96.5805 27.3384 96.59 27.2524 96.6225 27.174C99.0465 21.422 109.382 18.5979 114.958 18.7019Z" fill="#FDD784"/>
<path d="M178.558 27.6461C204.102 50.5581 214.478 81.1341 212.854 114.814C212.262 125.411 210.297 135.633 206.958 145.478C196.958 172.638 176.014 195.118 148.798 205.806C149.406 203.934 150.804 202.875 152.99 202.63C154.278 202.486 154.886 201.966 155.934 201.358C156.302 201.145 156.276 201.062 155.854 201.11C155.673 201.126 155.5 201.118 155.334 201.086C155.301 201.079 155.269 201.059 155.246 201.031C155.222 201.003 155.209 200.969 155.208 200.935C155.207 200.902 155.218 200.871 155.24 200.85C155.262 200.829 155.293 200.819 155.326 200.822C156.052 200.886 156.476 200.598 156.598 199.958C156.641 199.729 156.764 199.558 156.966 199.446C158.15 198.79 159.174 197.931 160.038 196.87C160.195 196.676 160.403 196.53 160.638 196.446L162.23 195.894C162.497 195.798 162.692 195.619 162.814 195.358C164.39 191.87 165.43 186.67 169.358 185.198C169.625 185.097 169.862 184.945 170.07 184.742C170.854 183.958 171.796 183.433 172.894 183.166C173.161 183.102 173.348 182.945 173.454 182.694C173.897 181.681 174.668 181.211 175.766 181.286C175.898 181.296 176.03 181.269 176.147 181.208C176.264 181.147 176.362 181.055 176.43 180.942C177.342 179.395 178.508 178.067 179.926 176.958C180.156 176.777 180.332 176.553 180.454 176.286C180.998 175.075 181.878 174.153 183.094 173.518C183.324 173.395 183.468 173.206 183.526 172.95C183.91 171.166 185.246 169.998 185.806 168.574C188.63 161.398 191.726 155.174 191.534 146.766C191.502 145.11 192.182 143.438 192.302 141.782C192.414 140.262 192.617 139.035 192.91 138.102C194.414 133.302 194.678 128.534 195.734 123.662C196.854 118.542 195.134 113.334 195.39 108.094C195.417 107.465 195.174 106.481 194.662 105.142C194.572 104.897 194.58 104.654 194.686 104.414C194.974 103.811 194.732 103.307 193.958 102.902C193.847 102.844 193.76 102.748 193.713 102.631C193.666 102.514 193.662 102.383 193.702 102.262C194.102 101.078 194.35 100.398 193.886 99.1419C190.222 89.2273 185.676 79.5046 180.246 69.9739C179.985 69.5206 179.484 69.3126 178.742 69.3499C178.476 69.3606 178.022 69.6354 177.382 70.1741C174.764 63.9074 170.673 59.1314 165.11 55.8461C162.918 54.5501 160.038 54.0221 157.494 53.3901C157.196 53.3154 157.108 53.1394 157.23 52.8621C160.118 46.2701 157.942 39.15 153.574 33.846C154.326 31.894 153.854 30.0727 152.158 28.382C152.119 28.3441 152.088 28.2976 152.069 28.2459C152.05 28.1943 152.043 28.1388 152.048 28.0836C152.054 28.0284 152.071 27.9748 152.1 27.9267C152.129 27.8787 152.168 27.8375 152.214 27.806L152.582 27.566C152.78 27.438 152.852 27.2567 152.798 27.022C152.102 23.942 155.246 23.758 157.47 23.566C157.753 23.5447 157.988 23.4273 158.174 23.214C159.401 21.8007 160.958 20.8994 162.846 20.51C163.076 20.462 163.222 20.3233 163.286 20.094C163.862 17.998 168.326 21.622 170.214 22.95C170.364 23.0567 170.42 23.198 170.382 23.374C170.361 23.47 170.382 23.5634 170.446 23.654C170.532 23.766 170.644 23.806 170.782 23.774C171.449 23.614 171.873 23.7367 172.054 24.142C172.173 24.4054 172.38 24.6178 172.638 24.742L176.598 26.654C176.769 26.734 176.782 26.814 176.638 26.894C176.612 26.91 176.542 26.926 176.43 26.942C176.409 26.9474 176.406 26.9554 176.422 26.966C177.084 27.574 177.796 27.8007 178.558 27.6461ZM180.303 54.6541C180.221 54.6382 180.147 54.5985 180.089 54.5401C180.03 54.4817 179.99 54.4072 179.975 54.3261L179.214 50.4621C179.196 50.3677 179.145 50.2828 179.07 50.2217C178.996 50.1607 178.903 50.1273 178.807 50.1273C178.71 50.1273 178.617 50.1607 178.543 50.2217C178.468 50.2828 178.417 50.3677 178.398 50.4621L177.631 54.3181C177.615 54.3992 177.575 54.4737 177.516 54.5321C177.458 54.5905 177.384 54.6302 177.303 54.6461L173.438 55.4061C173.344 55.4249 173.259 55.4758 173.198 55.5502C173.137 55.6246 173.104 55.7179 173.104 55.8141C173.104 55.9104 173.137 56.0036 173.198 56.078C173.259 56.1524 173.344 56.2033 173.438 56.2221L177.294 56.9901C177.376 57.0061 177.45 57.0458 177.508 57.1042C177.567 57.1626 177.607 57.2371 177.622 57.3181L178.383 61.1821C178.401 61.2765 178.452 61.3615 178.527 61.4225C178.601 61.4836 178.694 61.5169 178.79 61.5169C178.887 61.5169 178.98 61.4836 179.054 61.4225C179.129 61.3615 179.18 61.2765 179.199 61.1821L179.966 57.3261C179.982 57.2451 180.022 57.1706 180.081 57.1122C180.139 57.0537 180.213 57.014 180.294 56.9981L184.159 56.2381C184.253 56.2193 184.338 56.1684 184.399 56.094C184.46 56.0196 184.493 55.9264 184.493 55.8301C184.493 55.7339 184.46 55.6406 184.399 55.5662C184.338 55.4918 184.253 55.4409 184.159 55.4221L180.303 54.6541Z" fill="#FCC467"/>
<path d="M127.03 20.4461C130.278 20.7288 133.241 21.7367 135.918 23.4701C136.137 23.6087 136.377 23.6754 136.638 23.6701C137.732 23.6487 138.518 24.1234 138.998 25.0941C139.116 25.3341 139.3 25.5074 139.55 25.6141C146.246 28.3821 149.182 33.7341 151.774 40.2301C153.39 44.2541 153.078 47.5741 149.678 50.2301C146.98 52.2354 144.58 52.2592 142.478 50.3019C142.156 50.0061 141.963 49.5958 141.939 49.1581C141.915 48.7204 142.062 48.2898 142.35 47.9579L147.478 42.0379C147.82 41.6485 147.737 41.5099 147.23 41.6219C144.484 42.2565 141.724 42.2752 138.95 41.6779C138.134 41.5019 136.894 42.1339 135.998 42.1419C127.844 42.2485 119.692 42.3525 111.542 42.4539C111.282 42.4538 111.027 42.5379 110.814 42.6939C109.545 43.6005 109.492 44.2994 110.654 44.7901C104.422 45.8861 98.6944 48.3741 92.9264 50.3661C89.625 51.5074 89.4837 51.1954 92.5024 49.4301C100.582 44.7101 110.35 39.0221 120.71 37.3181C126.35 36.3901 131.79 37.9101 137.118 39.6541C137.371 39.7374 137.638 39.7689 137.904 39.7464C138.169 39.724 138.428 39.6482 138.664 39.5235C138.9 39.3989 139.108 39.2279 139.277 39.0208C139.446 38.8137 139.571 38.5747 139.646 38.3181C140.921 33.8967 140.116 30.0167 137.23 26.6781C137.045 26.4623 136.951 26.1844 136.966 25.9021C137.094 24.0061 132.23 22.3581 131.366 22.2701C129.11 22.0461 127.665 21.4381 127.03 20.4461Z" fill="#4C1813"/>
<path d="M82.1104 34.1021C79.2704 30.1181 88.7664 24.7661 91.8544 23.3021C91.9617 23.2466 92.0853 23.2314 92.2028 23.2594C92.3203 23.2873 92.4239 23.3566 92.4946 23.4544C92.5654 23.5523 92.5986 23.6724 92.5883 23.7927C92.578 23.913 92.5248 24.0257 92.4384 24.1101L82.9584 34.1581C82.9026 34.217 82.8345 34.2629 82.759 34.2925C82.6834 34.3221 82.6023 34.3347 82.5213 34.3293C82.4403 34.324 82.3615 34.3008 82.2905 34.2616C82.2195 34.2223 82.158 34.1678 82.1104 34.1021Z" fill="#FCE4AD"/>
<path d="M149.678 50.2301C150.004 52.0007 149.694 53.6247 148.75 55.1021C148.64 55.2752 148.567 55.47 148.538 55.6733C148.508 55.8767 148.522 56.084 148.579 56.2815C148.636 56.479 148.734 56.6622 148.867 56.8188C149 56.9755 149.165 57.102 149.35 57.1901C150.07 57.5261 150.934 57.6807 151.942 57.6541C168.71 57.1261 174.022 71.438 179.302 84.262C180.438 87.022 182.495 89.1099 183.743 92.1019C178.537 88.8966 174.788 85.2487 172.494 81.158C171.23 78.886 168.014 71.086 165.35 71.134C165.052 71.1393 164.884 71.2887 164.846 71.582C163.894 78.446 165.366 88.022 171.974 91.846C172.034 91.882 172.103 91.9006 172.173 91.8998C172.242 91.899 172.311 91.8788 172.37 91.8414C172.429 91.8041 172.476 91.751 172.507 91.6882C172.537 91.6255 172.549 91.5554 172.542 91.486L172.142 87.27C171.95 85.2967 172.58 84.9873 174.03 86.342L180.982 92.8459C180.534 92.9899 180.316 93.2779 180.326 93.7099C180.332 93.9769 180.441 94.2299 180.63 94.4139C183.262 97.0619 187.67 100.278 188.11 104.23C188.31 106.078 187.518 108.07 187.134 109.974C187.119 110.047 187.084 110.116 187.034 110.172C186.984 110.227 186.919 110.269 186.848 110.292C186.776 110.314 186.7 110.318 186.626 110.301C186.553 110.285 186.485 110.249 186.43 110.198C176.942 101.31 160.438 101.702 156.358 87.0701C156.737 87.5288 157.494 87.3874 158.63 86.6461C159.062 86.3634 159.244 85.9661 159.174 85.4541C158.03 76.6621 156.438 64.7421 146.846 61.0621C144.804 60.2781 142.788 59.6725 140.798 59.2459C140.238 57.1445 138.889 55.6405 136.75 54.7339C136.484 54.6165 136.294 54.6939 136.182 54.9659C127.406 76.4139 96.6783 79.4219 77.0943 75.4539L84.1983 72.246C84.4514 72.1324 84.6555 71.934 84.7743 71.686C85.505 70.1607 86.313 69.3287 87.1983 69.19C93.1503 68.2513 98.0063 66.8353 101.766 64.942C110.545 60.5207 119.356 56.1713 128.198 51.894C129.574 51.222 130.782 50.23 131.742 49.182C131.847 49.0694 131.925 48.935 131.971 48.7886C132.018 48.6421 132.031 48.4872 132.01 48.335C131.99 48.1828 131.936 48.037 131.852 47.9082C131.768 47.7794 131.657 47.6707 131.526 47.59C126.881 44.6673 122.052 43.6647 117.038 44.582L110.654 44.7901C109.492 44.2994 109.545 43.6005 110.814 42.6939C111.027 42.5379 111.282 42.4538 111.542 42.4539C119.692 42.3525 127.844 42.2485 135.998 42.1419C136.894 42.1339 138.134 41.5019 138.95 41.6779C141.724 42.2752 144.484 42.2565 147.23 41.6219C147.737 41.5099 147.82 41.6485 147.478 42.0379L142.35 47.9579C142.062 48.2898 141.915 48.7204 141.939 49.1581C141.963 49.5958 142.156 50.0061 142.478 50.3019C144.58 52.2592 146.98 52.2354 149.678 50.2301Z" fill="#41120F"/>
<path d="M62.6142 45.8699L64.0863 48.4219C64.101 48.4424 64.1116 48.4656 64.1173 48.4901C64.1231 48.5147 64.1239 48.5401 64.1198 48.565C64.1158 48.5899 64.1068 48.6137 64.0935 48.6352C64.0802 48.6566 64.0628 48.6752 64.0423 48.6899C64.0219 48.7046 63.9987 48.7151 63.9741 48.7209C63.9496 48.7266 63.9241 48.7275 63.8992 48.7234C63.8743 48.7193 63.8505 48.7104 63.8291 48.6971C63.8076 48.6838 63.789 48.6664 63.7743 48.6459C62.5583 47.2859 60.7903 45.0619 59.0383 47.1819C56.1583 50.6699 53.449 53.2006 50.9103 54.7739C49.8117 54.3312 48.777 54.4273 47.8063 55.062C47.6143 55.19 47.4063 55.222 47.1823 55.158C45.3636 54.63 43.3237 54.5446 41.0624 54.9019C40.6091 50.9072 42.1557 47.7339 45.7024 45.3819C51.4784 41.5526 57.1156 41.7152 62.6142 45.8699Z" fill="#F4672F"/>
<path d="M77.0943 75.4539C73.601 74.5899 70.289 73.2645 67.1583 71.4779C66.929 71.3445 66.8436 71.1499 66.9023 70.8939C67.0516 70.2859 66.9104 69.8007 66.4784 69.438C71.1771 68.2754 74.305 65.35 75.8623 60.662C80.657 62.054 85.0196 62.7287 88.9503 62.686C99.9263 62.55 106.854 57.518 116.278 53.15C116.94 52.846 117.089 52.4007 116.726 51.814C116.609 51.6327 116.566 51.4353 116.598 51.222L116.822 49.75C116.849 49.558 116.948 49.4167 117.118 49.326C119.353 48.126 119.326 46.5447 117.038 44.582C122.052 43.6647 126.881 44.6673 131.526 47.59C131.657 47.6707 131.768 47.7794 131.852 47.9082C131.936 48.037 131.99 48.1828 132.01 48.335C132.031 48.4872 132.018 48.6421 131.971 48.7886C131.925 48.935 131.847 49.0694 131.742 49.182C130.782 50.23 129.574 51.222 128.198 51.894C119.356 56.1713 110.545 60.5207 101.766 64.942C98.0063 66.8353 93.1503 68.2513 87.1983 69.19C86.313 69.3287 85.505 70.1607 84.7743 71.686C84.6555 71.934 84.4514 72.1324 84.1983 72.246L77.0943 75.4539Z" fill="#4C1813"/>
<path d="M62.6142 45.8699C64.5822 47.1819 65.6863 48.8379 65.9263 50.8379C62.8063 51.8192 60.1691 53.5339 58.0144 55.9819C57.8277 56.2005 57.8331 56.4112 58.0304 56.6139C58.9691 57.5525 59.4944 58.6459 59.6064 59.8939C59.1051 64.6032 56.8198 67.6061 52.7505 68.9021C49.8065 69.8408 47.2518 68.9688 45.0865 66.2861C45.3692 66.0194 45.6598 65.902 45.9585 65.934C47.8465 67.4434 49.9904 67.8379 52.3904 67.1179C54.9904 66.3419 60.9664 61.7739 58.3424 58.4939C56.9584 56.7579 53.5824 56.7899 51.4224 56.7179C51.177 56.4673 50.8782 56.2887 50.5262 56.182C50.2862 56.1073 50.1609 55.9473 50.1502 55.702C50.1289 55.254 50.3823 54.9446 50.9103 54.7739C53.449 53.2006 56.1583 50.6699 59.0383 47.1819C60.7903 45.0619 62.5583 47.2859 63.7743 48.6459C63.789 48.6664 63.8076 48.6838 63.8291 48.6971C63.8505 48.7104 63.8743 48.7193 63.8992 48.7234C63.9241 48.7275 63.9496 48.7266 63.9741 48.7209C63.9987 48.7151 64.0219 48.7046 64.0423 48.6899C64.0628 48.6752 64.0802 48.6566 64.0935 48.6352C64.1068 48.6137 64.1158 48.5899 64.1198 48.565C64.1239 48.5401 64.1231 48.5147 64.1173 48.4901C64.1116 48.4656 64.101 48.4424 64.0863 48.4219L62.6142 45.8699Z" fill="#BE3624"/>
<path d="M180.303 54.6541L184.159 55.4221C184.253 55.4409 184.338 55.4918 184.399 55.5662C184.46 55.6406 184.493 55.7339 184.493 55.8301C184.493 55.9264 184.46 56.0196 184.399 56.094C184.338 56.1684 184.253 56.2193 184.159 56.2381L180.294 56.9981C180.213 57.014 180.139 57.0537 180.081 57.1122C180.022 57.1706 179.982 57.2451 179.966 57.3261L179.199 61.1821C179.18 61.2765 179.129 61.3615 179.054 61.4225C178.98 61.4836 178.887 61.5169 178.79 61.5169C178.694 61.5169 178.601 61.4836 178.527 61.4225C178.452 61.3615 178.401 61.2765 178.383 61.1821L177.622 57.3181C177.607 57.2371 177.567 57.1626 177.508 57.1042C177.45 57.0458 177.376 57.0061 177.294 56.9901L173.438 56.2221C173.344 56.2033 173.259 56.1524 173.198 56.078C173.137 56.0036 173.104 55.9104 173.104 55.8141C173.104 55.7179 173.137 55.6246 173.198 55.5502C173.259 55.4758 173.344 55.4249 173.438 55.4061L177.303 54.6461C177.384 54.6302 177.458 54.5905 177.516 54.5321C177.575 54.4737 177.615 54.3992 177.631 54.3181L178.398 50.4621C178.417 50.3677 178.468 50.2828 178.543 50.2217C178.617 50.1607 178.71 50.1273 178.807 50.1273C178.903 50.1273 178.996 50.1607 179.07 50.2217C179.145 50.2828 179.196 50.3677 179.214 50.4621L179.975 54.3261C179.99 54.4072 180.03 54.4817 180.089 54.5401C180.147 54.5985 180.221 54.6382 180.303 54.6541Z" fill="#F8F5F3"/>
<path d="M71.8622 50.6301C73.3289 51.0301 74.4973 52.0486 75.3666 53.6859L72.9824 52.2541C72.7531 52.1207 72.5184 52.1074 72.2784 52.2141C68.9024 53.6647 65.9131 55.6701 63.3104 58.2301C63.1291 58.4114 62.9184 58.55 62.6784 58.646L59.6064 59.8939C59.4944 58.6459 58.9691 57.5525 58.0304 56.6139C57.8331 56.4112 57.8277 56.2005 58.0144 55.9819C60.1691 53.5339 62.8063 51.8192 65.9263 50.8379C66.0223 51.1152 66.3129 51.2006 66.7982 51.0939C68.2702 52.1659 70.3662 50.9901 71.8622 50.6301Z" fill="#EF8D50"/>
<path d="M75.3666 53.6859C76.2413 55.8512 76.4063 58.1767 75.8623 60.662C74.305 65.35 71.1771 68.2754 66.4784 69.438C64.2597 69.9074 61.9585 69.766 59.5745 69.014L57.9904 68.2619C57.7344 68.1393 57.5477 68.2059 57.4304 68.4619C55.3264 73.0779 50.1744 79.0699 44.5904 78.9099L40.8943 78.59C40.361 77.55 40.1078 76.7687 40.1345 76.2461C40.5238 76.4914 40.8652 76.6086 41.1585 76.5979C41.5052 76.5873 41.5905 76.4326 41.4145 76.1339C39.6545 73.0993 39.0412 69.8886 39.5745 66.5019C39.9585 64.0779 41.8625 62.8539 43.5345 61.2459C43.587 61.1962 43.6548 61.1657 43.7268 61.1594C43.7989 61.1531 43.8709 61.1714 43.9312 61.2113C43.9915 61.2512 44.0365 61.3103 44.0589 61.3791C44.0813 61.4479 44.0798 61.5222 44.0545 61.5899C43.5665 62.9019 41.6705 72.91 44.6785 72.406C44.9718 72.358 45.0812 72.1899 45.0065 71.9019C44.5158 70.0779 44.2438 68.2219 44.1905 66.3339C44.1882 66.2833 44.1969 66.2323 44.2162 66.184C44.2355 66.1358 44.2649 66.0915 44.3025 66.0539C44.5905 65.7606 44.8518 65.8381 45.0865 66.2861C47.2518 68.9688 49.8065 69.8408 52.7505 68.9021C56.8198 67.6061 59.1051 64.6032 59.6064 59.8939L62.6784 58.646C62.9184 58.55 63.1291 58.4114 63.3104 58.2301C65.9131 55.6701 68.9024 53.6647 72.2784 52.2141C72.5184 52.1074 72.7531 52.1207 72.9824 52.2541L75.3666 53.6859ZM62.0385 61.4699C61.4412 62.1259 61.2145 62.9259 61.3585 63.8699C61.4172 64.2326 61.5985 64.3126 61.9025 64.1099C63.3745 63.1286 63.9399 61.7846 63.5985 60.0779C63.5781 59.972 63.5214 59.8766 63.4382 59.8079C63.3549 59.7393 63.2504 59.7018 63.1425 59.7019H62.7345C62.4092 59.7019 62.3265 59.8459 62.4865 60.1339C62.6039 60.3366 62.5825 60.5926 62.4225 60.9019C62.3212 61.1099 62.1932 61.2993 62.0385 61.4699Z" fill="#F4672F"/>
<path d="M50.9103 54.7739C50.3823 54.9446 50.1289 55.254 50.1502 55.702C50.1609 55.9473 50.2862 56.1073 50.5262 56.182C50.8782 56.2887 51.177 56.4673 51.4224 56.7179L48.0545 57.8139C45.3185 59.4566 44.2462 61.3927 44.8382 63.622C44.5342 64.1394 44.3746 64.5712 44.3586 64.9179C44.3426 65.1952 44.4679 65.2939 44.7346 65.2139C45.2839 65.0539 45.6918 65.294 45.9585 65.934C45.6598 65.902 45.3692 66.0194 45.0865 66.2861C44.8518 65.8381 44.5905 65.7606 44.3025 66.0539C44.2649 66.0915 44.2355 66.1358 44.2162 66.184C44.1969 66.2323 44.1882 66.2833 44.1905 66.3339C44.2438 68.2219 44.5158 70.0779 45.0065 71.9019C45.0812 72.1899 44.9718 72.358 44.6785 72.406C41.6705 72.91 43.5665 62.9019 44.0545 61.5899C44.0798 61.5222 44.0813 61.4479 44.0589 61.3791C44.0365 61.3103 43.9915 61.2512 43.9312 61.2113C43.8709 61.1714 43.7989 61.1531 43.7268 61.1594C43.6548 61.1657 43.587 61.1962 43.5345 61.2459C41.8625 62.8539 39.9585 64.0779 39.5745 66.5019C39.0412 69.8886 39.6545 73.0993 41.4145 76.1339C41.5905 76.4326 41.5052 76.5873 41.1585 76.5979C40.8652 76.6086 40.5238 76.4914 40.1345 76.2461C39.1505 72.9181 37.6542 71.4619 38.9422 67.2859C38.9612 67.2198 38.9599 67.1497 38.9386 67.0844C38.9173 67.0191 38.877 66.9616 38.8228 66.9195C38.7685 66.8773 38.7029 66.8523 38.6344 66.8478C38.5659 66.8432 38.4976 66.8593 38.4382 66.8939C37.8089 67.2672 37.2969 67.7792 36.9022 68.4299C36.8756 68.4779 36.8356 68.5019 36.7822 68.5019C36.6862 68.5019 36.5982 68.5019 36.5182 68.5019C36.482 68.5023 36.4461 68.4949 36.4131 68.48C36.3801 68.4651 36.3507 68.4432 36.327 68.4157C36.3034 68.3883 36.2861 68.356 36.2763 68.3211C36.2664 68.2862 36.2644 68.2496 36.2702 68.2139C36.9209 64.3045 39.0676 61.5925 42.7102 60.0779C43.2916 59.8325 43.9716 59.0992 44.7502 57.8779C44.8889 57.6539 44.8462 57.4805 44.6222 57.3579L42.6063 56.2379C42.1263 55.6299 41.6117 55.1846 41.0624 54.9019C43.3237 54.5446 45.3636 54.63 47.1823 55.158C47.4063 55.222 47.6143 55.19 47.8063 55.062C48.777 54.4273 49.8117 54.3312 50.9103 54.7739Z" fill="#AE5E39"/>
<path d="M42.6063 56.2379L44.6222 57.3579C44.8462 57.4805 44.8889 57.6539 44.7502 57.8779C43.9716 59.0992 43.2916 59.8325 42.7102 60.0779C39.0676 61.5925 36.9209 64.3045 36.2702 68.2139C36.2644 68.2496 36.2664 68.2862 36.2763 68.3211C36.2861 68.356 36.3034 68.3883 36.327 68.4157C36.3507 68.4432 36.3801 68.4651 36.4131 68.48C36.4461 68.4949 36.482 68.5023 36.5182 68.5019C36.5982 68.5019 36.6862 68.5019 36.7822 68.5019C36.8356 68.5019 36.8756 68.4779 36.9022 68.4299C37.2969 67.7792 37.8089 67.2672 38.4382 66.8939C38.4976 66.8593 38.5659 66.8432 38.6344 66.8478C38.7029 66.8523 38.7685 66.8773 38.8228 66.9195C38.877 66.9616 38.9173 67.0191 38.9386 67.0844C38.9599 67.1497 38.9612 67.2198 38.9422 67.2859C37.6542 71.4619 39.1505 72.9181 40.1345 76.2461C40.1078 76.7687 40.361 77.55 40.8943 78.59C38.7717 78.11 37.4118 77.1205 36.8144 75.6219C34.5851 71.4939 34.1798 67.2565 35.5984 62.9099C36.7184 59.4752 39.0543 57.2513 42.6063 56.2379Z" fill="#EF8D50"/>
<path d="M51.4224 56.7179C53.5824 56.7899 56.9584 56.7579 58.3424 58.4939C60.9664 61.7739 54.9904 66.3419 52.3904 67.1179C49.9904 67.8379 47.8465 67.4434 45.9585 65.934C45.6918 65.294 45.2839 65.0539 44.7346 65.2139C44.4679 65.2939 44.3426 65.1952 44.3586 64.9179C44.3746 64.5712 44.5342 64.1394 44.8382 63.622C44.8969 63.8727 44.9825 64.054 45.0945 64.166C45.3505 64.4114 45.5398 64.3687 45.6625 64.038L45.8705 63.478C45.9665 63.2113 46.1371 63.0034 46.3825 62.854C47.4918 62.1767 48.3905 61.3073 49.0785 60.246C49.2278 60.022 49.2785 59.7767 49.2305 59.51C49.0225 58.2407 48.6305 57.6753 48.0545 57.8139L51.4224 56.7179Z" fill="#F4672F"/>
<path d="M48.0545 57.8139C48.6305 57.6753 49.0225 58.2407 49.2305 59.51C49.2785 59.7767 49.2278 60.022 49.0785 60.246C48.3905 61.3073 47.4918 62.1767 46.3825 62.854C46.1371 63.0034 45.9665 63.2113 45.8705 63.478L45.6625 64.038C45.5398 64.3687 45.3505 64.4114 45.0945 64.166C44.9825 64.054 44.8969 63.8727 44.8382 63.622C44.2462 61.3927 45.3185 59.4566 48.0545 57.8139Z" fill="#FAA36A"/>
<path d="M140.798 59.2459C142.788 59.6725 144.804 60.2781 146.846 61.0621C156.438 64.7421 158.03 76.6621 159.174 85.4541C159.244 85.9661 159.062 86.3634 158.63 86.6461C157.494 87.3874 156.737 87.5288 156.358 87.0701C154.438 79.8301 152.982 73.5101 148.094 68.8301C145.582 66.4301 141.694 64.5421 138.462 62.5021C138.228 62.3527 138.124 62.1394 138.15 61.8621C138.268 60.5607 139.15 59.6885 140.798 59.2459Z" fill="#4C1813"/>
<path d="M62.4225 60.9019C62.5825 60.5926 62.6039 60.3366 62.4865 60.1339C62.3265 59.8459 62.4092 59.7019 62.7345 59.7019H63.1425C63.2504 59.7018 63.3549 59.7393 63.4382 59.8079C63.5214 59.8766 63.5781 59.972 63.5985 60.0779C63.9399 61.7846 63.3745 63.1286 61.9025 64.1099C61.5985 64.3126 61.4172 64.2326 61.3585 63.8699C61.2145 62.9259 61.4412 62.1259 62.0385 61.4699C62.1932 61.2993 62.3212 61.1099 62.4225 60.9019Z" fill="#AE5E39"/>
<path d="M135.51 75.9019C135.233 76.6059 134.737 77.0459 134.022 77.2219C133.772 77.2859 133.566 77.4193 133.406 77.6219L132.638 78.5979C120.294 81.3659 108.959 85.278 95.6306 84.854C84.4573 84.502 73.7025 81.8035 63.3665 76.7581C63.1692 76.1661 63.2172 75.3768 63.5105 74.3901C63.6012 74.0915 63.7798 74.0248 64.0465 74.1901C72.2785 79.3181 81.7265 80.5981 91.2305 80.5021C105.846 80.3501 119.014 76.9901 130.806 67.9661C131.036 67.7901 131.217 67.8301 131.35 68.0861L135.51 75.9019Z" fill="#F89564"/>
<path d="M59.5745 69.014C57.9905 69.95 59.4225 71.75 59.0145 73.518C58.0145 77.75 58.3265 82.206 57.5345 85.494C55.5985 93.494 49.5985 99.91 43.8065 105.462C43.5413 105.712 43.2061 105.874 42.8465 105.926C41.7425 106.086 41.1985 105.758 41.2145 104.942C41.2199 104.675 41.0892 104.537 40.8225 104.526L39.3185 104.462C42.6225 102.462 44.7745 98.5821 47.1105 95.5901C51.1505 90.4141 52.5905 85.6941 52.1025 79.2781C52.0759 78.9261 51.9159 78.8488 51.6225 79.0461L49.8545 80.2381C49.6622 80.3678 49.4323 80.4323 49.1985 80.4221L45.2065 80.2621C45.1625 80.2599 45.1202 80.2431 45.0857 80.2144C45.0511 80.1856 45.0262 80.1463 45.0145 80.1021C44.9239 79.7395 44.7025 79.5048 44.3505 79.3981C44.2012 79.3501 44.1825 79.2755 44.2945 79.1741L44.5904 78.9099C50.1744 79.0699 55.3264 73.0779 57.4304 68.4619C57.5477 68.2059 57.7344 68.1393 57.9904 68.2619L59.5745 69.014Z" fill="#41120F"/>
<path d="M148.798 205.806L145.783 206.958C145.495 207.065 145.311 206.971 145.231 206.678L144.703 204.694C142.919 197.15 140.334 185.39 135.47 178.502L131.887 175.614C129.673 173.561 126.937 172.486 123.679 172.39C123.609 172.39 123.541 172.367 123.486 172.325C123.431 172.283 123.39 172.224 123.371 172.157C123.352 172.09 123.356 172.019 123.381 171.954C123.406 171.889 123.451 171.835 123.511 171.798L124.495 171.182C124.745 171.022 124.905 170.801 124.975 170.518C125.519 168.363 125.537 166.201 125.031 164.03C125.014 163.962 125.013 163.891 125.026 163.822C125.039 163.753 125.066 163.688 125.106 163.631C125.146 163.573 125.198 163.525 125.258 163.489C125.318 163.453 125.385 163.43 125.455 163.422C130.703 162.79 131.887 169.126 131.191 172.83C131.17 172.945 131.178 173.063 131.214 173.174C131.251 173.284 131.315 173.384 131.4 173.464C131.485 173.544 131.589 173.6 131.702 173.63C131.815 173.659 131.934 173.659 132.047 173.63C141.119 171.326 147.207 163.246 144.279 153.766C144.241 153.646 144.231 153.52 144.249 153.396C144.267 153.273 144.313 153.156 144.383 153.054C145.647 151.166 147.063 151.942 148.183 153.454C153.791 161.054 160.143 165.982 170.031 165.374C173.671 165.15 175.839 163.846 178.095 161.15C179.252 159.769 178.929 159.089 177.127 159.11C171.879 159.174 163.751 158.686 163.775 151.542C163.776 151.45 163.795 151.359 163.832 151.275C163.869 151.19 163.922 151.115 163.988 151.052C164.055 150.989 164.133 150.94 164.219 150.909C164.305 150.878 164.396 150.865 164.487 150.87C174.543 151.422 189.063 149.71 188.119 135.774C188.111 135.673 188.083 135.575 188.035 135.486C187.988 135.397 187.922 135.319 187.843 135.257C187.764 135.195 187.672 135.151 187.575 135.127C187.478 135.103 187.377 135.1 187.279 135.118C185.999 135.358 183.527 139.614 182.807 140.166C180.172 142.203 177.636 142.43 175.199 140.846C171.799 138.63 173.287 135.638 174.423 132.726L176.558 128.87C185.998 124.11 196.086 110.35 190.814 99.326C188.734 94.974 184.958 92.798 183.43 87.902C181.553 81.886 179.537 75.9767 177.382 70.1741C178.022 69.6354 178.476 69.3606 178.742 69.3499C179.484 69.3126 179.985 69.5206 180.246 69.9739C185.676 79.5046 190.222 89.2273 193.886 99.1419C194.35 100.398 194.102 101.078 193.702 102.262C193.662 102.383 193.666 102.514 193.713 102.631C193.76 102.748 193.847 102.844 193.958 102.902C194.732 103.307 194.974 103.811 194.686 104.414C194.58 104.654 194.572 104.897 194.662 105.142C195.174 106.481 195.417 107.465 195.39 108.094C195.134 113.334 196.854 118.542 195.734 123.662C194.678 128.534 194.414 133.302 192.91 138.102C192.617 139.035 192.414 140.262 192.302 141.782C192.182 143.438 191.502 145.11 191.534 146.766C191.726 155.174 188.63 161.398 185.806 168.574C185.246 169.998 183.91 171.166 183.526 172.95C183.468 173.206 183.324 173.395 183.094 173.518C181.878 174.153 180.998 175.075 180.454 176.286C180.332 176.553 180.156 176.777 179.926 176.958C178.508 178.067 177.342 179.395 176.43 180.942C176.362 181.055 176.264 181.147 176.147 181.208C176.03 181.269 175.898 181.296 175.766 181.286C174.668 181.211 173.897 181.681 173.454 182.694C173.348 182.945 173.161 183.102 172.894 183.166C171.796 183.433 170.854 183.958 170.07 184.742C169.862 184.945 169.625 185.097 169.358 185.198C165.43 186.67 164.39 191.87 162.814 195.358C162.692 195.619 162.497 195.798 162.23 195.894L160.638 196.446C160.403 196.53 160.195 196.676 160.038 196.87C159.174 197.931 158.15 198.79 156.966 199.446C156.764 199.558 156.641 199.729 156.598 199.958C156.476 200.598 156.052 200.886 155.326 200.822C155.293 200.819 155.262 200.829 155.24 200.85C155.218 200.871 155.207 200.902 155.208 200.935C155.209 200.969 155.222 201.003 155.246 201.031C155.269 201.059 155.301 201.079 155.334 201.086C155.5 201.118 155.673 201.126 155.854 201.11C156.276 201.062 156.302 201.145 155.934 201.358C154.886 201.966 154.278 202.486 152.99 202.63C150.804 202.875 149.406 203.934 148.798 205.806Z" fill="#FDB55D"/>
<path d="M183.743 92.1019L186.759 95.6219C186.875 95.7648 186.935 95.9453 186.926 96.1293C186.918 96.3132 186.843 96.4879 186.715 96.62C186.587 96.7522 186.414 96.8327 186.231 96.8463C186.047 96.86 185.865 96.8057 185.719 96.6939L180.982 92.8459L174.03 86.342C172.58 84.9873 171.95 85.2967 172.142 87.27L172.542 91.486C172.549 91.5554 172.537 91.6255 172.507 91.6882C172.476 91.751 172.429 91.8041 172.37 91.8414C172.311 91.8788 172.242 91.899 172.173 91.8998C172.103 91.9006 172.034 91.882 171.974 91.846C165.366 88.022 163.894 78.446 164.846 71.582C164.884 71.2887 165.052 71.1393 165.35 71.134C168.014 71.086 171.23 78.886 172.494 81.158C174.788 85.2487 178.537 88.8966 183.743 92.1019Z" fill="#4C1813"/>
<path d="M36.8144 75.6219C37.4118 77.1205 38.7717 78.11 40.8943 78.59L44.5904 78.9099L44.2945 79.1741C44.1825 79.2755 44.2012 79.3501 44.3505 79.3981C44.7025 79.5048 44.9239 79.7395 45.0145 80.1021C45.0262 80.1463 45.0511 80.1856 45.0857 80.2144C45.1202 80.2431 45.1625 80.2599 45.2065 80.2621L49.1985 80.4221C49.4323 80.4323 49.6622 80.3678 49.8545 80.2381L51.6225 79.0461C51.9159 78.8488 52.0759 78.9261 52.1025 79.2781C52.5905 85.6941 51.1505 90.4141 47.1105 95.5901C44.7745 98.5821 42.6225 102.462 39.3185 104.462L37.9505 105.19C37.6892 105.329 37.4359 105.318 37.1905 105.158C36.3905 104.635 35.8839 103.918 35.6705 103.006C35.6172 102.761 35.4652 102.659 35.2145 102.702C34.7399 102.771 34.3692 102.617 34.1025 102.238C34.0351 102.143 33.9368 102.075 33.8245 102.044C33.7123 102.013 33.5928 102.023 33.4865 102.07C32.6652 102.433 31.8599 102.433 31.0705 102.07C30.8145 101.953 30.5879 101.995 30.3905 102.198C29.0199 103.558 27.6225 104.865 26.1985 106.118C24.6945 107.454 19.7985 109.55 18.7825 106.27C18.4999 105.353 18.2092 104.441 17.9105 103.534C17.8893 103.434 17.8294 103.347 17.7438 103.292C17.6583 103.236 17.5543 103.217 17.4545 103.238C17.3548 103.259 17.2676 103.319 17.2121 103.405C17.1566 103.49 17.1373 103.594 17.1585 103.694C17.1905 104.025 17.1105 104.302 16.9185 104.526L16.7103 100.126C17.7023 87.6059 25.7504 80.1659 36.8144 75.6219ZM26.1663 85.726C27.5316 84.5313 28.9316 83.374 30.3663 82.254C32.1263 80.886 34.5503 79.766 36.3903 78.262C36.5132 78.1632 36.5959 78.023 36.6229 77.8677C36.6499 77.7123 36.6193 77.5525 36.5369 77.4181C36.4545 77.2836 36.3259 77.1839 36.1752 77.1375C36.0245 77.0911 35.862 77.1012 35.7183 77.166C34.0703 77.878 22.7743 83.758 25.5103 85.75C25.7343 85.9153 25.9529 85.9073 26.1663 85.726ZM37.5262 82.9739C34.9982 86.4032 31.7635 89.3126 27.8222 91.7019C27.7038 91.7763 27.6155 91.8902 27.573 92.0234C27.5306 92.1567 27.5367 92.3007 27.5902 92.4299C28.2036 93.8699 28.3636 95.3739 28.0702 96.9419C28.0453 97.0794 28.0517 97.2212 28.0891 97.3568C28.1264 97.4925 28.1938 97.6186 28.2862 97.7259C33.6302 103.894 40.4622 88.8699 41.4542 85.7739C41.9102 84.3579 41.7502 82.8299 41.7342 81.3419C41.7315 81.1789 41.6869 81.0193 41.6048 80.8784C41.5227 80.7375 41.4058 80.6201 41.2652 80.5374C41.1247 80.4547 40.9653 80.4094 40.8023 80.406C40.6393 80.4026 40.4781 80.4411 40.3342 80.5179C39.7582 80.8379 39.2062 80.7552 38.6782 80.2699C35.5822 77.9899 22.7906 88.8541 22.3266 92.3901C22.1506 93.7234 22.5906 93.9981 23.6466 93.2141L37.5262 82.9739Z" fill="#4C1813"/>
<path d="M135.51 75.9019C144.646 85.8779 155.63 95.4059 156.87 109.35C157.126 112.187 157.089 116.11 156.758 121.118L155.198 135.51C148.582 153.23 128.743 158.51 111.751 161.334L109.535 161.134C109.471 159.811 109.926 159.049 110.902 158.846C121.886 156.518 132.47 152.166 139.342 143.734C139.513 143.521 139.534 143.297 139.406 143.062L138.686 141.726C141.982 140.19 147.031 135.238 141.775 132.63C143.591 129.79 145.655 127.758 146.111 124.278C146.148 124.017 146.111 123.769 145.999 123.534C145.577 122.649 145.588 121.71 146.031 120.718C146.145 120.474 146.173 120.198 146.111 119.934C145.844 118.771 145.572 117.614 145.295 116.462C143.879 110.606 137.591 108.342 132.535 106.694C131.575 106.382 130.967 106.606 130.007 106.686C130 106.687 129.993 106.685 129.987 106.682C129.981 106.678 129.977 106.673 129.974 106.667C129.971 106.66 129.971 106.654 129.972 106.647C129.974 106.64 129.977 106.634 129.983 106.63L130.167 106.462C130.295 106.355 130.276 106.302 130.111 106.302H128.503C128.289 106.3 128.083 106.222 127.92 106.083C127.758 105.943 127.65 105.752 127.615 105.541C127.581 105.331 127.622 105.116 127.732 104.935C127.841 104.753 128.013 104.617 128.215 104.55C129.713 104.049 131.113 103.297 132.415 102.294C132.591 102.161 132.788 102.102 133.007 102.118C134.767 102.278 136.457 102.761 138.079 103.566C138.33 103.689 138.617 103.709 138.879 103.622L140.671 103.03L142.095 103.086C142.5 103.102 142.577 102.953 142.327 102.638C140.204 99.9553 137.601 97.8433 134.519 96.3019L135.11 94.694C135.161 94.5543 135.256 94.4354 135.381 94.3558C135.505 94.2761 135.652 94.2404 135.798 94.254L138.462 94.518C138.53 94.5257 138.598 94.5138 138.659 94.4836C138.72 94.4535 138.77 94.4064 138.805 94.3481C138.84 94.2898 138.857 94.2227 138.854 94.1549C138.852 94.0871 138.829 94.0215 138.79 93.966L138.406 93.406C138.241 93.1607 138.305 93.0327 138.598 93.022C139.809 92.958 140.78 92.462 141.51 91.534C141.702 91.2834 141.948 91.206 142.246 91.302L142.558 91.406C142.655 91.4338 142.758 91.4299 142.852 91.3951C142.947 91.3602 143.027 91.2961 143.083 91.2122C143.138 91.1283 143.165 91.0289 143.16 90.9285C143.155 90.8281 143.118 90.7319 143.054 90.654L132.638 78.5979L133.406 77.6219C133.566 77.4193 133.772 77.2859 134.022 77.2219C134.737 77.0459 135.233 76.6059 135.51 75.9019Z" fill="#FAA36A"/>
<path d="M63.3665 76.7581C73.7025 81.8035 84.4573 84.502 95.6306 84.854C108.959 85.278 120.294 81.3659 132.638 78.5979L143.054 90.654C143.118 90.7319 143.155 90.8281 143.16 90.9285C143.165 91.0289 143.138 91.1283 143.083 91.2122C143.027 91.2961 142.947 91.3602 142.852 91.3951C142.758 91.4299 142.655 91.4338 142.558 91.406L142.246 91.302C141.948 91.206 141.702 91.2834 141.51 91.534C140.78 92.462 139.809 92.958 138.598 93.022C138.305 93.0327 138.241 93.1607 138.406 93.406L138.79 93.966C138.829 94.0215 138.852 94.0871 138.854 94.1549C138.857 94.2227 138.84 94.2898 138.805 94.3481C138.77 94.4064 138.72 94.4535 138.659 94.4836C138.598 94.5138 138.53 94.5257 138.462 94.518L135.798 94.254C135.652 94.2404 135.505 94.2761 135.381 94.3558C135.256 94.4354 135.161 94.5543 135.11 94.694L134.519 96.3019C131.879 94.9259 123.094 91.0299 121.334 95.2699C120.545 97.1792 121.044 98.5072 122.83 99.2539C123.053 99.3471 123.301 99.3639 123.534 99.3019C129.678 97.6379 133.967 100.07 140.671 103.03L138.879 103.622C138.617 103.709 138.33 103.689 138.079 103.566C136.457 102.761 134.767 102.278 133.007 102.118C132.788 102.102 132.591 102.161 132.415 102.294C131.113 103.297 129.713 104.049 128.215 104.55C128.013 104.617 127.841 104.753 127.732 104.935C127.622 105.116 127.581 105.331 127.615 105.541C127.65 105.752 127.758 105.943 127.92 106.083C128.083 106.222 128.289 106.3 128.503 106.302H130.111C130.276 106.302 130.295 106.355 130.167 106.462L129.983 106.63C129.977 106.634 129.974 106.64 129.972 106.647C129.971 106.654 129.971 106.66 129.974 106.667C129.977 106.673 129.981 106.678 129.987 106.682C129.993 106.685 130 106.687 130.007 106.686C130.967 106.606 131.575 106.382 132.535 106.694C137.591 108.342 143.879 110.606 145.295 116.462C145.572 117.614 145.844 118.771 146.111 119.934C146.173 120.198 146.145 120.474 146.031 120.718C145.588 121.71 145.577 122.649 145.999 123.534C146.111 123.769 146.148 124.017 146.111 124.278C145.655 127.758 143.591 129.79 141.775 132.63C136.868 131.979 132.908 133.267 129.894 136.494C128.822 134.809 126.98 134.107 124.366 134.39C124.302 134.401 124.26 134.377 124.238 134.318C124.201 134.233 124.164 134.145 124.126 134.054C124.057 133.862 123.921 133.753 123.718 133.726C120.75 133.398 115.23 132.326 113.582 135.174C113.449 135.403 113.265 135.577 113.03 135.694C111.228 136.59 109.465 136.518 107.742 135.478C106.857 134.939 106.18 134.726 105.71 134.838C105.604 131.43 104.177 128.537 101.43 126.158C101.201 125.955 100.996 125.979 100.814 126.23C100.494 126.678 100.31 127.31 100.262 128.126L99.7982 124.518C99.9742 123.009 99.2596 122.187 97.6542 122.054C97.3929 122.033 97.1502 122.086 96.9262 122.214C91.9582 125.022 87.9822 118.238 85.3102 120.142C85.1236 120.275 84.9236 120.299 84.7102 120.214C84.2942 120.054 83.8622 120.065 83.4142 120.246C83.2782 102.83 61.6465 105.926 59.0705 120.574C58.4252 122.089 58.3319 123.873 58.7906 125.926C58.8652 126.273 58.7772 126.571 58.5266 126.822L57.4386 127.91C57.2199 128.134 57.2306 128.345 57.4706 128.542C60.9319 131.363 64.5426 133.982 68.3026 136.398C68.5692 136.569 68.6626 136.809 68.5826 137.118C67.8786 139.742 63.6226 139.574 61.3346 140.134C61.0803 140.196 60.8158 140.174 60.5826 140.07C59.3239 139.526 57.9132 139.579 56.3506 140.23C54.2012 136.379 52.7343 132.07 51.9503 127.302C51.8596 126.747 51.4249 126.542 50.6463 126.686L49.3824 114.502C49.0624 111.43 48.5424 106.862 50.2224 105.518C59.0544 98.4353 63.4358 88.8488 63.3665 76.7581ZM79.5582 98.662C80.8942 93.662 76.6622 93.462 73.3422 94.494C68.0302 96.142 63.6062 98.9713 60.0702 102.982C60.0016 103.061 59.9613 103.161 59.9556 103.265C59.9499 103.37 59.9791 103.473 60.0386 103.56C60.0982 103.646 60.1847 103.71 60.2846 103.741C60.3844 103.773 60.492 103.77 60.5902 103.734C63.3049 102.683 65.9902 101.627 68.6462 100.566C71.9982 99.222 74.9102 99.414 78.3902 99.526C79.0089 99.5473 79.3982 99.2593 79.5582 98.662ZM119.982 117.15C119.529 122.313 121.292 125.657 125.27 127.182C125.089 127.411 124.996 127.659 124.99 127.926C124.99 128.225 125.137 128.382 125.43 128.398C130.78 128.649 135.886 128.227 140.75 127.134C142.681 126.697 143.692 125.502 143.782 123.55C145.846 120.894 144.422 116.422 142.558 114.094C136.446 106.438 122.438 105.638 119.982 117.15Z" fill="#FBB380"/>
<path d="M25.5103 85.75C22.7743 83.758 34.0703 77.878 35.7183 77.166C35.862 77.1012 36.0245 77.0911 36.1752 77.1375C36.3259 77.1839 36.4545 77.2836 36.5369 77.4181C36.6193 77.5525 36.6499 77.7123 36.6229 77.8677C36.5959 78.023 36.5132 78.1632 36.3903 78.262C34.5503 79.766 32.1263 80.886 30.3663 82.254C28.9316 83.374 27.5316 84.5313 26.1663 85.726C25.9529 85.9073 25.7343 85.9153 25.5103 85.75Z" fill="#6D261A"/>
<path d="M38.6782 80.2699L37.5262 82.9739L23.6466 93.2141C22.5906 93.9981 22.1506 93.7234 22.3266 92.3901C22.7906 88.8541 35.5822 77.9899 38.6782 80.2699Z" fill="#F7CD97"/>
<path d="M38.6782 80.2699C39.2062 80.7552 39.7582 80.8379 40.3342 80.5179C40.4781 80.4411 40.6393 80.4026 40.8023 80.406C40.9653 80.4094 41.1247 80.4547 41.2652 80.5374C41.4058 80.6201 41.5227 80.7375 41.6048 80.8784C41.6869 81.0193 41.7315 81.1789 41.7342 81.3419C41.7502 82.8299 41.9102 84.3579 41.4542 85.7739C40.4622 88.8699 33.6302 103.894 28.2862 97.7259C28.1938 97.6186 28.1264 97.4925 28.0891 97.3568C28.0517 97.2212 28.0453 97.0794 28.0702 96.9419C28.3636 95.3739 28.2036 93.8699 27.5902 92.4299C27.5367 92.3007 27.5306 92.1567 27.573 92.0234C27.6155 91.8902 27.7038 91.7763 27.8222 91.7019C31.7635 89.3126 34.9982 86.4032 37.5262 82.9739L38.6782 80.2699Z" fill="#6D261A"/>
<path d="M16.7103 100.126L16.9185 104.526C18.3345 114.758 23.1183 119.326 29.8783 126.886L31.4703 132.278C31.7423 133.233 32.0222 134.169 32.3102 135.086C33.3822 138.526 31.3902 142.462 27.3822 142.118C22.9822 141.742 21.7662 138.806 19.7982 135.486C19.7571 135.413 19.6955 135.354 19.621 135.316C19.5465 135.278 19.4622 135.263 19.3783 135.272C19.2945 135.281 19.2147 135.315 19.1487 135.369C19.0826 135.422 19.0331 135.494 19.0062 135.574C16.0462 144.51 23.9342 150.766 31.3582 153.294C31.2889 153.721 31.0892 153.937 30.7585 153.942C30.5129 153.946 30.2724 154.013 30.0604 154.138C29.8485 154.262 29.6724 154.439 29.5492 154.652C29.426 154.865 29.3598 155.105 29.3573 155.351C29.3547 155.597 29.4158 155.839 29.5345 156.054C31.7692 160.107 34.0519 164.179 36.3825 168.27C36.9479 169.257 37.8279 169.606 39.0225 169.318C42.5105 168.486 41.1185 172.446 39.5025 172.262C39.3281 172.243 39.1519 172.277 38.9971 172.36C38.8423 172.442 38.716 172.57 38.6348 172.725C38.5535 172.881 38.5211 173.057 38.5418 173.232C38.5624 173.406 38.6352 173.57 38.7505 173.702C44.2625 179.846 49.7105 181.774 57.2945 183.35C57.7659 183.449 58.1914 183.701 58.5052 184.065C58.819 184.43 59.0037 184.887 59.0305 185.366L59.3665 191.15C59.3824 191.424 59.4619 191.689 59.5985 191.926C60.0252 192.662 60.0999 193.449 59.8225 194.286C59.7387 194.542 59.7277 194.819 59.7905 195.086L60.9185 199.886C60.9985 200.217 60.9212 200.507 60.6865 200.758C60.4785 200.982 60.3505 201.233 60.3025 201.51C60.2385 201.862 60.1825 201.934 60.1345 201.726C60.0599 201.406 59.8412 201.526 59.4785 202.086C59.4254 202.167 59.3889 202.258 59.3711 202.355C59.3532 202.451 59.3544 202.55 59.3745 202.646L59.7265 204.326C28.5745 189.278 6.59821 159.87 1.67821 125.526L0.782209 115.702C1.89688 114.614 2.39288 113.326 2.27021 111.838C1.96621 108.182 1.59021 103.358 2.53421 99.83C2.91821 98.4007 3.05688 96.9207 2.95021 95.39C2.92888 95.0967 3.05154 94.8913 3.31821 94.774L5.14221 93.958C5.44087 93.8247 5.56888 93.5953 5.52621 93.27L5.49421 93.022C5.47288 92.862 5.52887 92.734 5.66221 92.638L16.1102 85.422C16.2431 85.3306 16.3954 85.2711 16.5551 85.2481C16.7148 85.2252 16.8777 85.2394 17.031 85.2898C17.1843 85.3401 17.3239 85.4251 17.4389 85.5383C17.554 85.6514 17.6413 85.7896 17.6942 85.942C18.9982 89.59 16.1262 94.526 15.3582 99.022C15.3155 99.278 15.3635 99.5153 15.5022 99.734C16.3342 101.051 16.737 101.182 16.7103 100.126ZM9.31849 126.142C8.50782 127.641 8.37449 129.19 8.91849 130.79C9.06782 131.243 9.35582 131.361 9.78249 131.142L11.2625 130.39C11.3302 130.355 11.3893 130.306 11.4355 130.246C11.4817 130.185 11.5136 130.116 11.529 130.042C11.5444 129.968 11.5428 129.892 11.5244 129.819C11.5059 129.746 11.4711 129.679 11.4225 129.622C10.6705 128.731 10.4385 127.769 10.7265 126.734C10.7648 126.588 10.7462 126.434 10.6747 126.303C10.6032 126.172 10.4842 126.074 10.3425 126.03L9.91849 125.894C9.80523 125.86 9.68354 125.865 9.57415 125.911C9.46476 125.956 9.37442 126.038 9.31849 126.142Z" fill="#FCC467"/>
<path d="M134.519 96.3019C137.601 97.8433 140.204 99.9553 142.327 102.638C142.577 102.953 142.5 103.102 142.095 103.086L140.671 103.03C133.967 100.07 129.678 97.6379 123.534 99.3019C123.301 99.3639 123.053 99.3471 122.83 99.2539C121.044 98.5072 120.545 97.1792 121.334 95.2699C123.094 91.0299 131.879 94.9259 134.519 96.3019Z" fill="#1A060F"/>
<path d="M73.3422 94.494C76.6622 93.462 80.8942 93.662 79.5582 98.662C79.3982 99.2593 79.0089 99.5473 78.3902 99.526C74.9102 99.414 71.9982 99.222 68.6462 100.566C65.9902 101.627 63.3049 102.683 60.5902 103.734C60.492 103.77 60.3844 103.773 60.2846 103.741C60.1847 103.71 60.0982 103.646 60.0386 103.56C59.9791 103.473 59.9499 103.37 59.9556 103.265C59.9613 103.161 60.0016 103.061 60.0702 102.982C63.6062 98.9713 68.0302 96.142 73.3422 94.494Z" fill="#1A060F"/>
<path d="M143.782 123.55C142.593 116.953 138.782 113.129 132.35 112.078C130.862 111.838 129.537 112.27 128.374 113.374C128.284 113.459 128.219 113.567 128.185 113.687C128.152 113.806 128.15 113.933 128.182 114.054C128.558 115.534 130.302 118.318 132.118 116.702C132.289 116.995 132.596 117.265 133.038 117.51C133.278 117.638 133.324 117.817 133.174 118.046C132.086 119.726 130.638 119.958 129.078 120.686C126.494 121.878 124.134 121.438 122.222 119.318C122.046 119.121 121.926 118.897 121.862 118.646C121.644 117.835 121.017 117.337 119.982 117.15C122.438 105.638 136.446 106.438 142.558 114.094C144.422 116.422 145.846 120.894 143.782 123.55Z" fill="#1A060F"/>
<path d="M83.4142 120.246L81.6943 124.654C80.8677 124.051 80.1692 123.747 79.5985 123.742C79.3159 123.742 79.0519 123.673 78.8065 123.534C76.5132 122.238 74.0839 121.297 71.5185 120.71C71.3836 120.679 71.2611 120.609 71.1669 120.508C71.0727 120.406 71.0112 120.279 70.9905 120.142C70.8572 119.246 70.9132 118.409 71.1585 117.63C75.4145 117.462 75.1025 111.118 69.8545 112.534C65.0385 113.83 62.0812 116.958 60.9825 121.918C60.9292 122.158 60.9452 122.393 61.0305 122.622C61.1905 123.043 61.2572 123.499 61.2305 123.99C60.4518 123.313 59.7318 122.174 59.0705 120.574C61.6465 105.926 83.2782 102.83 83.4142 120.246Z" fill="#1A060F"/>
<path d="M176.558 128.87L174.423 132.726C169.969 137.403 164.55 138.899 158.166 137.214C160.806 135.454 166.462 131.038 165.798 127.502C164.993 123.235 162.42 120.31 158.078 118.726C164.55 105.91 178.67 113.334 176.99 125.286C176.841 126.342 176.697 127.537 176.558 128.87Z" fill="#F18B5E"/>
<path d="M143.782 123.55C143.692 125.502 142.681 126.697 140.75 127.134C135.886 128.227 130.78 128.649 125.43 128.398C125.137 128.382 124.99 128.225 124.99 127.926C124.996 127.659 125.089 127.411 125.27 127.182C134.534 129.902 139.007 114.294 132.215 113.67C131.916 113.643 131.782 113.779 131.814 114.078L132.118 116.702C130.302 118.318 128.558 115.534 128.182 114.054C128.15 113.933 128.152 113.806 128.185 113.687C128.219 113.567 128.284 113.459 128.374 113.374C129.537 112.27 130.862 111.838 132.35 112.078C138.782 113.129 142.593 116.953 143.782 123.55Z" fill="#F8F5F3"/>
<path d="M43.4385 112.342C41.7851 114.214 40.601 116.049 39.8863 117.846C38.4783 121.366 37.3983 124.982 36.6463 128.694C36.593 128.966 36.6276 129.23 36.7503 129.486C37.7636 131.523 38.8943 133.497 40.1423 135.406C40.3076 135.667 40.5343 135.851 40.8223 135.958C42.1503 136.481 43.2356 137.166 44.0783 138.014C40.7716 138.19 37.849 137.361 35.3103 135.526C35.3743 134.534 34.9986 133.681 34.1826 132.966C33.9692 132.774 33.8172 132.542 33.7266 132.27C33.2786 130.889 32.6172 129.614 31.7426 128.446C31.5666 128.217 31.4866 127.958 31.5026 127.67C31.8279 121.313 34.6493 116.374 39.9666 112.854C40.3506 112.342 41.5078 112.171 43.4385 112.342Z" fill="#F89564"/>
<path d="M43.4385 112.342L49.3824 114.502L50.6463 126.686L51.8063 136.27C49.0969 137.785 46.521 138.366 44.0783 138.014C43.2356 137.166 42.1503 136.481 40.8223 135.958C40.5343 135.851 40.3076 135.667 40.1423 135.406C38.8943 133.497 37.7636 131.523 36.7503 129.486C36.6276 129.23 36.593 128.966 36.6463 128.694C37.3983 124.982 38.4783 121.366 39.8863 117.846C40.601 116.049 41.7851 114.214 43.4385 112.342Z" fill="#EA8359"/>
<path d="M71.1585 117.63L70.9502 115.646C70.9182 115.369 70.7662 115.259 70.4942 115.318C69.5662 115.51 69.0222 116.081 68.8622 117.03C68.0356 121.798 69.7876 125.459 74.1182 128.014C71.6169 128.227 69.0943 128.062 66.5503 127.518C64.3903 127.054 62.0625 126.238 61.2305 123.99C61.2572 123.499 61.1905 123.043 61.0305 122.622C60.9452 122.393 60.9292 122.158 60.9825 121.918C62.0812 116.958 65.0385 113.83 69.8545 112.534C75.1025 111.118 75.4145 117.462 71.1585 117.63Z" fill="#F8F5F3"/>
<path d="M39.9666 112.854C34.6493 116.374 31.8279 121.313 31.5026 127.67C31.4866 127.958 31.5666 128.217 31.7426 128.446C32.6172 129.614 33.2786 130.889 33.7266 132.27C33.8172 132.542 33.9692 132.774 34.1826 132.966C34.9986 133.681 35.3743 134.534 35.3103 135.526C33.7903 134.87 32.5103 133.787 31.4703 132.278L29.8783 126.886C29.2463 120.374 32.7506 113.358 39.9666 112.854Z" fill="#F7CD97"/>
<path d="M125.27 127.182C121.292 125.657 119.529 122.313 119.982 117.15C121.017 117.337 121.644 117.835 121.862 118.646C121.926 118.897 122.046 119.121 122.222 119.318C124.134 121.438 126.494 121.878 129.078 120.686C130.638 119.958 132.086 119.726 133.174 118.046C133.324 117.817 133.278 117.638 133.038 117.51C132.596 117.265 132.289 116.995 132.118 116.702L131.814 114.078C131.782 113.779 131.916 113.643 132.215 113.67C139.007 114.294 134.534 129.902 125.27 127.182Z" fill="#510607"/>
<path d="M71.1585 117.63C70.9132 118.409 70.8572 119.246 70.9905 120.142C71.0112 120.279 71.0727 120.406 71.1669 120.508C71.2611 120.609 71.3836 120.679 71.5185 120.71C74.0839 121.297 76.5132 122.238 78.8065 123.534C79.0519 123.673 79.3159 123.742 79.5985 123.742C80.1692 123.747 80.8677 124.051 81.6943 124.654C80.0943 127.065 77.5689 128.185 74.1182 128.014C69.7876 125.459 68.0356 121.798 68.8622 117.03C69.0222 116.081 69.5662 115.51 70.4942 115.318C70.7662 115.259 70.9182 115.369 70.9502 115.646L71.1585 117.63Z" fill="#510607"/>
<path d="M158.078 118.726C162.42 120.31 164.993 123.235 165.798 127.502C166.462 131.038 160.806 135.454 158.166 137.214C157.174 136.926 156.185 136.358 155.198 135.51L156.758 121.118L158.078 118.726Z" fill="#F47453"/>
<path d="M99.7982 124.518C97.9636 127.147 97.1796 130.051 97.4463 133.23C97.1689 133.491 97.0705 133.881 97.1505 134.398C97.6785 137.59 103.054 136.934 105.022 135.558C105.15 135.526 105.38 135.286 105.71 134.838C106.18 134.726 106.857 134.939 107.742 135.478C109.465 136.518 111.228 136.59 113.03 135.694C113.265 135.577 113.449 135.403 113.582 135.174C115.23 132.326 120.75 133.398 123.718 133.726C123.921 133.753 124.057 133.862 124.126 134.054C124.164 134.145 124.201 134.233 124.238 134.318C124.26 134.377 124.302 134.401 124.366 134.39C126.98 134.107 128.822 134.809 129.894 136.494C126.262 141.638 135.646 142.854 138.686 141.726L139.406 143.062C139.534 143.297 139.513 143.521 139.342 143.734C132.47 152.166 121.886 156.518 110.902 158.846C109.926 159.049 109.471 159.811 109.535 161.134L95.6783 160.854C93.273 160.737 91.1532 160.286 89.3185 159.502C85.6012 157.774 81.6812 156.641 77.5586 156.102C77.4679 156.091 77.4066 156.043 77.3746 155.958C77.3479 155.899 77.3266 155.833 77.3106 155.758C77.2885 155.674 77.2465 155.597 77.1879 155.533C77.1294 155.469 77.0562 155.42 76.9746 155.39C67.3506 151.998 63.0786 148.206 56.3506 140.23C57.9132 139.579 59.3239 139.526 60.5826 140.07C60.8158 140.174 61.0803 140.196 61.3346 140.134C63.6226 139.574 67.8786 139.742 68.5826 137.118C68.6626 136.809 68.5692 136.569 68.3026 136.398C64.5426 133.982 60.9319 131.363 57.4706 128.542C57.2306 128.345 57.2199 128.134 57.4386 127.91L58.5266 126.822C58.7772 126.571 58.8652 126.273 58.7906 125.926C58.3319 123.873 58.4252 122.089 59.0705 120.574C59.7318 122.174 60.4518 123.313 61.2305 123.99C62.0625 126.238 64.3903 127.054 66.5503 127.518C69.0943 128.062 71.6169 128.227 74.1182 128.014C77.5689 128.185 80.0943 127.065 81.6943 124.654L83.4142 120.246C83.8622 120.065 84.2942 120.054 84.7102 120.214C84.9236 120.299 85.1236 120.275 85.3102 120.142C87.9822 118.238 91.9582 125.022 96.9262 122.214C97.1502 122.086 97.3929 122.033 97.6542 122.054C99.2596 122.187 99.9742 123.009 99.7982 124.518ZM99.0303 155.942C102.998 156.395 106.652 155.603 109.99 153.566C114.748 150.867 117.257 146.771 117.518 141.278C117.529 141.001 117.404 140.905 117.142 140.99C107.729 144.099 98.3344 144.043 88.9584 140.822C88.7131 140.737 88.5931 140.822 88.5984 141.078C88.8597 148.454 92.3369 153.409 99.0303 155.942Z" fill="#FCC093"/>
<path d="M99.7982 124.518L100.262 128.126C100.518 129.747 100.404 131.342 99.9185 132.91C99.2785 132.793 98.4543 132.899 97.4463 133.23C97.1796 130.051 97.9636 127.147 99.7982 124.518Z" fill="#FCE4AD"/>
<path d="M9.31849 126.142C9.37442 126.038 9.46476 125.956 9.57415 125.911C9.68354 125.865 9.80523 125.86 9.91849 125.894L10.3425 126.03C10.4842 126.074 10.6032 126.172 10.6747 126.303C10.7462 126.434 10.7648 126.588 10.7265 126.734C10.4385 127.769 10.6705 128.731 11.4225 129.622C11.4711 129.679 11.5059 129.746 11.5244 129.819C11.5428 129.892 11.5444 129.968 11.529 130.042C11.5136 130.116 11.4817 130.185 11.4355 130.246C11.3893 130.306 11.3302 130.355 11.2625 130.39L9.78249 131.142C9.35582 131.361 9.06782 131.243 8.91849 130.79C8.37449 129.19 8.50782 127.641 9.31849 126.142Z" fill="#FDD784"/>
<path d="M105.71 134.838C105.38 135.286 105.15 135.526 105.022 135.558C100.628 136.459 98.9265 135.577 99.9185 132.91C100.404 131.342 100.518 129.747 100.262 128.126C100.31 127.31 100.494 126.678 100.814 126.23C100.996 125.979 101.201 125.955 101.43 126.158C104.177 128.537 105.604 131.43 105.71 134.838Z" fill="#FAA36A"/>
<path d="M56.3506 140.23C63.0786 148.206 67.3506 151.998 76.9746 155.39C77.0562 155.42 77.1294 155.469 77.1879 155.533C77.2465 155.597 77.2885 155.674 77.3106 155.758C77.3266 155.833 77.3479 155.899 77.3746 155.958C77.4066 156.043 77.4679 156.091 77.5586 156.102C81.6812 156.641 85.6012 157.774 89.3185 159.502C75.4145 158.054 56.9743 150.342 51.8063 136.27L50.6463 126.686C51.4249 126.542 51.8596 126.747 51.9503 127.302C52.7343 132.07 54.2012 136.379 56.3506 140.23Z" fill="#F7CD97"/>
<path d="M31.4703 132.278C32.5103 133.787 33.7903 134.87 35.3103 135.526C37.849 137.361 40.7716 138.19 44.0783 138.014C46.521 138.366 49.0969 137.785 51.8063 136.27C56.9743 150.342 75.4145 158.054 89.3185 159.502C91.1532 160.286 93.273 160.737 95.6783 160.854C95.8303 165.286 93.5584 170.822 96.4784 173.382C99.1398 175.713 102.542 177.387 106.686 178.406C100.313 178.587 95.9479 175.79 93.5906 170.014C93.5473 169.909 93.4704 169.821 93.3719 169.765C93.2735 169.708 93.159 169.686 93.0466 169.702C92.8706 169.729 92.7052 169.798 92.5506 169.91C90.4812 170.006 88.3236 170.686 86.0783 171.95C84.7183 171.614 83.1372 171.99 81.3345 173.078C79.6332 173.478 77.8279 174.39 75.9185 175.814C76.2172 175.275 76.6012 174.851 77.0705 174.542L82.1905 171.766C82.4038 171.649 82.4998 171.47 82.4785 171.23C82.1265 166.606 79.6625 163.902 75.0865 163.118C74.9573 163.095 74.8243 163.099 74.6951 163.129C74.5659 163.16 74.4433 163.216 74.3345 163.294C71.6785 165.182 71.2785 169.67 71.7665 172.454L72.1344 174.206C72.1713 174.387 72.1618 174.574 72.1065 174.75C72.0513 174.926 71.9523 175.085 71.8187 175.212C71.6851 175.339 71.5214 175.43 71.3429 175.477C71.1644 175.524 70.977 175.524 70.7984 175.478C64.457 173.841 60.6064 169.817 59.2464 163.406C59.1397 162.915 58.9637 162.889 58.7184 163.326C55.5584 168.966 51.7344 171.63 44.9024 168.942C44.6537 168.844 44.4438 168.666 44.3054 168.437C44.167 168.207 44.1077 167.939 44.1369 167.674C44.1661 167.408 44.2821 167.161 44.4668 166.969C44.6515 166.777 44.8946 166.653 45.1584 166.614C50.8464 165.758 53.9424 158.486 48.7184 154.646C48.4997 154.486 48.257 154.435 47.9904 154.494C42.353 155.769 36.8089 155.369 31.3582 153.294C23.9342 150.766 16.0462 144.51 19.0062 135.574C19.0331 135.494 19.0826 135.422 19.1487 135.369C19.2147 135.315 19.2945 135.281 19.3783 135.272C19.4622 135.263 19.5465 135.278 19.621 135.316C19.6955 135.354 19.7571 135.413 19.7982 135.486C21.7662 138.806 22.9822 141.742 27.3822 142.118C31.3902 142.462 33.3822 138.526 32.3102 135.086C32.0222 134.169 31.7423 133.233 31.4703 132.278Z" fill="#1A060F"/>
<path d="M141.775 132.63C147.031 135.238 141.982 140.19 138.686 141.726C135.646 142.854 126.262 141.638 129.894 136.494C132.908 133.267 136.868 131.979 141.775 132.63Z" fill="#F47453"/>
<path d="M99.9185 132.91C98.9265 135.577 100.628 136.459 105.022 135.558C103.054 136.934 97.6785 137.59 97.1505 134.398C97.0705 133.881 97.1689 133.491 97.4463 133.23C98.4543 132.899 99.2785 132.793 99.9185 132.91Z" fill="#EA8359"/>
<path d="M174.423 132.726C173.287 135.638 171.799 138.63 175.199 140.846C177.636 142.43 180.172 142.203 182.807 140.166C183.527 139.614 185.999 135.358 187.279 135.118C187.377 135.1 187.478 135.103 187.575 135.127C187.672 135.151 187.764 135.195 187.843 135.257C187.922 135.319 187.988 135.397 188.035 135.486C188.083 135.575 188.111 135.673 188.119 135.774C189.063 149.71 174.543 151.422 164.487 150.87C164.396 150.865 164.305 150.878 164.219 150.909C164.133 150.94 164.055 150.989 163.988 151.052C163.922 151.115 163.869 151.19 163.832 151.275C163.795 151.359 163.776 151.45 163.775 151.542C163.751 158.686 171.879 159.174 177.127 159.11C178.929 159.089 179.252 159.769 178.095 161.15C175.839 163.846 173.671 165.15 170.031 165.374C160.143 165.982 153.791 161.054 148.183 153.454C147.063 151.942 145.647 151.166 144.383 153.054C144.313 153.156 144.267 153.273 144.249 153.396C144.231 153.52 144.241 153.646 144.279 153.766C147.207 163.246 141.119 171.326 132.047 173.63C131.934 173.659 131.815 173.659 131.702 173.63C131.589 173.6 131.485 173.544 131.4 173.464C131.315 173.384 131.251 173.284 131.214 173.174C131.178 173.063 131.17 172.945 131.191 172.83C131.887 169.126 130.703 162.79 125.455 163.422C125.385 163.43 125.318 163.453 125.258 163.489C125.198 163.525 125.146 163.573 125.106 163.631C125.066 163.688 125.039 163.753 125.026 163.822C125.013 163.891 125.014 163.962 125.031 164.03C125.537 166.201 125.519 168.363 124.975 170.518C124.905 170.801 124.745 171.022 124.495 171.182L123.511 171.798C123.451 171.835 123.406 171.889 123.381 171.954C123.356 172.019 123.352 172.09 123.371 172.157C123.39 172.224 123.431 172.283 123.486 172.325C123.541 172.367 123.609 172.39 123.679 172.39C126.937 172.486 129.673 173.561 131.887 175.614C128.607 173.939 125.574 173.094 122.79 173.078C122.646 173.078 122.506 173.124 122.389 173.208C122.273 173.293 122.186 173.413 122.142 173.55C121.358 176.014 120.105 177.571 118.382 178.222L120.302 175.526C121.252 174.822 121.868 173.566 122.15 171.758C122.204 171.438 122.073 171.235 121.758 171.15L119.166 170.414C118.841 170.323 118.617 170.433 118.494 170.742C117.321 173.803 115.494 176.073 113.014 177.55C106.038 182.046 99.8251 181.489 94.3744 175.878C99.4464 179.766 104.529 180.609 109.622 178.406C113.073 177.067 115.374 175.057 116.526 172.374C116.623 172.147 116.671 171.902 116.666 171.655C116.661 171.408 116.604 171.165 116.498 170.942C116.392 170.719 116.24 170.521 116.052 170.361C115.864 170.201 115.644 170.083 115.406 170.014C114.34 169.71 113.398 169.198 112.582 168.478C112.367 168.288 112.235 168.024 112.214 167.742L111.751 161.334C128.743 158.51 148.582 153.23 155.198 135.51C156.185 136.358 157.174 136.926 158.166 137.214C164.55 138.899 169.969 137.403 174.423 132.726Z" fill="#1A060F"/>
<path d="M109.99 153.566C110.054 152.638 110.572 151.985 111.542 151.606C111.65 151.564 111.743 151.49 111.807 151.393C111.871 151.297 111.904 151.183 111.9 151.067C111.897 150.951 111.857 150.839 111.787 150.746C111.718 150.654 111.621 150.585 111.51 150.55C109.596 149.931 107.678 149.502 105.758 149.262C101.79 148.758 100.334 151.406 97.9023 153.55C97.6676 153.758 97.6409 153.987 97.8223 154.238L99.0303 155.942C92.3369 153.409 88.8597 148.454 88.5984 141.078C88.5931 140.822 88.7131 140.737 88.9584 140.822C98.3344 144.043 107.729 144.099 117.142 140.99C117.404 140.905 117.529 141.001 117.518 141.278C117.257 146.771 114.748 150.867 109.99 153.566Z" fill="#510607"/>
<path d="M109.99 153.566C106.652 155.603 102.998 156.395 99.0303 155.942L97.8223 154.238C97.6409 153.987 97.6676 153.758 97.9023 153.55C100.334 151.406 101.79 148.758 105.758 149.262C107.678 149.502 109.596 149.931 111.51 150.55C111.621 150.585 111.718 150.654 111.787 150.746C111.857 150.839 111.897 150.951 111.9 151.067C111.904 151.183 111.871 151.297 111.807 151.393C111.743 151.49 111.65 151.564 111.542 151.606C110.572 151.985 110.054 152.638 109.99 153.566Z" fill="#932318"/>
<path d="M31.3582 153.294C36.8089 155.369 42.353 155.769 47.9904 154.494C48.257 154.435 48.4997 154.486 48.7184 154.646C53.9424 158.486 50.8464 165.758 45.1584 166.614C44.8946 166.653 44.6515 166.777 44.4668 166.969C44.2821 167.161 44.1661 167.408 44.1369 167.674C44.1077 167.939 44.167 168.207 44.3054 168.437C44.4438 168.666 44.6537 168.844 44.9024 168.942C51.7344 171.63 55.5584 168.966 58.7184 163.326C58.9637 162.889 59.1397 162.915 59.2464 163.406C60.6064 169.817 64.457 173.841 70.7984 175.478C70.977 175.524 71.1644 175.524 71.3429 175.477C71.5214 175.43 71.6851 175.339 71.8187 175.212C71.9523 175.085 72.0513 174.926 72.1065 174.75C72.1618 174.574 72.1713 174.387 72.1344 174.206L71.7665 172.454C72.8598 172.987 73.4973 173.793 73.6786 174.87C73.7799 175.489 74.0839 175.614 74.5906 175.246C75.7693 174.403 76.5959 174.169 77.0705 174.542C76.6012 174.851 76.2172 175.275 75.9185 175.814L73.0545 178.406C73.0278 178.267 73.0011 178.15 72.9744 178.054C72.9051 177.766 72.7558 177.718 72.5265 177.91C66.7505 182.718 66.3184 187.502 64.6224 194.254C64.1158 196.275 63.7823 198.318 63.6223 200.382C63.8143 201.849 63.5664 203.393 62.8784 205.014C62.761 205.286 62.5637 205.371 62.2863 205.27L59.7265 204.326L59.3745 202.646C59.3544 202.55 59.3532 202.451 59.3711 202.355C59.3889 202.258 59.4254 202.167 59.4785 202.086C59.8412 201.526 60.0599 201.406 60.1345 201.726C60.1825 201.934 60.2385 201.862 60.3025 201.51C60.3505 201.233 60.4785 200.982 60.6865 200.758C60.9212 200.507 60.9985 200.217 60.9185 199.886L59.7905 195.086C59.7277 194.819 59.7387 194.542 59.8225 194.286C60.0999 193.449 60.0252 192.662 59.5985 191.926C59.4619 191.689 59.3824 191.424 59.3665 191.15L59.0305 185.366C59.0037 184.887 58.819 184.43 58.5052 184.065C58.1914 183.701 57.7659 183.449 57.2945 183.35C49.7105 181.774 44.2625 179.846 38.7505 173.702C38.6352 173.57 38.5624 173.406 38.5418 173.232C38.5211 173.057 38.5535 172.881 38.6348 172.725C38.716 172.57 38.8423 172.442 38.9971 172.36C39.1519 172.277 39.3281 172.243 39.5025 172.262C41.1185 172.446 42.5105 168.486 39.0225 169.318C37.8279 169.606 36.9479 169.257 36.3825 168.27C34.0519 164.179 31.7692 160.107 29.5345 156.054C29.4158 155.839 29.3547 155.597 29.3573 155.351C29.3598 155.105 29.426 154.865 29.5492 154.652C29.6724 154.439 29.8485 154.262 30.0604 154.138C30.2724 154.013 30.5129 153.946 30.7585 153.942C31.0892 153.937 31.2889 153.721 31.3582 153.294Z" fill="#FDB55D"/>
<path d="M109.535 161.134L111.751 161.334L112.214 167.742C112.235 168.024 112.367 168.288 112.582 168.478C113.398 169.198 114.34 169.71 115.406 170.014C115.644 170.083 115.864 170.201 116.052 170.361C116.24 170.521 116.392 170.719 116.498 170.942C116.604 171.165 116.661 171.408 116.666 171.655C116.671 171.902 116.623 172.147 116.526 172.374C115.374 175.057 113.073 177.067 109.622 178.406C108.481 178.102 107.502 178.102 106.686 178.406C102.542 177.387 99.1398 175.713 96.4784 173.382C93.5584 170.822 95.8303 165.286 95.6783 160.854L109.535 161.134Z" fill="#EA8359"/>
<path d="M77.0705 174.542C76.5959 174.169 75.7693 174.403 74.5906 175.246C74.0839 175.614 73.7799 175.489 73.6786 174.87C73.4973 173.793 72.8598 172.987 71.7665 172.454C71.2785 169.67 71.6785 165.182 74.3345 163.294C74.4433 163.216 74.5659 163.16 74.6951 163.129C74.8243 163.099 74.9573 163.095 75.0865 163.118C79.6625 163.902 82.1265 166.606 82.4785 171.23C82.4998 171.47 82.4038 171.649 82.1905 171.766L77.0705 174.542Z" fill="#FBAE5B"/>
<path d="M106.686 178.406C107.502 178.102 108.481 178.102 109.622 178.406C104.529 180.609 99.4464 179.766 94.3744 175.878L90.6862 173.118C90.4729 172.958 90.2329 172.883 89.9662 172.894C89.1662 172.931 88.4409 172.734 87.7902 172.302C87.4489 172.078 87.4782 171.921 87.8782 171.83C88.8782 171.598 92.7186 171.078 92.5506 169.91C92.7052 169.798 92.8706 169.729 93.0466 169.702C93.159 169.686 93.2735 169.708 93.3719 169.765C93.4704 169.821 93.5473 169.909 93.5906 170.014C95.9479 175.79 100.313 178.587 106.686 178.406Z" fill="#C8CD9C"/>
<path d="M92.5506 169.91C92.7186 171.078 88.8782 171.598 87.8782 171.83C87.4782 171.921 87.4489 172.078 87.7902 172.302C88.4409 172.734 89.1662 172.931 89.9662 172.894C90.2329 172.883 90.4729 172.958 90.6862 173.118L94.3744 175.878C99.8251 181.489 106.038 182.046 113.014 177.55C114.396 178.35 113.937 178.907 111.639 179.222C111.335 179.265 111.135 179.43 111.039 179.718L110.951 179.998C110.932 180.061 110.93 180.127 110.943 180.191C110.957 180.255 110.987 180.314 111.029 180.363C111.071 180.412 111.126 180.449 111.186 180.47C111.246 180.492 111.311 180.497 111.375 180.486C114.601 179.937 117.577 178.283 120.302 175.526L118.382 178.222C113.886 180.451 109.393 182.681 104.902 184.91C104.094 185.31 102.838 185.166 102.038 184.75C95.7236 181.481 90.4036 177.214 86.0783 171.95C88.3236 170.686 90.4812 170.006 92.5506 169.91Z" fill="#F8F5F3"/>
<path d="M120.302 175.526C117.577 178.283 114.601 179.937 111.375 180.486C111.311 180.497 111.246 180.492 111.186 180.47C111.126 180.449 111.071 180.412 111.029 180.363C110.987 180.314 110.957 180.255 110.943 180.191C110.93 180.127 110.932 180.061 110.951 179.998L111.039 179.718C111.135 179.43 111.335 179.265 111.639 179.222C113.937 178.907 114.396 178.35 113.014 177.55C115.494 176.073 117.321 173.803 118.494 170.742C118.617 170.433 118.841 170.323 119.166 170.414L121.758 171.15C122.073 171.235 122.204 171.438 122.15 171.758C121.868 173.566 121.252 174.822 120.302 175.526Z" fill="#5D976A"/>
<path d="M86.0783 171.95C90.4036 177.214 95.7236 181.481 102.038 184.75C102.838 185.166 104.094 185.31 104.902 184.91C109.393 182.681 113.886 180.451 118.382 178.222C120.105 177.571 121.358 176.014 122.142 173.55C122.186 173.413 122.273 173.293 122.389 173.208C122.506 173.124 122.646 173.078 122.79 173.078C125.574 173.094 128.607 173.939 131.887 175.614L135.47 178.502C135.31 179.003 134.865 179.027 134.134 178.574C133.798 178.366 133.665 178.457 133.734 178.846C133.756 178.969 133.809 179.073 133.894 179.158C134.15 179.419 134.166 179.697 133.942 179.99C131.166 183.502 127.726 191.094 131.462 195.086C134.318 198.134 135.91 201.462 135.894 205.686C135.894 206.657 136.004 207.731 136.222 208.91C134.1 210.601 131.366 211.497 128.022 211.598C128.316 202.979 127.076 194.211 124.302 185.294C124.238 185.086 124.098 184.909 123.91 184.798C123.722 184.688 123.5 184.65 123.286 184.694L113.87 186.582L109.43 186.902C107.654 186.699 106.902 187.227 107.174 188.486C108.646 195.23 108.598 202.422 109.91 209.198C110.23 211.305 110.03 212.843 109.31 213.814L106.343 187.11C106.327 186.963 106.28 186.822 106.204 186.696C106.128 186.569 106.026 186.461 105.904 186.378C105.782 186.295 105.644 186.239 105.499 186.215C105.353 186.191 105.205 186.199 105.063 186.238C103.985 186.526 103.132 186.347 102.503 185.702L100.158 184.662C94.8304 180.99 89.9904 178.134 85.8624 173.03C85.6651 172.785 85.4304 172.742 85.1584 172.902C83.4704 173.886 82.1664 174.67 81.5984 176.734C80.9478 179.075 80.2891 181.401 79.6224 183.71C79.2331 183.721 79.0756 183.643 79.1502 183.478L81.3345 173.078C83.1372 171.99 84.7183 171.614 86.0783 171.95Z" fill="#27424E"/>
<path d="M100.158 184.662C100.26 185.179 100.585 185.595 101.134 185.91C101.038 186.411 100.873 186.731 100.638 186.87C100.592 186.899 100.541 186.918 100.487 186.926C100.433 186.933 100.379 186.929 100.326 186.914C100.274 186.899 100.226 186.873 100.184 186.838C100.143 186.803 100.11 186.759 100.086 186.71C99.777 186.043 99.2624 185.843 98.5424 186.11C96.665 186.814 94.4677 187.054 91.9503 186.83C91.417 186.777 91.0757 187.166 90.9263 187.998L90.3026 188.118C90.0786 188.161 89.9319 188.075 89.8626 187.862C89.6706 187.291 89.6866 186.787 89.9106 186.35C90.0812 186.035 89.9932 185.825 89.6466 185.718C89.4439 185.654 89.2066 185.729 88.9346 185.942C88.6786 185.83 88.409 185.902 88.1264 186.158L86.7584 185.894C86.7637 185.793 86.7639 185.705 86.7585 185.63C86.7479 185.47 86.6625 185.382 86.5025 185.366L79.6865 184.622C79.4252 184.595 79.3132 184.454 79.3505 184.198C79.3719 184.006 79.4624 183.843 79.6224 183.71C80.2891 181.401 80.9478 179.075 81.5984 176.734C82.1664 174.67 83.4704 173.886 85.1584 172.902C85.4304 172.742 85.6651 172.785 85.8624 173.03C89.9904 178.134 94.8304 180.99 100.158 184.662Z" fill="#507B65"/>
<path d="M81.3345 173.078L79.1502 183.478C76.7502 186.886 76.2384 192.342 75.1264 196.438C75.0304 196.795 74.8437 196.849 74.5664 196.598C72.1984 194.414 71.4304 191.158 69.9424 187.99C69.8784 187.041 69.5663 186.27 69.0063 185.678C68.8196 185.481 68.7769 185.254 68.8783 184.998C69.1609 184.315 69.2836 183.606 69.2463 182.87L73.0545 178.406L75.9185 175.814C77.8279 174.39 79.6332 173.478 81.3345 173.078Z" fill="#356E6E"/>
<path d="M73.0545 178.406L69.2463 182.87C66.5343 186.462 65.5825 192.358 65.1505 196.678L63.6223 200.382C63.7823 198.318 64.1158 196.275 64.6224 194.254C66.3184 187.502 66.7505 182.718 72.5265 177.91C72.7558 177.718 72.9051 177.766 72.9744 178.054C73.0011 178.15 73.0278 178.267 73.0545 178.406Z" fill="#FCE4AD"/>
<path d="M135.47 178.502C140.334 185.39 142.919 197.15 144.703 204.694C144.137 205.435 143.974 206.254 144.214 207.15C144.278 207.385 144.198 207.553 143.974 207.654C141.366 208.827 138.782 209.246 136.222 208.91C136.004 207.731 135.894 206.657 135.894 205.686C135.91 201.462 134.318 198.134 131.462 195.086C127.726 191.094 131.166 183.502 133.942 179.99C134.166 179.697 134.15 179.419 133.894 179.158C133.809 179.073 133.756 178.969 133.734 178.846C133.665 178.457 133.798 178.366 134.134 178.574C134.865 179.027 135.31 179.003 135.47 178.502Z" fill="#2D5259"/>
<path d="M69.2463 182.87C69.2836 183.606 69.1609 184.315 68.8783 184.998C68.7769 185.254 68.8196 185.481 69.0063 185.678C69.5663 186.27 69.8784 187.041 69.9424 187.99C68.0064 189.254 73.8144 197.638 74.6704 198.806C74.7447 198.907 74.7886 199.026 74.7971 199.151C74.8057 199.276 74.7783 199.4 74.7184 199.51L69.9905 208.158L64.1825 206.23C64.0137 206.175 63.8702 206.061 63.7777 205.909C63.6853 205.756 63.6501 205.575 63.6785 205.398L65.1505 196.678C65.5825 192.358 66.5343 186.462 69.2463 182.87Z" fill="#2D5259"/>
<path d="M79.1502 183.478C79.0756 183.643 79.2331 183.721 79.6224 183.71C79.4624 183.843 79.3719 184.006 79.3505 184.198C79.3132 184.454 79.4252 184.595 79.6865 184.622L86.5025 185.366C86.6625 185.382 86.7479 185.47 86.7585 185.63C86.7639 185.705 86.7637 185.793 86.7584 185.894C86.065 186.182 85.3345 186.206 84.5665 185.966C84.3425 185.897 84.2145 185.979 84.1825 186.214L84.1505 186.43C84.1185 186.659 84.2198 186.79 84.4545 186.822C85.3905 186.942 88.6064 188.302 88.1264 186.158C88.409 185.902 88.6786 185.83 88.9346 185.942L89.0543 187.942C89.0756 188.278 88.9209 188.438 88.5902 188.422L83.7342 188.214C83.5262 188.203 83.4169 188.302 83.4062 188.51L83.1822 193.166C83.1662 193.47 83.3102 193.635 83.6142 193.662C88.7556 194.051 93.9584 193.993 99.2224 193.486C99.8784 193.662 99.9877 194.59 99.5504 196.27C95.1077 196.419 90.6652 196.569 86.2225 196.718C83.8625 196.798 81.8385 197.102 81.7745 193.918C81.7372 192.307 81.9425 190.513 82.3905 188.534C82.4492 188.257 82.4332 187.985 82.3425 187.718C82.1025 187.003 82.3398 186.494 83.0545 186.19C83.1065 186.169 83.151 186.133 83.1824 186.087C83.2138 186.041 83.2306 185.986 83.2306 185.93C83.2306 185.874 83.2138 185.819 83.1824 185.773C83.151 185.727 83.1065 185.691 83.0545 185.67C82.2972 185.366 81.5612 185.315 80.8465 185.518C80.5318 185.609 80.3532 185.817 80.3105 186.142L78.2705 201.918L77.1184 210.886C74.6651 210.363 72.2892 209.454 69.9905 208.158L74.7184 199.51C74.7783 199.4 74.8057 199.276 74.7971 199.151C74.7886 199.026 74.7447 198.907 74.6704 198.806C73.8144 197.638 68.0064 189.254 69.9424 187.99C71.4304 191.158 72.1984 194.414 74.5664 196.598C74.8437 196.849 75.0304 196.795 75.1264 196.438C76.2384 192.342 76.7502 186.886 79.1502 183.478Z" fill="#14262A"/>
<path d="M100.158 184.662L102.503 185.702C102.337 185.659 102.113 185.793 101.831 186.102C101.751 185.915 101.518 185.851 101.134 185.91C100.585 185.595 100.26 185.179 100.158 184.662Z" fill="#6DAF96"/>
<path d="M128.022 211.598L117.463 213.222C115.884 209.67 113.366 208.329 109.91 209.198C108.598 202.422 108.646 195.23 107.174 188.486C106.902 187.227 107.654 186.699 109.43 186.902C109.004 188.155 109.014 189.486 109.462 190.894C109.537 191.134 109.686 191.313 109.91 191.43C111.814 192.43 113.358 190.782 114.942 190.054C115.15 189.958 115.19 189.819 115.062 189.638C114.476 188.779 114.078 187.761 113.87 186.582L123.286 184.694C123.5 184.65 123.722 184.688 123.91 184.798C124.098 184.909 124.238 185.086 124.302 185.294C127.076 194.211 128.316 202.979 128.022 211.598ZM122.543 199.862C122.543 198.935 122.174 198.046 121.519 197.39C120.863 196.734 119.974 196.366 119.047 196.366C118.119 196.366 117.23 196.734 116.575 197.39C115.919 198.046 115.551 198.935 115.551 199.862C115.551 200.321 115.641 200.776 115.817 201.2C115.992 201.624 116.25 202.009 116.575 202.334C116.899 202.659 117.285 202.916 117.709 203.092C118.133 203.268 118.587 203.358 119.047 203.358C119.506 203.358 119.96 203.268 120.384 203.092C120.809 202.916 121.194 202.659 121.519 202.334C121.843 202.009 122.101 201.624 122.276 201.2C122.452 200.776 122.543 200.321 122.543 199.862ZM124.279 209.582C124.473 209.39 124.6 209.14 124.641 208.869C124.682 208.599 124.633 208.323 124.504 208.082C124.374 207.841 124.169 207.649 123.921 207.534C123.673 207.42 123.394 207.389 123.127 207.446C121.767 207.75 121.017 208.494 120.879 209.678C120.847 209.966 120.969 210.147 121.247 210.222C122.473 210.569 123.484 210.355 124.279 209.582Z" fill="#507B65"/>
<path d="M99.5504 196.27L99.1743 200.75C96.033 201.23 93.4892 202.505 91.5425 204.574C91.4748 204.645 91.3871 204.693 91.2911 204.714C91.1952 204.734 91.0956 204.724 91.0059 204.687C90.9161 204.649 90.8404 204.586 90.789 204.504C90.7377 204.422 90.7131 204.327 90.7185 204.23C90.7878 202.774 90.0625 201.963 88.5425 201.798C85.1558 201.43 81.7318 201.47 78.2705 201.918L80.3105 186.142C80.3532 185.817 80.5318 185.609 80.8465 185.518C81.5612 185.315 82.2972 185.366 83.0545 185.67C83.1065 185.691 83.151 185.727 83.1824 185.773C83.2138 185.819 83.2306 185.874 83.2306 185.93C83.2306 185.986 83.2138 186.041 83.1824 186.087C83.151 186.133 83.1065 186.169 83.0545 186.19C82.3398 186.494 82.1025 187.003 82.3425 187.718C82.4332 187.985 82.4492 188.257 82.3905 188.534C81.9425 190.513 81.7372 192.307 81.7745 193.918C81.8385 197.102 83.8625 196.798 86.2225 196.718C90.6652 196.569 95.1077 196.419 99.5504 196.27Z" fill="#5D976A"/>
<path d="M90.9263 187.998L98.6623 187.71C98.732 187.708 98.8013 187.719 98.8663 187.744C98.9313 187.769 98.9905 187.806 99.0405 187.854C99.0905 187.902 99.1303 187.959 99.1574 188.022C99.1845 188.085 99.1984 188.153 99.1983 188.222L99.2224 193.486C93.9584 193.993 88.7556 194.051 83.6142 193.662C83.3102 193.635 83.1662 193.47 83.1822 193.166L83.4062 188.51C83.4169 188.302 83.5262 188.203 83.7342 188.214L88.5902 188.422C88.9209 188.438 89.0756 188.278 89.0543 187.942L88.9346 185.942C89.2066 185.729 89.4439 185.654 89.6466 185.718C89.9932 185.825 90.0812 186.035 89.9106 186.35C89.6866 186.787 89.6706 187.291 89.8626 187.862C89.9319 188.075 90.0786 188.161 90.3026 188.118L90.9263 187.998Z" fill="#7F8060"/>
<path d="M102.503 185.702C103.132 186.347 103.985 186.526 105.063 186.238C105.205 186.199 105.353 186.191 105.499 186.215C105.644 186.239 105.782 186.295 105.904 186.378C106.026 186.461 106.128 186.569 106.204 186.696C106.28 186.822 106.327 186.963 106.343 187.11L109.31 213.814C109.332 213.867 109.351 213.923 109.367 213.982L100.751 214.03C100.473 214.03 100.343 213.894 100.359 213.622L101.831 186.102C102.113 185.793 102.337 185.659 102.503 185.702Z" fill="#F8F5F3"/>
<path d="M86.7584 185.894L88.1264 186.158C88.6064 188.302 85.3905 186.942 84.4545 186.822C84.2198 186.79 84.1185 186.659 84.1505 186.43L84.1825 186.214C84.2145 185.979 84.3425 185.897 84.5665 185.966C85.3345 186.206 86.065 186.182 86.7584 185.894Z" fill="#A5CBA5"/>
<path d="M113.87 186.582C114.078 187.761 114.476 188.779 115.062 189.638C115.19 189.819 115.15 189.958 114.942 190.054C113.358 190.782 111.814 192.43 109.91 191.43C109.686 191.313 109.537 191.134 109.462 190.894C109.014 189.486 109.004 188.155 109.43 186.902L113.87 186.582Z" fill="#C8CD9C"/>
<path d="M119.047 203.358C120.977 203.358 122.543 201.793 122.543 199.862C122.543 197.931 120.977 196.366 119.047 196.366C117.116 196.366 115.551 197.931 115.551 199.862C115.551 201.793 117.116 203.358 119.047 203.358Z" fill="#FCC467"/>
<path d="M99.1743 200.75C99.7023 203.385 99.4038 205.971 98.2785 208.51L94.7662 208.55C94.5476 208.555 94.3849 208.657 94.2782 208.854L93.9502 209.486C93.9369 209.514 93.9321 209.544 93.9366 209.575C93.941 209.605 93.9545 209.633 93.9753 209.656C93.996 209.678 94.023 209.694 94.0528 209.701C94.0826 209.708 94.1138 209.705 94.1422 209.694C95.1022 209.273 96.2119 209.713 97.4705 211.014C97.7105 211.755 97.6599 212.574 97.3185 213.47C97.2225 213.737 97.0359 213.849 96.7585 213.806L77.1184 210.886L78.2705 201.918C81.7318 201.47 85.1558 201.43 88.5425 201.798C90.0625 201.963 90.7878 202.774 90.7185 204.23C90.7131 204.327 90.7377 204.422 90.789 204.504C90.8404 204.586 90.9161 204.649 91.0059 204.687C91.0956 204.724 91.1952 204.734 91.2911 204.714C91.3871 204.693 91.4748 204.645 91.5425 204.574C93.4892 202.505 96.033 201.23 99.1743 200.75ZM85.9583 208.942L85.3743 208.894C85.3003 208.888 85.2261 208.904 85.1611 208.939C85.0961 208.975 85.0431 209.029 85.0089 209.095C84.9747 209.161 84.9607 209.236 84.9688 209.31C84.9769 209.383 85.0066 209.453 85.0543 209.51C85.3103 209.819 85.6249 210.062 85.9983 210.238C86.0451 210.26 86.0959 210.271 86.1477 210.272C86.1994 210.273 86.2508 210.263 86.2989 210.242C86.3469 210.222 86.3904 210.192 86.4268 210.154C86.4632 210.116 86.4916 210.071 86.5103 210.022L87.0303 208.59C87.0676 208.478 87.0303 208.438 86.9183 208.47C86.7636 208.518 86.6329 208.601 86.5263 208.718C86.3716 208.883 86.1823 208.958 85.9583 208.942Z" fill="#356E6E"/>
<path d="M124.279 209.582C123.484 210.355 122.473 210.569 121.247 210.222C120.969 210.147 120.847 209.966 120.879 209.678C121.017 208.494 121.767 207.75 123.127 207.446C123.394 207.389 123.673 207.42 123.921 207.534C124.169 207.649 124.374 207.841 124.504 208.082C124.633 208.323 124.682 208.599 124.641 208.869C124.6 209.14 124.473 209.39 124.279 209.582Z" fill="#FCC467"/>
<path d="M86.5263 208.718C86.6329 208.601 86.7636 208.518 86.9183 208.47C87.0303 208.438 87.0676 208.478 87.0303 208.59L86.5103 210.022C86.4916 210.071 86.4632 210.116 86.4268 210.154C86.3904 210.192 86.3469 210.222 86.2989 210.242C86.2508 210.263 86.1994 210.273 86.1477 210.272C86.0959 210.271 86.0451 210.26 85.9983 210.238C85.6249 210.062 85.3103 209.819 85.0543 209.51C85.0066 209.453 84.9769 209.383 84.9688 209.31C84.9607 209.236 84.9747 209.161 85.0089 209.095C85.0431 209.029 85.0961 208.975 85.1611 208.939C85.2261 208.904 85.3003 208.888 85.3743 208.894L85.9583 208.942C86.1823 208.958 86.3716 208.883 86.5263 208.718Z" fill="#A5CBA5"/>
<path d="M98.2785 208.51L97.4705 211.014C96.2119 209.713 95.1022 209.273 94.1422 209.694C94.1138 209.705 94.0826 209.708 94.0528 209.701C94.023 209.694 93.996 209.678 93.9753 209.656C93.9545 209.633 93.941 209.605 93.9366 209.575C93.9321 209.544 93.9369 209.514 93.9502 209.486L94.2782 208.854C94.3849 208.657 94.5476 208.555 94.7662 208.55L98.2785 208.51Z" fill="#5DA491"/>
<path d="M117.463 213.222C114.94 214.139 112.241 214.393 109.367 213.982C109.351 213.923 109.332 213.867 109.31 213.814C110.03 212.843 110.23 211.305 109.91 209.198C113.366 208.329 115.884 209.67 117.463 213.222Z" fill="#FDD784"/>
</svg>
